<?xml version="1.0" encoding="utf-8"?>
<!-- Generator: Adobe Illustrator 25.4.1, SVG Export Plug-In . SVG Version: 6.00 Build 0)  -->
<svg version="1.1" id="OBJECTS" xmlns="http://www.w3.org/2000/svg" xmlns:xlink="http://www.w3.org/1999/xlink" x="0px" y="0px"
	 viewBox="0 0 500 500" style="enable-background:new 0 0 500 500;" xml:space="preserve">
<style type="text/css">
	.st0{clip-path:url(#SVGID_00000034770244166675668880000006540307369529667225_);}
	.st1{fill:#0F7641;stroke:#4B8220;stroke-width:2.8005;stroke-linecap:round;stroke-linejoin:round;stroke-miterlimit:10;}
	
		.st2{opacity:0.4;fill:#FFFFFF;stroke:#FFFFFF;stroke-width:2.8005;stroke-linecap:round;stroke-linejoin:round;stroke-miterlimit:10;enable-background:new    ;}
	.st3{fill:#FFD0C5;stroke:#000000;stroke-width:1.7503;stroke-linecap:round;stroke-linejoin:round;stroke-miterlimit:10;}
	.st4{fill:#FFFFFF;stroke:#000000;stroke-width:1.7503;stroke-linecap:round;stroke-linejoin:round;stroke-miterlimit:10;}
	.st5{fill:none;stroke:#000000;stroke-width:1.0502;stroke-linecap:round;stroke-linejoin:round;stroke-miterlimit:10;}
	
		.st6{opacity:0.3;stroke:#000000;stroke-width:2.1003;stroke-linecap:round;stroke-linejoin:round;stroke-miterlimit:10;enable-background:new    ;}
	.st7{fill:#CDFFCC;stroke:#000000;stroke-width:1.7503;stroke-linecap:round;stroke-linejoin:round;stroke-miterlimit:10;}
	.st8{fill:#FFD0C5;}
	.st9{fill:#664319;stroke:#000000;stroke-width:1.7503;stroke-linecap:round;stroke-linejoin:round;stroke-miterlimit:10;}
	
		.st10{opacity:0.5;fill:none;stroke:#000000;stroke-width:1.0502;stroke-linecap:round;stroke-linejoin:round;stroke-miterlimit:10;enable-background:new    ;}
	.st11{stroke:#000000;stroke-width:0.7001;stroke-linecap:round;stroke-linejoin:round;stroke-miterlimit:10;}
	.st12{stroke:#000000;stroke-width:0.3501;stroke-linecap:round;stroke-linejoin:round;stroke-miterlimit:10;}
	.st13{fill:#FFFFFF;}
	.st14{fill:#88A8BC;stroke:#000000;stroke-width:1.0502;stroke-linecap:round;stroke-linejoin:round;stroke-miterlimit:10;}
	.st15{fill:#7C87A5;stroke:#000000;stroke-width:1.0502;stroke-linecap:round;stroke-linejoin:round;stroke-miterlimit:10;}
	.st16{fill:none;stroke:#000000;stroke-width:1.7503;stroke-linecap:round;stroke-linejoin:round;stroke-miterlimit:10;}
	
		.st17{opacity:0.4;stroke:#000000;stroke-width:0.7001;stroke-linecap:round;stroke-linejoin:round;stroke-miterlimit:10;enable-background:new    ;}
	.st18{stroke:#000000;stroke-width:1.0502;stroke-linecap:round;stroke-linejoin:round;stroke-miterlimit:10;}
	.st19{fill:#FFFFFF;stroke:#000000;stroke-width:1.0502;stroke-linecap:round;stroke-linejoin:round;stroke-miterlimit:10;}
	.st20{fill:none;stroke:#000000;stroke-width:2.8005;stroke-linecap:round;stroke-linejoin:round;stroke-miterlimit:10;}
	.st21{fill:#4D753E;stroke:#000000;stroke-width:1.7503;stroke-linecap:round;stroke-linejoin:round;stroke-miterlimit:10;}
	.st22{opacity:0.5;fill:#FFFFFF;enable-background:new    ;}
	
		.st23{opacity:0.3;fill:none;stroke:#000000;stroke-width:2.1003;stroke-linecap:round;stroke-linejoin:round;stroke-miterlimit:10;enable-background:new    ;}
	
		.st24{opacity:0.5;fill:none;stroke:#FFFFFF;stroke-width:2.1003;stroke-linecap:round;stroke-linejoin:round;stroke-miterlimit:10;enable-background:new    ;}
	
		.st25{opacity:0.4;fill:none;stroke:#FFFFFF;stroke-width:2.1003;stroke-linecap:round;stroke-linejoin:round;stroke-miterlimit:10;enable-background:new    ;}
	
		.st26{opacity:0.4;fill:none;stroke:#FFFFFF;stroke-width:1.4002;stroke-linecap:round;stroke-linejoin:round;stroke-miterlimit:10;enable-background:new    ;}
</style>
<g>
	<g>
		<defs>
			<path id="SVGID_1_" d="M415.7,486.4H84.3c-6.2,0-11.2-5-11.2-11.2V24.8c0-6.2,5-11.2,11.2-11.2h331.5c6.2,0,11.2,5,11.2,11.2
				v450.5C426.9,481.4,421.9,486.4,415.7,486.4z"/>
		</defs>
		<clipPath id="SVGID_00000091709019466833811030000003909708832299639172_">
			<use xlink:href="#SVGID_1_"  style="overflow:visible;"/>
		</clipPath>
		<g id="XMLID_3_" style="clip-path:url(#SVGID_00000091709019466833811030000003909708832299639172_);">
			<path id="XMLID_2854_" class="st1" d="M416,486.8H84.5c-6.2,0-11.2-5-11.2-11.2V153.3c0-6.2,5-11.2,11.2-11.2H416
				c6.2,0,11.2,5,11.2,11.2v322.3C427.2,481.8,422.2,486.8,416,486.8z"/>
			<path id="XMLID_3048_" class="st2" d="M375,441.3c0.5-0.6,0.6-1.5,0.3-2.2c-30-74.2-60.1-72.6-63.3-72.2h-28.6
				c-1.6-0.9-8.5-5.4-9.9-19.5c77.2-12.2,81.8-75.4,82-78.3c0.1-1.3,0.1-2.5,0.2-3.8c0.4,0.1,0.9,0.2,1.3,0.2c2.1,0,4.3-0.8,6.5-2.3
				c0.3-0.2,0.6-0.5,1-0.8c1.3,0.5,2.7,0.8,4.2,0.8c2.3,0,5-0.6,7.9-1.8c14.8-6,20.1-23.6,20.1-36.8c0-16.2-3.8-27.9-11.3-34.6
				c-0.5-0.5-1-0.8-1.5-1.2c0.9-6.6,1.4-13.3,1.4-20.1c0-79-60.5-143.3-134.9-143.3S115.5,89.7,115.5,168.7c0,7.4,0.5,14.8,1.6,22
				c-0.6,0.4-1.2,0.8-1.8,1.4c-7.5,6.7-11.3,18.4-11.3,34.6c0,12.7,4.9,29.4,18.4,36V287c0,15.7,12.8,28.5,28.5,28.5h13.9v0.8
				c0,4.7,3.7,8.5,8.3,8.5h1.3c12,10.2,28.9,18.9,52.8,22.6c-1.4,14.1-8.3,18.7-9.9,19.5h-28.6c-3.2-0.4-33.3-2-63.3,72.2
				c-0.3,0.7-0.2,1.6,0.3,2.2c0.1,0.1,0.6,0.8,1.5,1.8c-5.6,16.4-10.6,35.8-14.3,58.5c-0.1,0.7,0.1,1.3,0.5,1.8s1.1,0.8,1.7,0.8
				h47.8c1.2,0,2.2-0.9,2.3-2.1c0-0.2,1.1-15.1,7.1-36c0.9,0.2,1.9,0.4,2.9,0.7c-1.5,21.1-1.9,34.8-1.9,35.1c0,0.6,0.2,1.2,0.6,1.6
				c0.4,0.4,1,0.7,1.6,0.7h149.9c0.6,0,1.2-0.2,1.6-0.7c0.4-0.4,0.7-1,0.6-1.6c0-0.3-0.4-14-1.9-35.1c1-0.2,1.9-0.4,2.9-0.7
				c6,20.9,7.1,35.8,7.1,36c0.1,1.2,1.1,2.1,2.3,2.1h47.8c0.7,0,1.3-0.3,1.7-0.8c0.4-0.5,0.6-1.2,0.5-1.8
				c-3.7-22.7-8.7-42.1-14.3-58.5C374.4,442.1,374.9,441.4,375,441.3z M371.6,184.2C371.6,184.2,371.5,184.2,371.6,184.2
				c-0.2,0-0.5,0-0.6,0c-0.3,0-0.5,0-0.7,0s-0.4,0-0.5,0c-0.3,0-0.5,0-0.5,0c-3.3,0.4-5.8,2-7.5,4c-3.2,0.5-6.1,2.2-8.4,5h-2.9
				c0-4.5,0.3-10.5,1.2-18.2c5.7-45.6-2.1-73.5-24.1-85.1c-0.3-0.1-3.4-1.5-7.7-2.4c-0.8-14.2-4.6-24.1-11.6-29.3
				c-0.6-0.4-1.1-0.7-1.7-1.1c38.9,21.7,65.6,65.2,65.6,115.2C372.1,176.3,371.9,180.3,371.6,184.2z M294.9,54.2
				c-5.9-4.2-11.9-5.6-15.8-6.1c-0.7-0.6-1.5-1.1-2.3-1.7c-0.8-0.6-1.7-1-2.5-1.5C285,47.2,295.1,51,304.6,56
				C300.9,54.3,297.3,54.1,294.9,54.2z M156.3,93.7c1.1,0.5,2.3,0,2.9-1c2-3.6,5-6.3,8.5-8.2c-1.7,3.4-2.8,7.2-3.1,11.5
				c-15.3,13.9-20.4,39.9-15.5,79.1c1,7.7,1.3,13.6,1.2,18.2h-3c-2.9-3.5-6.7-5.3-10.8-5.1c-1.4-0.9-3.1-1.6-5.1-1.8l0,0
				c0,0-0.2,0-0.5,0c-0.1,0-0.2,0-0.2,0c-0.3,0-0.6,0-1,0c-0.1,0-0.3,0-0.4,0c-0.5-4.6-0.8-9.2-0.8-13.9c0-30.5,9.9-58.5,26.5-80.7
				C154.9,92.5,155.4,93.3,156.3,93.7z M129.4,287v-21.9c0.8,0.1,1.6,0.2,2.3,0.2c2.3,0,4.2-0.6,5.9-1.7c2,1.2,3.9,1.8,5.8,1.8
				c0.5,0,0.9-0.1,1.3-0.2c0.1,1.2,0.1,2.5,0.2,3.8c0.1,1.5,1.4,20.2,14.3,39.1h-8.6C139,308.2,129.4,298.7,129.4,287z"/>
			<g id="XMLID_343_">
				<path id="XMLID_2850_" class="st3" d="M188.4,369.2C168.5,369,130.8,405.4,115,502h47.8c0,0,2.6-37.9,24-78.8
					C186.7,423.2,195.3,389,188.4,369.2z"/>
				<path id="XMLID_2849_" class="st4" d="M127.4,440c0,0,12.5,17.3,49.8,25l4.5-31.6l6.7-64.2C188.4,369.2,158,364,127.4,440z"/>
				<path id="XMLID_2848_" class="st3" d="M312.2,369.2c19.9-0.2,57.6,36.2,73.4,132.8h-47.8c0,0-2.6-37.9-24-78.8
					C313.8,423.2,305.2,389,312.2,369.2z"/>
				<path id="XMLID_2847_" class="st4" d="M312.2,369.2h-56.9h-9.9h-56.9c-11.2,67.6-13,132.8-13,132.8h70h9.9h70
					C325.2,502,323.4,436.8,312.2,369.2z"/>
				<path id="XMLID_2846_" class="st4" d="M373.2,440c0,0-12.5,17.3-49.8,25l-4.5-31.6l-6.7-64.2C312.2,369.2,342.5,364,373.2,440z"
					/>
				<path id="XMLID_2845_" class="st5" d="M290.5,369.3c0,0-0.1,0-0.2-0.1h-35.1h-9.9h-35.1c-0.1,0.1-0.2,0.1-0.2,0.1
					c11.5,15.7,32.7,25.6,41.8,27.3C251.8,396.6,277.3,388.7,290.5,369.3z"/>
				<path id="XMLID_2844_" class="st3" d="M282.9,369.2c0,0-13.5-5.6-11.7-31.5h-18.1h-5.7h-18.1c1.7,25.9-11.7,31.5-11.7,31.5
					c9.3,12.2,26.5,19.9,33.9,21.2C251.5,390.4,272.2,384.3,282.9,369.2z"/>
				<path id="XMLID_369_" class="st5" d="M131.7,430.5c0,0,14.1,20,46.4,26.4"/>
				<path id="XMLID_370_" class="st5" d="M368.6,430.5c0,0-14.1,20-46.4,26.4"/>
				<path id="XMLID_374_" class="st6" d="M271.2,337.6h-18.1h-5.7h-18.1c0.5,7.3-0.2,12.9-1.5,17.3c6.1,1,12.6,1.6,19.7,1.8v0.1
					c0.9,0,1.8-0.1,2.8-0.1c0.9,0,1.8,0.1,2.8,0.1v-0.1c7-0.2,13.6-0.9,19.7-1.8C271.4,350.5,270.7,344.9,271.2,337.6z"/>
				<path id="XMLID_2843_" class="st7" d="M132,212.6c-3.8-12.7-5.9-26.2-5.9-40.3c0-73,55.6-132.2,124.1-132.2
					c68.6,0,124.1,59.2,124.1,132.2c0,14-2.1,27.6-5.9,40.3c1.3,4.1,2.4,8.4,3.3,12.7c7.1-17.3,11.1-36.4,11.1-56.5
					c0-77.9-59.4-141-132.7-141s-132.7,63.1-132.7,141c0,20.1,4,39.2,11.1,56.5C129.6,221,130.7,216.7,132,212.6z"/>
				<path id="XMLID_2787_" class="st3" d="M338.3,162.5c-2-81.9-73.1-78.3-88-76.6c-14.9-1.6-86-5.2-88,76.6
					c-0.5,62.8-18.2,55.9-15,106.4c0.9,15.6,14.8,75.2,100.3,78.1v0.1c0.9,0,1.8-0.1,2.8-0.1c0.9,0,1.8,0.1,2.8,0.1V347
					c85.5-2.9,99.4-62.5,100.3-78.1C356.5,218.5,338.7,225.3,338.3,162.5z"/>
				<path id="XMLID_731_" class="st6" d="M338.3,162.5c-2-81.9-73.1-78.3-88-76.6c-14.9-1.6-86-5.2-88,76.6
					c-0.5,62.8-18.2,55.9-15,106.4c0.9,15.6,14.8,75.2,100.3,78.1v0.1c0.9,0,1.8-0.1,2.8-0.1c0.9,0,1.8,0.1,2.8,0.1V347
					c85.5-2.9,99.4-62.5,100.3-78.1C356.5,218.5,338.7,225.3,338.3,162.5z"/>
				<path id="XMLID_730_" class="st8" d="M330.5,167.3c-1.9-74.7-66.7-71.4-80.3-69.9c-13.6-1.5-78.4-4.8-80.3,69.9
					c-0.4,57.3-16.6,51-13.7,97.1c0.8,14.2,13.5,68.6,91.4,71.2v0.1c0.9,0,1.7-0.1,2.5-0.1s1.7,0.1,2.5,0.1v-0.1
					c78-2.7,90.6-57,91.4-71.2C347.1,218.3,331,224.5,330.5,167.3z"/>
				<path id="XMLID_2783_" class="st9" d="M292.5,56.8c0,0,24.3-6.4,25.2,33.7c0,0-5.2-0.3-8.5,0.3
					C309.2,90.8,306.8,64.4,292.5,56.8z"/>
				<path id="XMLID_2782_" class="st9" d="M274.9,50.2c0,0,32.1-1.8,34.3,40.6c0,0-3.5-2.1-13.6,4.3
					C295.7,95.1,295.9,62.9,274.9,50.2z"/>
				<path id="XMLID_2781_" class="st9" d="M149.9,208.5c0,0,4.9-5.4,1.4-33.7C148,149.3,145.8,107,174,92c0,0,19.1-8.6,30.9,3.1
					c0,0-36.8,9.7-40,71.1c-2.5,47.8-12.3,57.8-12.3,57.8S152.1,216.6,149.9,208.5z"/>
				<path id="XMLID_2780_" class="st9" d="M350.7,208.5c0,0-4.9-5.4-1.4-33.7c3.2-25.5,5.5-67.8-22.7-82.8c0,0-19.1-8.6-30.9,3.1
					c0,0,36.8,9.7,40,71.1C338.2,214,348,224,348,224S348.4,216.6,350.7,208.5z"/>
				<path id="XMLID_2779_" class="st9" d="M275.2,89.6c0,0,9.6,0.7,20.4,5.5c0,0,7.8-27.6-20.1-46.7c-19.1-13.1-39.7-2.4-39.7-2.4
					S261.3,44.7,275.2,89.6z"/>
				<path id="XMLID_2778_" class="st10" d="M200,213.4c0,0,42.8-13.2,100.1,0"/>
				<path id="XMLID_2777_" class="st11" d="M195.8,152.5c0,0-1.8-22.2,13.2-25.9c16.4-4.1,20.9,15,20.9,15S208.5,132.5,195.8,152.5z
					"/>
				<path id="XMLID_2776_" class="st12" d="M228.5,189c0,9.8-4.7,16.8-10.5,16.8s-10.5-6.9-10.5-16.8c0-9.8,4.7-17.8,10.5-17.8
					S228.5,179.1,228.5,189z"/>
				<path id="XMLID_2775_" class="st13" d="M225,181.4c0.6,3.8-0.6,7.3-2.7,7.8c-2.1,0.5-4.4-2.2-5-6s0.6-7.3,2.7-7.8
					C222.1,174.9,224.4,177.6,225,181.4z"/>
				<path id="XMLID_2774_" class="st12" d="M273,189c0,9.8,4.7,16.8,10.5,16.8s10.5-7,10.5-16.8s-4.7-17.8-10.5-17.8
					S273,179.1,273,189z"/>
				<path id="XMLID_2773_" class="st13" d="M282.6,183.2c-0.6-3.8,0.6-7.3,2.7-7.8s4.4,2.2,5,6s-0.6,7.3-2.7,7.8
					S283.3,187,282.6,183.2z"/>
				<path id="XMLID_2772_" class="st11" d="M304.7,152.5c0,0,1.8-22.2-13.2-25.9c-16.4-4.1-20.9,15-20.9,15S292,132.5,304.7,152.5z"
					/>
				<polygon id="XMLID_2767_" class="st14" points="170.4,194.6 146.7,194.6 146.7,198.7 171.7,198.7 				"/>
				<polygon id="XMLID_2766_" class="st14" points="330.1,194.6 353.4,194.6 353.4,198.7 328.9,198.7 				"/>
				<path id="XMLID_2719_" class="st3" d="M272.7,228.2c0,6.8-10,12.3-22.4,12.3s-22.4-5.5-22.4-12.3s10-14.6,22.4-14.6
					C262.6,213.6,272.7,221.4,272.7,228.2z"/>
				<path id="XMLID_2716_" class="st15" d="M238,208.9c-1.5,2.7-4.2,4.3-6.5,3.1c-2.8-1.5,0.7-4.6,2.2-7.4c1.5-2.7,2.8-4.9,4.2-4.1
					C240.3,201.8,239.6,206.2,238,208.9z M262.5,208.9c1.5,2.7,4.2,4.3,6.5,3.1c2.8-1.5-0.7-4.6-2.2-7.4c-1.5-2.7-2.8-4.9-4.2-4.1
					C260.3,201.8,261,206.2,262.5,208.9z"/>
				<path id="XMLID_2715_" class="st15" d="M263.4,208c0-10.5-13.2-10.7-13.2-10.7s-13,0.2-13,10.7c0,0,2-5.8,13.1-6.7
					C261.4,202.2,263.4,208,263.4,208z"/>
				<path id="XMLID_2714_" class="st14" d="M177.6,204.4l-9.6-4.1V193l8.6,0.5C176.7,193.4,175.8,198,177.6,204.4z"/>
				<path id="XMLID_2713_" class="st14" d="M322.9,204.4l9.6-4.1V193l-8.6,0.5C323.9,193.4,324.8,198,322.9,204.4z"/>
				<path id="XMLID_2710_" class="st16" d="M176.7,193.4h61.9c0,0,6.4,29.2-30,29.7C208.5,223.1,174.4,224.4,176.7,193.4z
					 M323.9,193.4H262c0,0-6.4,29.2,30,29.7C292,223.1,326.1,224.4,323.9,193.4z"/>
				<path id="XMLID_2709_" class="st9" d="M249.8,92.3c0,0,15.2-3,25.5-2.7c0,0-0.4-31.9-29.1-45.8C217.4,29.9,188,44.4,179.5,59
					C179.4,59,231.9,37.1,249.8,92.3z"/>
				<path id="XMLID_2708_" class="st9" d="M204.9,95.1c0,0,20.9-10,44.9-2.8c0-42.4-73.5-64-92.6-0.8
					C166.7,74.3,200.3,73.4,204.9,95.1z"/>
				<path id="XMLID_2707_" class="st9" d="M166.7,97c1.8-35.1,57.6-36.9,57.7-7c0,0-7.4,0.2-19.5,5.1
					C204.9,95.1,188.2,82.9,166.7,97z"/>
				<g id="XMLID_2784_">
					<path id="XMLID_2786_" class="st3" d="M146.7,262.3c-10.5,6.5-29.6-22.2-23.1-57.5c4-16.9,18.4-19.2,24.4-6.1
						C148,198.7,158.9,239.3,146.7,262.3z"/>
					<path id="XMLID_2785_" class="st3" d="M353.9,262.3c10.5,6.5,29.6-22.2,23.1-57.5c-4-16.9-18.4-19.2-24.4-6.1
						C352.5,198.7,341.6,239.3,353.9,262.3z"/>
				</g>
				<path id="XMLID_2771_" class="st9" d="M344.3,211.4c-0.3,11.7-2.6,32.7-14.7,47.7c0,0-6.7-26.1-37-20c-17.8,3.7-25.3,8-42.3,8.4
					c-17-0.4-24.5-4.7-42.3-8.4c-30.3-6.1-37,20-37,20c-12.1-15-14.4-36.1-14.7-47.7c-5,17.2-10.9,26.6-9,57.6
					c0.9,15.6,14.8,75.2,100.3,78.1v0.1c0.9,0,1.8-0.1,2.8-0.1c0.9,0,1.8,0.1,2.8,0.1V347c85.5-2.9,99.4-62.5,100.3-78.1
					C355.3,237.9,349.3,228.5,344.3,211.4z"/>
				<path id="XMLID_2770_" class="st17" d="M238.1,309.4c0,0,9.1,9.1,23.2,1.8c0,0-11.8,2.7-20.5-6.4L238.1,309.4z"/>
				<path id="XMLID_2769_" class="st18" d="M293.9,253.9c-6.3,2.4-16,9.4-43.6,10.3c-27.7-0.9-37.3-7.8-43.6-10.3
					c-13.7-6.6-24.3,3.9-17,15.4c11.6,19.8,38.4,25.5,58,26.5v0.2c0.9,0,1.8,0,2.7-0.1c0.9,0,1.8,0.1,2.7,0.1v-0.2
					c19.6-1,46.4-6.7,58-26.5C318.2,257.8,307.6,247.3,293.9,253.9z"/>
				<path id="XMLID_2768_" class="st19" d="M294.7,253.6c-0.2,0.1-0.5,0.2-0.7,0.3c-6.3,2.4-16,9.4-43.6,10.3
					c-27.7-0.9-37.3-7.8-43.6-10.3c-0.3-0.1-0.5-0.2-0.7-0.3c-0.6,4,0.8,9.4,2.4,11.6c8.5,10.1,25.2,13.6,39.3,14.5v0.2
					c0.9,0,1.8,0,2.7-0.1c0.9,0,1.8,0.1,2.7,0.1v-0.2c14.1-0.9,30.8-4.4,39.3-14.5C293.9,263,295.2,257.6,294.7,253.6z"/>
				<path id="XMLID_2721_" class="st20" d="M188.9,311.9h-38.2c-13.7,0-24.9-11.1-24.9-24.9v-43.7"/>
				<g id="XMLID_2702_">
					<path id="XMLID_2706_" class="st21" d="M375.8,259.4c-15.8,6.4-15.8-8.5-15.8-8.5v-54c0,0,1.2-9.6,9.4-10.5c0,0,25-2.7,25,38.2
						C394.5,238.8,388.6,254.2,375.8,259.4z"/>
					<path id="XMLID_2705_" class="st21" d="M374.6,259.8v-72.9c-3-0.7-5.2-0.5-5.2-0.5c-8.2,0.9-9.4,10.5-9.4,10.5v54
						C360.1,250.9,360,265,374.6,259.8z"/>
					<path id="XMLID_2704_" class="st21" d="M124.7,261.5c15.8,6.4,15.8-8.5,15.8-8.5v-54c0,0-1.2-9.6-9.4-10.5c0,0-25-2.7-25,38.2
						C106.1,240.8,112,256.3,124.7,261.5z"/>
					<path id="XMLID_2703_" class="st21" d="M131.1,188.5c0,0-2.1-0.2-5.2,0.5v72.9c14.6,5.2,14.6-8.9,14.6-8.9v-54
						C140.5,199,139.3,189.4,131.1,188.5z"/>
				</g>
				<path id="XMLID_342_" class="st22" d="M260.3,222.6c0,2.8-4.5,5-10,5s-10-2.2-10-5s4.5-5,10-5
					C255.8,217.6,260.3,219.8,260.3,222.6z"/>
				<path id="XMLID_344_" class="st23" d="M179.5,312.2c21.3,25.5,94.5,39.6,143.2,0.5"/>
				<path id="XMLID_2720_" class="st21" d="M195.5,301.3h-1.6h-10.8h-10.2c-3.4,0-6.1,2.8-6.1,6.2v8.8c0,3.4,2.7,6.2,6.1,6.2h10.2
					h10.8h1.6c5.7,0,10.4-4.8,10.4-10.6C205.9,306,201.3,301.3,195.5,301.3z"/>
				<line id="XMLID_345_" class="st24" x1="177.6" y1="308.1" x2="195.8" y2="308.1"/>
				<path id="XMLID_371_" class="st25" d="M323.6,380.9c0,0,20,14.1,35,49.1"/>
				<path id="XMLID_372_" class="st25" d="M383.2,202.6c0,0,8.2,15.5,0.9,36.4"/>
				<path id="XMLID_373_" class="st26" d="M223.5,45.2c0,0,34.1,1.4,42.8,36.8"/>
				<path id="XMLID_375_" class="st26" d="M272.2,53.8c0,0,17.6,10.6,17.9,32.7"/>
				<path id="XMLID_376_" class="st26" d="M219.1,61.4c0,0,15.5,4.5,23,23"/>
				<path id="XMLID_381_" class="st26" d="M320.1,96.3c0,0,21.8,6.7,23.7,39.4"/>
				<path id="XMLID_382_" class="st26" d="M317.2,198.9c0,0-2.7,17.7-24.6,17.7"/>
				<path id="XMLID_393_" class="st26" d="M230.2,198.9c0,0-2.7,17.7-24.6,17.7"/>
			</g>
			<path id="XMLID_00000009570233050511489680000017480610092701330584_" class="st25" d="M367.6,485.1"/>
			<path id="XMLID_00000027573798276138775500000012096491936499212692_" class="st25" d="M132.9,485.1"/>
		</g>
	</g>
</g>
</svg>
