<?xml version="1.0" encoding="utf-8"?>
<!-- Generator: Adobe Illustrator 28.1.0, SVG Export Plug-In . SVG Version: 6.00 Build 0)  -->
<svg version="1.1" id="OBJECTS" xmlns="http://www.w3.org/2000/svg" xmlns:xlink="http://www.w3.org/1999/xlink" x="0px" y="0px"
	 viewBox="0 0 417.9 417.9" style="enable-background:new 0 0 417.9 417.9;" xml:space="preserve">
<style type="text/css">
	.st0{opacity:0.25;}
	.st1{fill:#676A6B;}
	.st2{fill:#FFFFFF;}
	.st3{fill:#4EF452;}
	.st4{fill:#31B216;}
	.st5{fill:#EFBB97;}
	.st6{fill:#D69C77;}
	.st7{fill:#0E6E9E;}
	.st8{fill:#1BBCED;}
	.st9{fill:#0A5472;}
	.st10{fill:#683804;}
	.st11{fill:#1D1D1B;}
	.st12{fill:#592E04;}
	.st13{fill:#9B1515;}
	.st14{fill:#FF8A8A;}
	.st15{opacity:0.6;fill:#E5A088;}
	.st16{fill:#0B3809;}
	.st17{opacity:0.38;}
	.st18{fill:#D2E0E4;}
</style>
<g>
	<g class="st0">
		<path class="st1" d="M359.1,36.6H65c-6.2,0-11.3,4.3-11.3,9.5v171.7c0,5.2,5.1,9.5,11.3,9.5h225.2c2.5,7.6,9.3,16.6-11.2,27.1
			c37.5-4.3,44.1-17.2,54.4-27.1h25.6c6.2,0,11.3-4.3,11.3-9.5V46.1C370.4,40.9,365.3,36.6,359.1,36.6z"/>
	</g>
	<g>
		<path class="st2" d="M353.5,32H59.4c-6.2,0-11.3,4.3-11.3,9.5v171.7c0,5.2,5.1,9.5,11.3,9.5h225.2c2.5,7.6,9.3,16.6-11.2,27.1
			c37.5-4.3,44.1-17.2,54.4-27.1h25.6c6.2,0,11.3-4.3,11.3-9.5V41.5C364.8,36.3,359.7,32,353.5,32z"/>
	</g>
</g>
<g>
	<g>
		<g class="st0">
			<path class="st1" d="M25.9,79.5h92.3c2.3,0,4.2,1.3,4.2,2.9v52.1c0,1.6-1.9,2.9-4.2,2.9H67.8c-0.9,2.3,5.8,12.3,13.3,15.5
				c-22,3-31.4-12.5-35.2-15.5h-20c-2.3,0-4.2-1.3-4.2-2.9V82.4C21.8,80.8,23.6,79.5,25.9,79.5z"/>
		</g>
		<g>
			<path class="st3" d="M19.9,74.5h92.3c2.3,0,4.2,1.3,4.2,2.9v52.1c0,1.6-1.9,2.9-4.2,2.9H61.8c-0.9,2.3,5.8,12.3,13.3,15.5
				c-22,3-31.4-12.5-35.2-15.5h-20c-2.3,0-4.2-1.3-4.2-2.9V77.4C15.8,75.8,17.6,74.5,19.9,74.5z"/>
		</g>
	</g>
	<g>
		<circle class="st2" cx="90.6" cy="105.2" r="8"/>
		<circle class="st2" cx="65.6" cy="105.2" r="8"/>
		<circle class="st2" cx="41.6" cy="105.2" r="8"/>
	</g>
</g>
<g>
	<g>
		<g>
			<path class="st3" d="M186.2,219.5c0,0-54.8,13.9-60.6,22.2c-5.8,8.3-28.4,68.5-28.4,68.5h223.5c0,0-30.4-66.1-36.2-72.2
				c-5.8-6.1-56.3-18.6-56.3-18.6H186.2z"/>
			<g>
				<path class="st4" d="M272.9,277.9c0,0,4.2,21.2,5.2,32.3h9.6C283.9,299.1,272.9,277.9,272.9,277.9z"/>
				<path class="st4" d="M144.5,273.6c0,0-2.4,24.9-4.4,36.6h11.4C148.7,298,144.5,273.6,144.5,273.6z"/>
			</g>
			<polygon class="st4" points="186.2,214.2 166.8,239.1 187.1,239.1 179.5,256.6 214.7,284.2 244.6,252.1 232.2,236.4 251.8,234.8 
				229.3,213 			"/>
			<rect x="155.9" y="280.3" class="st2" width="39" height="8.7"/>
		</g>
		<g>
			<g>
				<ellipse class="st5" cx="267.6" cy="151.9" rx="11.2" ry="14.2"/>
				<path class="st6" d="M262,148.2c1.8-4,6.3-7.6,9.9-3.1c2.9,3.5,2.6,10.9-0.6,14.2c-3.4,3.5-8.8,1.9-9.7-2.8
					c-0.4-2-0.2-4.4,1.9-5.4c2.1-1,4.2,0.3,4.6,2.5c0.3,1.4-1.7,2.4-2.4,1c-1.1-0.1-1.5,0.2-1.2,0.9c0,0.6,0.2,1.1,0.5,1.7
					c0.9,1.3,2.7,1.2,3.8,0.4c1.8-1.3,2.1-3.6,2.2-5.7c0-1.6,0-4.2-1.3-5.5c-2.5-2.3-4.6,0.9-6,2.7C262.8,150,261.5,149.3,262,148.2
					L262,148.2z"/>
			</g>
			<path class="st4" d="M133,136.7c-0.4-1.1-10.4-26.9,11.1-53.8c21.6-27,82.2-25.2,104-12.9c21.7,12.3,24.1,58.6,24.2,60.6l-5,0.2
				c0-0.5-2.3-45.5-21.7-56.5c-20-11.3-77.8-13.1-97.6,11.6c-8.2,10.3-12.5,21.6-12.6,33.6c-0.1,9,2.3,15.1,2.3,15.2L133,136.7z"/>
			<g>
				<g>
					<path class="st7" d="M260.1,144.4c0,9.1,4.7,16.5,10.4,16.5c5.7,0,10.3-7.5,10.2-16.6c0-9.1-4.7-16.5-10.4-16.5
						C264.6,127.8,260,135.2,260.1,144.4z"/>
					<path class="st8" d="M263,144.7c0,9.1,4.7,16.5,10.4,16.5s10.3-7.5,10.2-16.6c0-9.1-4.7-16.5-10.4-16.5
						C267.6,128.1,263,135.6,263,144.7z"/>
				</g>
				<path class="st9" d="M277.3,144.6c0,5.5,1.6,9.9,3.6,9.9c1.9,0,3.5-4.5,3.5-9.9c0-5.5-1.6-9.9-3.6-9.9
					C278.9,134.7,277.3,139.2,277.3,144.6z"/>
			</g>
		</g>
		<g>
			<g>
				<path class="st5" d="M187.1,201c0,0.3,0,24.2,0,24.2l25.7,30.8c0,0,17-27.7,16.4-31.8s0-23.2,0-23.2H187.1z"/>
				<path class="st6" d="M228.8,215.3V201h-41.7c0,0.2,0,5.2,0,10.6C199.8,217.9,214.7,218.5,228.8,215.3z"/>
			</g>
			<g>
				<path class="st5" d="M155.1,106.2c0,0-1.6,68,3.2,77.7c4.8,9.6,28.6,25.3,52.1,25.3s49.9-18,52.8-25.7s0-88.3,0-88.3
					s-10.7-23.3-57.5-23.3C158.8,71.9,155.1,106.2,155.1,106.2z"/>
				<g>
					<g>
						
							<ellipse transform="matrix(0.9955 -9.513264e-02 9.513264e-02 0.9955 -13.5339 14.8648)" class="st5" cx="149.1" cy="149.4" rx="12.2" ry="15.5"/>
						<path class="st6" d="M154.5,144.8c-2.3-4.1-7.6-7.5-11-2.4c-2.7,4.1-1.7,12.1,2.1,15.3c4,3.4,9.7,1.2,10.3-4.1
							c0.2-2.2-0.3-4.8-2.6-5.6c-2.4-0.8-4.5,0.8-4.7,3.1c-0.1,1.5,2.1,2.5,2.7,0.8c1.2-0.3,1.6,0,1.4,0.9c0,0.6-0.1,1.3-0.4,1.8
							c-0.9,1.5-2.8,1.6-4.1,0.8c-2.1-1.2-2.7-3.7-2.9-5.9c-0.2-1.8-0.4-4.6,0.9-6.1c2.5-2.7,5.1,0.5,6.8,2.3
							C153.8,146.9,155.1,146,154.5,144.8L154.5,144.8z"/>
					</g>
				</g>
				<g>
					<path class="st10" d="M252.5,116.5c0,0,7.5,31.4,8.4,27.7c0.9-3.7,4.2-6.1,4.2-6.1v-25.8L252.5,116.5z"/>
					<path class="st10" d="M155.9,139c5,6.7,13.1-44.3,13.1-44.3s5.8,22,29.5,20c10-2.2,1.1-13.2,1.1-13.2s12.5,16.1,45.1,19
						c32.6,2.9,48.2-31.9,45.7-40.2s-24.8-0.1-38-5.2c-13.2-5.2-23.7-19.1-48.7-19.1c-25.1,0-36,10.1-36,10.1s-0.5-10-7.2-10
						s-4.6,13.7-4.6,13.7s-5.7-9.5-10.4-7.5c-4.8,2,3.4,13.7,3.4,13.7s-12.9,5-15.7,19s10,40.6,10,40.6S150.9,132.4,155.9,139z"/>
				</g>
				<g>
					<g>
						<path class="st11" d="M194.5,152.8c-0.8-6.9-2.9-13.7-9.8-14.3c-0.6,0-1.1,0-1.6,0c-0.5,0-1.1,0-1.6,0.1
							c-6.9,1-8.6,7.9-8.9,14.9c-0.2,2.4-0.2,4.7,0,6.8c0,1.7,0.1,3.2,0.1,4.5c0,2.8,4.3,2.6,4.3-0.1c0-3.7-1-10.8,0.2-16
							c0.4-1.6,1-3,1.7-4.1c0.6-0.8,1.4-1.5,2.4-1.9c0.7-0.3,1.4-0.5,2-0.5c0.6,0,1.3,0.2,2.1,0.4c1,0.4,1.8,1,2.5,1.7
							c0.8,1.1,1.5,2.4,2,4c1.5,5.2,0.9,12.3,1.1,16c0.2,2.8,4.5,2.6,4.3-0.1c-0.1-1.3-0.1-2.8-0.2-4.5
							C195,157.5,194.8,155.2,194.5,152.8z"/>
						<path class="st11" d="M250.3,151.2c-0.8-6.9-2.9-13.7-9.8-14.3c-0.6,0-1.1,0-1.6,0c-0.5,0-1.1,0-1.6,0.1
							c-6.9,1-8.6,7.9-8.9,14.9c-0.2,2.4-0.2,4.7,0,6.8c0,1.7,0.1,3.2,0.1,4.5c0,2.8,4.3,2.6,4.3-0.1c0-3.7-1-10.8,0.2-16
							c0.4-1.6,1-3,1.7-4.1c0.6-0.8,1.4-1.5,2.4-1.9c0.7-0.3,1.4-0.5,2-0.5c0.6,0,1.3,0.2,2.1,0.4c1,0.4,1.8,1,2.5,1.7
							c0.8,1.1,1.5,2.4,2,4c1.5,5.2,0.9,12.3,1.1,16c0.2,2.8,4.5,2.6,4.3-0.1c-0.1-1.3-0.1-2.8-0.2-4.5
							C250.9,155.8,250.7,153.5,250.3,151.2z"/>
					</g>
					<path class="st6" d="M208.8,141.3c1.2,5.2,2.8,10.1,6.1,14.4c1.6,2,5.5,4.3,5.7,7c0.2,2.6-3,4.7-4.8,5.6
						c-2.4,1.2-4.8,1.3-7.1-0.3c-1.4-1-0.6-3.5,1.1-2.9c1.5,0.5,7.1,0.6,7.5-2c0.1-0.8-4.7-5.1-6.1-7.5c-2.5-4.3-4-9.2-3.9-14.1
						C207.3,140.5,208.6,140.3,208.8,141.3L208.8,141.3z"/>
					<g>
						<path class="st12" d="M171.2,133.7c4.6-3.5,9.7-5.6,15.9-4.7c3.6,0.5,7-3.5,3.7-5.8c-4.1-2.9-9.2-2.8-13.9-0.7
							c-4.1,1.8-8.9,5.3-10,9.2C166.2,134,169.4,135.1,171.2,133.7L171.2,133.7z"/>
						<path class="st12" d="M251,133.1c-4.5-2.9-9.3-4.7-15-3.5c-3.3,0.7-6.7-2.8-3.7-5.1c3.6-2.9,8.4-3.1,12.8-1.4
							c3.9,1.5,8.5,4.4,9.8,8C255.6,133,252.8,134.2,251,133.1L251,133.1z"/>
					</g>
					<g>
						<g>
							<path class="st13" d="M199.6,177.4c1.6-1.3,9,1.8,13.7,1.5c4.7-0.3,10.3-3.4,13.2-2.3c2.9,1.1-1.2,19.7-12.8,20.1
								C201.9,197,198,178.6,199.6,177.4z"/>
							<path class="st14" d="M202.6,189.4c2.3,4,6,7.4,11,7.2c4.5-0.1,7.9-3,10.2-6.6C217.1,187,209.5,186.4,202.6,189.4z"/>
						</g>
						<path class="st6" d="M206.6,199.9c2.9,3.1,8.1,3.5,12,2.3c1.2-0.4,0.6-2.3-0.6-1.9c-4.1,1.4-7.2,0.5-11-1
							C206.6,199.2,206.3,199.6,206.6,199.9L206.6,199.9z"/>
					</g>
				</g>
			</g>
			<g>
				<ellipse class="st15" cx="245.7" cy="179.5" rx="13.1" ry="7.2"/>
				<ellipse class="st15" cx="180.7" cy="179.5" rx="13.1" ry="7.2"/>
			</g>
		</g>
		<g>
			<path class="st4" d="M133,136.7c-0.4-1.1-10.4-26.9,11.1-53.8c21.6-27,82.2-25.2,104-12.9c1,0.6,2.4,1.5,3.6,2.5
				c1.9,1.6,3.6,3.3,3.6,3.3s-1-0.7-4.6-0.9c-2.9-0.1-4.1,0-4.3-0.1c-0.2-0.1-0.5-0.2-0.8-0.4c-20-11.3-77.8-13.1-97.6,11.6
				c-8.2,10.3-12.5,21.6-12.6,33.6c-0.1,9,2.3,15.1,2.3,15.2L133,136.7z"/>
			<g>
				<g>
					
						<ellipse transform="matrix(0.991 -0.1341 0.1341 0.991 -18.8654 20.2133)" class="st7" cx="140.6" cy="150.2" rx="12.2" ry="16.6"/>
					
						<ellipse transform="matrix(0.991 -0.1341 0.1341 0.991 -19.0066 19.7565)" class="st8" cx="137.2" cy="151" rx="12.2" ry="16.6"/>
				</g>
				<path class="st9" d="M132.5,151.6c0.7,5.4-0.5,10.1-2.8,10.4c-2.3,0.3-4.7-3.8-5.5-9.3c-0.7-5.4,0.5-10.1,2.8-10.4
					C129.3,142,131.7,146.2,132.5,151.6z"/>
			</g>
			<path class="st4" d="M189,191c-6.9,2.4-12.7,3.9-20,2.5c-6.4-1.3-14-3.7-17.9-9.3c-5.3-7.6-4.7-16.5-5.2-25.2
				c-0.2-2.7-3.8-3-4.9-0.8c-2.2,4-1.2,10.1-0.5,14.4c1.1,6.2,3.3,12.5,7.6,17.3c5.2,5.7,14,8.2,21.4,9.1c7.3,0.9,15.7-0.3,21.3-5.4
				C192,192.4,190.4,190.5,189,191L189,191z"/>
			<path class="st9" d="M193.5,195l-3.9,2c-2.2,1.1-4.8,0.2-5.9-1.9h0c-1.1-2.2-0.2-4.8,1.9-5.9l3.9-2c2.2-1.1,4.8-0.2,5.9,1.9l0,0
				C196.5,191.2,195.7,193.9,193.5,195z"/>
		</g>
	</g>
</g>
<g>
	<g>
		<g class="st0">
			<path class="st1" d="M341.6,370H88.3c-8.7,0-15.7-7-15.7-15.7V331c0-8.7,7-15.7,15.7-15.7h253.3c8.7,0,15.7,7,15.7,15.7v23.3
				C357.4,362.9,350.3,370,341.6,370z"/>
		</g>
		<g>
			<path class="st16" d="M335.6,365H82.3c-8.7,0-15.7-7-15.7-15.7V326c0-8.7,7-15.7,15.7-15.7h253.3c8.7,0,15.7,7,15.7,15.7v23.3
				C351.4,357.9,344.3,365,335.6,365z"/>
		</g>
	</g>
	<g>
		<path class="st2" d="M176.4,333.2c0,0.1-0.1,0.2-0.3,0.3c-0.2,0.1-0.8,0.1-1.9,0.1c-1,0-1.6,0-1.9-0.1c-0.2,0-0.4-0.2-0.4-0.5
			c-0.2-1-0.4-1.5-0.5-1.6c-0.1,0-1-0.1-2.7-0.1c-1.2,0-1.8,0-1.9,0.1c-0.1,0.1-0.2,0.5-0.4,1.1c-0.1,0.6-0.3,0.9-0.5,0.9
			c-0.2,0.1-1,0.1-2.3,0.1c-1,0-1.6-0.1-1.6-0.3c0-0.2,0.8-2.4,2.3-6.6c1.7-4.5,2.6-7,2.7-7.5c0.1-0.3,0.2-0.4,0.3-0.4
			c0.2,0,0.5,0,0.9,0.1c0.4,0,0.7,0.1,0.9,0.1c0.2,0,0.5,0,0.8,0c0.4,0,0.6,0,0.8,0c0.1,0,0.2,0.1,0.4,0.3c0.3,0.7,1.3,3.2,2.9,7.4
			C175.6,330.8,176.4,333,176.4,333.2z M169.2,323.8c-0.1,0.3-0.4,1-0.7,2c-0.4,1.1-0.6,1.7-0.6,1.9c0,0.1,0.2,0.2,0.6,0.2
			c0.2,0,0.6,0,1,0c0.5,0,0.7-0.1,0.7-0.2c0,0,0-0.1,0-0.1c0-0.2-0.2-0.8-0.5-1.9C169.5,324.7,169.3,324.1,169.2,323.8z"/>
		<path class="st2" d="M187.5,322.2c0,0.1-0.1,0.2-0.2,0.2c-0.3,0-1.3-0.1-3.1-0.2c0,1.7-0.1,2.9-0.1,3.6c0,0.8,0,2,0.1,3.6
			s0.1,2.8,0.1,3.6c0,0.1,0,0.2-0.1,0.2c0,0-0.1,0-0.3,0.1c-0.4,0.1-1,0.1-1.8,0.1c-0.9,0-1.5,0-1.9-0.1c-0.2,0-0.3-0.1-0.3-0.3
			c0-0.8,0-2,0.1-3.6s0.1-2.8,0.1-3.6c0-0.5,0-1.7-0.1-3.6c-1.4,0.1-2.5,0.2-3.3,0.2c-0.1,0-0.2,0-0.2-0.1c0-0.1,0-0.4,0.1-0.8
			c0.1-0.5,0.2-0.8,0.2-0.9c0-0.3,0-0.6,0.1-1c0-0.5,0.1-0.8,0.2-0.8c0,0,0.1,0,0.1,0c1.1,0.1,2.7,0.2,4.9,0.2
			c0.6,0,1.8-0.1,3.4-0.2c0.9-0.1,1.3-0.1,1.3-0.1c0.1,0,0.2,0,0.2,0c0,0,0,0.1,0,0.2c0,0.2,0,0.4,0,0.8c0,0.4,0,0.6,0,0.8
			c0,0.2,0,0.4,0.1,0.8C187.4,321.8,187.5,322,187.5,322.2z"/>
		<path class="st2" d="M199.1,330.2c0,0.3-0.1,0.8-0.2,1.6c-0.1,0.9-0.2,1.4-0.3,1.5c-0.1,0.1-0.2,0.2-0.3,0.2c-0.1,0-0.2,0-0.3,0
			c-0.5-0.1-2-0.1-4.4-0.1c-0.5,0-1.3,0-2.3,0s-1.8,0-2.3,0c-0.2,0-0.3-0.1-0.3-0.3c0-0.8,0-1.9,0.1-3.5c0.1-1.5,0.1-2.7,0.1-3.5
			c0-0.8,0-2.2-0.1-4.4c0-0.5-0.1-1.4-0.1-2.5l0-0.1c0-0.2,0.1-0.2,0.3-0.2c0.5,0,1.3,0,2.3,0c1,0,1.8,0,2.3,0c0.5,0,1.3,0,2.3,0
			c1,0,1.8,0,2.3,0c0.4,0,0.6,0.1,0.6,0.4c0,0.2,0.1,0.6,0.2,1.4c0.1,0.8,0.1,1.3,0.1,1.5c0,0.1-0.1,0.2-0.2,0.2c0,0-0.1,0-0.2,0
			c-1.8-0.1-3.5-0.2-4.9-0.2c-0.4,0-0.6,0.1-0.7,0.3c0,0.1-0.1,0.3-0.1,0.8c0,0.5,0.1,0.8,0.2,0.9c0.1,0.1,0.3,0.2,0.7,0.2
			c0.1,0,0.2,0,0.4,0c0.2,0,0.4,0,0.5,0c0.9,0,1.7,0,2.6-0.1c0.1,0,0.3,0,0.6-0.1c0.2,0,0.4,0,0.6,0c0.2,0,0.2,0.1,0.2,0.2
			c0-0.1-0.1,0.4-0.2,1.6c-0.1,0.5-0.1,1.1-0.1,1.6c0,0.1-0.1,0.2-0.3,0.2l-0.9-0.1c-0.4,0-1.3-0.1-2.7-0.1h-1.1
			c-0.3,0-0.4,0.1-0.5,0.2c0,0,0,0.2,0,0.6c0,0.5,0,0.9,0.1,1c0.1,0.3,0.6,0.4,1.3,0.5c0,0,0.5,0,1.5,0c0.4,0,0.9,0,1.6-0.1
			c0.7-0.1,1.2-0.1,1.6-0.1C199,329.9,199.1,330,199.1,330.2z"/>
		<path class="st2" d="M214.1,319.4c0,0.8,0,2-0.1,3.5c-0.1,1.6-0.1,2.7-0.1,3.5v6.8c0,0.2-0.1,0.3-0.3,0.3c-0.2,0-0.4,0-0.7,0
			c-0.3,0-0.6,0-0.7,0c-0.2,0-0.4,0-0.8,0s-0.6,0-0.8,0c-0.1,0-0.3-0.1-0.4-0.3c-0.5-0.7-1.6-2.1-3.3-4.4c-0.5-0.6-1.2-1.6-2.2-2.8
			c0,0-0.1-0.1-0.2-0.1c-0.1,0-0.1,0.1-0.1,0.2c0,0.8,0,2,0.1,3.6c0,1.6,0.1,2.8,0.1,3.6c0,0.2-0.1,0.4-0.3,0.4h-3.5
			c-0.2,0-0.3-0.1-0.3-0.3c0-0.7,0-1.9,0.1-3.3c0.1-1.5,0.1-2.6,0.1-3.4c0-0.8,0-2-0.1-3.5c-0.1-1.6-0.1-2.7-0.1-3.5
			c0-0.1,0.1-0.2,0.4-0.2c0.4,0,0.9,0,1.5-0.1c0.1,0,0.4-0.1,0.8-0.1c0.3-0.1,0.6-0.1,0.8-0.1c0.1,0,0.2,0.1,0.4,0.3l3.8,5.2
			c0.3,0.5,0.9,1.2,1.5,2.1c0.2,0.2,0.3,0.3,0.4,0.3c0.1,0,0.1-0.3,0.1-0.8c0-0.7,0-1.8-0.1-3.2c-0.1-1.4-0.1-2.5-0.1-3.2
			c0-0.3,0.1-0.4,0.2-0.4c0.4,0,1,0,1.9-0.1s1.4-0.1,1.9-0.1C214.1,319,214.1,319.1,214.1,319.4z"/>
		<path class="st2" d="M228,331.1c0,0.1-0.1,0.3-0.2,0.4c-1.3,1.5-2.9,2.2-5,2.2c-2.1,0-3.9-0.7-5.2-2.2c-1.3-1.4-1.9-3.2-1.9-5.3
			c0-2.1,0.6-3.8,1.9-5.3c1.3-1.5,3-2.3,5-2.3c2.2,0,4,0.7,5.2,2c0.1,0.2,0.2,0.3,0.2,0.4c0,0.1-0.2,0.6-0.7,1.4
			c-0.5,0.8-0.8,1.3-0.9,1.4c-0.1,0.1-0.1,0.1-0.2,0.1c0,0-0.2-0.1-0.5-0.4c-0.4-0.3-0.7-0.6-1.1-0.8c-0.5-0.3-1.1-0.4-1.7-0.4
			c-1,0-1.8,0.4-2.4,1.1c-0.6,0.7-0.8,1.6-0.8,2.6c0,1,0.3,1.9,0.8,2.6c0.6,0.8,1.4,1.1,2.4,1.1c0.6,0,1.2-0.1,1.7-0.4
			c0.3-0.2,0.7-0.4,1.1-0.7c0.3-0.3,0.5-0.4,0.5-0.4c0.1,0,0.1,0,0.2,0.1c0.1,0.1,0.4,0.5,0.9,1.3C227.8,330.6,228,331,228,331.1z"
			/>
		<path class="st2" d="M233.3,325.9c0,0.8,0,2,0.1,3.6s0.1,2.8,0.1,3.6c0,0.1,0,0.2-0.1,0.3c0,0-0.1,0-0.3,0c-0.4,0.1-1,0.1-1.8,0.1
			c-1,0-1.6,0-1.9-0.1c-0.2,0-0.3-0.1-0.3-0.3c0,0.1,0-0.5,0.1-1.8c0.1-2.8,0.2-4.6,0.2-5.5c0-0.7,0-1.8-0.1-3.3s-0.1-2.6-0.1-3.3
			c0-0.2,0.1-0.2,0.2-0.2c0.2,0,0.5,0,1,0c0.4,0,0.7,0,1,0s0.5,0,0.9,0c0.4,0,0.7,0,0.9,0c0.2,0,0.3,0.1,0.3,0.2
			c0,0.7,0,1.8-0.1,3.3C233.3,324,233.3,325.1,233.3,325.9z"/>
		<path class="st2" d="M249.6,326.3c0,2.1-0.7,3.9-2,5.4c-1.4,1.5-3.1,2.2-5.3,2.2c-2.1,0-3.9-0.7-5.3-2.2c-1.4-1.4-2.1-3.2-2.1-5.3
			c0-2.1,0.7-3.9,2.1-5.4c1.4-1.5,3.1-2.2,5.3-2.2c2.1,0,3.8,0.7,5.2,2.2C248.9,322.4,249.6,324.1,249.6,326.3z M245.7,326.2
			c0-1-0.3-1.9-0.9-2.6c-0.6-0.8-1.5-1.1-2.5-1.1c-1,0-1.8,0.4-2.5,1.2c-0.6,0.8-1,1.6-1,2.6c0,1,0.3,1.9,0.9,2.6
			c0.6,0.7,1.5,1.1,2.5,1.1c1,0,1.8-0.4,2.5-1.2C245.4,328.1,245.7,327.2,245.7,326.2z"/>
		<path class="st2" d="M264.9,319.4c0,0.8,0,2-0.1,3.5c-0.1,1.6-0.1,2.7-0.1,3.5v6.8c0,0.2-0.1,0.3-0.3,0.3c-0.2,0-0.4,0-0.7,0
			c-0.3,0-0.6,0-0.7,0c-0.2,0-0.4,0-0.8,0s-0.6,0-0.8,0c-0.1,0-0.3-0.1-0.4-0.3c-0.5-0.7-1.6-2.1-3.3-4.4c-0.5-0.6-1.2-1.6-2.2-2.8
			c0,0-0.1-0.1-0.2-0.1c-0.1,0-0.1,0.1-0.1,0.2c0,0.8,0,2,0.1,3.6c0,1.6,0.1,2.8,0.1,3.6c0,0.2-0.1,0.4-0.3,0.4h-3.5
			c-0.2,0-0.3-0.1-0.3-0.3c0-0.7,0-1.9,0.1-3.3c0.1-1.5,0.1-2.6,0.1-3.4c0-0.8,0-2-0.1-3.5c-0.1-1.6-0.1-2.7-0.1-3.5
			c0-0.1,0.1-0.2,0.4-0.2c0.4,0,0.9,0,1.5-0.1c0.1,0,0.4-0.1,0.8-0.1c0.3-0.1,0.6-0.1,0.8-0.1c0.1,0,0.2,0.1,0.4,0.3l3.8,5.2
			c0.3,0.5,0.9,1.2,1.5,2.1c0.2,0.2,0.3,0.3,0.4,0.3c0.1,0,0.1-0.3,0.1-0.8c0-0.7,0-1.8-0.1-3.2c-0.1-1.4-0.1-2.5-0.1-3.2
			c0-0.3,0.1-0.4,0.2-0.4c0.4,0,1,0,1.9-0.1s1.4-0.1,1.9-0.1C264.8,319,264.9,319.1,264.9,319.4z"/>
		<path class="st2" d="M154.2,358.1c0,0.2-0.1,0.3-0.4,0.4c-0.3,0.1-1.2,0.1-2.7,0.1c-1.4,0-2.3,0-2.7-0.1c-0.3-0.1-0.5-0.3-0.6-0.7
			c-0.3-1.4-0.6-2.2-0.8-2.3c-0.2-0.1-1.5-0.1-3.9-0.1c-1.7,0-2.5,0-2.7,0.1c-0.2,0.2-0.4,0.7-0.6,1.6c-0.2,0.8-0.4,1.2-0.7,1.3
			c-0.3,0.1-1.4,0.1-3.3,0.1c-1.5,0-2.2-0.1-2.2-0.4c0-0.3,1.1-3.4,3.3-9.4c2.4-6.5,3.7-10,3.9-10.7c0.1-0.4,0.3-0.6,0.4-0.6
			c0.3,0,0.7,0,1.2,0.1s1,0.1,1.2,0.1c0.3,0,0.7,0,1.2-0.1c0.5,0,0.9-0.1,1.1-0.1c0.2,0,0.4,0.2,0.5,0.5c0.5,1,1.9,4.5,4.2,10.5
			C153,354.6,154.2,357.8,154.2,358.1z M143.8,344.7c-0.2,0.4-0.6,1.4-1,2.8c-0.5,1.5-0.8,2.4-0.8,2.7c0,0.2,0.3,0.3,0.9,0.3
			c0.3,0,0.8,0,1.5,0c0.6,0,1-0.1,1.1-0.2c0,0,0-0.1,0-0.2c0-0.3-0.2-1.2-0.7-2.7C144.3,346,144,345.1,143.8,344.7z"/>
		<path class="st2" d="M169.1,358.7c-0.8,0-1.9,0-3.3-0.1c-1.8,0-2.9-0.1-3.3-0.1l-4.4-0.1c-0.4,0-1.1,0-1.9-0.1
			c-0.3,0-0.4-0.2-0.4-0.5c0-1.1,0-2.7,0.1-4.8c0-2.1,0.1-3.7,0.1-4.8c0-1.1,0-2.8-0.1-5.1s-0.1-4-0.1-5.1c0-0.2,0.1-0.3,0.4-0.3
			s0.7,0,1.3,0s1,0,1.3,0c0.3,0,0.8,0,1.4-0.1c0.6,0,1.1-0.1,1.4-0.1c0.1,0,0.2,0.1,0.2,0.3l0,0.2c-0.1,1.8-0.2,4.6-0.4,8.3l0,3.9
			c0,1.2,0,2.2,0,2.7c0,0.1,0,0.2,0,0.4s0.1,0.2,0.2,0.2c0,0,0.1,0,0.4,0c0.9,0,2.2,0,3.9-0.1c1.8-0.1,3.1-0.1,3.9-0.1
			c0.3,0,0.4,0.1,0.4,0.3c0,1.7-0.1,3.1-0.4,4.3c0,0.3-0.2,0.4-0.3,0.5C169.7,358.7,169.5,358.7,169.1,358.7z"/>
		<path class="st2" d="M196.7,355.1c0,0.2-0.1,0.4-0.3,0.6c-1.8,2.1-4.2,3.2-7.2,3.2c-3,0-5.5-1-7.4-3.1c-1.8-2-2.8-4.6-2.8-7.6
			c0-3,0.9-5.5,2.7-7.6c1.9-2.2,4.3-3.3,7.2-3.3c3.2,0,5.6,1,7.4,2.9c0.2,0.2,0.3,0.4,0.3,0.6c0,0.2-0.3,0.9-1,2.1s-1.1,1.9-1.3,2
			c-0.1,0.1-0.2,0.1-0.3,0.1c0,0-0.3-0.2-0.7-0.6c-0.5-0.5-1-0.8-1.6-1.1c-0.8-0.4-1.6-0.6-2.4-0.6c-1.4,0-2.6,0.5-3.4,1.6
			c-0.8,1-1.2,2.2-1.2,3.7c0,1.5,0.4,2.7,1.2,3.7c0.9,1.1,2,1.6,3.4,1.6c0.8,0,1.7-0.2,2.4-0.6c0.5-0.2,1-0.6,1.5-1
			c0.4-0.4,0.7-0.6,0.7-0.6c0.1,0,0.2,0.1,0.3,0.2c0.2,0.2,0.6,0.8,1.3,1.8C196.3,354.4,196.7,355,196.7,355.1z"/>
		<path class="st2" d="M211.7,358.7c-0.8,0-1.9,0-3.3-0.1c-1.8,0-2.9-0.1-3.3-0.1l-4.4-0.1c-0.4,0-1.1,0-1.9-0.1
			c-0.3,0-0.4-0.2-0.4-0.5c0-1.1,0-2.7,0.1-4.8c0-2.1,0.1-3.7,0.1-4.8c0-1.1,0-2.8-0.1-5.1s-0.1-4-0.1-5.1c0-0.2,0.1-0.3,0.4-0.3
			s0.7,0,1.3,0s1,0,1.3,0c0.3,0,0.8,0,1.4-0.1c0.6,0,1.1-0.1,1.4-0.1c0.1,0,0.2,0.1,0.2,0.3l0,0.2c-0.1,1.8-0.2,4.6-0.4,8.3l0,3.9
			c0,1.2,0,2.2,0,2.7c0,0.1,0,0.2,0,0.4s0.1,0.2,0.2,0.2c0,0,0.1,0,0.4,0c0.9,0,2.2,0,3.9-0.1c1.8-0.1,3.1-0.1,3.9-0.1
			c0.3,0,0.4,0.1,0.4,0.3c0,1.7-0.1,3.1-0.4,4.3c0,0.3-0.2,0.4-0.3,0.5C212.3,358.7,212.1,358.7,211.7,358.7z"/>
		<path class="st2" d="M220.6,347.6c0,1.2,0,2.9,0.1,5.2s0.1,4,0.1,5.2c0,0.2,0,0.3-0.1,0.4c0,0-0.1,0-0.4,0.1
			c-0.6,0.1-1.5,0.1-2.5,0.1c-1.4,0-2.3,0-2.7-0.1c-0.3-0.1-0.4-0.2-0.4-0.5c0,0.2,0-0.7,0.1-2.6c0.2-4,0.3-6.6,0.3-7.8
			c0-1,0-2.6-0.1-4.7s-0.1-3.7-0.1-4.7c0-0.2,0.1-0.3,0.3-0.3c0.3,0,0.8,0,1.4,0s1.1,0,1.4,0s0.7,0,1.3,0s1,0,1.3,0
			c0.3,0,0.4,0.1,0.4,0.3c0,1-0.1,2.6-0.2,4.7S220.6,346.6,220.6,347.6z"/>
		<path class="st2" d="M238.6,353.9c0,0.4-0.1,1.2-0.2,2.3c-0.2,1.2-0.3,1.9-0.5,2.2c-0.1,0.2-0.3,0.3-0.5,0.3c-0.1,0-0.2,0-0.4,0
			c-0.7-0.1-2.8-0.1-6.2-0.1c-0.8,0-1.9,0-3.4,0s-2.6,0-3.3,0c-0.3,0-0.5-0.1-0.5-0.4c0-1.1,0.1-2.7,0.2-4.9s0.2-3.8,0.2-4.9
			c0-1.1-0.1-3.2-0.2-6.2c0-0.8-0.1-1.9-0.2-3.5l0-0.2c0-0.2,0.1-0.3,0.4-0.3c0.7,0,1.8,0,3.3,0.1s2.5,0.1,3.3,0.1
			c0.7,0,1.8,0,3.2-0.1s2.5-0.1,3.2-0.1c0.5,0,0.8,0.2,0.9,0.6c0,0.2,0.1,0.9,0.2,2c0.1,1.1,0.2,1.8,0.2,2.1c0,0.2-0.1,0.3-0.3,0.3
			c-0.1,0-0.2,0-0.3,0c-2.6-0.2-4.9-0.3-7-0.3c-0.5,0-0.8,0.1-1,0.4c0,0.1-0.1,0.5-0.1,1.1c0,0.7,0.1,1.1,0.3,1.3
			c0.2,0.2,0.5,0.3,1,0.3c0.1,0,0.3,0,0.6,0c0.3,0,0.5,0,0.7,0c1.2,0,2.5,0,3.7-0.1c0.1,0,0.4,0,0.8-0.1c0.3,0,0.6-0.1,0.8-0.1
			c0.2,0,0.4,0.1,0.4,0.3c0-0.2-0.1,0.5-0.3,2.2c-0.1,0.8-0.1,1.6-0.1,2.3c0,0.2-0.1,0.3-0.4,0.3l-1.3-0.1c-0.6-0.1-1.8-0.1-3.8-0.1
			h-1.6c-0.4,0-0.6,0.1-0.7,0.3c0,0,0,0.4,0,0.9c0,0.7,0,1.2,0.1,1.4c0.2,0.4,0.8,0.6,1.9,0.7c0,0,0.7,0,2.1,0c0.5,0,1.3,0,2.3-0.1
			s1.8-0.1,2.3-0.1C238.5,353.3,238.6,353.5,238.6,353.9z"/>
		<path class="st2" d="M260.1,338.3c0,1.1,0,2.8-0.1,5s-0.1,3.9-0.1,5v9.7c0,0.3-0.1,0.4-0.4,0.4c-0.2,0-0.6,0-1.1,0s-0.8,0-1.1,0
			c-0.3,0-0.6,0-1.1-0.1c-0.5,0-0.9-0.1-1.1-0.1c-0.2,0-0.4-0.2-0.6-0.5c-0.7-0.9-2.3-3-4.7-6.3c-0.7-0.9-1.7-2.2-3.1-4
			c0-0.1-0.1-0.1-0.2-0.2c-0.1,0.1-0.1,0.2-0.1,0.3c0,1.1,0,2.8,0.1,5.1s0.1,4,0.1,5.1c0,0.3-0.1,0.5-0.4,0.5H241
			c-0.3,0-0.4-0.2-0.4-0.5c0-1.1,0.1-2.6,0.2-4.8s0.2-3.7,0.2-4.8c0-1.1,0-2.8-0.1-5s-0.1-3.9-0.1-5c0-0.2,0.2-0.3,0.6-0.3
			c0.6,0,1.3,0,2.1-0.1c0.2,0,0.6-0.1,1.2-0.2c0.5-0.1,0.9-0.1,1.2-0.1c0.1,0,0.3,0.2,0.5,0.5l5.5,7.5c0.5,0.7,1.2,1.7,2.2,3
			c0.2,0.3,0.5,0.5,0.6,0.5c0.1,0,0.2-0.4,0.2-1.1c0-1-0.1-2.6-0.2-4.6s-0.2-3.6-0.2-4.6c0-0.4,0.1-0.5,0.3-0.5c0.6,0,1.5,0,2.7-0.1
			s2.1-0.1,2.7-0.1C260.1,337.9,260.1,338,260.1,338.3z"/>
		<path class="st2" d="M277.1,342.4c0,0.2-0.1,0.3-0.3,0.3c-0.4,0-1.8-0.1-4.4-0.2c-0.1,2.5-0.1,4.2-0.1,5.2c0,1.2,0,2.9,0.1,5.2
			s0.1,4,0.1,5.2c0,0.2,0,0.3-0.1,0.4c0,0-0.2,0-0.4,0.1c-0.6,0.1-1.4,0.1-2.6,0.1c-1.3,0-2.1,0-2.7-0.1c-0.3,0-0.4-0.2-0.4-0.5
			c0-1.2,0-2.9,0.1-5.2s0.1-4,0.1-5.2c0-0.8,0-2.5-0.1-5.1c-2,0.2-3.5,0.3-4.7,0.3c-0.2,0-0.2,0-0.2-0.1c0-0.1,0.1-0.5,0.2-1.1
			c0.2-0.7,0.2-1.1,0.3-1.2c0-0.5,0.1-0.9,0.1-1.4c0.1-0.7,0.2-1.1,0.4-1.1c0,0,0.1,0,0.2,0c1.6,0.2,3.9,0.3,7,0.3
			c0.9,0,2.5-0.1,4.9-0.3c1.3-0.1,1.9-0.1,1.9-0.1c0.2,0,0.3,0,0.3,0c0,0,0,0.1,0.1,0.3c0,0.3,0,0.6,0,1.1c0,0.5,0,0.9,0,1.1
			c0,0.2,0,0.6,0.1,1.1S277.1,342.1,277.1,342.4z"/>
		<path class="st2" d="M293.7,353.9c0,0.4-0.1,1.2-0.2,2.3c-0.2,1.2-0.3,1.9-0.5,2.2c-0.1,0.2-0.3,0.3-0.5,0.3c-0.1,0-0.2,0-0.4,0
			c-0.7-0.1-2.8-0.1-6.2-0.1c-0.8,0-1.9,0-3.4,0s-2.6,0-3.3,0c-0.3,0-0.5-0.1-0.5-0.4c0-1.1,0.1-2.7,0.2-4.9s0.2-3.8,0.2-4.9
			c0-1.1-0.1-3.2-0.2-6.2c0-0.8-0.1-1.9-0.2-3.5l0-0.2c0-0.2,0.1-0.3,0.4-0.3c0.7,0,1.8,0,3.3,0.1s2.5,0.1,3.3,0.1
			c0.7,0,1.8,0,3.2-0.1s2.5-0.1,3.2-0.1c0.5,0,0.8,0.2,0.9,0.6c0,0.2,0.1,0.9,0.2,2c0.1,1.1,0.2,1.8,0.2,2.1c0,0.2-0.1,0.3-0.3,0.3
			c-0.1,0-0.2,0-0.3,0c-2.6-0.2-4.9-0.3-7-0.3c-0.5,0-0.8,0.1-1,0.4c0,0.1-0.1,0.5-0.1,1.1c0,0.7,0.1,1.1,0.3,1.3
			c0.2,0.2,0.5,0.3,1,0.3c0.1,0,0.3,0,0.6,0c0.3,0,0.5,0,0.7,0c1.2,0,2.5,0,3.7-0.1c0.1,0,0.4,0,0.8-0.1c0.3,0,0.6-0.1,0.8-0.1
			c0.2,0,0.4,0.1,0.4,0.3c0-0.2-0.1,0.5-0.3,2.2c-0.1,0.8-0.1,1.6-0.1,2.3c0,0.2-0.1,0.3-0.4,0.3l-1.3-0.1c-0.6-0.1-1.8-0.1-3.8-0.1
			h-1.6c-0.4,0-0.6,0.1-0.7,0.3c0,0,0,0.4,0,0.9c0,0.7,0,1.2,0.1,1.4c0.2,0.4,0.8,0.6,1.9,0.7c0,0,0.7,0,2.1,0c0.5,0,1.3,0,2.3-0.1
			s1.8-0.1,2.3-0.1C293.6,353.3,293.7,353.5,293.7,353.9z"/>
	</g>
</g>
<g>
	<g>
		<g class="st17">
			<path class="st18" d="M330.5,50.6c-10.2,0.2-18.4,8.6-18.2,18.8c0.2,10.2,8.6,18.4,18.8,18.2c10.2-0.2,18.4-8.6,18.2-18.8
				C349.2,58.6,340.7,50.4,330.5,50.6L330.5,50.6z"/>
			<polygon class="st18" points="330.8,69.6 319.2,61 342.2,60.6 			"/>
			<polygon class="st18" points="326.9,68.9 317.7,76.7 317.4,62 			"/>
			<polygon class="st18" points="328.4,70.1 330.9,72 333.4,69.9 342.6,77.3 319.4,77.7 			"/>
			<polygon class="st18" points="334.9,68.7 344,61.5 344.2,76.2 			"/>
		</g>
		<g>
			<g>
				<path class="st4" d="M327.5,48.6c-10.2,0.2-18.4,8.6-18.2,18.8c0.2,10.2,8.6,18.4,18.8,18.2c10.2-0.2,18.4-8.6,18.2-18.8
					C346.2,56.6,337.7,48.4,327.5,48.6L327.5,48.6z"/>
				<g>
					<polygon class="st2" points="327.8,67.6 316.2,59 339.2,58.6 					"/>
					<polygon class="st2" points="323.9,66.9 314.7,74.7 314.4,60 					"/>
					<polygon class="st2" points="325.4,68.1 327.9,70 330.4,67.9 339.6,75.3 316.4,75.7 					"/>
					<polygon class="st2" points="331.9,66.7 341,59.5 341.2,74.2 					"/>
				</g>
			</g>
		</g>
	</g>
	<g>
		<g class="st17">
			<path class="st18" d="M329.7,173.7c-9.8,0.2-17.6,8.2-17.4,18c0.2,9.8,8.2,17.6,18,17.4c9.8-0.2,17.6-8.2,17.4-18
				C347.6,181.3,339.5,173.5,329.7,173.7L329.7,173.7z"/>
			<path class="st18" d="M338.9,186.7c0-5.1-4-9.3-8.8-9.3c-4.9,0-8.8,4.2-8.8,9.3c0,1.9,0.5,3.6,1.4,5.1h0l7.4,13.6l7.1-13.2
				C338.2,190.7,338.9,188.8,338.9,186.7z M330,182.4c2.3,0,4.1,1.9,4.1,4.3c0,2.4-1.8,4.3-4.1,4.3c-2.3,0-4.1-1.9-4.1-4.3
				C325.9,184.3,327.8,182.4,330,182.4z"/>
		</g>
		<g>
			<g>
				<path class="st4" d="M326.7,171.7c-9.8,0.2-17.6,8.2-17.4,18c0.2,9.8,8.2,17.6,18,17.4c9.8-0.2,17.6-8.2,17.4-18
					C344.6,179.3,336.5,171.5,326.7,171.7L326.7,171.7z"/>
				<path class="st2" d="M335.9,184.7c0-5.1-4-9.3-8.8-9.3c-4.9,0-8.8,4.2-8.8,9.3c0,1.9,0.5,3.6,1.4,5.1h0l7.4,13.6l7.1-13.2
					C335.2,188.7,335.9,186.8,335.9,184.7z M327,180.4c2.3,0,4.1,1.9,4.1,4.3c0,2.4-1.8,4.3-4.1,4.3c-2.3,0-4.1-1.9-4.1-4.3
					C322.9,182.3,324.8,180.4,327,180.4z"/>
			</g>
		</g>
	</g>
	<g>
		<g class="st17">
			<path class="st18" d="M329.7,113.4c-9.8,0.2-17.6,8.2-17.4,18c0.2,9.8,8.2,17.6,18,17.4c9.8-0.2,17.6-8.2,17.4-18
				C347.6,121.1,339.5,113.3,329.7,113.4L329.7,113.4z"/>
			<path class="st18" d="M333.9,136.3c0.5-0.4,6,4.3,6.1,4.9c0.2,0.6-1.3,1.6-1.3,1.6s-2,1.5-2.8,1.7c-0.1,0-0.2,0-0.3,0
				c-3.2,0.2-8-3.7-11.6-9.5c-3.6-5.9-4.8-11.9-3.2-14.7c2.2-1.7,4.3-2.4,5-2.4c0.6,0,2,7.4,1.6,7.7c-0.4,0.3-2.3,0.3-2.9,0.5
				c-0.5,0.2-0.7,1.2-0.4,1.8c0,0,6.4,10.9,7.8,10.8C333.1,138.4,333.3,136.6,333.9,136.3z"/>
		</g>
		<g>
			<g>
				<path class="st4" d="M326.7,111.4c-9.8,0.2-17.6,8.2-17.4,18c0.2,9.8,8.2,17.6,18,17.4c9.8-0.2,17.6-8.2,17.4-18
					C344.6,119.1,336.5,111.3,326.7,111.4L326.7,111.4z"/>
				<path class="st2" d="M330.9,134.3c0.5-0.4,6,4.3,6.1,4.9c0.2,0.6-1.3,1.6-1.3,1.6s-2,1.5-2.8,1.7c-0.1,0-0.2,0-0.3,0
					c-3.2,0.2-8-3.7-11.6-9.5c-3.6-5.9-4.8-11.9-3.2-14.7c2.2-1.7,4.3-2.4,5-2.4c0.6,0,2,7.4,1.6,7.7c-0.4,0.3-2.3,0.3-2.9,0.5
					c-0.5,0.2-0.7,1.2-0.4,1.8c0,0,6.4,10.9,7.8,10.8C330.1,136.4,330.3,134.6,330.9,134.3z"/>
			</g>
		</g>
	</g>
</g>
</svg>
