<svg xmlns="http://www.w3.org/2000/svg" viewBox="0 0 541.06 139.35"><defs><style>.cls-1{fill:#707570;}.cls-2{fill:#0f7641;}</style></defs><g id="Capa_2" data-name="Capa 2"><g id="Color"><path class="cls-1" d="M46.87,74.14a12.1,12.1,0,1,1,16,.07,16.32,16.32,0,0,1,5.77,9.64c.08.42.15.85.2,1.28a2.8,2.8,0,0,1-5.51.94,23,23,0,0,0-.89-3.43c-1.55-3.83-5.09-6-8.58-5.38a9,9,0,0,0-7.23,8,2.91,2.91,0,0,1-2.43,3,2.73,2.73,0,0,1-3.17-3,14,14,0,0,1,3.14-8C45,76.12,46,75.15,46.87,74.14Zm8.05-2.63a6.43,6.43,0,0,0,6.5-6.4,6.5,6.5,0,1,0-6.5,6.4Z"/><path class="cls-1" d="M88.48,62.38c3.13,0,6.26,0,9.38,0a2.75,2.75,0,0,1,1.23,5.17,3.59,3.59,0,0,1-1.58.37q-9,0-18.08,0a2.78,2.78,0,0,1-3-2.8,2.73,2.73,0,0,1,3-2.76h9Z"/><path class="cls-1" d="M86.65,79.07c-2.4,0-4.8,0-7.2,0a2.82,2.82,0,0,1-3-2.7,2.7,2.7,0,0,1,2.82-2.86c2.55,0,5.09,0,7.64,0,2.32,0,4.63,0,7,0a2.78,2.78,0,1,1,0,5.55C91.46,79.09,89.06,79.07,86.65,79.07Z"/><path class="cls-2" d="M38.76,139.35H22a22,22,0,0,1-22-22V100.09a.67.67,0,0,1,.68-.67.67.67,0,0,1,.67.67v17.22A20.71,20.71,0,0,0,22,138H38.76a.68.68,0,1,1,0,1.35Z"/><path class="cls-2" d="M117.32,139.35H100.6a.68.68,0,1,1,0-1.35h16.72A20.71,20.71,0,0,0,138,117.31V100.09a.68.68,0,0,1,1.35,0v17.22a22,22,0,0,1-22,22Z"/><path class="cls-2" d="M.82,39.93a.67.67,0,0,1-.67-.67V22a22,22,0,0,1,22-22H38.91a.67.67,0,0,1,.67.68.67.67,0,0,1-.67.67H22.18A20.71,20.71,0,0,0,1.5,22V39.26A.67.67,0,0,1,.82,39.93Z"/><path class="cls-2" d="M138.83,39.93a.68.68,0,0,1-.68-.67V22A20.71,20.71,0,0,0,117.47,1.35H100.75a.68.68,0,1,1,0-1.35h16.72a22,22,0,0,1,22,22V39.26A.68.68,0,0,1,138.83,39.93Z"/><path class="cls-2" d="M42.05,134.88H21.71A17.23,17.23,0,0,1,4.5,117.67V96.89a3.52,3.52,0,0,1,7,0v20.78a10.18,10.18,0,0,0,10.17,10.17H42.05a3.52,3.52,0,1,1,0,7Z"/><path class="cls-2" d="M117.64,134.88H97.31a3.52,3.52,0,0,1,0-7h20.33a10.19,10.19,0,0,0,10.18-10.17V96.89a3.52,3.52,0,0,1,7,0v20.78A17.23,17.23,0,0,1,117.64,134.88Z"/><path class="cls-2" d="M8.15,46.05a3.52,3.52,0,0,1-3.52-3.52V21.75A17.24,17.24,0,0,1,21.84,4.53H42.18a3.52,3.52,0,1,1,0,7H21.84A10.19,10.19,0,0,0,11.67,21.75V42.53A3.53,3.53,0,0,1,8.15,46.05Z"/><path class="cls-2" d="M131.47,46.05A3.52,3.52,0,0,1,128,42.53V21.75a10.2,10.2,0,0,0-10.18-10.18H97.44a3.52,3.52,0,1,1,0-7h20.33A17.25,17.25,0,0,1,135,21.75V42.53A3.53,3.53,0,0,1,131.47,46.05Z"/><path class="cls-2" d="M104.77,100.68H36.63A8.67,8.67,0,0,1,28,92V52.57a8.67,8.67,0,0,1,8.66-8.66h68.14a8.67,8.67,0,0,1,8.66,8.66V92A8.67,8.67,0,0,1,104.77,100.68ZM36.63,48.24a4.34,4.34,0,0,0-4.33,4.33V92a4.34,4.34,0,0,0,4.33,4.33h68.14A4.34,4.34,0,0,0,109.1,92V52.57a4.34,4.34,0,0,0-4.33-4.33Z"/><path class="cls-1" d="M171.84,103V38.26h18.39l16.09,32.87,16-32.87h18.29V103h-18.9V70.63L211.34,91.94H201.19L190.73,70.63V103Z"/><path class="cls-1" d="M275.88,104a36.79,36.79,0,0,1-14.73-2.76A21.8,21.8,0,0,1,251.2,93q-3.57-5.53-3.57-13.68,0-11.35,6.43-18.14t19.2-6.78q11.67,0,18.25,5.93t6.58,16.18V84.8H265a8.73,8.73,0,0,0,5.13,5.43,27.24,27.24,0,0,0,10.35,1.61,46.72,46.72,0,0,0,8.29-.75,36.34,36.34,0,0,0,6.69-1.76v11.36Q288.45,104,275.88,104ZM265,74.55h16.79V72.84a6.36,6.36,0,0,0-1.76-4.62q-1.77-1.81-6.19-1.81-4.92,0-6.88,2.06T265,74.55Z"/><path class="cls-1" d="M307.94,103V69.12H301l1.6-13.77h24.23V103Zm-1.51-54V35.35h20.41V49Z"/><path class="cls-2" d="M335.89,103V38.26h33.37q7.94,0,13.12,3.17A19.49,19.49,0,0,1,390.07,50a28.46,28.46,0,0,1,2.51,12.07,25,25,0,0,1-2.91,12.16,21,21,0,0,1-8.25,8.34,25.08,25.08,0,0,1-12.56,3H354.79V103Zm18.9-31.87h9.75c2.94,0,5.14-.83,6.58-2.51a9.65,9.65,0,0,0,2.16-6.53,10.65,10.65,0,0,0-2-6.84q-2-2.51-6.23-2.51H354.79Z"/><path class="cls-2" d="M410.48,104a21.53,21.53,0,0,1-8.4-1.61,13.55,13.55,0,0,1-6.18-5,15.12,15.12,0,0,1-2.31-8.65q0-7.53,5-11.71t15.18-4.17h12.37v-.9a4.42,4.42,0,0,0-2.31-4.13c-1.55-.86-4.26-1.3-8.15-1.3A54.46,54.46,0,0,0,399.42,69V57.66a48.69,48.69,0,0,1,9.05-2.36,63.23,63.23,0,0,1,11-.95q11.37,0,18,4.62t6.63,14.68V103H427.66l-.9-3.82a18.52,18.52,0,0,1-6.48,3.52A31.78,31.78,0,0,1,410.48,104Zm6.43-11a12.37,12.37,0,0,0,5.48-1.11,12.93,12.93,0,0,0,3.77-2.71V83.19H417c-4.16,0-6.23,1.65-6.23,4.93S412.82,93,416.91,93Z"/><path class="cls-2" d="M471.29,104a73.41,73.41,0,0,1-11.51-.85,38.16,38.16,0,0,1-8.49-2.16V87.42a35.94,35.94,0,0,0,8.39,2.51,47,47,0,0,0,8.29.91,52.8,52.8,0,0,0,5.48-.21c1.24-.13,1.86-.7,1.86-1.7s-1.1-2-3.31-2.62-5-1.47-8.35-2.61q-6.54-2.31-9.75-5.43t-3.22-9a12.59,12.59,0,0,1,5.63-11Q462,54.36,474,54.35a67.47,67.47,0,0,1,9.55.7,48.63,48.63,0,0,1,7.74,1.61V69.93A28.53,28.53,0,0,0,484.71,68a38.43,38.43,0,0,0-6.48-.61,48.67,48.67,0,0,0-5.73.3Q470,68,470,69.42c0,1.08,1,1.85,2.87,2.32s4.47,1.2,7.69,2.21A34.94,34.94,0,0,1,489,77.47a10.88,10.88,0,0,1,4.33,4.62,16.14,16.14,0,0,1,1.25,6.73A12.74,12.74,0,0,1,488.73,100Q482.85,104,471.29,104Z"/><path class="cls-2" d="M517.73,104a73.5,73.5,0,0,1-11.51-.85,38.31,38.31,0,0,1-8.49-2.16V87.42a36.09,36.09,0,0,0,8.39,2.51,47,47,0,0,0,8.3.91,53.07,53.07,0,0,0,5.48-.21c1.23-.13,1.85-.7,1.85-1.7s-1.1-2-3.31-2.62-5-1.47-8.35-2.61q-6.52-2.31-9.75-5.43t-3.21-9a12.57,12.57,0,0,1,5.63-11q5.63-3.85,17.69-3.86a67.47,67.47,0,0,1,9.55.7,48.63,48.63,0,0,1,7.74,1.61V69.93A28.39,28.39,0,0,0,531.15,68a38.43,38.43,0,0,0-6.48-.61,48.79,48.79,0,0,0-5.73.3c-1.68.21-2.51.78-2.51,1.71s1,1.85,2.86,2.32,4.48,1.2,7.69,2.21a35.21,35.21,0,0,1,8.5,3.52,10.92,10.92,0,0,1,4.32,4.62,16,16,0,0,1,1.26,6.73A12.74,12.74,0,0,1,535.18,100Q529.29,104,517.73,104Z"/></g></g></svg>