<?xml version="1.0" encoding="utf-8"?>
<!-- Generator: Adobe Illustrator 25.4.1, SVG Export Plug-In . SVG Version: 6.00 Build 0)  -->
<svg version="1.1" id="Capa_1" xmlns="http://www.w3.org/2000/svg" xmlns:xlink="http://www.w3.org/1999/xlink" x="0px" y="0px"
	 viewBox="0 0 396.52 115.44" style="enable-background:new 0 0 396.52 115.44;" xml:space="preserve">
<style type="text/css">
	.st0{fill:#707570;}
	.st1{fill:#0F7641;}
</style>
<g>
	<g>
		<path class="st0" d="M38.43,61.69c-4.35-4.04-3.24-9.95-0.09-12.81c3.37-3.06,8.55-3,11.82,0.14c3.23,3.11,3.85,8.85-0.32,12.71
			c2.21,1.79,3.54,4.11,4.12,6.88c0.06,0.3,0.11,0.61,0.15,0.92c0.13,1.02-0.59,2.02-1.59,2.19c-1.1,0.2-2.1-0.47-2.35-1.52
			c-0.19-0.82-0.32-1.67-0.63-2.45c-1.11-2.73-3.63-4.28-6.12-3.83c-2.73,0.49-4.94,2.93-5.16,5.7c-0.1,1.19-0.74,1.97-1.73,2.11
			c-1.31,0.18-2.35-0.78-2.26-2.13c0.13-2.15,0.9-4.06,2.24-5.74C37.11,63.1,37.79,62.4,38.43,61.69z M44.18,59.81
			c2.58,0,4.63-2.02,4.64-4.56c0.01-2.59-2.09-4.67-4.7-4.66c-2.53,0.01-4.6,2.11-4.58,4.65C39.56,57.79,41.62,59.81,44.18,59.81z"
			/>
		<path class="st0" d="M68.12,53.29c2.23,0,4.46-0.01,6.7,0.01c0.9,0.01,1.64,0.64,1.85,1.47c0.21,0.87-0.17,1.82-0.97,2.21
			c-0.34,0.17-0.75,0.26-1.13,0.26c-4.3,0.02-8.6,0.02-12.9,0.01c-1.27,0-2.14-0.83-2.14-2c0-1.18,0.85-1.96,2.15-1.97
			C63.82,53.28,65.97,53.29,68.12,53.29C68.12,53.29,68.12,53.29,68.12,53.29z"/>
		<path class="st0" d="M66.82,65.2c-1.71,0-3.43,0.01-5.14,0c-1.25-0.01-2.12-0.8-2.15-1.92c-0.03-1.17,0.79-2.03,2.01-2.04
			c1.82-0.02,3.64-0.01,5.45-0.01c1.65,0,3.3-0.01,4.96,0c1.24,0.01,2.11,0.81,2.13,1.93c0.02,1.15-0.86,2.02-2.11,2.03
			C70.25,65.22,68.53,65.2,66.82,65.2z"/>
		<g>
			<path class="st1" d="M32.65,108.21H20.72c-4.2,0-8.15-1.64-11.12-4.6C6.63,100.63,5,96.69,5,92.49V80.2
				c0-0.27,0.22-0.48,0.48-0.48c0.27,0,0.48,0.22,0.48,0.48v12.28c0,8.14,6.62,14.76,14.76,14.76h11.93c0.27,0,0.48,0.22,0.48,0.48
				C33.13,107.99,32.92,108.21,32.65,108.21z"/>
			<path class="st1" d="M88.7,108.21H76.77c-0.27,0-0.48-0.22-0.48-0.48c0-0.27,0.22-0.48,0.48-0.48H88.7
				c8.14,0,14.76-6.62,14.76-14.76V80.2c0-0.27,0.22-0.48,0.48-0.48s0.48,0.22,0.48,0.48v12.28c0,4.2-1.64,8.15-4.6,11.12
				C96.85,106.57,92.9,108.21,88.7,108.21z"/>
			<path class="st1" d="M5.58,37.28c-0.27,0-0.48-0.22-0.48-0.48V24.51c0-4.2,1.64-8.15,4.6-11.12c2.97-2.97,6.92-4.6,11.12-4.6
				h11.93c0.27,0,0.48,0.22,0.48,0.48c0,0.27-0.22,0.48-0.48,0.48H20.82c-8.14,0-14.76,6.62-14.76,14.76V36.8
				C6.07,37.06,5.85,37.28,5.58,37.28z"/>
			<path class="st1" d="M104.04,37.28c-0.27,0-0.48-0.22-0.48-0.48V24.51c0-8.14-6.62-14.76-14.76-14.76H76.87
				c-0.27,0-0.48-0.22-0.48-0.48c0-0.27,0.22-0.48,0.48-0.48H88.8c4.2,0,8.15,1.64,11.12,4.6c2.97,2.97,4.6,6.92,4.6,11.12V36.8
				C104.52,37.06,104.31,37.28,104.04,37.28z"/>
		</g>
		<g>
			<path class="st1" d="M34.99,105.02H20.48c-6.77,0-12.28-5.51-12.28-12.28V77.92c0-1.39,1.12-2.51,2.51-2.51s2.51,1.12,2.51,2.51
				v14.83c0,4,3.26,7.26,7.26,7.26h14.51c1.39,0,2.51,1.12,2.51,2.51C37.51,103.9,36.38,105.02,34.99,105.02z"/>
			<path class="st1" d="M88.93,105.02H74.42c-1.39,0-2.51-1.12-2.51-2.51c0-1.39,1.12-2.51,2.51-2.51h14.51c4,0,7.26-3.26,7.26-7.26
				V77.92c0-1.39,1.12-2.51,2.51-2.51c1.39,0,2.51,1.12,2.51,2.51v14.83C101.21,99.51,95.7,105.02,88.93,105.02z"/>
			<path class="st1" d="M10.81,41.64c-1.39,0-2.51-1.12-2.51-2.51V24.31c0-6.77,5.51-12.28,12.28-12.28h14.51
				c1.39,0,2.51,1.12,2.51,2.51s-1.12,2.51-2.51,2.51H20.58c-4,0-7.26,3.26-7.26,7.26v14.83C13.32,40.52,12.19,41.64,10.81,41.64z"
				/>
			<path class="st1" d="M98.79,41.64c-1.39,0-2.51-1.12-2.51-2.51V24.31c0-4-3.26-7.26-7.26-7.26H74.51c-1.39,0-2.51-1.12-2.51-2.51
				s1.12-2.51,2.51-2.51h14.51c6.77,0,12.28,5.51,12.28,12.28v14.83C101.3,40.52,100.18,41.64,98.79,41.64z"/>
		</g>
		<path class="st1" d="M79.74,80.62H31.13c-3.41,0-6.18-2.77-6.18-6.18V46.3c0-3.41,2.77-6.18,6.18-6.18h48.61
			c3.41,0,6.18,2.77,6.18,6.18v28.14C85.92,77.85,83.15,80.62,79.74,80.62z M31.13,43.21c-1.7,0-3.09,1.39-3.09,3.09v28.14
			c0,1.7,1.39,3.09,3.09,3.09h48.61c1.7,0,3.09-1.39,3.09-3.09V46.3c0-1.7-1.39-3.09-3.09-3.09H31.13z"/>
	</g>
	<g>
		<path class="st0" d="M127.59,82.27V36.09h13.12l11.47,23.45l11.4-23.45h13.05v46.19h-13.48V59.18l-7.39,15.2h-7.24l-7.46-15.2
			v23.09H127.59z"/>
		<path class="st0" d="M201.82,82.99c-3.97,0-7.47-0.66-10.51-1.97c-3.04-1.32-5.4-3.29-7.1-5.92c-1.7-2.63-2.55-5.88-2.55-9.75
			c0-5.4,1.53-9.72,4.59-12.94c3.06-3.23,7.63-4.84,13.7-4.84c5.55,0,9.88,1.41,13.02,4.23c3.13,2.82,4.7,6.67,4.7,11.55v5.95h-23.6
			c0.62,1.82,1.84,3.11,3.66,3.87c1.82,0.77,4.28,1.15,7.39,1.15c1.96,0,3.93-0.18,5.92-0.54c1.98-0.36,3.57-0.78,4.77-1.26v8.1
			C212.45,82.2,207.79,82.99,201.82,82.99z M194.07,61.98h11.98v-1.22c0-1.34-0.42-2.44-1.26-3.3c-0.84-0.86-2.31-1.29-4.41-1.29
			c-2.34,0-3.98,0.49-4.91,1.47C194.54,58.62,194.07,60.07,194.07,61.98z"/>
		<path class="st0" d="M224.69,82.27V58.11h-4.95l1.15-9.83h17.28v33.99H224.69z M223.62,43.76v-9.75h14.56v9.75H223.62z"/>
		<path class="st1" d="M244.63,82.27V36.09h23.81c3.78,0,6.9,0.75,9.36,2.26c2.46,1.51,4.29,3.55,5.49,6.13
			c1.19,2.58,1.79,5.45,1.79,8.61c0,3.25-0.69,6.14-2.08,8.68c-1.39,2.53-3.35,4.52-5.88,5.95c-2.53,1.43-5.52,2.15-8.96,2.15
			h-10.04v12.41H244.63z M258.11,59.54h6.96c2.1,0,3.67-0.6,4.7-1.79c1.03-1.19,1.54-2.75,1.54-4.66c0-2.06-0.48-3.68-1.43-4.88
			c-0.96-1.19-2.44-1.79-4.45-1.79h-7.32V59.54z"/>
		<path class="st1" d="M297.84,82.99c-2.15,0-4.15-0.38-5.99-1.15c-1.84-0.76-3.31-1.96-4.41-3.59c-1.1-1.62-1.65-3.68-1.65-6.17
			c0-3.59,1.19-6.37,3.59-8.35c2.39-1.98,6-2.98,10.83-2.98h8.82v-0.65c0-1.34-0.55-2.32-1.65-2.94c-1.1-0.62-3.04-0.93-5.81-0.93
			c-3.92,0-7.79,0.6-11.62,1.79v-8.1c1.72-0.67,3.87-1.23,6.45-1.68c2.58-0.45,5.21-0.68,7.89-0.68c5.4,0,9.68,1.1,12.84,3.3
			c3.16,2.2,4.73,5.69,4.73,10.47v20.94h-11.76l-0.65-2.73c-1.2,1.05-2.74,1.89-4.63,2.51C302.95,82.68,300.62,82.99,297.84,82.99z
			 M302.43,75.1c1.53,0,2.83-0.26,3.91-0.79c1.08-0.53,1.97-1.17,2.69-1.94v-4.23h-6.53c-2.97,0-4.45,1.17-4.45,3.51
			C298.06,73.96,299.52,75.1,302.43,75.1z"/>
		<path class="st1" d="M341.23,82.99c-2.92,0-5.65-0.2-8.21-0.61c-2.56-0.41-4.58-0.92-6.06-1.54v-9.68
			c1.67,0.77,3.67,1.36,5.99,1.79c2.32,0.43,4.29,0.65,5.92,0.65c1.72,0,3.02-0.05,3.91-0.14c0.88-0.1,1.33-0.5,1.33-1.22
			c0-0.81-0.79-1.43-2.37-1.86c-1.58-0.43-3.56-1.05-5.95-1.86c-3.11-1.1-5.43-2.39-6.96-3.87c-1.53-1.48-2.29-3.63-2.29-6.45
			c0-3.39,1.34-6.01,4.02-7.85c2.68-1.84,6.89-2.76,12.62-2.76c2.2,0,4.47,0.17,6.81,0.5c2.34,0.33,4.18,0.72,5.52,1.15v9.47
			c-1.43-0.62-3-1.08-4.7-1.36c-1.7-0.29-3.24-0.43-4.63-0.43c-1.53,0-2.89,0.07-4.09,0.22c-1.2,0.14-1.79,0.55-1.79,1.22
			c0,0.77,0.68,1.32,2.04,1.65c1.36,0.34,3.19,0.86,5.49,1.58c2.58,0.77,4.6,1.6,6.06,2.51c1.46,0.91,2.49,2.01,3.08,3.3
			c0.6,1.29,0.9,2.89,0.9,4.81c0,3.44-1.4,6.11-4.2,8C350.88,82.05,346.73,82.99,341.23,82.99z"/>
		<path class="st1" d="M374.37,82.99c-2.92,0-5.65-0.2-8.21-0.61c-2.56-0.41-4.58-0.92-6.06-1.54v-9.68
			c1.67,0.77,3.67,1.36,5.99,1.79c2.32,0.43,4.29,0.65,5.92,0.65c1.72,0,3.02-0.05,3.91-0.14c0.88-0.1,1.33-0.5,1.33-1.22
			c0-0.81-0.79-1.43-2.37-1.86c-1.58-0.43-3.56-1.05-5.95-1.86c-3.11-1.1-5.43-2.39-6.96-3.87c-1.53-1.48-2.29-3.63-2.29-6.45
			c0-3.39,1.34-6.01,4.02-7.85c2.68-1.84,6.89-2.76,12.62-2.76c2.2,0,4.47,0.17,6.81,0.5c2.34,0.33,4.18,0.72,5.52,1.15v9.47
			c-1.43-0.62-3-1.08-4.7-1.36c-1.7-0.29-3.24-0.43-4.63-0.43c-1.53,0-2.89,0.07-4.09,0.22c-1.2,0.14-1.79,0.55-1.79,1.22
			c0,0.77,0.68,1.32,2.04,1.65c1.36,0.34,3.19,0.86,5.49,1.58c2.58,0.77,4.6,1.6,6.06,2.51c1.46,0.91,2.49,2.01,3.08,3.3
			c0.6,1.29,0.9,2.89,0.9,4.81c0,3.44-1.4,6.11-4.2,8S379.86,82.99,374.37,82.99z"/>
	</g>
</g>
</svg>
