<?xml version="1.0" encoding="utf-8"?>
<!-- Generator: Adobe Illustrator 25.4.1, SVG Export Plug-In . SVG Version: 6.00 Build 0)  -->
<svg version="1.1" xmlns="http://www.w3.org/2000/svg" xmlns:xlink="http://www.w3.org/1999/xlink" x="0px" y="0px"
	 viewBox="0 0 656.57 500" style="enable-background:new 0 0 656.57 500;" xml:space="preserve">
<style type="text/css">
	.st0{fill:#E0E0E0;}
	.st1{fill:#EBEBEB;}
	.st2{fill:#202422;}
	.st3{fill:#F5F5F5;}
	.st4{display:none;}
	.st5{display:inline;}
	.st6{fill:#407BFF;}
	.st7{opacity:0.9;fill:#FFFFFF;}
	.st8{opacity:0.2;enable-background:new    ;}
	.st9{opacity:0.4;fill:#FFFFFF;enable-background:new    ;}
	
		.st10{fill:none;stroke:#407BFF;stroke-width:2;stroke-linecap:round;stroke-linejoin:round;stroke-dasharray:49.2437,4.9244,24.6219,9.8487,9.8487,14.7731;}
	.st11{opacity:0.7;fill:#FFFFFF;enable-background:new    ;}
	.st12{fill:#263238;}
	.st13{opacity:0.2;fill:#FFFFFF;}
	.st14{opacity:0.4;fill:#FFFFFF;}
	.st15{opacity:0.2;}
	.st16{opacity:0.1;}
	.st17{opacity:0.1;fill:#FFFFFF;}
	.st18{opacity:0.7;fill:#FFFFFF;}
	.st19{fill:none;stroke:#FFFFFF;stroke-width:3;stroke-miterlimit:10;}
	.st20{fill:#EBB376;}
	.st21{opacity:0.6;}
	.st22{fill:#FFFFFF;}
	.st23{opacity:0.6;fill:#FFFFFF;enable-background:new    ;}
	.st24{opacity:0.4;}
	.st25{opacity:0.4;enable-background:new    ;}
	.st26{fill:#D58745;}
	.st27{fill:none;stroke:#263238;stroke-width:0.75;stroke-linecap:round;stroke-linejoin:round;stroke-miterlimit:10;}
</style>
<g id="Background_Complete">
	<g>
		<g>
			<path class="st0" d="M418.15,154.67v11.12h47.27v-11.12h-22.24V64.56l20.56,2.31l0.44,0.56l0.42-0.46l37.42,4.2l0.34,0.43
				l0.33-0.36l75.33,8.45v390.57h20.85V54.57v-2.78V50.4H439.01v12.51v1.18v90.57H418.15z M560.01,73.47l-25.88-2.9l12.54-12.89
				L560.01,73.47z M549.51,54.57h26.22l-12.18,16.62L549.51,54.57z M530.63,68.18l-12.35-13.61h25.58L530.63,68.18z M446.43,60.73
				l-3.25-0.36v-4.05L446.43,60.73z M447.07,54.57h6.71l-3.73,4.04L447.07,54.57z M470.28,54.57L464.4,61l-5.12-6.43H470.28z
				 M488.75,54.57l-6.79,7.77l-6.19-7.77H488.75z M512.61,54.57l-9.98,10.65l-8.45-10.65H512.61z M578.03,75.49l-11.52-1.29
				l11.52-15.72V75.49z M506.26,67.44l9.18-9.79l10.93,12.05L506.26,67.44z M498.37,66.55l-13.26-1.49l6.33-7.24L498.37,66.55z
				 M468.08,63.16l4.92-5.38l5.19,6.51L468.08,63.16z M460.07,62.26l-6.99-0.78l3.42-3.7L460.07,62.26z"/>
			<path class="st0" d="M486.28,157.45h-5.56v282.22h72.29V149.11h-5.56v26.41h-27.81v-13.9h-4.17v13.9h-29.2V157.45z
				 M519.64,182.47h27.81v15.29h-27.81V182.47z M486.28,182.47h29.2v15.29h-29.2V182.47z"/>
		</g>
		<g>
			<polygon class="st1" points="51.17,482.77 51.17,411.64 57.25,411.64 57.25,377.75 66.14,377.75 66.14,259.9 78.99,259.9 
				78.99,244.7 106.43,231.9 106.43,216.57 110.24,216.57 110.24,259.9 115.56,259.9 115.56,377.75 120.88,377.75 120.88,315.78 
				135.32,315.78 135.32,283.85 139.36,283.85 139.36,377.75 150.33,377.75 150.33,342.01 157.55,342.01 157.55,332.89 
				174.27,332.89 174.27,301.72 183.43,301.72 183.43,279.67 194.69,279.67 194.69,247.55 198.71,247.55 198.71,279.67 
				209.97,279.67 209.97,301.72 219.13,301.72 219.13,332.89 235.86,332.89 235.86,342.01 243.08,342.01 243.08,377.75 
				251.65,377.75 251.65,332.89 268.37,332.89 268.37,236.34 273.69,236.34 273.69,225.69 309.43,225.69 309.43,236.34 
				317.03,236.34 317.03,306.28 347.44,306.28 347.44,313.12 358.84,313.12 358.84,318.45 347.44,318.45 347.44,345.81 
				379.37,345.81 379.37,254.58 386.21,254.58 386.21,235.2 401.04,235.2 401.04,166.39 405.22,166.39 405.22,235.2 415.86,235.2 
				415.86,254.58 478.26,254.58 478.26,248.2 482.06,248.2 482.06,291.54 487.39,291.54 487.39,292.3 490.58,292.3 490.58,335.63 
				495.9,335.63 495.9,347.42 507.15,347.42 507.15,315.49 511.18,315.49 511.18,391.51 515.67,391.51 515.67,359.58 519.7,359.58 
				519.7,409.38 522.15,409.38 522.15,373.65 529.38,373.65 529.38,364.52 546.1,364.52 546.1,333.35 555.26,333.35 555.26,311.3 
				566.52,311.3 566.52,279.18 570.54,279.18 570.54,311.3 581.8,311.3 581.8,333.35 590.96,333.35 590.96,364.52 607.69,364.52 
				607.69,373.65 614.91,373.65 614.91,408.62 616.2,408.62 616.2,409.38 619.78,409.38 619.78,482.77 			"/>
			<g>
				<rect x="439.14" y="258.85" class="st2" width="4.31" height="4.31"/>
				<rect x="439.14" y="266.07" class="st2" width="4.31" height="4.31"/>
				<rect x="439.14" y="294.96" class="st2" width="4.31" height="4.31"/>
				<rect x="439.14" y="302.18" class="st2" width="4.31" height="4.31"/>
				<rect x="439.14" y="309.4" class="st2" width="4.31" height="4.31"/>
				<rect x="439.14" y="331.07" class="st2" width="4.31" height="4.31"/>
				<rect x="439.14" y="338.29" class="st2" width="4.31" height="4.31"/>
				<rect x="432.3" y="287.74" class="st2" width="4.31" height="4.31"/>
				<rect x="432.3" y="294.96" class="st2" width="4.31" height="4.31"/>
				<rect x="432.3" y="302.18" class="st2" width="4.31" height="4.31"/>
				<rect x="432.3" y="309.4" class="st2" width="4.31" height="4.31"/>
				<rect x="432.3" y="316.63" class="st2" width="4.31" height="4.31"/>
				<rect x="432.3" y="331.07" class="st2" width="4.31" height="4.31"/>
				<rect x="432.3" y="338.29" class="st2" width="4.31" height="4.31"/>
				<rect x="425.45" y="258.85" class="st2" width="4.31" height="4.31"/>
				<rect x="425.45" y="266.07" class="st2" width="4.31" height="4.31"/>
				<rect x="425.45" y="273.29" class="st2" width="4.31" height="4.31"/>
				<rect x="425.45" y="280.51" class="st2" width="4.31" height="4.31"/>
				<rect x="425.45" y="287.74" class="st2" width="4.31" height="4.31"/>
				<rect x="425.45" y="294.96" class="st2" width="4.31" height="4.31"/>
				<rect x="425.45" y="302.18" class="st2" width="4.31" height="4.31"/>
				<rect x="425.45" y="309.4" class="st2" width="4.31" height="4.31"/>
				<rect x="425.45" y="316.63" class="st2" width="4.31" height="4.31"/>
				<rect x="425.45" y="323.85" class="st2" width="4.31" height="4.31"/>
				<rect x="425.45" y="338.29" class="st2" width="4.31" height="4.31"/>
				<rect x="418.61" y="258.85" class="st2" width="4.31" height="4.31"/>
				<rect x="418.61" y="266.07" class="st2" width="4.31" height="4.31"/>
				<rect x="418.61" y="273.29" class="st2" width="4.31" height="4.31"/>
				<rect x="418.61" y="280.51" class="st2" width="4.31" height="4.31"/>
				<rect x="418.61" y="287.74" class="st2" width="4.31" height="4.31"/>
				<rect x="418.61" y="294.96" class="st2" width="4.31" height="4.31"/>
				<rect x="418.61" y="302.18" class="st2" width="4.31" height="4.31"/>
				<rect x="418.61" y="367.18" class="st2" width="4.31" height="4.31"/>
				<rect x="411.77" y="258.85" class="st2" width="4.31" height="4.31"/>
				<rect x="411.77" y="266.07" class="st2" width="4.31" height="4.31"/>
				<rect x="411.77" y="273.29" class="st2" width="4.31" height="4.31"/>
				<rect x="411.77" y="280.51" class="st2" width="4.31" height="4.31"/>
				<rect x="411.77" y="287.74" class="st2" width="4.31" height="4.31"/>
				<rect x="411.77" y="294.96" class="st2" width="4.31" height="4.31"/>
				<rect x="411.77" y="302.18" class="st2" width="4.31" height="4.31"/>
				<rect x="411.77" y="309.4" class="st2" width="4.31" height="4.31"/>
				<rect x="411.77" y="352.74" class="st2" width="4.31" height="4.31"/>
				<rect x="411.77" y="359.96" class="st2" width="4.31" height="4.31"/>
				<rect x="411.77" y="367.18" class="st2" width="4.31" height="4.31"/>
				<rect x="411.77" y="374.41" class="st2" width="4.31" height="4.31"/>
				<rect x="411.77" y="403.3" class="st2" width="4.31" height="4.31"/>
				<rect x="404.93" y="258.85" class="st2" width="4.31" height="4.31"/>
				<rect x="404.93" y="266.07" class="st2" width="4.31" height="4.31"/>
				<rect x="404.93" y="273.29" class="st2" width="4.31" height="4.31"/>
				<rect x="404.93" y="280.51" class="st2" width="4.31" height="4.31"/>
				<rect x="404.93" y="287.74" class="st2" width="4.31" height="4.31"/>
				<rect x="404.93" y="294.96" class="st2" width="4.31" height="4.31"/>
				<rect x="404.93" y="302.18" class="st2" width="4.31" height="4.31"/>
				<rect x="404.93" y="309.4" class="st2" width="4.31" height="4.31"/>
				<rect x="404.93" y="316.63" class="st2" width="4.31" height="4.31"/>
				<rect x="404.93" y="323.85" class="st2" width="4.31" height="4.31"/>
				<rect x="404.93" y="345.52" class="st2" width="4.31" height="4.31"/>
				<rect x="404.93" y="352.74" class="st2" width="4.31" height="4.31"/>
				<rect x="404.93" y="359.96" class="st2" width="4.31" height="4.31"/>
				<rect x="404.93" y="367.18" class="st2" width="4.31" height="4.31"/>
				<rect x="404.93" y="374.41" class="st2" width="4.31" height="4.31"/>
				<rect x="404.93" y="403.3" class="st2" width="4.31" height="4.31"/>
				<rect x="398.08" y="258.85" class="st2" width="4.31" height="4.31"/>
				<rect x="398.08" y="266.07" class="st2" width="4.31" height="4.31"/>
				<rect x="398.08" y="273.29" class="st2" width="4.31" height="4.31"/>
				<rect x="398.08" y="280.51" class="st2" width="4.31" height="4.31"/>
				<rect x="398.08" y="287.74" class="st2" width="4.31" height="4.31"/>
				<rect x="398.08" y="294.96" class="st2" width="4.31" height="4.31"/>
				<rect x="398.08" y="302.18" class="st2" width="4.31" height="4.31"/>
				<rect x="398.08" y="309.4" class="st2" width="4.31" height="4.31"/>
				<rect x="398.08" y="316.63" class="st2" width="4.31" height="4.31"/>
				<rect x="398.08" y="323.85" class="st2" width="4.31" height="4.31"/>
				<rect x="398.08" y="331.07" class="st2" width="4.31" height="4.31"/>
				<rect x="398.08" y="338.29" class="st2" width="4.31" height="4.31"/>
				<rect x="398.08" y="345.52" class="st2" width="4.31" height="4.31"/>
				<rect x="398.08" y="352.74" class="st2" width="4.31" height="4.31"/>
				<rect x="398.08" y="359.96" class="st2" width="4.31" height="4.31"/>
				<rect x="398.08" y="367.18" class="st2" width="4.31" height="4.31"/>
				<rect x="398.08" y="374.41" class="st2" width="4.31" height="4.31"/>
				<rect x="398.08" y="381.63" class="st2" width="4.31" height="4.31"/>
				<rect x="391.24" y="258.85" class="st2" width="4.31" height="4.31"/>
				<rect x="391.24" y="266.07" class="st2" width="4.31" height="4.31"/>
				<rect x="391.24" y="273.29" class="st2" width="4.31" height="4.31"/>
				<rect x="391.24" y="280.51" class="st2" width="4.31" height="4.31"/>
				<rect x="391.24" y="287.74" class="st2" width="4.31" height="4.31"/>
				<rect x="391.24" y="294.96" class="st2" width="4.31" height="4.31"/>
				<rect x="391.24" y="302.18" class="st2" width="4.31" height="4.31"/>
				<rect x="391.24" y="309.4" class="st2" width="4.31" height="4.31"/>
				<rect x="391.24" y="316.63" class="st2" width="4.31" height="4.31"/>
				<rect x="391.24" y="323.85" class="st2" width="4.31" height="4.31"/>
				<rect x="391.24" y="345.52" class="st2" width="4.31" height="4.31"/>
				<rect x="391.24" y="352.74" class="st2" width="4.31" height="4.31"/>
				<rect x="391.24" y="359.96" class="st2" width="4.31" height="4.31"/>
				<rect x="391.24" y="367.18" class="st2" width="4.31" height="4.31"/>
				<rect x="384.4" y="258.85" class="st2" width="4.31" height="4.31"/>
				<rect x="384.4" y="266.07" class="st2" width="4.31" height="4.31"/>
				<rect x="384.4" y="273.29" class="st2" width="4.31" height="4.31"/>
				<rect x="384.4" y="280.51" class="st2" width="4.31" height="4.31"/>
				<rect x="384.4" y="287.74" class="st2" width="4.31" height="4.31"/>
				<rect x="384.4" y="294.96" class="st2" width="4.31" height="4.31"/>
				<rect x="384.4" y="302.18" class="st2" width="4.31" height="4.31"/>
				<rect x="384.4" y="309.4" class="st2" width="4.31" height="4.31"/>
				<rect x="384.4" y="316.63" class="st2" width="4.31" height="4.31"/>
				<rect x="384.4" y="323.85" class="st2" width="4.31" height="4.31"/>
				<rect x="384.4" y="345.52" class="st2" width="4.31" height="4.31"/>
				<rect x="384.4" y="352.74" class="st2" width="4.31" height="4.31"/>
				<rect x="384.4" y="359.96" class="st2" width="4.31" height="4.31"/>
				<rect x="307.36" y="240.09" class="st2" width="4.31" height="4.31"/>
				<rect x="307.36" y="247.32" class="st2" width="4.31" height="4.31"/>
				<rect x="307.36" y="254.54" class="st2" width="4.31" height="4.31"/>
				<rect x="307.36" y="261.76" class="st2" width="4.31" height="4.31"/>
				<rect x="307.36" y="268.98" class="st2" width="4.31" height="4.31"/>
				<rect x="307.36" y="276.21" class="st2" width="4.31" height="4.31"/>
				<rect x="307.36" y="283.43" class="st2" width="4.31" height="4.31"/>
				<rect x="307.36" y="290.65" class="st2" width="4.31" height="4.31"/>
				<rect x="307.36" y="312.32" class="st2" width="4.31" height="4.31"/>
				<rect x="307.36" y="319.54" class="st2" width="4.31" height="4.31"/>
				<rect x="300.52" y="240.09" class="st2" width="4.31" height="4.31"/>
				<rect x="300.52" y="247.32" class="st2" width="4.31" height="4.31"/>
				<rect x="300.52" y="254.54" class="st2" width="4.31" height="4.31"/>
				<rect x="300.52" y="261.76" class="st2" width="4.31" height="4.31"/>
				<rect x="300.52" y="268.98" class="st2" width="4.31" height="4.31"/>
				<rect x="300.52" y="276.21" class="st2" width="4.31" height="4.31"/>
				<rect x="300.52" y="283.43" class="st2" width="4.31" height="4.31"/>
				<rect x="300.52" y="290.65" class="st2" width="4.31" height="4.31"/>
				<rect x="300.52" y="319.54" class="st2" width="4.31" height="4.31"/>
				<rect x="293.67" y="240.09" class="st2" width="4.31" height="4.31"/>
				<rect x="293.67" y="247.32" class="st2" width="4.31" height="4.31"/>
				<rect x="293.67" y="254.54" class="st2" width="4.31" height="4.31"/>
				<rect x="293.67" y="261.76" class="st2" width="4.31" height="4.31"/>
				<rect x="293.67" y="268.98" class="st2" width="4.31" height="4.31"/>
				<rect x="293.67" y="276.21" class="st2" width="4.31" height="4.31"/>
				<rect x="293.67" y="283.43" class="st2" width="4.31" height="4.31"/>
				<rect x="293.67" y="290.65" class="st2" width="4.31" height="4.31"/>
				<rect x="286.83" y="240.09" class="st2" width="4.31" height="4.31"/>
				<rect x="286.83" y="247.32" class="st2" width="4.31" height="4.31"/>
				<rect x="286.83" y="254.54" class="st2" width="4.31" height="4.31"/>
				<rect x="286.83" y="261.76" class="st2" width="4.31" height="4.31"/>
				<rect x="286.83" y="268.98" class="st2" width="4.31" height="4.31"/>
				<rect x="286.83" y="276.21" class="st2" width="4.31" height="4.31"/>
				<rect x="286.83" y="290.65" class="st2" width="4.31" height="4.31"/>
				<rect x="286.83" y="297.87" class="st2" width="4.31" height="4.31"/>
				<rect x="286.83" y="319.54" class="st2" width="4.31" height="4.31"/>
				<rect x="286.83" y="326.76" class="st2" width="4.31" height="4.31"/>
				<rect x="286.83" y="333.99" class="st2" width="4.31" height="4.31"/>
				<rect x="286.83" y="341.21" class="st2" width="4.31" height="4.31"/>
				<rect x="286.83" y="348.43" class="st2" width="4.31" height="4.31"/>
				<rect x="286.83" y="355.65" class="st2" width="4.31" height="4.31"/>
				<rect x="286.83" y="362.88" class="st2" width="4.31" height="4.31"/>
				<rect x="279.99" y="240.09" class="st2" width="4.31" height="4.31"/>
				<rect x="279.99" y="247.32" class="st2" width="4.31" height="4.31"/>
				<rect x="279.99" y="254.54" class="st2" width="4.31" height="4.31"/>
				<rect x="279.99" y="261.76" class="st2" width="4.31" height="4.31"/>
				<rect x="279.99" y="268.98" class="st2" width="4.31" height="4.31"/>
				<rect x="279.99" y="276.21" class="st2" width="4.31" height="4.31"/>
				<rect x="279.99" y="297.87" class="st2" width="4.31" height="4.31"/>
				<rect x="279.99" y="305.1" class="st2" width="4.31" height="4.31"/>
				<rect x="279.99" y="312.32" class="st2" width="4.31" height="4.31"/>
				<rect x="279.99" y="319.54" class="st2" width="4.31" height="4.31"/>
				<rect x="279.99" y="326.76" class="st2" width="4.31" height="4.31"/>
				<rect x="279.99" y="333.99" class="st2" width="4.31" height="4.31"/>
				<rect x="279.99" y="341.21" class="st2" width="4.31" height="4.31"/>
				<rect x="279.99" y="348.43" class="st2" width="4.31" height="4.31"/>
				<rect x="279.99" y="355.65" class="st2" width="4.31" height="4.31"/>
				<rect x="279.99" y="362.88" class="st2" width="4.31" height="4.31"/>
				<rect x="279.99" y="370.1" class="st2" width="4.31" height="4.31"/>
				<rect x="279.99" y="384.54" class="st2" width="4.31" height="4.31"/>
				<rect x="273.15" y="240.09" class="st2" width="4.31" height="4.31"/>
				<rect x="273.15" y="247.32" class="st2" width="4.31" height="4.31"/>
				<rect x="273.15" y="254.54" class="st2" width="4.31" height="4.31"/>
				<rect x="273.15" y="261.76" class="st2" width="4.31" height="4.31"/>
				<rect x="273.15" y="268.98" class="st2" width="4.31" height="4.31"/>
				<rect x="273.15" y="276.21" class="st2" width="4.31" height="4.31"/>
				<rect x="273.15" y="297.87" class="st2" width="4.31" height="4.31"/>
				<rect x="273.15" y="305.1" class="st2" width="4.31" height="4.31"/>
				<rect x="273.15" y="312.32" class="st2" width="4.31" height="4.31"/>
				<rect x="273.15" y="319.54" class="st2" width="4.31" height="4.31"/>
				<rect x="273.15" y="341.21" class="st2" width="4.31" height="4.31"/>
				<rect x="273.15" y="348.43" class="st2" width="4.31" height="4.31"/>
				<rect x="273.15" y="355.65" class="st2" width="4.31" height="4.31"/>
				<rect x="273.15" y="362.88" class="st2" width="4.31" height="4.31"/>
				<rect x="273.15" y="370.1" class="st2" width="4.31" height="4.31"/>
				<rect x="273.15" y="384.54" class="st2" width="4.31" height="4.31"/>
				<rect x="273.15" y="391.77" class="st2" width="4.31" height="4.31"/>
				<rect x="211.06" y="307.25" class="st2" width="4.31" height="4.31"/>
				<rect x="211.06" y="314.47" class="st2" width="4.31" height="4.31"/>
				<rect x="211.06" y="321.69" class="st2" width="4.31" height="4.31"/>
				<rect x="211.06" y="328.92" class="st2" width="4.31" height="4.31"/>
				<rect x="211.06" y="336.14" class="st2" width="4.31" height="4.31"/>
				<rect x="211.06" y="343.36" class="st2" width="4.31" height="4.31"/>
				<rect x="211.06" y="350.58" class="st2" width="4.31" height="4.31"/>
				<rect x="211.06" y="372.25" class="st2" width="4.31" height="4.31"/>
				<rect x="211.06" y="379.48" class="st2" width="4.31" height="4.31"/>
				<rect x="211.06" y="386.7" class="st2" width="4.31" height="4.31"/>
				<rect x="204.22" y="307.25" class="st2" width="4.31" height="4.31"/>
				<rect x="204.22" y="314.47" class="st2" width="4.31" height="4.31"/>
				<rect x="204.22" y="321.69" class="st2" width="4.31" height="4.31"/>
				<rect x="204.22" y="328.92" class="st2" width="4.31" height="4.31"/>
				<rect x="204.22" y="336.14" class="st2" width="4.31" height="4.31"/>
				<rect x="204.22" y="343.36" class="st2" width="4.31" height="4.31"/>
				<rect x="204.22" y="350.58" class="st2" width="4.31" height="4.31"/>
				<rect x="197.37" y="307.25" class="st2" width="4.31" height="4.31"/>
				<rect x="197.37" y="314.47" class="st2" width="4.31" height="4.31"/>
				<rect x="197.37" y="321.69" class="st2" width="4.31" height="4.31"/>
				<rect x="197.37" y="328.92" class="st2" width="4.31" height="4.31"/>
				<rect x="197.37" y="336.14" class="st2" width="4.31" height="4.31"/>
				<rect x="197.37" y="343.36" class="st2" width="4.31" height="4.31"/>
				<rect x="197.37" y="350.58" class="st2" width="4.31" height="4.31"/>
				<rect x="190.53" y="307.25" class="st2" width="4.31" height="4.31"/>
				<rect x="190.53" y="314.47" class="st2" width="4.31" height="4.31"/>
				<rect x="190.53" y="321.69" class="st2" width="4.31" height="4.31"/>
				<rect x="190.53" y="328.92" class="st2" width="4.31" height="4.31"/>
				<rect x="190.53" y="336.14" class="st2" width="4.31" height="4.31"/>
				<rect x="190.53" y="343.36" class="st2" width="4.31" height="4.31"/>
				<rect x="190.53" y="350.58" class="st2" width="4.31" height="4.31"/>
				<rect x="190.53" y="357.81" class="st2" width="4.31" height="4.31"/>
				<rect x="190.53" y="365.03" class="st2" width="4.31" height="4.31"/>
				<rect x="190.53" y="372.25" class="st2" width="4.31" height="4.31"/>
				<rect x="190.53" y="379.48" class="st2" width="4.31" height="4.31"/>
				<rect x="183.69" y="307.25" class="st2" width="4.31" height="4.31"/>
				<rect x="183.69" y="314.47" class="st2" width="4.31" height="4.31"/>
				<rect x="183.69" y="321.69" class="st2" width="4.31" height="4.31"/>
				<rect x="183.69" y="328.92" class="st2" width="4.31" height="4.31"/>
				<rect x="183.69" y="336.14" class="st2" width="4.31" height="4.31"/>
				<rect x="183.69" y="343.36" class="st2" width="4.31" height="4.31"/>
				<rect x="183.69" y="350.58" class="st2" width="4.31" height="4.31"/>
				<rect x="183.69" y="357.81" class="st2" width="4.31" height="4.31"/>
				<rect x="183.69" y="365.03" class="st2" width="4.31" height="4.31"/>
				<rect x="183.69" y="372.25" class="st2" width="4.31" height="4.31"/>
				<rect x="183.69" y="379.48" class="st2" width="4.31" height="4.31"/>
				<rect x="183.69" y="386.7" class="st2" width="4.31" height="4.31"/>
				<rect x="183.69" y="408.37" class="st2" width="4.31" height="4.31"/>
				<rect x="183.69" y="415.59" class="st2" width="4.31" height="4.31"/>
				<rect x="176.85" y="307.25" class="st2" width="4.31" height="4.31"/>
				<rect x="176.85" y="314.47" class="st2" width="4.31" height="4.31"/>
				<rect x="176.85" y="321.69" class="st2" width="4.31" height="4.31"/>
				<rect x="176.85" y="343.36" class="st2" width="4.31" height="4.31"/>
				<rect x="176.85" y="350.58" class="st2" width="4.31" height="4.31"/>
				<rect x="176.85" y="357.81" class="st2" width="4.31" height="4.31"/>
				<rect x="176.85" y="365.03" class="st2" width="4.31" height="4.31"/>
				<rect x="176.85" y="372.25" class="st2" width="4.31" height="4.31"/>
				<rect x="176.85" y="379.48" class="st2" width="4.31" height="4.31"/>
				<rect x="176.85" y="386.7" class="st2" width="4.31" height="4.31"/>
				<rect x="176.85" y="408.37" class="st2" width="4.31" height="4.31"/>
				<rect x="176.85" y="415.59" class="st2" width="4.31" height="4.31"/>
				<rect x="176.85" y="422.81" class="st2" width="4.31" height="4.31"/>
				<rect x="105.13" y="263.91" class="st2" width="4.31" height="4.31"/>
				<rect x="105.13" y="271.14" class="st2" width="4.31" height="4.31"/>
				<rect x="105.13" y="278.36" class="st2" width="4.31" height="4.31"/>
				<rect x="105.13" y="285.58" class="st2" width="4.31" height="4.31"/>
				<rect x="105.13" y="292.8" class="st2" width="4.31" height="4.31"/>
				<rect x="105.13" y="300.03" class="st2" width="4.31" height="4.31"/>
				<rect x="105.13" y="307.25" class="st2" width="4.31" height="4.31"/>
				<rect x="105.13" y="314.47" class="st2" width="4.31" height="4.31"/>
				<rect x="105.13" y="321.69" class="st2" width="4.31" height="4.31"/>
				<rect x="105.13" y="328.92" class="st2" width="4.31" height="4.31"/>
				<rect x="105.13" y="336.14" class="st2" width="4.31" height="4.31"/>
				<rect x="105.13" y="343.36" class="st2" width="4.31" height="4.31"/>
				<rect x="105.13" y="350.58" class="st2" width="4.31" height="4.31"/>
				<rect x="105.13" y="357.81" class="st2" width="4.31" height="4.31"/>
				<rect x="105.13" y="365.03" class="st2" width="4.31" height="4.31"/>
				<rect x="105.13" y="372.25" class="st2" width="4.31" height="4.31"/>
				<rect x="105.13" y="379.48" class="st2" width="4.31" height="4.31"/>
				<rect x="105.13" y="386.7" class="st2" width="4.31" height="4.31"/>
				<rect x="105.13" y="393.92" class="st2" width="4.31" height="4.31"/>
				<rect x="105.13" y="401.14" class="st2" width="4.31" height="4.31"/>
				<rect x="105.13" y="408.37" class="st2" width="4.31" height="4.31"/>
				<rect x="105.13" y="415.59" class="st2" width="4.31" height="4.31"/>
				<rect x="105.13" y="422.81" class="st2" width="4.31" height="4.31"/>
				<rect x="98.28" y="263.91" class="st2" width="4.31" height="4.31"/>
				<rect x="98.28" y="271.14" class="st2" width="4.31" height="4.31"/>
				<rect x="98.28" y="278.36" class="st2" width="4.31" height="4.31"/>
				<rect x="98.28" y="285.58" class="st2" width="4.31" height="4.31"/>
				<rect x="98.28" y="292.8" class="st2" width="4.31" height="4.31"/>
				<rect x="98.28" y="300.03" class="st2" width="4.31" height="4.31"/>
				<rect x="98.28" y="307.25" class="st2" width="4.31" height="4.31"/>
				<rect x="98.28" y="314.47" class="st2" width="4.31" height="4.31"/>
				<rect x="98.28" y="321.69" class="st2" width="4.31" height="4.31"/>
				<rect x="98.28" y="328.92" class="st2" width="4.31" height="4.31"/>
				<rect x="98.28" y="336.14" class="st2" width="4.31" height="4.31"/>
				<rect x="98.28" y="343.36" class="st2" width="4.31" height="4.31"/>
				<rect x="98.28" y="350.58" class="st2" width="4.31" height="4.31"/>
				<rect x="98.28" y="357.81" class="st2" width="4.31" height="4.31"/>
				<rect x="98.28" y="365.03" class="st2" width="4.31" height="4.31"/>
				<rect x="98.28" y="372.25" class="st2" width="4.31" height="4.31"/>
				<rect x="98.28" y="379.48" class="st2" width="4.31" height="4.31"/>
				<rect x="98.28" y="386.7" class="st2" width="4.31" height="4.31"/>
				<rect x="98.28" y="393.92" class="st2" width="4.31" height="4.31"/>
				<rect x="91.44" y="263.91" class="st2" width="4.31" height="4.31"/>
				<rect x="91.44" y="271.14" class="st2" width="4.31" height="4.31"/>
				<rect x="91.44" y="278.36" class="st2" width="4.31" height="4.31"/>
				<rect x="91.44" y="285.58" class="st2" width="4.31" height="4.31"/>
				<rect x="91.44" y="292.8" class="st2" width="4.31" height="4.31"/>
				<rect x="91.44" y="300.03" class="st2" width="4.31" height="4.31"/>
				<rect x="91.44" y="307.25" class="st2" width="4.31" height="4.31"/>
				<rect x="91.44" y="314.47" class="st2" width="4.31" height="4.31"/>
				<rect x="91.44" y="321.69" class="st2" width="4.31" height="4.31"/>
				<rect x="91.44" y="328.92" class="st2" width="4.31" height="4.31"/>
				<rect x="91.44" y="336.14" class="st2" width="4.31" height="4.31"/>
				<rect x="91.44" y="343.36" class="st2" width="4.31" height="4.31"/>
				<rect x="91.44" y="350.58" class="st2" width="4.31" height="4.31"/>
				<rect x="91.44" y="357.81" class="st2" width="4.31" height="4.31"/>
				<rect x="91.44" y="365.03" class="st2" width="4.31" height="4.31"/>
				<rect x="91.44" y="372.25" class="st2" width="4.31" height="4.31"/>
				<rect x="91.44" y="379.48" class="st2" width="4.31" height="4.31"/>
				<rect x="91.44" y="386.7" class="st2" width="4.31" height="4.31"/>
				<rect x="91.44" y="393.92" class="st2" width="4.31" height="4.31"/>
				<rect x="84.6" y="263.91" class="st2" width="4.31" height="4.31"/>
				<rect x="84.6" y="271.14" class="st2" width="4.31" height="4.31"/>
				<rect x="84.6" y="278.36" class="st2" width="4.31" height="4.31"/>
				<rect x="84.6" y="285.58" class="st2" width="4.31" height="4.31"/>
				<rect x="84.6" y="292.8" class="st2" width="4.31" height="4.31"/>
				<rect x="84.6" y="300.03" class="st2" width="4.31" height="4.31"/>
				<rect x="84.6" y="307.25" class="st2" width="4.31" height="4.31"/>
				<rect x="84.6" y="314.47" class="st2" width="4.31" height="4.31"/>
				<rect x="84.6" y="321.69" class="st2" width="4.31" height="4.31"/>
				<rect x="84.6" y="328.92" class="st2" width="4.31" height="4.31"/>
				<rect x="84.6" y="336.14" class="st2" width="4.31" height="4.31"/>
				<rect x="84.6" y="343.36" class="st2" width="4.31" height="4.31"/>
				<rect x="84.6" y="350.58" class="st2" width="4.31" height="4.31"/>
				<rect x="84.6" y="357.81" class="st2" width="4.31" height="4.31"/>
				<rect x="84.6" y="365.03" class="st2" width="4.31" height="4.31"/>
				<rect x="77.76" y="263.91" class="st2" width="4.31" height="4.31"/>
				<rect x="77.76" y="271.14" class="st2" width="4.31" height="4.31"/>
				<rect x="77.76" y="278.36" class="st2" width="4.31" height="4.31"/>
				<rect x="77.76" y="285.58" class="st2" width="4.31" height="4.31"/>
				<rect x="77.76" y="292.8" class="st2" width="4.31" height="4.31"/>
				<rect x="77.76" y="300.03" class="st2" width="4.31" height="4.31"/>
				<rect x="77.76" y="307.25" class="st2" width="4.31" height="4.31"/>
				<rect x="77.76" y="314.47" class="st2" width="4.31" height="4.31"/>
				<rect x="77.76" y="321.69" class="st2" width="4.31" height="4.31"/>
				<rect x="77.76" y="328.92" class="st2" width="4.31" height="4.31"/>
				<rect x="77.76" y="336.14" class="st2" width="4.31" height="4.31"/>
				<rect x="77.76" y="343.36" class="st2" width="4.31" height="4.31"/>
				<rect x="77.76" y="350.58" class="st2" width="4.31" height="4.31"/>
				<rect x="70.92" y="263.91" class="st2" width="4.31" height="4.31"/>
				<rect x="70.92" y="271.14" class="st2" width="4.31" height="4.31"/>
				<rect x="70.92" y="278.36" class="st2" width="4.31" height="4.31"/>
				<rect x="70.92" y="285.58" class="st2" width="4.31" height="4.31"/>
				<rect x="70.92" y="292.8" class="st2" width="4.31" height="4.31"/>
				<rect x="70.92" y="300.03" class="st2" width="4.31" height="4.31"/>
				<rect x="70.92" y="307.25" class="st2" width="4.31" height="4.31"/>
				<rect x="70.92" y="314.47" class="st2" width="4.31" height="4.31"/>
				<rect x="70.92" y="321.69" class="st2" width="4.31" height="4.31"/>
				<rect x="70.92" y="328.92" class="st2" width="4.31" height="4.31"/>
				<rect x="70.92" y="336.14" class="st2" width="4.31" height="4.31"/>
				<rect x="70.92" y="343.36" class="st2" width="4.31" height="4.31"/>
				<rect x="573.71" y="316.63" class="st2" width="4.31" height="4.31"/>
				<rect x="573.71" y="323.85" class="st2" width="4.31" height="4.31"/>
				<rect x="573.71" y="331.07" class="st2" width="4.31" height="4.31"/>
				<rect x="573.71" y="338.29" class="st2" width="4.31" height="4.31"/>
				<rect x="573.71" y="345.52" class="st2" width="4.31" height="4.31"/>
				<rect x="573.71" y="352.74" class="st2" width="4.31" height="4.31"/>
				<rect x="573.71" y="359.96" class="st2" width="4.31" height="4.31"/>
				<rect x="573.71" y="367.18" class="st2" width="4.31" height="4.31"/>
				<rect x="573.71" y="374.41" class="st2" width="4.31" height="4.31"/>
				<rect x="573.71" y="381.63" class="st2" width="4.31" height="4.31"/>
				<rect x="573.71" y="388.85" class="st2" width="4.31" height="4.31"/>
				<rect x="573.71" y="396.07" class="st2" width="4.31" height="4.31"/>
				<rect x="573.71" y="403.3" class="st2" width="4.31" height="4.31"/>
				<rect x="573.71" y="410.52" class="st2" width="4.31" height="4.31"/>
				<rect x="573.71" y="417.74" class="st2" width="4.31" height="4.31"/>
				<rect x="573.71" y="424.96" class="st2" width="4.31" height="4.31"/>
				<rect x="573.71" y="432.19" class="st2" width="4.31" height="4.31"/>
				<rect x="573.71" y="439.41" class="st2" width="4.31" height="4.31"/>
				<rect x="573.71" y="446.63" class="st2" width="4.31" height="4.31"/>
				<rect x="573.71" y="453.85" class="st2" width="4.31" height="4.31"/>
				<rect x="566.86" y="316.63" class="st2" width="4.31" height="4.31"/>
				<rect x="566.86" y="323.85" class="st2" width="4.31" height="4.31"/>
				<rect x="566.86" y="331.07" class="st2" width="4.31" height="4.31"/>
				<rect x="566.86" y="338.29" class="st2" width="4.31" height="4.31"/>
				<rect x="566.86" y="345.52" class="st2" width="4.31" height="4.31"/>
				<rect x="566.86" y="352.74" class="st2" width="4.31" height="4.31"/>
				<rect x="566.86" y="359.96" class="st2" width="4.31" height="4.31"/>
				<rect x="566.86" y="367.18" class="st2" width="4.31" height="4.31"/>
				<rect x="566.86" y="374.41" class="st2" width="4.31" height="4.31"/>
				<rect x="566.86" y="381.63" class="st2" width="4.31" height="4.31"/>
				<rect x="566.86" y="388.85" class="st2" width="4.31" height="4.31"/>
				<rect x="566.86" y="396.07" class="st2" width="4.31" height="4.31"/>
				<rect x="566.86" y="403.3" class="st2" width="4.31" height="4.31"/>
				<rect x="566.86" y="410.52" class="st2" width="4.31" height="4.31"/>
				<rect x="566.86" y="417.74" class="st2" width="4.31" height="4.31"/>
				<rect x="566.86" y="424.96" class="st2" width="4.31" height="4.31"/>
				<rect x="566.86" y="432.19" class="st2" width="4.31" height="4.31"/>
				<rect x="566.86" y="439.41" class="st2" width="4.31" height="4.31"/>
				<rect x="560.02" y="316.63" class="st2" width="4.31" height="4.31"/>
				<rect x="560.02" y="323.85" class="st2" width="4.31" height="4.31"/>
				<rect x="560.02" y="331.07" class="st2" width="4.31" height="4.31"/>
				<rect x="560.02" y="338.29" class="st2" width="4.31" height="4.31"/>
				<rect x="560.02" y="345.52" class="st2" width="4.31" height="4.31"/>
				<rect x="560.02" y="352.74" class="st2" width="4.31" height="4.31"/>
				<rect x="560.02" y="359.96" class="st2" width="4.31" height="4.31"/>
				<rect x="560.02" y="367.18" class="st2" width="4.31" height="4.31"/>
				<rect x="560.02" y="374.41" class="st2" width="4.31" height="4.31"/>
				<rect x="560.02" y="381.63" class="st2" width="4.31" height="4.31"/>
				<rect x="560.02" y="388.85" class="st2" width="4.31" height="4.31"/>
				<rect x="560.02" y="396.07" class="st2" width="4.31" height="4.31"/>
				<rect x="560.02" y="403.3" class="st2" width="4.31" height="4.31"/>
				<rect x="560.02" y="410.52" class="st2" width="4.31" height="4.31"/>
				<rect x="560.02" y="417.74" class="st2" width="4.31" height="4.31"/>
				<rect x="560.02" y="424.96" class="st2" width="4.31" height="4.31"/>
				<rect x="560.02" y="432.19" class="st2" width="4.31" height="4.31"/>
				<rect x="560.02" y="439.41" class="st2" width="4.31" height="4.31"/>
				<rect x="599.3" y="369.34" class="st2" width="4.31" height="4.31"/>
				<rect x="599.3" y="376.56" class="st2" width="4.31" height="4.31"/>
				<rect x="599.3" y="383.78" class="st2" width="4.31" height="4.31"/>
				<rect x="599.3" y="391.01" class="st2" width="4.31" height="4.31"/>
				<rect x="599.3" y="398.23" class="st2" width="4.31" height="4.31"/>
				<rect x="599.3" y="405.45" class="st2" width="4.31" height="4.31"/>
				<rect x="599.3" y="412.67" class="st2" width="4.31" height="4.31"/>
				<rect x="599.3" y="419.9" class="st2" width="4.31" height="4.31"/>
				<rect x="599.3" y="427.12" class="st2" width="4.31" height="4.31"/>
				<rect x="599.3" y="434.34" class="st2" width="4.31" height="4.31"/>
				<rect x="599.3" y="441.56" class="st2" width="4.31" height="4.31"/>
				<rect x="599.3" y="448.79" class="st2" width="4.31" height="4.31"/>
				<rect x="599.3" y="456.01" class="st2" width="4.31" height="4.31"/>
				<rect x="592.46" y="369.34" class="st2" width="4.31" height="4.31"/>
				<rect x="592.46" y="376.56" class="st2" width="4.31" height="4.31"/>
				<rect x="592.46" y="383.78" class="st2" width="4.31" height="4.31"/>
				<rect x="592.46" y="391.01" class="st2" width="4.31" height="4.31"/>
				<rect x="592.46" y="398.23" class="st2" width="4.31" height="4.31"/>
				<rect x="592.46" y="405.45" class="st2" width="4.31" height="4.31"/>
				<rect x="592.46" y="412.67" class="st2" width="4.31" height="4.31"/>
				<rect x="592.46" y="419.9" class="st2" width="4.31" height="4.31"/>
				<rect x="592.46" y="427.12" class="st2" width="4.31" height="4.31"/>
				<rect x="592.46" y="434.34" class="st2" width="4.31" height="4.31"/>
				<rect x="592.46" y="441.56" class="st2" width="4.31" height="4.31"/>
				<rect x="592.46" y="448.79" class="st2" width="4.31" height="4.31"/>
				<rect x="592.46" y="456.01" class="st2" width="4.31" height="4.31"/>
				<rect x="585.62" y="369.34" class="st2" width="4.31" height="4.31"/>
				<rect x="585.62" y="376.56" class="st2" width="4.31" height="4.31"/>
				<rect x="585.62" y="383.78" class="st2" width="4.31" height="4.31"/>
				<rect x="585.62" y="391.01" class="st2" width="4.31" height="4.31"/>
				<rect x="585.62" y="398.23" class="st2" width="4.31" height="4.31"/>
				<rect x="585.62" y="405.45" class="st2" width="4.31" height="4.31"/>
				<rect x="585.62" y="412.67" class="st2" width="4.31" height="4.31"/>
				<rect x="585.62" y="419.9" class="st2" width="4.31" height="4.31"/>
				<rect x="585.62" y="427.12" class="st2" width="4.31" height="4.31"/>
				<rect x="585.62" y="434.34" class="st2" width="4.31" height="4.31"/>
				<rect x="585.62" y="441.56" class="st2" width="4.31" height="4.31"/>
				<rect x="585.62" y="448.79" class="st2" width="4.31" height="4.31"/>
				<rect x="585.62" y="456.01" class="st2" width="4.31" height="4.31"/>
				<rect x="585.62" y="463.23" class="st2" width="4.31" height="4.31"/>
				<rect x="547.6" y="371.49" class="st2" width="4.31" height="4.31"/>
				<rect x="547.6" y="378.71" class="st2" width="4.31" height="4.31"/>
				<rect x="547.6" y="385.94" class="st2" width="4.31" height="4.31"/>
				<rect x="547.6" y="393.16" class="st2" width="4.31" height="4.31"/>
				<rect x="547.6" y="400.38" class="st2" width="4.31" height="4.31"/>
				<rect x="547.6" y="407.61" class="st2" width="4.31" height="4.31"/>
				<rect x="547.6" y="414.83" class="st2" width="4.31" height="4.31"/>
				<rect x="547.6" y="422.05" class="st2" width="4.31" height="4.31"/>
				<rect x="547.6" y="429.27" class="st2" width="4.31" height="4.31"/>
				<rect x="547.6" y="436.5" class="st2" width="4.31" height="4.31"/>
				<rect x="547.6" y="458.16" class="st2" width="4.31" height="4.31"/>
				<rect x="540.76" y="371.49" class="st2" width="4.31" height="4.31"/>
				<rect x="540.76" y="378.71" class="st2" width="4.31" height="4.31"/>
				<rect x="540.76" y="385.94" class="st2" width="4.31" height="4.31"/>
				<rect x="540.76" y="393.16" class="st2" width="4.31" height="4.31"/>
				<rect x="540.76" y="400.38" class="st2" width="4.31" height="4.31"/>
				<rect x="540.76" y="407.61" class="st2" width="4.31" height="4.31"/>
				<rect x="540.76" y="414.83" class="st2" width="4.31" height="4.31"/>
				<rect x="540.76" y="422.05" class="st2" width="4.31" height="4.31"/>
				<rect x="540.76" y="429.27" class="st2" width="4.31" height="4.31"/>
				<rect x="540.76" y="450.94" class="st2" width="4.31" height="4.31"/>
				<rect x="540.76" y="458.16" class="st2" width="4.31" height="4.31"/>
				<rect x="533.92" y="371.49" class="st2" width="4.31" height="4.31"/>
				<rect x="533.92" y="378.71" class="st2" width="4.31" height="4.31"/>
				<rect x="533.92" y="385.94" class="st2" width="4.31" height="4.31"/>
				<rect x="533.92" y="393.16" class="st2" width="4.31" height="4.31"/>
				<rect x="533.92" y="400.38" class="st2" width="4.31" height="4.31"/>
				<rect x="533.92" y="407.61" class="st2" width="4.31" height="4.31"/>
				<rect x="533.92" y="414.83" class="st2" width="4.31" height="4.31"/>
				<rect x="533.92" y="422.05" class="st2" width="4.31" height="4.31"/>
				<rect x="533.92" y="443.72" class="st2" width="4.31" height="4.31"/>
				<rect x="533.92" y="450.94" class="st2" width="4.31" height="4.31"/>
				<rect x="533.92" y="458.16" class="st2" width="4.31" height="4.31"/>
				<rect x="470.31" y="261.76" class="st2" width="4.31" height="4.31"/>
				<rect x="470.31" y="268.98" class="st2" width="4.31" height="4.31"/>
				<rect x="470.31" y="276.21" class="st2" width="4.31" height="4.31"/>
				<rect x="470.31" y="283.43" class="st2" width="4.31" height="4.31"/>
				<rect x="470.31" y="290.65" class="st2" width="4.31" height="4.31"/>
				<rect x="470.31" y="297.87" class="st2" width="4.31" height="4.31"/>
				<rect x="470.31" y="305.1" class="st2" width="4.31" height="4.31"/>
				<rect x="470.31" y="312.32" class="st2" width="4.31" height="4.31"/>
				<rect x="470.31" y="319.54" class="st2" width="4.31" height="4.31"/>
				<rect x="470.31" y="326.76" class="st2" width="4.31" height="4.31"/>
				<rect x="470.31" y="333.99" class="st2" width="4.31" height="4.31"/>
				<rect x="470.31" y="341.21" class="st2" width="4.31" height="4.31"/>
				<rect x="470.31" y="348.43" class="st2" width="4.31" height="4.31"/>
				<rect x="470.31" y="355.65" class="st2" width="4.31" height="4.31"/>
				<rect x="470.31" y="362.88" class="st2" width="4.31" height="4.31"/>
				<rect x="470.31" y="370.1" class="st2" width="4.31" height="4.31"/>
				<rect x="470.31" y="377.32" class="st2" width="4.31" height="4.31"/>
				<rect x="470.31" y="391.77" class="st2" width="4.31" height="4.31"/>
				<rect x="470.31" y="398.99" class="st2" width="4.31" height="4.31"/>
				<rect x="470.31" y="406.21" class="st2" width="4.31" height="4.31"/>
				<rect x="470.31" y="413.43" class="st2" width="4.31" height="4.31"/>
				<rect x="470.31" y="420.66" class="st2" width="4.31" height="4.31"/>
				<rect x="463.47" y="261.76" class="st2" width="4.31" height="4.31"/>
				<rect x="463.47" y="268.98" class="st2" width="4.31" height="4.31"/>
				<rect x="463.47" y="276.21" class="st2" width="4.31" height="4.31"/>
				<rect x="463.47" y="283.43" class="st2" width="4.31" height="4.31"/>
				<rect x="463.47" y="290.65" class="st2" width="4.31" height="4.31"/>
				<rect x="463.47" y="297.87" class="st2" width="4.31" height="4.31"/>
				<rect x="463.47" y="305.1" class="st2" width="4.31" height="4.31"/>
				<rect x="463.47" y="312.32" class="st2" width="4.31" height="4.31"/>
				<rect x="463.47" y="319.54" class="st2" width="4.31" height="4.31"/>
				<rect x="463.47" y="326.76" class="st2" width="4.31" height="4.31"/>
				<rect x="463.47" y="333.99" class="st2" width="4.31" height="4.31"/>
				<rect x="463.47" y="341.21" class="st2" width="4.31" height="4.31"/>
				<rect x="463.47" y="348.43" class="st2" width="4.31" height="4.31"/>
				<rect x="463.47" y="355.65" class="st2" width="4.31" height="4.31"/>
				<rect x="463.47" y="362.88" class="st2" width="4.31" height="4.31"/>
				<rect x="463.47" y="370.1" class="st2" width="4.31" height="4.31"/>
				<rect x="463.47" y="413.43" class="st2" width="4.31" height="4.31"/>
				<rect x="463.47" y="420.66" class="st2" width="4.31" height="4.31"/>
				<rect x="456.62" y="261.76" class="st2" width="4.31" height="4.31"/>
				<rect x="456.62" y="268.98" class="st2" width="4.31" height="4.31"/>
				<rect x="456.62" y="276.21" class="st2" width="4.31" height="4.31"/>
				<rect x="456.62" y="283.43" class="st2" width="4.31" height="4.31"/>
				<rect x="456.62" y="290.65" class="st2" width="4.31" height="4.31"/>
				<rect x="456.62" y="297.87" class="st2" width="4.31" height="4.31"/>
				<rect x="456.62" y="305.1" class="st2" width="4.31" height="4.31"/>
				<rect x="456.62" y="312.32" class="st2" width="4.31" height="4.31"/>
				<rect x="456.62" y="319.54" class="st2" width="4.31" height="4.31"/>
				<rect x="456.62" y="326.76" class="st2" width="4.31" height="4.31"/>
				<rect x="456.62" y="333.99" class="st2" width="4.31" height="4.31"/>
				<rect x="456.62" y="341.21" class="st2" width="4.31" height="4.31"/>
				<rect x="456.62" y="348.43" class="st2" width="4.31" height="4.31"/>
				<rect x="456.62" y="355.65" class="st2" width="4.31" height="4.31"/>
				<rect x="456.62" y="362.88" class="st2" width="4.31" height="4.31"/>
				<rect x="456.62" y="370.1" class="st2" width="4.31" height="4.31"/>
				<rect x="456.62" y="384.54" class="st2" width="4.31" height="4.31"/>
				<rect x="456.62" y="391.77" class="st2" width="4.31" height="4.31"/>
				<rect x="456.62" y="398.99" class="st2" width="4.31" height="4.31"/>
				<rect x="456.62" y="406.21" class="st2" width="4.31" height="4.31"/>
				<rect x="456.62" y="420.66" class="st2" width="4.31" height="4.31"/>
				<rect x="495.14" y="352.74" class="st2" width="4.31" height="4.31"/>
				<rect x="495.14" y="359.96" class="st2" width="4.31" height="4.31"/>
				<rect x="495.14" y="367.18" class="st2" width="4.31" height="4.31"/>
				<rect x="495.14" y="374.41" class="st2" width="4.31" height="4.31"/>
				<rect x="495.14" y="381.63" class="st2" width="4.31" height="4.31"/>
				<rect x="495.14" y="388.85" class="st2" width="4.31" height="4.31"/>
				<rect x="495.14" y="396.07" class="st2" width="4.31" height="4.31"/>
				<rect x="495.14" y="410.52" class="st2" width="4.31" height="4.31"/>
				<rect x="495.14" y="417.74" class="st2" width="4.31" height="4.31"/>
				<rect x="495.14" y="424.96" class="st2" width="4.31" height="4.31"/>
				<rect x="495.14" y="432.19" class="st2" width="4.31" height="4.31"/>
				<rect x="495.14" y="439.41" class="st2" width="4.31" height="4.31"/>
				<rect x="495.14" y="446.63" class="st2" width="4.31" height="4.31"/>
				<rect x="495.14" y="453.85" class="st2" width="4.31" height="4.31"/>
				<rect x="495.14" y="461.08" class="st2" width="4.31" height="4.31"/>
				<rect x="488.3" y="352.74" class="st2" width="4.31" height="4.31"/>
				<rect x="488.3" y="359.96" class="st2" width="4.31" height="4.31"/>
				<rect x="488.3" y="367.18" class="st2" width="4.31" height="4.31"/>
				<rect x="488.3" y="374.41" class="st2" width="4.31" height="4.31"/>
				<rect x="488.3" y="381.63" class="st2" width="4.31" height="4.31"/>
				<rect x="488.3" y="388.85" class="st2" width="4.31" height="4.31"/>
				<rect x="488.3" y="410.52" class="st2" width="4.31" height="4.31"/>
				<rect x="488.3" y="417.74" class="st2" width="4.31" height="4.31"/>
				<rect x="488.3" y="424.96" class="st2" width="4.31" height="4.31"/>
				<rect x="488.3" y="432.19" class="st2" width="4.31" height="4.31"/>
				<rect x="488.3" y="439.41" class="st2" width="4.31" height="4.31"/>
				<rect x="488.3" y="446.63" class="st2" width="4.31" height="4.31"/>
				<rect x="488.3" y="453.85" class="st2" width="4.31" height="4.31"/>
				<rect x="488.3" y="461.08" class="st2" width="4.31" height="4.31"/>
				<rect x="481.46" y="352.74" class="st2" width="4.31" height="4.31"/>
				<rect x="481.46" y="359.96" class="st2" width="4.31" height="4.31"/>
				<rect x="481.46" y="367.18" class="st2" width="4.31" height="4.31"/>
				<rect x="481.46" y="374.41" class="st2" width="4.31" height="4.31"/>
				<rect x="481.46" y="381.63" class="st2" width="4.31" height="4.31"/>
				<rect x="481.46" y="388.85" class="st2" width="4.31" height="4.31"/>
				<rect x="481.46" y="403.3" class="st2" width="4.31" height="4.31"/>
				<rect x="481.46" y="410.52" class="st2" width="4.31" height="4.31"/>
				<rect x="481.46" y="417.74" class="st2" width="4.31" height="4.31"/>
				<rect x="481.46" y="424.96" class="st2" width="4.31" height="4.31"/>
				<rect x="481.46" y="432.19" class="st2" width="4.31" height="4.31"/>
				<rect x="481.46" y="439.41" class="st2" width="4.31" height="4.31"/>
				<rect x="481.46" y="446.63" class="st2" width="4.31" height="4.31"/>
				<rect x="481.46" y="453.85" class="st2" width="4.31" height="4.31"/>
				<rect x="481.46" y="461.08" class="st2" width="4.31" height="4.31"/>
				<rect x="337.26" y="312.32" class="st2" width="4.31" height="4.31"/>
				<rect x="337.26" y="319.54" class="st2" width="4.31" height="4.31"/>
				<rect x="337.26" y="326.76" class="st2" width="4.31" height="4.31"/>
				<rect x="337.26" y="333.99" class="st2" width="4.31" height="4.31"/>
				<rect x="337.26" y="341.21" class="st2" width="4.31" height="4.31"/>
				<rect x="337.26" y="348.43" class="st2" width="4.31" height="4.31"/>
				<rect x="337.26" y="355.65" class="st2" width="4.31" height="4.31"/>
				<rect x="337.26" y="362.88" class="st2" width="4.31" height="4.31"/>
				<rect x="337.26" y="370.1" class="st2" width="4.31" height="4.31"/>
				<rect x="337.26" y="377.32" class="st2" width="4.31" height="4.31"/>
				<rect x="337.26" y="384.54" class="st2" width="4.31" height="4.31"/>
				<rect x="337.26" y="391.77" class="st2" width="4.31" height="4.31"/>
				<rect x="337.26" y="398.99" class="st2" width="4.31" height="4.31"/>
				<rect x="337.26" y="413.43" class="st2" width="4.31" height="4.31"/>
				<rect x="337.26" y="420.66" class="st2" width="4.31" height="4.31"/>
				<rect x="337.26" y="427.88" class="st2" width="4.31" height="4.31"/>
				<rect x="337.26" y="435.1" class="st2" width="4.31" height="4.31"/>
				<rect x="337.26" y="449.55" class="st2" width="4.31" height="4.31"/>
				<rect x="337.26" y="456.77" class="st2" width="4.31" height="4.31"/>
				<rect x="337.26" y="463.99" class="st2" width="4.31" height="4.31"/>
				<rect x="330.42" y="312.32" class="st2" width="4.31" height="4.31"/>
				<rect x="330.42" y="319.54" class="st2" width="4.31" height="4.31"/>
				<rect x="330.42" y="326.76" class="st2" width="4.31" height="4.31"/>
				<rect x="330.42" y="333.99" class="st2" width="4.31" height="4.31"/>
				<rect x="330.42" y="341.21" class="st2" width="4.31" height="4.31"/>
				<rect x="330.42" y="348.43" class="st2" width="4.31" height="4.31"/>
				<rect x="330.42" y="355.65" class="st2" width="4.31" height="4.31"/>
				<rect x="330.42" y="362.88" class="st2" width="4.31" height="4.31"/>
				<rect x="330.42" y="370.1" class="st2" width="4.31" height="4.31"/>
				<rect x="330.42" y="377.32" class="st2" width="4.31" height="4.31"/>
				<rect x="330.42" y="384.54" class="st2" width="4.31" height="4.31"/>
				<rect x="330.42" y="391.77" class="st2" width="4.31" height="4.31"/>
				<rect x="330.42" y="398.99" class="st2" width="4.31" height="4.31"/>
				<rect x="330.42" y="420.66" class="st2" width="4.31" height="4.31"/>
				<rect x="330.42" y="427.88" class="st2" width="4.31" height="4.31"/>
				<rect x="330.42" y="442.32" class="st2" width="4.31" height="4.31"/>
				<rect x="330.42" y="449.55" class="st2" width="4.31" height="4.31"/>
				<rect x="330.42" y="456.77" class="st2" width="4.31" height="4.31"/>
				<rect x="330.42" y="463.99" class="st2" width="4.31" height="4.31"/>
				<rect x="323.58" y="312.32" class="st2" width="4.31" height="4.31"/>
				<rect x="323.58" y="319.54" class="st2" width="4.31" height="4.31"/>
				<rect x="323.58" y="326.76" class="st2" width="4.31" height="4.31"/>
				<rect x="323.58" y="333.99" class="st2" width="4.31" height="4.31"/>
				<rect x="323.58" y="341.21" class="st2" width="4.31" height="4.31"/>
				<rect x="323.58" y="348.43" class="st2" width="4.31" height="4.31"/>
				<rect x="323.58" y="355.65" class="st2" width="4.31" height="4.31"/>
				<rect x="323.58" y="362.88" class="st2" width="4.31" height="4.31"/>
				<rect x="323.58" y="370.1" class="st2" width="4.31" height="4.31"/>
				<rect x="323.58" y="377.32" class="st2" width="4.31" height="4.31"/>
				<rect x="323.58" y="384.54" class="st2" width="4.31" height="4.31"/>
				<rect x="323.58" y="391.77" class="st2" width="4.31" height="4.31"/>
				<rect x="323.58" y="398.99" class="st2" width="4.31" height="4.31"/>
				<rect x="323.58" y="406.21" class="st2" width="4.31" height="4.31"/>
				<rect x="323.58" y="420.66" class="st2" width="4.31" height="4.31"/>
				<rect x="323.58" y="435.1" class="st2" width="4.31" height="4.31"/>
				<rect x="323.58" y="442.32" class="st2" width="4.31" height="4.31"/>
				<rect x="323.58" y="449.55" class="st2" width="4.31" height="4.31"/>
				<rect x="323.58" y="456.77" class="st2" width="4.31" height="4.31"/>
				<rect x="323.58" y="463.99" class="st2" width="4.31" height="4.31"/>
				<rect x="365.14" y="353.5" class="st2" width="4.31" height="4.31"/>
				<rect x="365.14" y="360.72" class="st2" width="4.31" height="4.31"/>
				<rect x="365.14" y="367.94" class="st2" width="4.31" height="4.31"/>
				<rect x="365.14" y="375.17" class="st2" width="4.31" height="4.31"/>
				<rect x="365.14" y="382.39" class="st2" width="4.31" height="4.31"/>
				<rect x="365.14" y="389.61" class="st2" width="4.31" height="4.31"/>
				<rect x="365.14" y="411.28" class="st2" width="4.31" height="4.31"/>
				<rect x="365.14" y="418.5" class="st2" width="4.31" height="4.31"/>
				<rect x="365.14" y="425.72" class="st2" width="4.31" height="4.31"/>
				<rect x="365.14" y="432.95" class="st2" width="4.31" height="4.31"/>
				<rect x="365.14" y="440.17" class="st2" width="4.31" height="4.31"/>
				<rect x="365.14" y="447.39" class="st2" width="4.31" height="4.31"/>
				<rect x="365.14" y="454.61" class="st2" width="4.31" height="4.31"/>
				<rect x="358.3" y="353.5" class="st2" width="4.31" height="4.31"/>
				<rect x="358.3" y="360.72" class="st2" width="4.31" height="4.31"/>
				<rect x="358.3" y="367.94" class="st2" width="4.31" height="4.31"/>
				<rect x="358.3" y="375.17" class="st2" width="4.31" height="4.31"/>
				<rect x="358.3" y="382.39" class="st2" width="4.31" height="4.31"/>
				<rect x="358.3" y="389.61" class="st2" width="4.31" height="4.31"/>
				<rect x="358.3" y="411.28" class="st2" width="4.31" height="4.31"/>
				<rect x="358.3" y="418.5" class="st2" width="4.31" height="4.31"/>
				<rect x="358.3" y="425.72" class="st2" width="4.31" height="4.31"/>
				<rect x="358.3" y="432.95" class="st2" width="4.31" height="4.31"/>
				<rect x="358.3" y="440.17" class="st2" width="4.31" height="4.31"/>
				<rect x="358.3" y="447.39" class="st2" width="4.31" height="4.31"/>
				<rect x="358.3" y="461.84" class="st2" width="4.31" height="4.31"/>
				<rect x="130.98" y="321.69" class="st2" width="4.31" height="4.31"/>
				<rect x="130.98" y="328.92" class="st2" width="4.31" height="4.31"/>
				<rect x="130.98" y="336.14" class="st2" width="4.31" height="4.31"/>
				<rect x="130.98" y="343.36" class="st2" width="4.31" height="4.31"/>
				<rect x="130.98" y="350.58" class="st2" width="4.31" height="4.31"/>
				<rect x="130.98" y="357.81" class="st2" width="4.31" height="4.31"/>
				<rect x="130.98" y="365.03" class="st2" width="4.31" height="4.31"/>
				<rect x="130.98" y="372.25" class="st2" width="4.31" height="4.31"/>
				<rect x="130.98" y="379.48" class="st2" width="4.31" height="4.31"/>
				<rect x="130.98" y="386.7" class="st2" width="4.31" height="4.31"/>
				<rect x="130.98" y="393.92" class="st2" width="4.31" height="4.31"/>
				<rect x="130.98" y="408.37" class="st2" width="4.31" height="4.31"/>
				<rect x="130.98" y="415.59" class="st2" width="4.31" height="4.31"/>
				<rect x="130.98" y="422.81" class="st2" width="4.31" height="4.31"/>
				<rect x="130.98" y="430.03" class="st2" width="4.31" height="4.31"/>
				<rect x="130.98" y="437.26" class="st2" width="4.31" height="4.31"/>
				<rect x="130.98" y="444.48" class="st2" width="4.31" height="4.31"/>
				<rect x="130.98" y="451.7" class="st2" width="4.31" height="4.31"/>
				<rect x="130.98" y="458.92" class="st2" width="4.31" height="4.31"/>
				<rect x="124.13" y="321.69" class="st2" width="4.31" height="4.31"/>
				<rect x="124.13" y="328.92" class="st2" width="4.31" height="4.31"/>
				<rect x="124.13" y="336.14" class="st2" width="4.31" height="4.31"/>
				<rect x="124.13" y="343.36" class="st2" width="4.31" height="4.31"/>
				<rect x="124.13" y="350.58" class="st2" width="4.31" height="4.31"/>
				<rect x="124.13" y="357.81" class="st2" width="4.31" height="4.31"/>
				<rect x="124.13" y="365.03" class="st2" width="4.31" height="4.31"/>
				<rect x="124.13" y="372.25" class="st2" width="4.31" height="4.31"/>
				<rect x="124.13" y="379.48" class="st2" width="4.31" height="4.31"/>
				<rect x="124.13" y="386.7" class="st2" width="4.31" height="4.31"/>
				<rect x="124.13" y="393.92" class="st2" width="4.31" height="4.31"/>
				<rect x="124.13" y="401.14" class="st2" width="4.31" height="4.31"/>
				<rect x="124.13" y="408.37" class="st2" width="4.31" height="4.31"/>
				<rect x="124.13" y="415.59" class="st2" width="4.31" height="4.31"/>
				<rect x="124.13" y="422.81" class="st2" width="4.31" height="4.31"/>
				<rect x="124.13" y="430.03" class="st2" width="4.31" height="4.31"/>
				<rect x="124.13" y="437.26" class="st2" width="4.31" height="4.31"/>
				<rect x="124.13" y="444.48" class="st2" width="4.31" height="4.31"/>
				<rect x="124.13" y="451.7" class="st2" width="4.31" height="4.31"/>
				<rect x="124.13" y="458.92" class="st2" width="4.31" height="4.31"/>
				<rect x="164.68" y="349.82" class="st2" width="4.31" height="4.31"/>
				<rect x="164.68" y="357.05" class="st2" width="4.31" height="4.31"/>
				<rect x="164.68" y="364.27" class="st2" width="4.31" height="4.31"/>
				<rect x="164.68" y="371.49" class="st2" width="4.31" height="4.31"/>
				<rect x="164.68" y="378.71" class="st2" width="4.31" height="4.31"/>
				<rect x="164.68" y="385.94" class="st2" width="4.31" height="4.31"/>
				<rect x="164.68" y="393.16" class="st2" width="4.31" height="4.31"/>
				<rect x="164.68" y="400.38" class="st2" width="4.31" height="4.31"/>
				<rect x="164.68" y="407.61" class="st2" width="4.31" height="4.31"/>
				<rect x="164.68" y="414.83" class="st2" width="4.31" height="4.31"/>
				<rect x="157.84" y="349.82" class="st2" width="4.31" height="4.31"/>
				<rect x="157.84" y="357.05" class="st2" width="4.31" height="4.31"/>
				<rect x="157.84" y="364.27" class="st2" width="4.31" height="4.31"/>
				<rect x="157.84" y="371.49" class="st2" width="4.31" height="4.31"/>
				<rect x="157.84" y="378.71" class="st2" width="4.31" height="4.31"/>
				<rect x="157.84" y="385.94" class="st2" width="4.31" height="4.31"/>
				<rect x="157.84" y="393.16" class="st2" width="4.31" height="4.31"/>
				<rect x="157.84" y="400.38" class="st2" width="4.31" height="4.31"/>
				<rect x="157.84" y="407.61" class="st2" width="4.31" height="4.31"/>
			</g>
		</g>
		<path class="st3" d="M151.73,103.65c0-12.43-7.13-16.55-12.62-17.3c-9-1.22-15.42,5.63-15.42,5.63s-4.89-16.49-22.57-16.49
			C83.44,75.49,78,93.5,78,93.5s-6.87-5.46-16.77-3.8c-6.94,1.16-11.07,6.28-15.54,13.95H151.73z"/>
		<path class="st3" d="M411.23,52.44c0-16.05-9.21-21.37-16.3-22.33c-11.62-1.57-19.92,7.27-19.92,7.27s-6.31-21.29-29.14-21.29
			c-22.82,0-29.85,23.26-29.85,23.26s-8.88-7.05-21.66-4.91c-8.96,1.5-14.3,8.1-20.07,18.02H411.23z"/>
		<path class="st3" d="M192.49,170.74c0,0,3.94-9.74,13.69-10.81c9.75-1.07,14.44,5.4,14.44,5.4s7.64-13.59,22.5-11.65
			c16.32,2.13,15.38,17.05,15.38,17.05H192.49z"/>
	</g>
</g>
<g id="Background_Simple" class="st4">
	<g class="st5">
		<path class="st6" d="M24.24,119.07c27.92-59.45,127.06-51.06,165.32-9.26c38.26,41.81,50.7,68.6,85.21,52.98
			c34.51-15.62,78.52-11.44,81.04,38.16S317.9,309.23,253.72,326.58c-64.18,17.35-64.16,78.76-149.1,66.37
			c-46.31-6.76-47.37-56.86-40.83-98.3S-8.14,188.02,24.24,119.07z"/>
		<path class="st7" d="M24.24,119.07c27.92-59.45,127.06-51.06,165.32-9.26c38.26,41.81,50.7,68.6,85.21,52.98
			c34.51-15.62,78.52-11.44,81.04,38.16S317.9,309.23,253.72,326.58c-64.18,17.35-64.16,78.76-149.1,66.37
			c-46.31-6.76-47.37-56.86-40.83-98.3S-8.14,188.02,24.24,119.07z"/>
	</g>
</g>
<g id="Shadow_1_">
</g>
<g id="Barrier">
</g>
<g id="Cone">
	<g>
		<polygon class="st6" points="260.77,468.11 219.95,468.11 225.45,441.42 229.58,421.42 235.65,391.96 245.07,391.96 
			251.14,421.42 255.27,441.42 		"/>
		<path class="st6" d="M222.73,454.66l-9.12,9.6c-1.38,1.45-0.35,3.85,1.65,3.85h50.21c2,0,3.03-2.4,1.65-3.85l-9.12-9.6H222.73z"/>
		<path class="st8" d="M222.73,454.66l-9.12,9.6c-1.38,1.45-0.35,3.85,1.65,3.85h50.21c2,0,3.03-2.4,1.65-3.85l-9.12-9.6H222.73z"/>
		<polygon class="st9" points="255.27,441.42 225.45,441.42 229.58,421.42 251.14,421.42 		"/>
	</g>
</g>
<g id="Helmet">
	<g>
		<circle class="st6" cx="228.18" cy="165.21" r="121.24"/>
		<g>
			<circle class="st10" cx="228.18" cy="165.21" r="126.18"/>
		</g>
		<circle class="st11" cx="228.18" cy="165.21" r="121.24"/>
		<g>
			<g>
				<path class="st12" d="M144.34,182.98l-0.11,11.78c0,0.46,0.37,0.82,0.83,0.78c44.65-3.43,68.95-26.08,68.95-26.08l-7.56-11.72
					c-21.04,19.66-55.91,23.88-61.37,24.43C144.67,182.2,144.35,182.56,144.34,182.98z M171.62,184.27c0-0.53,0.42-0.98,0.94-1.01
					c0.52-0.03,0.95,0.37,0.95,0.9c0,0.53-0.42,0.98-0.95,1.01C172.05,185.2,171.62,184.8,171.62,184.27z M166.17,185.56
					c0-0.53,0.42-0.98,0.95-1.01c0.52-0.03,0.95,0.37,0.95,0.9c0,0.53-0.42,0.98-0.95,1.01
					C166.59,186.49,166.17,186.09,166.17,185.56z M160.5,186.87c0-0.53,0.42-0.98,0.95-1.01s0.95,0.37,0.95,0.9
					c0,0.53-0.42,0.98-0.95,1.01C160.92,187.79,160.5,187.39,160.5,186.87z M154.46,188.19c0-0.53,0.42-0.98,0.95-1.01
					c0.52-0.03,0.95,0.37,0.95,0.9c0,0.53-0.42,0.98-0.95,1.01C154.89,189.12,154.46,188.72,154.46,188.19z M148.78,188.54
					c0-0.53,0.42-0.98,0.95-1.01c0.52-0.03,0.95,0.37,0.95,0.9c0,0.53-0.42,0.98-0.95,1.01
					C149.2,189.47,148.78,189.07,148.78,188.54z"/>
				<path class="st12" d="M144.35,182.52l-0.11,11.83c-0.01,0.59,0.6,0.97,1.13,0.69c16.28-8.33,19.53-28.74,19.53-28.74
					l-10.02-7.44c-2.3,12.89-9.14,21.69-10.34,23.15C144.41,182.16,144.35,182.33,144.35,182.52z M149.14,183.42
					c0-0.53,0.26-0.97,0.58-0.99c0.32-0.02,0.58,0.39,0.58,0.92c0,0.53-0.26,0.97-0.58,0.99
					C149.4,184.36,149.14,183.95,149.14,183.42z M145.74,186.82c0-0.53,0.26-0.97,0.58-0.99c0.32-0.02,0.58,0.39,0.58,0.92
					c0,0.53-0.26,0.97-0.58,0.99C146,187.76,145.74,187.35,145.74,186.82z"/>
				<path class="st13" d="M144.35,182.52l-0.11,11.83c-0.01,0.59,0.6,0.97,1.13,0.69c16.28-8.33,19.53-28.74,19.53-28.74
					l-10.02-7.44c-2.3,12.89-9.14,21.69-10.34,23.15C144.41,182.16,144.35,182.33,144.35,182.52z M149.14,183.42
					c0-0.53,0.26-0.97,0.58-0.99c0.32-0.02,0.58,0.39,0.58,0.92c0,0.53-0.26,0.97-0.58,0.99
					C149.4,184.36,149.14,183.95,149.14,183.42z M145.74,186.82c0-0.53,0.26-0.97,0.58-0.99c0.32-0.02,0.58,0.39,0.58,0.92
					c0,0.53-0.26,0.97-0.58,0.99C146,187.76,145.74,187.35,145.74,186.82z"/>
			</g>
			<g>
				<path class="st12" d="M180.94,165.34c0,0,12.86,96.46,76.79,92.35c0,0-6.47,2.79-16.55,1.15c-5.13-0.83-12.15-2.79-19-6.42
					c-20.3-10.75-45.58-53.22-51.62-86.29L180.94,165.34z"/>
				<path class="st12" d="M295.61,155.17c0,0,13.59,93.43-39.04,102.96c0,0-7.14,0.7-11.63,0.65c0,0,13.22,1.8,28.64-13.55
					s17.9-52.23,11.62-89.48L295.61,155.17z"/>
				<path class="st13" d="M180.94,165.34c0,0,12.86,96.46,76.79,92.35c0,0-6.47,2.79-16.55,1.15c-5.13-0.83-12.15-2.79-19-6.42
					c-20.3-10.75-45.58-53.22-51.62-86.29L180.94,165.34z"/>
				<path class="st12" d="M267.93,254.35c0,0-1.04,3.02-4.73,4.56c-3.69,1.54-14.62,3.76-22.02-0.07l3.01-1.93
					c0,0,7.65-2.63,15.57-3.45C265.48,252.86,267.93,254.35,267.93,254.35z"/>
				<path class="st14" d="M267.93,254.35c0,0-1.04,3.02-4.73,4.56c-3.69,1.54-14.62,3.76-22.02-0.07l3.01-1.93
					c0,0,7.65-2.63,15.57-3.45C265.48,252.86,267.93,254.35,267.93,254.35z"/>
			</g>
			<g>
				<g>
					<path class="st6" d="M141.4,171.27c48.05,10.6,66.12,37.35,111.49,46.85c37.72,7.89,68.6-6.92,69.42-29.28
						c0.03-0.8,0.01-1.59-0.05-2.4v-0.01c-1.52-21.73-33.59-45.33-52.3-47.9c-85.23-11.74-131.96,11.26-135.67,24.68
						C133.24,166.98,135.58,169.99,141.4,171.27z"/>
					<path class="st15" d="M141.4,171.27c48.05,10.6,66.12,37.35,111.49,46.85c37.72,7.89,68.6-6.92,69.42-29.28
						c0.03-0.8,0.01-1.59-0.05-2.4c-1.53,21.91-32.11,36.26-69.37,28.47c-45.37-9.5-63.44-36.25-111.49-46.85
						c-4.04-0.89-6.4-2.62-7.11-4.85C133.24,166.98,135.58,169.99,141.4,171.27z"/>
					<path class="st13" d="M301.26,155.58c0,0,12.85,8.06,16.85,20.2c4,12.14,4.1,19.91-9.77,30.25
						c-13.86,10.35-51.19,11.58-77.75,0.39c-26.56-11.19-1.45-2.94,1.07-4.08c2.52-1.13-9.5-2.25-22.3-8.02
						c-12.8-5.77-26.56-14.31-24.92-15.2c1.65-0.88,14.83,7.61,24.24,10.06c9.4,2.45-18.32-9.62-20.17-16.02
						C186.67,166.76,301.26,155.58,301.26,155.58z"/>
					<path class="st6" d="M301.26,152.92c0,0,5.97,7.51,5.97,11.66c0,4.14-1.02,8.64-2.18,9.58c-1.16,0.94-1.93,0.98-3.2,1.36
						c-1.26,0.37-4.51,12.17-19.78,16.49c-15.27,4.32-33.74,3.65-45.95,0.48s-17.56-3.9-17.56-3.9s-22.34-7.21-34.38-16.42
						C172.13,162.96,301.26,152.92,301.26,152.92z"/>
				</g>
				<g>
					<path class="st6" d="M140.58,158.44c0,0,19.63,0.37,54.72,19.39c31.36,16.99,100.12,29.62,108.14-10.17
						c0,0-1.13-20.89-8.76-42.17c-0.58-1.64-1.21-3.28-1.89-4.92c-1.12-0.24-2.89-1.93-4.35-9.34c-0.1-0.21-0.22-0.42-0.34-0.63
						c-0.58-1.07-1.17-2.12-1.79-3.16l-0.01-0.01c-4.36-7.3-9.83-13.84-16.64-18.6c-0.6-0.42-1.23-0.84-1.86-1.24
						c-31.67-20.61-88.37-21.3-115.09,31.61c0,0,0.81,2.63-0.35,4.76c-1.13,2.05-3.43,3.84-3.57,3.95
						c-0.01,0.01-0.01,0.01-0.01,0.01C145.22,136.78,142.43,146.92,140.58,158.44z"/>
					<path class="st15" d="M148.78,127.92c26.37,2.42,67.56,32.61,60.58,15.72c-6.98-16.9-43.91-31.35-56.65-24.44
						c0,0,0.81,2.63-0.35,4.76c-1.13,2.05-3.43,3.84-3.57,3.95C148.78,127.92,148.78,127.92,148.78,127.92z"/>
					<path class="st15" d="M293.41,130.7c1.82,1.97,0.06-8.49-0.63-10.13c-1.12-0.24-2.89-1.93-4.35-9.34
						C288.33,111.02,290.4,127.45,293.41,130.7z"/>
					<path class="st16" d="M153.38,117.92c2.21-0.64,4.53-1.08,6.8-1.25c-0.87-2.41-1.51-4.78-1.93-7.08
						C156.55,112.2,154.91,114.97,153.38,117.92z"/>
					<path class="st16" d="M140.58,158.44c0,0,19.63,0.37,54.72,19.39c31.36,16.99,100.12,29.62,108.14-10.17
						c0,0-0.57-10.62-3.68-24.44c1.64,18.08-3.12,33.62-16.43,40.37c-35.43,17.97-89.73-15.28-113.63-49.2
						c-3.93-1.74-11.65-4.63-21.23-5.69C145.06,137.38,142.38,147.26,140.58,158.44z"/>
					<path class="st17" d="M177.66,106.54c4.8,9.39,0,11.52,0,11.52s13.09,4.02,22.83,12.28c9.75,8.25,13.09,14.27,10.91,18.2
						c-2.19,3.92-11.78-0.04-11.78-0.04s4.04,15.38,22.4,26.22c0,0,13.79,2.02,14.17,3.06c0.36,1.04,1.09,5.1,1.09,5.1
						s16.59,6.33,35.63,1.33c19.05-4.99,23.85-28.86,23.99-37.71c0.15-8.84-0.24-11.79-1.74-16.95c0,0-0.19,3.56-1.85,2.26
						c-1.42-1.13-4.99-7.13-6.15-20.49c-0.11-1.29-0.41-2.58-0.85-3.87l-0.01-0.01c-4.36-7.3-9.83-13.84-16.64-18.6
						c-0.6-0.42-1.23-0.84-1.86-1.24c6.01,8.1,20.14,29.83,23.52,59.24c3.94,34.2-23.26,31.51-30.1,22.28
						c-6.83-9.23-21.61-44.83-39.21-62.42c-12.96-12.94-26.54-18.42-38.63-15.46C177.62,92.62,172.86,97.14,177.66,106.54z"/>
				</g>
				<g>
					<path class="st6" d="M174.67,91.25c51.04-15.98,75.44,62.2,87.54,76.11c12.09,13.89,26.88,3.98,28.21-5.6
						c0.19-1.39,0.32-3.18,0.33-5.31c0.01-0.91,0-1.89-0.03-2.91c-0.43-12.08-4.04-32.14-16.11-53.56
						c-15.5-27.53-43.4-33.44-66.97-29.34c-4.12,0.71-7.81,1.82-11.1,3.14c-6.61,2.65-11.56,6.23-15.06,9.45
						C176.77,87.57,174.67,91.25,174.67,91.25z"/>
					<path class="st15" d="M174.67,91.25c51.04-15.98,75.44,62.2,87.54,76.11c12.09,13.89,26.88,3.98,28.21-5.6
						c0.19-1.39,0.32-3.18,0.33-5.31c-2.3,9.18-16.38,17.75-27.98,4.42c-11.58-13.33-34.47-85.68-81.29-77.63
						C176.77,87.57,174.67,91.25,174.67,91.25z"/>
					<path class="st13" d="M196.54,73.78c7.29-1.84,12.72-1.3,12.23,0.6c-0.87,3.43,7.71-0.04,9.79,3.65
						c2.08,3.69-7.87,6.6,5.49,17.28c14.83,11.86,29.66,38.83,35.34,52.73c5.67,13.89,12,18.93,21.52,16.43
						c5.21-1.37,8.18-6.53,9.81-10.93c-0.43-12.08-4.04-32.14-16.11-53.56c-15.5-27.53-43.4-33.44-66.97-29.34
						C203.51,71.35,199.82,72.45,196.54,73.78z"/>
				</g>
				<g>
					<g>
						<path class="st6" d="M236.18,191.73l-1.23-12.9c-0.06-0.58-0.48-1.04-1.05-1.13l-10.69-1.68c-0.68-0.11-1.36,0.34-1.56,1.02
							l-3.08,10.32c0,0,0.2,2.77,1.94,4.42c1.75,1.65,8.73,2.59,10.66,2.67C233.11,194.52,236.18,191.73,236.18,191.73z"/>
						<path class="st16" d="M218.56,187.36c0,0,0.21,2.76,1.95,4.41c1.74,1.66,8.73,2.6,10.66,2.68c1.94,0.08,5.01-2.72,5.01-2.72
							l-1.23-12.89l0.68,12.31c0,0-2.62,2.22-4.08,2.31c-1.46,0.09-10.27-1.82-10.76-2.76c-0.47-0.93,0.8-13.16,1.71-14.58
							c-0.4,0.16-0.73,0.5-0.85,0.94L218.56,187.36z"/>
						<path class="st13" d="M234.08,178.53c0,0-1.26,13.08-1.94,13.51c-0.68,0.43-8.53-0.35-8.34-3.4
							c0.19-3.05,1.36-10.85-0.78-11.89C223.03,176.75,233.18,177.73,234.08,178.53z"/>
					</g>
					<g>
						<path class="st6" d="M301.94,154.66l-1.97,4.45c-0.29,0.66-0.39,1.39-0.29,2.08l1.91,12.54c0,0,2.3-0.3,3.07-1.28
							c0.78-0.98,1.94-6.66,1.55-8.53C305.82,162.05,304.84,154.88,301.94,154.66z"/>
						<path class="st16" d="M299.68,161.19l1.9,12.54c0,0,2.3-0.3,3.08-1.28c0.68-0.87,1.67-5.4,1.62-7.73
							c-0.32,4.21-1.81,7.4-2.05,7.42c-0.24,0.01-0.39-2.47-1.65-4.99c-1.25-2.51-2.94-6.48-2.28-7.48c0.66-1.02,1.64-5,1.64-5
							l-1.97,4.46C299.68,159.78,299.58,160.5,299.68,161.19z"/>
						<path class="st13" d="M301.26,161.08c0,0.9,0.54,1.37,1.41,3.06c1.5,2.9,2.13,5.46,2.13,5.46c0.81-1.98,1.2-4.04,1.38-5.83
							c-0.38-1.87-1.23-7.62-3.46-8.87C302.66,157.57,301.26,161.08,301.26,161.08z"/>
					</g>
					<g>
						<path class="st6" d="M144.14,158.79l0.21-9.25c0.01-0.41-0.26-0.75-0.65-0.81l-1.21-0.21c0,0-1.47,0.9-3.99,10.63
							C138.49,159.14,140.09,160.69,144.14,158.79z"/>
						<path class="st16" d="M138.49,159.14c0,0,1.54,1.49,5.45-0.26c-0.66,0.19-1.9,0.5-1.81,0.01c0.13-0.67,1.26-9.08,1.12-9.37
							c-0.09-0.17-0.75-0.31-1.25-0.39C141.36,150.13,140.15,152.7,138.49,159.14z"/>
						<path class="st17" d="M143.53,149.5c-0.02,0.32-0.91,8.91-0.84,9.23c0.07,0.32,1.45-0.09,1.45-0.09l0.22-9.1
							c0.01-0.4-0.26-0.74-0.65-0.81l-1.22-0.22l-0.01,0.01c-0.02,0.08-0.1,0.42,0.22,0.45
							C143.04,148.99,143.56,149.18,143.53,149.5z"/>
					</g>
				</g>
			</g>
		</g>
	</g>
</g>
<g id="Speech_bubble">
	<g>
		<circle class="st6" cx="498.64" cy="95.81" r="30.61"/>
		<circle class="st18" cx="498.64" cy="95.81" r="30.61"/>
		<path class="st6" d="M517.18,85l-18.48-5.99l-0.07-0.02l-0.07,0.02L480.09,85c0,0,0.02,19.89,18.48,30.09l0.07,0.04l0.07-0.04
			C517.17,104.88,517.18,85,517.18,85z"/>
		<path class="st8" d="M498.64,112.25c-12.99-7.84-15.47-20.76-15.94-25.48l15.94-5.17l15.94,5.17
			C514.11,91.5,511.63,104.43,498.64,112.25z"/>
		<polygon class="st6" points="495.66,124.37 498.64,133.42 501.62,124.37 		"/>
		<polygon class="st18" points="495.66,124.37 498.64,133.42 501.62,124.37 		"/>
		<polyline class="st19" points="491.28,93.9 497.79,100.12 507.89,89.29 		"/>
	</g>
</g>
<g id="Character">
	<g>
		<g>
			<path class="st20" d="M397.75,213.41l-10.4-1.79l5.56-11.37c0,0,9.22,2.77,8.54,7.9L397.75,213.41z"/>
			<path class="st20" d="M380.96,202.7l2.62-3.66c1.04-1.46,2.99-1.94,4.59-1.15l4.74,2.34l-5.56,11.37l-5.49-3.76
				C380.17,206.69,379.76,204.37,380.96,202.7z"/>
		</g>
		<g>
			<path class="st6" d="M471.24,211.78c-0.91,0.31-2.15,0.88-3.41,1.57c-1.27,0.69-2.6,1.5-3.95,2.35c-2.7,1.71-5.49,3.57-8.36,5.46
				c-2.87,1.89-5.83,3.8-9.03,5.6c-3.24,1.78-6.59,3.56-11.01,4.74c-1.17,0.27-2.24,0.5-3.74,0.62c-1.48,0.1-2.75-0.02-3.93-0.19
				c-2.35-0.36-4.31-0.99-6.18-1.66c-3.7-1.38-6.94-3.06-10.07-4.83c-3.14-1.76-6.07-3.73-8.96-5.72c-1.43-1.02-2.83-2.07-4.22-3.14
				l-2.07-1.61l-1.03-0.82c-0.37-0.25-0.69-0.54-0.48-1.64c0.5-2.63,2.02-4.8,4.08-6.19l1.01-0.68c0.89-0.6,1.26-0.39,1.58-0.15
				l1.04,0.64l2.11,1.27c1.41,0.84,2.84,1.65,4.27,2.44c2.82,1.64,5.71,3.14,8.55,4.56c2.84,1.4,5.73,2.66,8.43,3.49
				c1.34,0.41,2.65,0.7,3.66,0.78c0.5,0.04,0.93,0.03,1.13-0.01l0.52-0.11c0.22-0.05,0.48-0.14,0.72-0.2
				c2.12-0.67,4.79-2.11,7.39-3.74c2.62-1.66,5.29-3.51,8.01-5.45c2.73-1.93,5.48-3.96,8.45-5.94c1.49-0.99,3.03-1.98,4.71-2.95
				c1.69-0.96,3.48-1.92,5.76-2.77c3.92-1.45,8.28,0.55,9.73,4.47c1.45,3.92-0.55,8.28-4.47,9.73c-0.06,0.02-0.13,0.05-0.19,0.07
				L471.24,211.78z"/>
		</g>
		<g class="st21">
			<path class="st22" d="M471.24,211.78c-0.91,0.31-2.15,0.88-3.41,1.57c-1.27,0.69-2.6,1.5-3.95,2.35
				c-2.7,1.71-5.49,3.57-8.36,5.46c-2.87,1.89-5.83,3.8-9.03,5.6c-3.24,1.78-6.59,3.56-11.01,4.74c-1.17,0.27-2.24,0.5-3.74,0.62
				c-1.48,0.1-2.75-0.02-3.93-0.19c-2.35-0.36-4.31-0.99-6.18-1.66c-3.7-1.38-6.94-3.06-10.07-4.83c-3.14-1.76-6.07-3.73-8.96-5.72
				c-1.43-1.02-2.83-2.07-4.22-3.14l-2.07-1.61l-1.03-0.82c-0.37-0.25-0.69-0.54-0.48-1.64c0.5-2.63,2.02-4.8,4.08-6.19l1.01-0.68
				c0.89-0.6,1.26-0.39,1.58-0.15l1.04,0.64l2.11,1.27c1.41,0.84,2.84,1.65,4.27,2.44c2.82,1.64,5.71,3.14,8.55,4.56
				c2.84,1.4,5.73,2.66,8.43,3.49c1.34,0.41,2.65,0.7,3.66,0.78c0.5,0.04,0.93,0.03,1.13-0.01l0.52-0.11
				c0.22-0.05,0.48-0.14,0.72-0.2c2.12-0.67,4.79-2.11,7.39-3.74c2.62-1.66,5.29-3.51,8.01-5.45c2.73-1.93,5.48-3.96,8.45-5.94
				c1.49-0.99,3.03-1.98,4.71-2.95c1.69-0.96,3.48-1.92,5.76-2.77c3.92-1.45,8.28,0.55,9.73,4.47c1.45,3.92-0.55,8.28-4.47,9.73
				c-0.06,0.02-0.13,0.05-0.19,0.07L471.24,211.78z"/>
		</g>
		<path class="st16" d="M460.36,220.13c-1.26,0.81-2.54,1.66-3.85,2.5c-2.89,1.88-5.87,3.81-9.15,5.62
			c-0.12,0.06-0.24,0.12-0.36,0.2c-0.29-10.04,12.06-16.89,12.06-16.89C460.14,214.07,460.5,217.07,460.36,220.13z"/>
		<g>
			<path class="st6" d="M510.58,198.54c-10.46-2.68-24.76-4.66-36.37-4.94c-10.44-0.25-19.41,7.49-20.71,17.86
				c-2.35,18.63,1.76,25.24,1.17,54.23c-3,3.01-1.73,8.06,0.36,8.85c17.56,6.64,45.16,4.97,54.35,4.01
				c4.05-0.42,2.45-5.95,2.45-5.95c1.28-9.65-0.77-9.13,1.29-21c3.13-11.58,3.02-20.61,7.35-35.97
				C522.57,208.18,518.08,200.46,510.58,198.54z"/>
			<path class="st23" d="M520.47,215.64c-0.37,1.34-0.72,2.64-1.03,3.88c-1.27,5-2.08,9.33-2.75,13.37
				c-1.07,6.48-1.8,12.2-3.57,18.72c-2.05,11.87-0.01,11.35-1.28,21.01c0,0,1.59,5.53-2.45,5.95c-9.2,0.96-36.8,2.63-54.36-4.02
				c-2.09-0.78-3.36-5.84-0.36-8.85c0.59-29-3.52-35.6-1.17-54.23c1.31-10.37,10.27-18.11,20.71-17.85
				c11.61,0.27,25.92,2.25,36.37,4.93C518.08,200.47,522.57,208.18,520.47,215.64z"/>
			<path class="st16" d="M519.44,219.52c-1.27,5-2.08,9.33-2.75,13.37c-5.55-3.73-5.26-17.37-5.26-17.37
				C514.42,216.24,517.17,217.73,519.44,219.52z"/>
		</g>
		<g>
			<path class="st20" d="M458.49,446c-0.68,6.22-1.29,24.27-2.65,28.66c2.54,4.78,6.08,5.82,8.38,3.03s6.77-27,6.77-27L458.49,446z"
				/>
			<path class="st12" d="M453.18,373.02c2.09,31.05,2.45,83.22,2.45,83.22l14.76,0.65c0,0,7.45-32.06,8.59-65.63
				c0.1-3.15,0.15-6.3,0.14-9.45c3.67-23.15,8.09-40.48,12-54.73c3.66-13.37,6.88-23.99,8.62-34.16l-43.56-14.15
				C453.75,286.37,449.56,319.13,453.18,373.02z"/>
			<path class="st6" d="M468.98,473.22c-2.8,0.21-11.97,0.23-13.78-0.89c-1.81-1.11-0.75-18.69-0.75-18.69s15.76-0.15,16.95,1.21
				S468.98,473.22,468.98,473.22z"/>
			<path class="st6" d="M438.97,480.01c0,0,15.09-4.45,16.2-10.39c0.11-0.58,0.6-0.97,1.22-0.87l10.96,1.83
				c0.51,0.09,0.96,0.48,1.12,0.98l3.34,10.66l-3.1,0.1l-1.15-1.53l-1.3,1.61c-16.83,0.53-24.1,0.57-27.47-0.37
				C438.26,480.55,438.97,480.01,438.97,480.01z"/>
		</g>
		<path class="st24" d="M478.98,391.26c0.1-3.15,0.15-6.3,0.14-9.45c3.67-23.15,8.09-40.48,12-54.73
			c-4.69-13.37-10.66-23.4-17.11-24.57C474,302.51,462.55,360.59,478.98,391.26z"/>
		<path class="st12" d="M454.76,283.86c-0.24-5.02,0.79-10.32,0.79-10.32c0.08-1.08,50.33,0.72,54.49,1.2
			c5.2,0.6-1.07,24.09-5.79,31.89C467.76,306.22,455.41,290.21,454.76,283.86z"/>
		<path class="st22" d="M456.76,274.65c5.75-0.46,43.08,0.11,53.05,1.58c0.28,0.04,0.51,0.24,0.58,0.52
			c0.32,1.28,0.22,2.53,0.11,3.25c-0.05,0.37-0.38,0.63-0.75,0.61c-3.53-0.2-21.93-1.18-53.21-1.44c-0.41,0-0.74-0.34-0.72-0.75
			c0.04-0.99,0.19-2.37,0.29-3.14C456.15,274.94,456.42,274.68,456.76,274.65z"/>
		<path class="st12" d="M488.86,274.1c0.37,0.79-0.05,6.85-0.05,6.85l2.68-0.1c0,0,0.81-5.07,0.43-6.51
			C490.16,274.03,488.86,274.1,488.86,274.1z"/>
		<path class="st12" d="M466.57,273.95c-0.67,1.98-0.37,6.25-0.37,6.25l-2.38,0.03c0,0-0.39-4.93,0.08-6.22
			C465.74,273.62,466.57,273.95,466.57,273.95z"/>
		<g>
			<path class="st12" d="M511.98,381.09c-1.88-45.35-0.1-73.79-0.72-95.1l-42.12-1.39c-0.87,7.93,1.49,40.87,15.68,92.99
				c8.18,30.03,18.84,81.1,18.84,81.1l14.59-2.28C518.25,456.42,519.41,417.06,511.98,381.09z"/>
			<path class="st6" d="M518.32,471.28c-2.71,0.76-10.49-0.43-12.48-1.17c-1.99-0.73-3.84-14.89-3.84-14.89s15.42-3.26,16.85-2.17
				C520.28,454.14,518.32,471.28,518.32,471.28z"/>
			<path class="st6" d="M488.77,480.01c0,0,15.09-4.45,16.2-10.39c0.11-0.58,0.6-0.97,1.22-0.87l10.96,1.83
				c0.51,0.09,0.96,0.48,1.12,0.98l3.34,10.66l-3.1,0.1l-1.15-1.53l-1.3,1.61c-16.83,0.53-24.1,0.57-27.47-0.37
				C488.07,480.55,488.77,480.01,488.77,480.01z"/>
		</g>
		<path class="st20" d="M500.71,175.2c-1.28,9.82-0.16,15.71,1.36,21.3c0.15,0.54-0.05,1.12-0.5,1.43
			c-4.19,2.9-10.27,4.92-18.07,4.02c-7.7-0.89-6.95-3.24-4.78-5.71c0.31-0.35,0.7-0.62,1.13-0.81c5.66-2.44,6.39-6.59,5.25-9.3
			L500.71,175.2z"/>
		<path class="st15" d="M500.7,175.21l-15.62,10.94c0.65,1.52,0.7,3.5-0.39,5.38c2.74,0.44,5.68-0.07,8.41-1.85
			c4-2.6,5.69-6.05,7.24-11.04C500.43,177.54,500.55,176.41,500.7,175.21z"/>
		<g>
			<g>
				<path class="st6" d="M513.06,171.75c-3.52,0.28-23.09-5.24-27.03-9.69c-3.94-4.45,16.66-8.42,22.85-4.44
					C515.06,161.59,516.92,171.44,513.06,171.75z"/>
				<path class="st25" d="M513.06,171.75c-3.52,0.28-23.09-5.24-27.03-9.69c-3.94-4.45,16.66-8.42,22.85-4.44
					C515.06,161.59,516.92,171.44,513.06,171.75z"/>
			</g>
			<path class="st12" d="M481.38,155.22c-2.62,2.71-0.05,6.57-0.34,9.38c-0.3,2.81-1.03,6.44,2.84,2.8
				C487.73,163.76,485.43,151.49,481.38,155.22z"/>
			<path class="st20" d="M505.72,169.16c-1.83,9.3-0.69,10.98-6.08,15.12c-8.1,6.23-19.95,6.09-20.38-3.64
				c-0.38-8.76,0.8-24.38,10.49-26.8C499.3,151.46,507.56,159.86,505.72,169.16z"/>
			<path class="st12" d="M503.92,175.39c-4.41,2.28-5.39-3.77-5.06-4.22c1.41-1.94,1.46-3.66,0.18-7.62
				c-1.28-3.96,6.75-7.91,12.26-5.87c5.08,1.88-0.43,5.57,0.02,8.98C512.12,172.75,507.47,173.55,503.92,175.39z"/>
			<path class="st20" d="M509.17,176c-1.22,2.13-3.16,3.5-4.93,4.01c-2.65,0.76-3.72-1.88-2.76-4.62c0.86-2.46,3.28-5.83,5.84-5.37
				C509.84,170.47,510.57,173.56,509.17,176z"/>
			<path class="st12" d="M494.25,168.61c-0.14,0.8-0.51,0.82-1.03,0.72s-0.99-0.27-0.85-1.07c0.14-0.8,0.67-1.37,1.19-1.27
				C494.07,167.09,494.38,167.81,494.25,168.61z"/>
			<path class="st12" d="M484.38,167.92c-0.14,0.8-0.51,0.82-1.03,0.72c-0.52-0.09-0.99-0.27-0.85-1.07
				c0.14-0.8,0.67-1.36,1.19-1.27C484.21,166.4,484.52,167.12,484.38,167.92z"/>
			<path class="st26" d="M485.94,167.76c0,0-1.79,3.39-3.53,4.92c0.98,1.15,2.89,0.9,2.89,0.9L485.94,167.76z"/>
			<path class="st12" d="M496.2,165.21c0.08-0.01,0.16-0.03,0.23-0.08c0.22-0.15,0.27-0.44,0.12-0.66c-1.5-2.17-3.69-2.15-3.78-2.15
				c-0.26,0.01-0.47,0.22-0.46,0.48c0.01,0.26,0.23,0.47,0.49,0.46l0,0c0.07,0,1.78,0,2.98,1.73
				C495.87,165.15,496.04,165.23,496.2,165.21z"/>
			<path class="st12" d="M481.01,163.69c0.15,0.05,0.31,0.02,0.44-0.09c1.61-1.33,3.25-0.86,3.32-0.83
				c0.25,0.08,0.51-0.06,0.59-0.31c0.08-0.25-0.06-0.52-0.31-0.59c-0.09-0.03-2.19-0.66-4.2,1.01c-0.2,0.17-0.23,0.47-0.06,0.67
				C480.84,163.62,480.92,163.67,481.01,163.69z"/>
			<path class="st27" d="M491.97,175.56c0,0-1.83,3.25-7.56,2.51"/>
			<g>
				<path d="M506.53,160.75c0,0-6.11,25.62-18.96,28.27l-2.51-0.76c0,0,6.84,0.11,11.6-7.53s8.01-20.39,8.01-20.39L506.53,160.75z"
					/>
				<path class="st12" d="M488.84,188.67c0,0-1.45-1.7-3.75-2.13c-2.3-0.43-3.19,0-3.19,0s0.61,1.55,3.13,2.39
					C487.54,189.77,488.84,188.67,488.84,188.67z"/>
			</g>
			<g>
				<path class="st6" d="M475.64,155.76c7.09,8.04,25.28,2.59,31.82,7.2c6.5,4.57,5.61,8.74,5.6,8.79c4.54,1.37,1.95-5.5,1.95-5.5
					c4.51-13.31-4.46-21.19-18.05-22.9c-12.74-1.61-16,10.12-16,10.12L475.64,155.76z"/>
				<path class="st8" d="M480.96,153.46c2.95,4.73,20.8,3.84,27.51,6.03c6.71,2.19,6.54,6.75,6.54,6.75
					c4.51-13.31-4.46-21.19-18.05-22.9C484.22,141.73,480.96,153.46,480.96,153.46z"/>
				<path class="st6" d="M506.4,146.6c-5.44-1.9-11.38,2.2-13.67,5.21c-2.29,3.01-7.24,1.8-7.4-1.61c-0.04-0.76,0.17-1.53,0.5-2.27
					c1.43-3.15,4.89-5.06,8.64-5.1c6.37-0.06,17.29,1.07,19.5,9.18C513.97,152.01,511.99,148.56,506.4,146.6z"/>
			</g>
		</g>
		<g>
			<path class="st6" d="M514.72,249.21c-0.96,3.17-1.77,5.71-1.61,7.18c0.01,0.09,0.02,0.17,0.04,0.29
				c0.09,0.92,0.26,2.76,0.45,5.03c0.21,2.39,0.45,5.25,0.68,7.94c0.41,4.99,0.78,9.42,0.78,9.42l-37.83-2.09l-1.61-7.45l-2.95,7.45
				h-20.92l1.95-11.19l0.32-1.82l-0.35-5.79l-0.31-4.93l-0.46-7.59l-0.16-2.65c-0.75-24.34,10.91-48.3,10.91-48.3
				c6.87-2.8,14.52-0.96,14.52-0.96c-7.21,9.4,0,23.58,0,23.58c12.28-14.47,27.32-20.2,27.32-20.2c9.31-0.15,12.81,3.94,12.81,3.94
				c-12.83,23.51-1.14,37.93-1.14,37.93C516.66,242.71,515.62,246.24,514.72,249.21z"/>
			<path class="st23" d="M513.12,256.39c0.01,0.09,0.02,0.17,0.04,0.29c-6.37-1.67-24.1-2.82-24.1-2.82l0.75-7.53
				c10.18,0.1,22.45,2.4,24.93,2.89C513.76,252.38,512.95,254.92,513.12,256.39z"/>
			<path class="st23" d="M514.29,269.64c-5.86-1.75-24.61-2.99-24.61-2.99l-0.62-7.6c8.77,0.09,19.91,1.85,24.55,2.65
				C513.81,264.09,514.05,266.96,514.29,269.64z"/>
			<path class="st23" d="M465.48,252.73c0,0-5.87,0.14-12.1,0.52l-0.46-7.59c3.99-0.32,8.41-0.52,12.46-0.4L465.48,252.73z"/>
			<path class="st23" d="M465.04,257.9l-1.24,7.49c0,0-4.67,0.11-10.08,0.4l0.32-1.82l-0.35-5.79
				C457.48,257.92,461.47,257.78,465.04,257.9z"/>
			<g class="st15">
				<path d="M478.2,217.34c-0.3,2.17-0.62,4.33-0.87,6.5c-0.28,2.16-0.53,4.33-0.65,6.5c-0.27,4.38-0.71,8.72-1.01,13.08
					c-0.34,4.35-0.59,8.71-0.73,13.06c-0.08,2.18-0.07,4.36,0,6.53c0.07,2.18,0.26,4.35,0.69,6.5c-1.34-4.2-1.56-8.66-1.65-13.04
					c-0.08-4.39,0.14-8.78,0.45-13.15c0.33-4.37,0.81-8.73,1.3-13.07C476.22,225.88,477.1,221.58,478.2,217.34z"/>
			</g>
		</g>
		<g>
			<g>
				<path class="st20" d="M516.52,270.43l-10.44,1.59l5.34,11.48c0,0,9.28-2.59,8.7-7.74L516.52,270.43z"/>
				<path class="st20" d="M499.52,280.8l2.55,3.71c1.01,1.48,2.95,2,4.57,1.24l4.78-2.25l-5.34-11.48l-5.56,3.65
					C498.81,276.8,498.35,279.11,499.52,280.8z"/>
			</g>
			<g>
				<path class="st6" d="M518.39,206.14c2.51,2.52,4.76,4.94,7.06,7.5c2.28,2.54,4.48,5.16,6.63,7.87c2.14,2.72,4.24,5.52,6.18,8.59
					c0.97,1.54,1.92,3.13,2.8,4.87c0.88,1.75,1.72,3.6,2.36,5.93c0.31,1.17,0.57,2.47,0.62,4.06c0.04,1.57-0.18,2.95-0.48,4.18
					c-0.62,2.45-1.55,4.38-2.52,6.15c-1.97,3.5-4.22,6.34-6.53,9.04c-2.31,2.7-4.8,5.12-7.31,7.47c-1.28,1.15-2.58,2.27-3.89,3.37
					l-1.99,1.63l-1.01,0.81c-0.32,0.3-0.66,0.54-1.69,0.09c-2.36-1.05-4.09-2.93-5-5.14l-0.55-1.36c-0.41-0.99-0.13-1.29,0.17-1.54
					l0.82-0.85l1.63-1.72c1.08-1.16,2.14-2.34,3.17-3.53c2.12-2.33,4.09-4.76,5.96-7.16c1.84-2.4,3.51-4.89,4.63-7.21
					c0.55-1.14,0.94-2.26,1.06-3.02c0.07-0.38,0.06-0.65,0.03-0.72c-0.02-0.06-0.08-0.39-0.22-0.8c-0.28-0.84-0.83-2-1.49-3.15
					c-0.66-1.16-1.46-2.37-2.31-3.57c-1.71-2.41-3.64-4.83-5.67-7.2c-2.02-2.38-4.17-4.7-6.35-7.02c-2.16-2.29-4.46-4.63-6.64-6.72
					l-0.06-0.06c-3.02-2.89-3.12-7.69-0.23-10.7c2.89-3.02,7.69-3.12,10.7-0.23C518.29,206.04,518.35,206.1,518.39,206.14z"/>
			</g>
			<g class="st21">
				<path class="st22" d="M518.39,206.14c2.51,2.52,4.76,4.94,7.06,7.5c2.28,2.54,4.48,5.16,6.63,7.87
					c2.14,2.72,4.24,5.52,6.18,8.59c0.97,1.54,1.92,3.13,2.8,4.87c0.88,1.75,1.72,3.6,2.36,5.93c0.31,1.17,0.57,2.47,0.62,4.06
					c0.04,1.57-0.18,2.95-0.48,4.18c-0.62,2.45-1.55,4.38-2.52,6.15c-1.97,3.5-4.22,6.34-6.53,9.04c-2.31,2.7-4.8,5.12-7.31,7.47
					c-1.28,1.15-2.58,2.27-3.89,3.37l-1.99,1.63l-1.01,0.81c-0.32,0.3-0.66,0.54-1.69,0.09c-2.36-1.05-4.09-2.93-5-5.14l-0.55-1.36
					c-0.41-0.99-0.13-1.29,0.17-1.54l0.82-0.85l1.63-1.72c1.08-1.16,2.14-2.34,3.17-3.53c2.12-2.33,4.09-4.76,5.96-7.16
					c1.84-2.4,3.51-4.89,4.63-7.21c0.55-1.14,0.94-2.26,1.06-3.02c0.07-0.38,0.06-0.65,0.03-0.72c-0.02-0.06-0.08-0.39-0.22-0.8
					c-0.28-0.84-0.83-2-1.49-3.15c-0.66-1.16-1.46-2.37-2.31-3.57c-1.71-2.41-3.64-4.83-5.67-7.2c-2.02-2.38-4.17-4.7-6.35-7.02
					c-2.16-2.29-4.46-4.63-6.64-6.72l-0.06-0.06c-3.02-2.89-3.12-7.69-0.23-10.7c2.89-3.02,7.69-3.12,10.7-0.23
					C518.29,206.04,518.35,206.1,518.39,206.14z"/>
			</g>
			<path class="st6" d="M515.48,236.26c-2.68-5.24-6.7-17.69,2.84-35.17c0,0-3.5-4.1-12.81-3.95c0,0-0.06,0.02-0.17,0.07
				c-14.52,5.85-15.32,26.13-1.36,33.22L515.48,236.26z"/>
		</g>
	</g>
</g>
</svg>
