<?xml version="1.0" encoding="utf-8"?>
<!-- Generator: Adobe Illustrator 26.1.0, SVG Export Plug-In . SVG Version: 6.00 Build 0)  -->
<svg version="1.1" id="Capa_1" xmlns="http://www.w3.org/2000/svg" xmlns:xlink="http://www.w3.org/1999/xlink" x="0px" y="0px"
	 viewBox="0 0 448 512" style="enable-background:new 0 0 448 512;" xml:space="preserve">
<style type="text/css">
	.st0{fill:#FFA403;stroke:#FFA403;stroke-width:4;stroke-miterlimit:10;}
</style>
<path class="st0" d="M223.5,506c-31.3-0.2-60.1-26.6-60.5-55.8c-0.1-4.8-2.3-11.6,5.6-12.3c8.7-0.8,8.2,6.6,9,12.3
	c2.5,18.9,12.8,31.9,30.5,38.5c28.9,10.9,60.5-9,63.4-39.6c0.5-5.7,0.2-12.1,8.5-11.2c8.4,0.9,6.6,7.8,6.3,13
	C284,480.9,255.2,506.2,223.5,506z"/>
<path class="st0" d="M432.5,358.7c-18.1-20.9-32.7-43.8-42.1-70c-10.5-29.1-9.9-59.3-10.1-89.5c-0.4-39.7-10.7-76-37.5-106.6
	c-27.4-31.2-61.4-49.2-102.6-53.5c-6-0.6-8.7-2.7-8.2-9.2c0.4-5.9,0.6-11.8-1.1-17.6c-1-3.6-3.3-5.4-6.7-5.4c-3.4,0-5.8,1.8-6.8,5.3
	c-1.7,5.1-1.5,10.5-0.9,15.5c1,8.3-2.7,10.5-10.4,11.5C141.4,48.6,97.8,84.2,76.1,146.1c-9.2,26.4-8.6,54-8.2,81.5
	c0.4,24.3-4.3,47.5-13.2,70.1c-9.5,24-24.3,44.3-40.9,63.8c-7.8,9.2-10.6,19.3-6.5,31c4.8,13.8,15.9,20.4,35,20.4
	c60.5,0.1,121.1,0,181.6,0c59.2,0,118.2,0,177.4,0c4.9,0,9.8,0,14.6-0.7c15.7-2.2,24.8-11.5,26.9-27.2
	C444.2,374.3,439,366.2,432.5,358.7z M426.5,387.2c-4.3,8.3-11.1,10.8-19.8,10.8c-61.2-0.1-122.4,0-183.6,0c-59.2,0-118.2,0-177.4,0
	c-2.7,0-5.6,0.1-8.3-0.1c-7.1-0.4-12.8-3.5-15.8-10.1c-2.9-6.4-1-12,3.2-17.4c8.9-11.1,18.3-21.8,25.9-33.8
	c21.1-33.4,32.5-69.5,31.3-109.3c-0.8-28.3-0.5-56.5,10.1-83.2C112.9,91.2,152,61,208.3,54c68.4-8.6,132.1,33.6,151.2,99.3
	c4.9,16.8,6.5,34.1,6.2,51.5c-0.4,28.2,0.4,56.2,9,83.5c9.6,30,26.3,55.7,46.5,79.5C425.9,373.4,430.9,378.8,426.5,387.2z"/>
</svg>
