<?xml version="1.0" encoding="utf-8"?>
<!-- Generator: Adobe Illustrator 26.1.0, SVG Export Plug-In . SVG Version: 6.00 Build 0)  -->
<svg version="1.1" id="Capa_1" xmlns="http://www.w3.org/2000/svg" xmlns:xlink="http://www.w3.org/1999/xlink" x="0px" y="0px"
	 viewBox="0 0 576 512" style="enable-background:new 0 0 576 512;" xml:space="preserve">
<style type="text/css">
	.st0{fill:#00D407;stroke:#00D407;stroke-width:5;stroke-miterlimit:10;}
</style>
<path class="st0" d="M369.2,211.2c-2.8-5.9-2.1-10.4-2.1-14.8c-0.1-44.7,0-89.5-0.1-134.2c0-25.2-11.7-36.9-37-36.9
	c-88.1,0-176.3,0-264.4,0c-25.9,0-37.7,11.3-38.4,37.1c-0.5,17.4-0.1,34.8-0.1,52.3c0,111.4,0,222.7,0,334.1c0,28.1,11,39.2,39,39.2
	c24.6,0,49.2-0.5,73.8,0.2c9.5,0.3,11.3-2.8,11-11.5c-0.7-21.5-0.6-43-0.1-64.6c0.5-22.1,13.3-38.9,33.6-45.3
	c17-5.3,37.1,1.3,48.6,15.8c8.4,10.6,9.7,23.1,9.8,35.8c0.2,20.5,0.3,41-0.1,61.5c-0.1,6.3,1.5,8.3,7.9,8.1
	c20.8-0.4,41.7,0.3,62.5-0.4c7.5-0.2,10.3,3.1,12.3,9.2c1.4,4,0.9,5.6-3.8,5.5c-8.5-0.3-17.1-0.2-25.6-0.2c-77.5,0-155.1,0-232.6,0
	c-31.1,0-50-18.6-50-49.5c-0.1-130.8-0.1-261.7,0-392.5C13.5,30.7,32.7,11,62.2,11c90.5-0.2,181.1-0.2,271.6,0
	c28,0.1,47.3,18.8,47.7,46.8c0.6,44.1,0,88.1,0.3,132.2C381.8,199.6,374.3,203.8,369.2,211.2z M227.4,443.9c0-11.3,0-22.5,0-33.8
	c0-7.3-1.6-14.1-6.6-19.9c-9.1-10.6-21.1-13.1-33.5-9.4c-14.4,4.2-21.4,16-22,30.3c-0.9,23.2-0.3,46.4-0.4,69.7c0,5.1,2,7.3,7.3,7.2
	c16.1-0.2,32.1-0.3,48.2,0c5.4,0.1,7.2-1.9,7.1-7.1C227.3,468.5,227.4,456.2,227.4,443.9z"/>
<path class="st0" d="M459.2,502.2c-25.3,0-50.5,0.1-75.8,0c-18.7-0.1-28.3-8.3-31.2-26.8c-2.6-16.6-1.1-33.4-1.1-50.1
	c0.1-25.9-1.8-51.9,0.9-77.7c2.2-20.2,12.4-29.4,32.6-28.8c11.5,0.3,13.3-3.9,13.1-13.9c-0.4-18.1-1.2-36.2,0.8-54.2
	c3.6-31.6,31.6-56.6,62-55.1c32.8,1.6,59.2,28.7,59.5,61.3c0.2,16,0.6,32.1-0.2,48.1c-0.5,10.1,1.6,14.9,13,13.7
	c9.7-1,19.1,1.8,25.8,9.7c5,5.9,7.3,12.7,7.2,20.7c-0.2,41-0.1,81.9-0.1,122.9c0,18.5-11.3,30.1-29.8,30.2
	C510.4,502.3,484.8,502.1,459.2,502.2z M459.2,487.8c24.2,0,48.5,0.2,72.7-0.1c14.3-0.1,19.5-5.2,19.5-19c0.1-38.9,0.1-77.8,0-116.7
	c-0.1-13.5-5.1-19-18.5-19c-49.1-0.3-98.3-0.3-147.4,0c-14.2,0.1-18.7,5.3-18.7,19.5c0,37.9,0,75.8,0,113.6
	c0,17.3,4.2,21.5,21.8,21.6C412.1,487.9,435.7,487.9,459.2,487.8z M458.7,318.3c13,0,25.9,0,38.9,0c3.8,0,7.9,0.6,7.9-5.2
	c-0.2-21.1,0.9-42.4-1.1-63.3c-2.3-23.7-24.7-41.2-47-39.7c-25.3,1.7-43.9,20.8-44.3,46c-0.3,18.4,0.1,36.8-0.2,55.2
	c-0.1,5.4,1.7,7.2,7,7.1C432.8,318.1,445.8,318.3,458.7,318.3z"/>
<path class="st0" d="M265.1,234.6c4.8,0,9.6,0,14.3,0c16.4,0.2,24.8,8,25.3,24.2c0.3,9.2,0.3,18.5,0,27.7
	c-0.6,13.8-8.5,22.6-22.2,23.5c-11.2,0.8-22.6,0.6-33.8,0.1c-10.5-0.5-18.6-7.8-20.2-18.5c-2-12.9-1.8-25.9,0-38.8
	c1.6-11.2,9.9-17.9,21.3-18.1C254.8,234.5,260,234.6,265.1,234.6z M242.9,272c0,23.8,0,23.8,23,23.8c23.4,0,23.5,0,23.4-23.3
	c-0.1-22.5,3.5-23.9-23-23.6C241.7,249,242.7,246.9,242.9,272z"/>
<path class="st0" d="M265.6,111.2c5.4,0,10.9-0.4,16.3,0.1c14.4,1.2,22.3,9.5,22.8,23.8c0.3,9.5,0.4,19.1,0,28.6
	c-0.6,13.4-7.2,20.9-20.3,22.8c-12.2,1.8-24.5,1.5-36.7,0.2c-11.8-1.2-19.2-9.5-20.1-22.1c-0.7-10.2-0.7-20.5,0.1-30.6
	c1.2-15.6,9.6-22.7,25.5-22.9C257.4,111.1,261.5,111.1,265.6,111.2L265.6,111.2z M289.3,149.5c0-2.7,0-5.4,0-8.2
	c-0.1-14.5-1.3-15.7-15.8-15.8c-2,0-4.1,0-6.1,0c-27.5-0.3-24.4-0.3-24.5,24.2c0,22.9,0,22.9,22.9,22.9
	C289.3,172.6,289.3,172.6,289.3,149.5z"/>
<path class="st0" d="M127.7,234.6c35-1.9,38.8,6.9,37.4,37.8c-0.2,4.8,0.1,9.5,0,14.3c-0.3,14.9-7.6,22.7-22.4,23.4
	c-10.2,0.4-20.4,0.3-30.6,0.1c-12.9-0.4-21.8-9-22.3-21.9c-0.4-10.2-0.3-20.4-0.1-30.6c0.3-14.8,8.9-23,23.8-23
	C118.1,234.6,122.9,234.6,127.7,234.6z M128.2,295.8c22.6,0,22.6,0,22.6-22.2c0-0.3,0-0.7,0-1c0.1-25.4,1.7-23.7-23.9-23.6
	c-22.9,0.1-22.9,0-22.9,23C104,295.8,104,295.8,128.2,295.8z"/>
<path class="st0" d="M165,149.1c0,2.7,0,5.4,0,8.2c0,23.2-6.4,29.8-29.4,30c-8.2,0.1-16.4,0.2-24.5-0.4
	c-13.5-1.1-21.1-9.1-21.5-22.5c-0.3-10.2-0.3-20.4,0-30.6c0.4-13.4,9.3-22.2,22.7-22.6c8.8-0.3,17.7-0.1,26.5,0
	c19.1,0.1,26.2,7.4,26.2,26.8C165,141.6,165,145.4,165,149.1z M150.8,149.4c-0.2-22.7,3.8-24.2-22.8-23.9c-24,0.2-24,0.1-24,24.3
	c0,22.9,0,22.9,23.1,22.9C150.8,172.6,150.8,172.6,150.8,149.4z"/>
</svg>
