<?xml version="1.0" encoding="utf-8"?>
<!-- Generator: Adobe Illustrator 26.1.0, SVG Export Plug-In . SVG Version: 6.00 Build 0)  -->
<svg version="1.1" id="Capa_1" xmlns="http://www.w3.org/2000/svg" xmlns:xlink="http://www.w3.org/1999/xlink" x="0px" y="0px"
	 viewBox="0 0 515.7 512" style="enable-background:new 0 0 515.7 512;" xml:space="preserve">
<style type="text/css">
	.st0{fill:#EA28B8;stroke:#EA28B8;stroke-width:3;stroke-miterlimit:10;}
</style>
<path class="st0" d="M194.7,141.7c0-7.3-1.3-10.7-9.7-10.7c-38.8,0.4-77.5-0.3-116.3,0.3C34.2,131.8,7.1,159,6.6,193.6
	c-0.5,31.5-0.4,62.8,0,94.3C7,320.1,29,345.3,60.8,349.8c7.4,1.1,8.7,4.4,8.7,11c-0.3,35.3-0.3,70.6-0.1,105.9
	c0.1,25.1,16.4,41.3,41.2,41.3c13.6,0,27.3,0,40.9,0c27.9,0,43.1-15.4,43.1-43.6c0-53.1,0-106.1,0-159.2
	C194.6,250.7,194.5,196.1,194.7,141.7z M180.1,413.5c0,17.1,0.2,34.2,0,51.3c-0.2,18.9-9.6,28.4-28.2,28.7
	c-13.3,0.2-26.5,0.2-39.8,0c-18.1-0.3-28.1-9.9-28.1-28c-0.3-35.3,0-70.5-0.2-105.8c0-6.5,2.3-8.4,8.6-8.3c26.5,0.3,53.1,0.3,79.6,0
	c6.5-0.1,8.4,2.3,8.3,8.6C179.9,377.8,180.1,395.6,180.1,413.5z M169.5,336.5c-32.2-0.4-64.2-0.2-96.4-0.2
	c-30.9,0-50.8-18.4-51.7-49.4c-0.9-31.1-0.8-62.2,0-93.1c0.8-27.9,21.7-47.4,49.6-47.6c33.1-0.2,66.4,0.2,99.5-0.3
	c8.2-0.1,9.9,2.8,9.8,10.4c-0.4,28.2-0.2,56.6-0.2,84.8s-0.3,56.6,0.2,84.8C180.4,334.1,177.7,336.6,169.5,336.5z"/>
<path class="st0" d="M468.9,173.6c-6-3.3-7.5-6.8-7.5-13.1c0.2-40.2,0.1-80.3,0.1-120.4c0-13.5-3.7-24.6-17.3-30.6
	c-13.9-6.1-25.7-3.2-36.3,6.9C397.1,26.8,386,37,375.4,47.5c-39.8,38.9-86,66.4-140.8,77.6c-9.9,2.1-8.6,8-7.5,13.5
	c1.4,6.6,6.9,2.4,10.3,1.7c57-12.7,105.8-40.2,146.7-81.8c10.8-10.9,21.8-21.7,33-32.1c5.2-4.8,11.3-8.3,19-4.8
	c7.9,3.6,11.2,10,11.3,18.4c0,2.8,0,5.6,0,8.4c0,64.2,0,128.4,0,192.7c0,66.4,0,132.6,0,199c0,8.8-1.7,16.8-10.8,20.7
	c-9.5,4.1-15.8-1.1-22.1-7.2c-15-14.7-29.6-29.6-45.3-43.5c-38.5-34.3-83-56.9-133.7-67.3c-10.5-2.2-9.1,3.6-8.7,9.5
	c0.4,5.5,5.5,4.7,8.8,5.4c42.6,9.5,80.7,28.1,114.7,55.4c19.8,16,37.2,34.7,55.9,52c11.1,10.4,23.3,14.9,38.1,8.1
	c13.9-6.4,17.2-17.9,17.2-31.8c-0.1-38.7,0.3-77.5-0.3-116.2c-0.1-8.9,2.8-13.5,10.3-18.1C522.8,275.9,521.3,202.9,468.9,173.6z
	 M467.9,292.2c-5.2,3.8-6.5,1.9-6.5-3.6c0.1-15.7,0-31.5,0-47.1l0,0c0-15.3,0-30.7,0-46.1c0-2.3-0.9-5.6,1.9-6.5
	c1.4-0.5,3.9,1.2,5.5,2.4C505.6,219.8,498.9,269.5,467.9,292.2z"/>
</svg>
