<?xml version="1.0" encoding="utf-8"?>
<!-- Generator: Adobe Illustrator 26.1.0, SVG Export Plug-In . SVG Version: 6.00 Build 0)  -->
<svg version="1.1" id="Capa_1" xmlns="http://www.w3.org/2000/svg" xmlns:xlink="http://www.w3.org/1999/xlink" x="0px" y="0px"
	 viewBox="0 0 640 512" style="enable-background:new 0 0 640 512;" xml:space="preserve">
<style type="text/css">
	.st0{fill:#2FA5F4;stroke:#2FA5F4;stroke-width:5;stroke-miterlimit:10;}
</style>
<path class="st0" d="M244.6,506.2c-10.9,0.3-17.6-9.4-13.8-20.9c11.9-36.3,24-72.5,36.1-108.7c38.7-116.1,77.4-232.3,116.1-348.4
	c2.8-8.4,5.8-17,16.6-16.9c11.4,0.1,17,10.7,12.7,23.9c-7.6,23.5-15.6,47-23.4,70.5c-43,128.8-86,257.6-128.9,386.4
	C257.3,499.8,253.8,505.9,244.6,506.2z"/>
<path class="st0" d="M631.5,259.4c0.4,4.9-2.3,8.3-5.7,11.5c-45.4,40.7-90.8,81.4-136.3,122c-8.4,7.5-17.8,7.5-23.8,0.4
	c-6-7.1-4.8-16.3,3.4-23.7c38.8-34.6,77.5-69.4,116.6-103.6c7.4-6.4,6.7-9.7-0.2-15.6c-37.8-32.6-75.3-65.7-112.8-98.6
	c-2.1-1.8-4.2-3.6-6-5.6c-6.1-6.9-6.4-15.4-0.8-21.5c5.4-5.8,14.5-6.6,21.4-0.7c22.7,19.6,45.1,39.5,67.5,59.4
	c22.4,19.9,44.8,39.8,67.1,59.8C626.8,247.4,632.2,251.6,631.5,259.4z"/>
<path class="st0" d="M11.8,259.6c0.1-7.2,3.7-11.3,7.9-15c44.8-39.8,89.6-79.5,134.5-119.2c8-7.1,17-7.2,22.9-0.7
	c6.9,7.6,5.9,16.1-3.2,24.2c-38.1,33.8-76.3,67.5-114.5,101.3c-10,8.8-9.9,8.7,0.4,17.8c37.9,33.5,75.7,67.1,113.5,100.8
	c5.2,4.6,10.1,9.4,7.6,17.5c-4,12.7-15.8,15.9-26.6,6.5c-17.7-15.4-34.9-31.2-52.4-46.8c-27.2-24.3-54.4-48.5-81.6-72.9
	C16.1,269.2,11,265.5,11.8,259.6z"/>
</svg>
