<?xml version="1.0" encoding="utf-8"?>
<!-- Generator: Adobe Illustrator 26.1.0, SVG Export Plug-In . SVG Version: 6.00 Build 0)  -->
<svg version="1.1" id="Capa_1" xmlns="http://www.w3.org/2000/svg" xmlns:xlink="http://www.w3.org/1999/xlink" x="0px" y="0px"
	 viewBox="0 0 576.5 512" style="enable-background:new 0 0 576.5 512;" xml:space="preserve">
<style type="text/css">
	.st0{fill:#FFD357;stroke:#FFD357;stroke-width:5;stroke-miterlimit:10;}
</style>
<path class="st0" d="M15.1,62.1c11.7-35.4,31.4-49.6,69.5-49.6c39.3,0,78.6,0.2,118-0.1c16.5-0.1,29.9,5.1,41.7,17.1
	c39.9,40.6,80,80.7,120.6,120.5c16.9,16.5,15,36.7,14,56.8c-0.3,5.2-6.7,5.6-10.6,5.9c-4.3,0.3-2.8-4.4-3.1-7.1c-0.2-1,0-2,0-3
	c-0.1-23-0.1-23-23.7-23c-29.1,0-58.3,0-87.5,0c-25.7,0-41.3-15.3-41.3-40.8c-0.1-33.5-0.3-67.1,0.2-100.6c0.1-8.5-1.7-12-11.1-11.8
	c-40.7,0.5-81.3,0.1-122.1,0.3c-31.3,0.1-50.9,19.7-50.9,50.7c-0.1,119.7-0.1,239.3,0,358.9c0,29.5,19.2,49.3,48.8,49.4
	c80,0.3,159.9,0,240,0.3c7.3,0,14.9-5.3,22.3,1.2c4.8,4.3,6.5,6.8-1.1,9.3c-7.1,2.5-14.5,3.2-22,3.2c-78-0.1-155.9-0.1-233.9,0
	c-37.9,0-57.3-14.6-67.9-51c-1.7-3.5-1-7.3-1-11c0-121.5,0-243.1,0-364.5C14,69.3,13.1,65.5,15.1,62.1z"/>
<path class="st0" d="M546.9,273.2c-37.4-14.8-74.6-29.7-112-44.7c-5.9-2.4-11.6-2.9-17.7-0.4c-37.6,15.2-75.1,30.4-112.8,45.3
	c-12.1,4.8-17,13.4-16.5,26.1c0.7,16.6,2.8,33,6.6,49.1c15.2,65.7,50.7,115.7,112.7,145.1c10.8,5.1,20.9,7.4,32.8,2
	c81.5-37.2,114.6-105.2,122.3-189.5C563.4,292.1,562.6,279.4,546.9,273.2z M409.8,478.5c-54.5-27.4-86.1-72.2-100.3-130.4
	c-4-16.5-6.6-33-6.3-50.1c0.1-6.5,2.7-9.9,8.5-12.2c32.9-13,66-26,98.7-39.5c7.4-3,8.5-1,8.5,6c-0.2,36.9-0.1,73.8-0.1,110.7
	c0,36.6-0.1,73.1,0.1,109.7C418.9,480.4,418.4,482.8,409.8,478.5z M442.2,478.4c-8.2,4.3-9.7,2.3-9.6-5.8
	c0.2-36.6,0.1-73.2,0.1-109.8c0-35.9,0-71.8,0-107.8c0-11.4,0.6-11.9,11.2-7.6c31.7,12.7,63.3,25.6,95,38.2c7,2.8,9.8,7,9.4,14.6
	C544.2,378.3,513.9,440.6,442.2,478.4z"/>
</svg>
