<?xml version="1.0" encoding="utf-8"?>
<!-- Generator: Adobe Illustrator 26.1.0, SVG Export Plug-In . SVG Version: 6.00 Build 0)  -->
<svg version="1.1" id="Capa_1" xmlns="http://www.w3.org/2000/svg" xmlns:xlink="http://www.w3.org/1999/xlink" x="0px" y="0px"
	 viewBox="0 0 576 512" style="enable-background:new 0 0 576 512;" xml:space="preserve">
<style type="text/css">
	.st0{fill:#FFD357;stroke:#FFD357;stroke-width:6;stroke-miterlimit:10;}
</style>
<path class="st0" d="M9.7,254.9c0-60,0-120.1,0-180.1c0-41,26.3-67.3,67.2-67.3c43.8,0,87.6,0.2,131.5-0.1
	c12.1-0.1,21.8,3.7,30.4,12.4c43.5,43.8,87.2,87.4,131,130.9c7.5,7.4,12,15.7,11.9,26.4c-0.1,22.1,0,44.2,0,66.2
	c0,0.7,0,1.4-0.1,2.1c-0.2,4.9-1.6,9.5-7.2,9.5c-5.6,0-7.3-4.5-7.4-9.4c-0.1-19-0.6-38,0-56.9c0.3-8.9-2.8-10.9-11.2-10.8
	c-33.8,0.4-67.6,0.2-101.4,0.2c-27.2,0-42.8-15.7-42.8-43c0-34.2-0.2-68.3,0.1-102.5c0.1-8.1-2.4-10.7-10.6-10.6
	c-41.7,0.4-83.5,0-125.2,0.2C44.5,22.2,24.6,42,24.6,73.2c-0.1,121.8-0.1,243.6,0,365.3c0,30.3,19.2,50.4,49.5,50.5
	c81.1,0.4,162.2,0.4,243.2,0c30.4-0.1,49.3-19.9,49.5-50.5c0.2-23.8,0-47.6,0.1-71.4c0-3.8,0.3-7.6,0.7-11.3
	c0.4-3.6,2.8-5.6,6.2-5.7c3.9-0.2,6.5,1.9,7.3,5.9c0.1,0.3,0.2,0.7,0.2,1c-0.1,33.1,3.7,66.4-2,99.1c-4.8,27.9-30.3,47.4-58.8,47.5
	c-83.1,0.3-166.3,0.3-249.4,0C36.3,503.4,9.9,476,9.7,440.1C9.5,378.4,9.7,316.6,9.7,254.9z M226.6,31.7c-0.2,2.5-0.5,4.1-0.5,5.8
	c0,32.1-0.1,64.1,0.1,96.2c0.1,20.9,8.6,29.3,29.8,29.4c31.4,0.2,62.8,0.1,94.2,0c2.6,0,5.5,0.9,7-0.7
	C313.7,119,270.6,75.8,226.6,31.7z"/>
<path class="st0" d="M369.8,295.7c53.1,0,106.3,0,159.4-0.1c3.2,0,7.9,2.1,9.3-1.7c1.3-3.5-3.4-5.4-5.7-7.7
	c-25.5-25.7-51.1-51.3-76.7-76.9c-2.2-2.2-4.3-4.5-6.1-7c-2.1-2.8-2-5.8,0.4-8.5c2.3-2.6,5.3-3.1,8.5-1.9c3.7,1.4,6.2,4.3,8.8,7
	c31,31,62,61.9,92.9,92.9c9.7,9.7,9.6,12-0.2,21.8c-31,31-62,61.9-93,92.9c-1.9,1.9-3.8,4-6,5.7c-2.7,2-5.9,2.3-8.6,0
	c-3.1-2.6-3.4-6.1-1.4-9.3c1.6-2.6,4-4.7,6.1-6.9c24.4-24.4,48.8-48.8,73.1-73.3c3-3,9-5.8,7.4-10c-1.7-4.7-7.9-2.2-12.1-2.2
	c-104.9-0.1-209.8-0.1-314.6-0.1c-2.8,0-5.5,0.1-8.3-0.1c-4-0.2-6.4-2.3-6.6-6.4c-0.2-4,1.9-6.8,5.6-7.6c3-0.7,6.2-0.4,9.3-0.4
	C264.2,295.7,317,295.7,369.8,295.7z"/>
</svg>
