<?xml version="1.0" encoding="utf-8"?>
<!-- Generator: Adobe Illustrator 26.1.0, SVG Export Plug-In . SVG Version: 6.00 Build 0)  -->
<svg version="1.1" id="Capa_1" xmlns="http://www.w3.org/2000/svg" xmlns:xlink="http://www.w3.org/1999/xlink" x="0px" y="0px"
	 viewBox="0 0 576 512" style="enable-background:new 0 0 576 512;" xml:space="preserve">
<style type="text/css">
	.st0{fill:#FFD357;stroke:#FFD357;stroke-width:6;stroke-miterlimit:10;}
</style>
<path class="st0" d="M104.9,255.9c0-60.1,0-120.1,0-180.2c0-38.7,26.8-65.5,65.7-65.5c43.7-0.1,87.3,0.2,131-0.1
	c12-0.1,21.5,3.7,30.1,12.3c43,43.4,86.2,86.5,129.5,129.5c8.1,8,12,17.1,12,28.2c0,85.3,0.3,170.6-0.1,255.9
	c-0.2,40.3-26.3,65.1-66.8,65.1c-78.8,0-157.6,0-236.4,0c-38.5,0-64.8-26.3-64.9-65C104.9,376,104.9,315.9,104.9,255.9z
	 M119.4,254.8c0,59.7,0,119.4,0,179.2c0,33.3,19.4,52.8,52.8,52.8c78.1,0.1,156.3,0.1,234.4,0c32.9,0,51.9-19.3,51.9-52.4
	c0.1-81.6-0.1-163.1,0.2-244.7c0-8.4-2.2-11.1-10.8-11c-33.8,0.5-67.6,0.2-101.3,0.2c-25.9,0-41.5-15.5-41.5-41.1
	c-0.1-33.8-0.4-67.6,0.2-101.4c0.2-9.7-3.1-12.1-12.3-12c-39.6,0.4-79.2,0.2-118.7,0.2c-35.7,0-54.7,19.2-54.7,55.2
	C119.4,138,119.4,196.4,119.4,254.8z M447.6,164.1C405,121.3,362.4,78.4,319.7,35.4c-0.1,0.5-0.4,1.7-0.4,2.9
	c0,33.1-0.2,66.2,0.1,99.3c0.2,17.8,8.8,26.1,26.7,26.4c21.5,0.3,43,0.1,64.5,0.1C423.5,164.2,436.4,164.1,447.6,164.1z"/>
<path class="st0" d="M259.5,332.7c0-30,0-60,0-90.1c0-12.2,4.4-16.7,16.4-17c9.2-0.2,18.4-0.3,27.6,0c10.7,0.4,15.7,5.1,15.7,15.9
	c0.2,60.7,0.2,121.4,0,182.2c0,10.5-5.3,15.7-15.8,16.1c-9.5,0.4-19.1,0.4-28.6,0c-10.6-0.4-15.3-5.4-15.3-16.2
	C259.4,393.4,259.5,363,259.5,332.7z M273.7,333c0,24.2,0,48.4,0,72.6c0,20,0,19.5,19.6,20.2c9.9,0.4,11.9-3.2,11.8-12.3
	c-0.4-50.8-0.1-101.5-0.2-152.3c-0.1-23.8,4.1-20.9-22-21.4c-7.1-0.1-9.4,2.3-9.3,9.5C273.9,277.1,273.7,305.1,273.7,333z"/>
<path class="st0" d="M411.3,363.8c0,19.1,0,38.2,0,57.3c0,13.6-4.9,18.7-18.2,18.8c-8.5,0.1-17.1,0.2-25.6,0
	c-10.6-0.2-16.7-5.9-16.8-16.4c-0.2-39.9-0.2-79.9,0-119.8c0.1-10.8,4.8-15.8,15.4-16.4c9.9-0.6,19.8-0.5,29.7,0
	c11.5,0.7,15.4,5.2,15.5,17C411.4,324.2,411.3,344,411.3,363.8z M397,363.7c0-13.3,0-26.6,0-39.9c0-22.7,0-22.4-22.8-22.3
	c-7.4,0-9.3,2.6-9.2,9.6c0.3,30.4,0.1,60.7,0.1,91.1c0,24.5,0,24.4,24.4,23.6c5.8-0.2,7.7-2,7.6-7.7
	C396.8,399.8,397,381.7,397,363.7z"/>
<path class="st0" d="M166.3,394.2c0-9.6-0.3-19.1,0.1-28.7c0.5-12,5.3-16.4,17.2-16.5c9.5-0.1,19.1,0.1,28.7,0
	c8.6-0.1,13.9,4.2,14.5,12.6c1.5,21.8,1.4,43.6,0,65.4c-0.5,8.2-6.4,12.6-14.6,12.9c-9.9,0.3-19.8,0.3-29.7,0
	c-10.3-0.4-15.6-5.6-16-16C166,414,166.3,404.1,166.3,394.2z M212.8,393.9c0-2.7,0-5.4,0-8.2c0-23.7,0-23.5-24.3-22.6
	c-6.5,0.2-8.1,2.8-8,8.7c0.3,10.2-0.1,20.4,0.1,30.7c0.6,27.1-5.9,22.6,25.1,23.2c5.3,0.1,7.4-1.9,7.2-7.2
	C212.6,410.3,212.8,402.1,212.8,393.9z"/>
</svg>
