<?xml version="1.0" encoding="utf-8"?>
<!-- Generator: Adobe Illustrator 26.1.0, SVG Export Plug-In . SVG Version: 6.00 Build 0)  -->
<svg version="1.1" id="Capa_1" xmlns="http://www.w3.org/2000/svg" xmlns:xlink="http://www.w3.org/1999/xlink" x="0px" y="0px"
	 viewBox="0 0 515.7 512" style="enable-background:new 0 0 515.7 512;" xml:space="preserve">
<style type="text/css">
	.st0{fill:#2FA5F4;stroke:#2FA5F4;stroke-width:4;stroke-miterlimit:10;}
</style>
<path class="st0" d="M445.9,188.9c-0.4-10.9,0-21.6-2.1-32.4C427.1,66.7,350.2,2.3,254.1,4c-56.2,1-104.5,23.4-140.9,67.2
	C81,109.9,66.1,154.9,70.3,205c2.7,32.2,15.6,61.8,30.1,90.4c36.6,72,83.6,137,134,199.8c13.9,17.3,34.7,17.1,48.4-0.3
	c47-59.6,91.3-120.9,127.2-188C429.7,270.1,448,232.6,445.9,188.9z M412.8,267.5c-30,67.5-72.6,127.1-116.5,185.9
	c-7.9,10.7-16.3,21.2-25,31.2c-9.8,11.3-17.1,10.9-26.7-0.8c-28.9-35.3-55.7-72.2-80.6-110.5c-24.8-38.2-47.3-77.4-66.1-119.3
	C53.5,154.5,125,45,217.6,23.5C314.8,1,404,63.8,426.3,146c4.2,15.7,5.7,31.7,6.7,46.8C432,219.9,423.3,243.9,412.8,267.5z"/>
<path class="st0" d="M257.8,115.1c-44.3,0-78,33.9-77.8,78.2c0.1,44.5,33.7,77.9,78.1,77.9c45.4,0,78.7-33.1,78.7-78.2
	C336.7,148,303.4,115.1,257.8,115.1z M257.7,256.6c-34.3-0.3-62.8-29-62.9-63.4c-0.1-34.8,28.9-63.6,63.7-63.6
	c35,0.1,63.5,28.9,63.3,63.9C321.8,228.5,292.8,256.9,257.7,256.6z"/>
</svg>
