<?xml version="1.0" encoding="utf-8"?>
<!-- Generator: Adobe Illustrator 26.1.0, SVG Export Plug-In . SVG Version: 6.00 Build 0)  -->
<svg version="1.1" id="Capa_1" xmlns="http://www.w3.org/2000/svg" xmlns:xlink="http://www.w3.org/1999/xlink" x="0px" y="0px"
	 viewBox="0 0 512 512" style="enable-background:new 0 0 512 512;" xml:space="preserve">
<style type="text/css">
	.st0{fill:#1EA5A5;stroke:#1EA5A5;stroke-width:4;stroke-miterlimit:10;}
</style>
<path class="st0" d="M381.7,373.5c-2.8,3.4-1.5,7.3-1.5,10.9c-0.1,29.2,0,58.4-0.1,87.6c-0.1,22.5-11.1,33.4-33.6,33.4
	c-39.5,0-79,0-118.5,0c-21.3,0-32.3-10.9-32.3-32.3c0-52.2-0.2-104.4,0.2-156.6c0.1-9.7-2.3-13.1-12.5-12.9
	c-45.3,0.5-90.7,0.3-136,0c-16.9-0.1-30.5-10-35.4-24.9c-8.8-26.8,9.5-51.2,38.9-51.3c64.9-0.2,129.8-0.1,194.7-0.1
	c20.9,0,41.9,0.3,62.8-0.1c50.9-0.8,89.2,21.4,115.4,64.2c25.1,40.9,48.9,82.6,73,124.1c12.6,21.6,7.4,42-13.1,53.7
	c-19.8,11.4-39.6,5.4-52.3-15.9c-14.5-24.1-28.8-48.3-43.4-72.4C386.5,378.2,385.6,374.6,381.7,373.5z M293.1,429.4
	c16.8,0,33.7,0,50.5,0c21.8,0,21.7,0,21.8-21.3c0.1-13.7,0.2-27.5,0.7-41.2c0.2-6.5,4.3-10.7,10.4-12.7c6.4-2.1,11.5,0.6,15.6,5.2
	c2,2.3,3.5,5,5.1,7.7c15.7,26.6,31,53.4,47,79.8c10.7,17.7,33,17.3,42.5-0.4c4.8-9,2-17.3-2.6-25.3c-23.8-40.9-47.5-81.9-71.7-122.6
	c-9-15.2-21.6-27.4-36.4-37.3c-4.8-3.2-8.3-3.5-12.1,1.5c-4.6,6-9.9,11.4-14.8,17.1c-39.9,45.8-79.8,91.6-119.6,137.5
	c-2.7,3.2-8.3,6.3-6.5,10.5c1.6,3.8,7.5,1.4,11.5,1.5C254,429.5,273.6,429.4,293.1,429.4z M210.2,412.7c1,0.5,2,0.9,3,1.4
	c1.4-1.8,2.8-3.8,4.3-5.5c24.3-27.9,48.7-55.8,73-83.7c19.6-22.5,39-45.1,58.7-67.5c4.4-5,4.9-7.7-2.6-9.6
	c-9.3-2.3-18.5-5.6-28.1-5.6c-90.6-0.1-181.2-0.1-271.8-0.1c-8,0-13.8,3.7-18.1,10c-5.3,7.8-5.4,16-1.3,24.4
	c4.5,9,12.2,12.4,21.9,12.4c46,0,92,0,138,0c18.3,0,22.9,4.7,22.9,23.3c0,18.5,0,37.1,0,55.6C210.2,382.8,210.2,397.7,210.2,412.7z
	 M288.1,443.9c-23.3,0-46.6,0.2-69.9-0.1c-6.2-0.1-8.6,1.6-8.1,8.1c0.6,7.2,0,14.4,0.2,21.6c0.4,11.4,4.9,17.1,15.9,17.3
	c40.8,0.5,81.6,0.5,122.3,0.1c11.7-0.1,16.3-5.8,16.8-17.7c0.3-6.8-0.3-13.7,0.2-20.6c0.5-6.7-1.8-8.9-8.6-8.8
	C334,444.1,311,443.9,288.1,443.9z"/>
<path class="st0" d="M290.5,86.9c-23.4,0-46.7,0-70.1,0c-16.8,0-24.8-7.9-25.9-25.2c-1.1-17.6,6.6-28,22.5-30
	c46.6-5.9,93.2-11.8,139.9-17.8c16.2-2.1,22.8,3.2,23.2,19.1c0.3,12.4,0.4,24.7,0,37.1c-0.4,12.2-5.2,16.6-17.4,16.7
	C338.6,87,314.5,86.9,290.5,86.9z M289.3,72.5c22.6,0,45.3-0.2,67.9,0.1c6.2,0.1,8.6-1.7,8.3-8.1c-0.4-9.2-0.5-18.5,0-27.8
	c0.3-6.9-1.7-8.9-8.8-7.9c-45.1,6-90.3,11.8-135.5,17.2c-10,1.2-12.5,6.4-12.2,15.2c0.3,9.1,5.2,11.5,13.4,11.4
	C244.7,72.4,267,72.5,289.3,72.5z"/>
<path class="st0" d="M349.3,116.1c2-4.1-6.4-13.6,6.6-13.2c4.9,0.2,7.1,1.4,7.9,6.8c5.5,35.9-16.6,70.6-52.5,81.8
	c-52.8,16.4-104.3-23.8-100.2-78.2c0.3-3.7-0.1-7.8,4.1-9.8c6.4-3.1,11.1,0.6,10.7,8.5c-1.3,25.3,7,46.2,29.3,59.4
	c21.4,12.6,43.8,12.2,65.5-0.1C339.6,160.4,349.8,140.6,349.3,116.1z"/>
</svg>
