<?xml version="1.0" encoding="utf-8"?>
<!-- Generator: Adobe Illustrator 26.1.0, SVG Export Plug-In . SVG Version: 6.00 Build 0)  -->
<svg version="1.1" id="Capa_1" xmlns="http://www.w3.org/2000/svg" xmlns:xlink="http://www.w3.org/1999/xlink" x="0px" y="0px"
	 viewBox="0 0 515.7 512" style="enable-background:new 0 0 515.7 512;" xml:space="preserve">
<style type="text/css">
	.st0{fill:#00D407;stroke:#00D407;stroke-width:3;stroke-miterlimit:10;}
</style>
<path class="st0" d="M183.8,230.4c0-14.3,3.8-18,18-18c30.6,0,61,0,91.6,0c5.5,0,10.9-0.5,14.8-4.8c6.9-7.8,2.9-20.1-7.4-22.4
	c-3.2-0.7-6.5-0.9-9.8-0.9c-55.4,0-110.7,0.2-166.1-0.1c-23.9-0.1-41,10-51.8,31.4c-18.8,36.6-38.1,73-57,109.6
	c-2.4,4.7-5,9.1-10.8,6c-5.3-2.9-2.8-7.6-0.6-11.7c20.1-38.1,40-76.2,60.3-114.2c12-22.4,31.1-33.2,56.3-33.3
	c37.7-0.1,75.4-0.2,113.1,0.1c7.6,0.1,10.5-1.8,10.2-10c-0.7-17.9-0.3-35.9-0.2-53.8c0.1-27.5,16.8-44.4,44-44.5
	c60.2-0.1,120.3-0.1,180.5,0c27.5,0,44,16.5,44,44.2c0.1,59.6,0.1,119.1,0,178.7c-0.1,30.3-15.4,45.9-45.8,46
	c-59.6,0.3-119.1,0.2-178.7,0c-27.6-0.1-43.9-16.9-44-44.5c0-9.9,0.3-19.8-0.1-29.6c-0.3-6.1,2.9-6.3,7.6-6.6
	c6.2-0.4,4.7,3.3,4.7,6.7c-0.1,10.8-0.3,21.6,0.1,32.4c0.7,18.3,11.3,28.9,29.5,29c61.6,0.2,123.3,0.2,184.9,0
	c18.9-0.1,29-10.2,29.1-29c0.2-61.9,0.2-123.9,0-185.8c-0.1-18.2-11-28.9-29.4-28.9c-61.3-0.2-122.7-0.2-184,0
	c-18.6,0-29.7,10.7-30.1,29.5c-0.5,19.4,0.1,38.9-0.2,58.4c-0.1,6.4,2.7,8.2,8.6,8c10.8-0.3,21.6-0.2,32.4-0.1
	c16.4,0.2,26.6,10.1,26.7,25.9c0.1,16.1-10.4,26.8-26.9,26.9c-30.2,0.2-60.5,0.4-90.6-0.2c-8.4-0.1-10.1,2.5-10.3,10.5
	c-1.3,76.9-0.8,153.8-0.9,230.6c0,17.9-9.3,28-25.4,28c-16.2,0-26.7-10.8-26.8-28.2c-0.2-31.2,0-62.2-0.1-93.4
	c0-3.3,0.6-6.7-1.4-9.6s-4.9-3.2-8-2.4c-3.8,1-5.1,3.8-5.1,7.4c0,10.8,0,21.6,0,32.4c0,22.2,0.3,44.3-0.1,66.4
	c-0.3,21.8-19.7,33.9-38.6,24.5c-9.6-4.7-13.7-13.1-13.7-23.4c-0.1-63.7,0-127.4-0.1-191.3c0-4.8,0.5-9.9,6.3-9.9s6.3,4.9,6.3,9.8
	c-0.1,62.2,0,124.5-0.1,186.7c0,4.8,0.1,9.6,3.5,13.6c4,4.6,9,5.6,14.5,3.8c6.2-2.1,8.9-6.8,8.9-13.1c0.1-19.8,0.1-39.5,0.1-59.3
	c0-13.5-0.4-26.9,0.1-40.4c0.6-16.7,16.4-25.6,30.6-17.8c6.8,3.8,9.1,9.7,9,17.2c-0.1,31.2,0,62.2,0,93.4c0,3.9,0.1,7.7,1.5,11.5
	c2.4,6.5,7.2,9.6,13.8,9.2c6.5-0.4,11.3-4,11.8-11.2c0.3-3.6,0.7-7.1,0.7-10.7c0-37.7,0-75.4,0-113.1L183.8,230.4z"/>
<path class="st0" d="M136.1,61.5c-25.3-1-46.8,21.2-46.9,46.6c-0.1,26.3,20.5,47.4,46.7,47.8s47.2-20.4,47.4-46.8
	C183.7,81.5,164.2,62.6,136.1,61.5z M136.4,142.6c-18.9,0-35-15.9-34.7-34.3c0.3-18,16.4-34.2,34.3-34.5
	c18.9-0.3,34.2,15.1,34.3,34.6C170.3,128.7,156.5,142.6,136.4,142.6z"/>
</svg>
