<?xml version="1.0" encoding="utf-8"?>
<!-- Generator: Adobe Illustrator 26.1.0, SVG Export Plug-In . SVG Version: 6.00 Build 0)  -->
<svg version="1.1" id="Capa_1" xmlns="http://www.w3.org/2000/svg" xmlns:xlink="http://www.w3.org/1999/xlink" x="0px" y="0px"
	 viewBox="0 0 300 300" style="enable-background:new 0 0 300 300;" xml:space="preserve">
<style type="text/css">
	.st0{fill:#0F47D5;}
</style>
<path class="st0" d="M12,116.4c0-10.9,0-21.8,0-32.7c0-22.2,14-36.7,36.3-37.1c18.7-0.3,37.5-0.2,56.2,0
	c12.7,0.1,18.8,6.6,18.9,19.3c0,3.4,0.3,6.9-0.1,10.3c-0.4,4.2,1.4,5.5,5.3,5.1c1.1-0.1,2.3,0,3.4,0c10.3,0.2,17,6.8,17,16.7
	c0,9.9-6.8,16.9-16.8,17.2c-8.8,0.3-8.8,0.3-8.8,9.2c0,9.6-0.1,19.1,0.1,28.7c0.1,3.7-1.1,5-5,4.8c-8.2-0.3-16.4-0.3-24.6,0
	c-4.1,0.2-4.9-1.5-4.7-5c0.2-4.2,0.1-8.4,0-12.6c-0.3-9.3-6.5-15.8-15.6-16.7c-8.7-0.8-16.3,4.5-18.5,12.9
	c-1.5,5.7-0.9,11.4-0.8,17.1c0.1,3.1-0.3,4.4-3.8,4.3c-11.5-0.2-22.9-0.2-34.4,0c-3.4,0.1-4.1-1.1-4.1-4.2
	C12.1,141.3,12,128.8,12,116.4z"/>
<path class="st0" d="M286.7,76.2c0,9.6,0,19.1,0,28.7c0,12.9-5.9,18.7-19,18.7c-6.5,0-13,0.1-19.5-0.1c-3.2-0.1-4.5,0.9-4.3,4.3
	c0.2,2.6,0.1,5.4-0.5,8c-1.9,9.3-8.8,14.3-18.2,13.7c-8.6-0.5-14.4-6.4-15.4-15.6c-1.1-10.3-1.1-10.3-11.4-10.3
	c-6.3,0-12.6-0.1-18.9,0.1c-3.3,0.1-4.3-1.1-4.2-4.3c0.2-8.4,0.2-16.8,0-25.2c-0.1-3.3,1.1-4.4,4.3-4.2c4.4,0.2,8.8,0.2,13.2,0
	c9.5-0.3,16.2-6.7,16.9-16.1c0.7-9.5-4.8-16.6-14.1-18.5c-5.1-1-10.3-0.5-15.4-0.5c-3.8,0.1-5-1.3-4.9-5c0.2-6.7,0-13.4,0.1-20.1
	c0.2-10.3,6.4-17.3,16.6-17.4c20.4-0.3,40.9-0.6,61.3,0.1c19.6,0.6,33.3,15.9,33.4,35.7C286.7,57.5,286.7,66.9,286.7,76.2z"/>
<path class="st0" d="M67.7,176c16.6,0,33.3,0.1,49.9-0.1c4.5-0.1,6.1,1.3,5.9,5.9c-0.3,7.8-0.2,15.7,0,23.5c0.1,3.5-1.2,4.8-4.7,4.7
	c-4.4-0.2-8.8-0.2-13.2,0c-10,0.4-16.3,6.9-16.6,16.8c-0.3,9.9,6.2,17.3,16.1,18c4.8,0.3,9.6,0.2,14.3,0.1c3-0.1,4,1,4,4
	c-0.1,11.5-0.1,22.9,0,34.4c0,3-1.2,4-4.1,4c-24.8-0.1-49.7,0.2-74.5-0.2c-17.5-0.3-32.1-14.6-32.6-32.3c-0.6-25-0.1-50.1-0.3-75.1
	c0-4,2.2-3.6,4.8-3.6C33.7,176,50.7,176,67.7,176z"/>
<path class="st0" d="M141,231.8c0-17,0.1-34-0.1-51c0-3.8,1-5,4.8-4.9c8.2,0.3,16.4,0.2,24.6,0c3.4-0.1,4.9,0.8,4.6,4.5
	c-0.3,4.4-0.2,8.8,0,13.2c0.4,9.5,7.3,16.4,16.8,16.9c9.2,0.5,17-6.4,17.8-15.8c0.4-4.7,0.3-9.5,0.2-14.3c-0.1-3.1,1.1-4.5,4.3-4.4
	c7.3,0.2,14.5-0.1,21.8,0.1c9.9,0.3,16.3,6.4,16.4,16.2c0.3,20.4,0.5,40.9,0,61.3c-0.5,19.4-15.6,33.4-35,33.4
	c-23.7,0-47.4-0.1-71.1,0.1c-4.6,0.1-5.3-1.4-5.2-5.5C141.1,265,141,248.4,141,231.8z"/>
</svg>
