<?xml version="1.0" encoding="utf-8"?>
<!-- Generator: Adobe Illustrator 26.1.0, SVG Export Plug-In . SVG Version: 6.00 Build 0)  -->
<svg version="1.1" id="Capa_1" xmlns="http://www.w3.org/2000/svg" xmlns:xlink="http://www.w3.org/1999/xlink" x="0px" y="0px"
	 viewBox="0 0 512 512" style="enable-background:new 0 0 512 512;" xml:space="preserve">
<style type="text/css">
	.st0{fill:#EA28B8;stroke:#EA28B8;stroke-width:5;stroke-miterlimit:10;}
</style>
<path class="st0" d="M253.7,411.9c-67,0-134.1,0-201.1,0c-26.4,0-41.3-14.9-41.3-41.2c0-86.2,0-172.5,0-258.7
	c0-25.2,15.1-40.5,40.3-40.5c135.2,0,270.3,0,405.5,0c25.2,0,40.5,15.1,40.5,40.3c0.1,86.5,0.1,173,0,259.5
	c0,25.8-15.2,40.5-41.1,40.6C388.9,412,321.3,411.9,253.7,411.9z M254,400.5c67.3,0,134.6,0,202,0c21.2,0,30-8.8,30.1-30
	c0-85.7,0-171.4,0-257.1c0-21.6-8.9-30.5-30.5-30.5c-134.1,0-268.2,0-402.3,0c-21.6,0-30.5,8.9-30.5,30.5c0,86,0,171.9,0,257.9
	c0,19.8,9.5,29.2,29.4,29.2C119.4,400.5,186.7,400.5,254,400.5z"/>
<path class="st0" d="M254.3,460.3c-52.7,0-105.4,0-158.2,0c-2.4,0-4.9,0.1-7.2-0.4c-2.7-0.6-4-2.6-3.9-5.4c0-2.9,1.4-4.7,4.2-5.1
	c2.7-0.4,5.4-0.4,8.1-0.4c104.9,0,209.8,0,314.7,0c1.1,0,2.2,0,3.2,0c4.3,0,8.9,0.4,8.8,5.8c-0.1,5.4-4.8,5.5-9.1,5.5
	C361.4,460.3,307.9,460.3,254.3,460.3z"/>
<path class="st0" d="M254.4,363.3c-61.6,0-123.2-0.1-184.8,0.2c-7.9,0-9.9-2.3-9.9-10c0.3-74.6,0.3-149.1,0-223.7
	c0-7.5,2-9.7,9.5-9.7c123.8,0.2,247.5,0.2,371.3,0c6,0,8.3,1.1,8.3,8c-0.3,75.7-0.3,151.3,0,227c0,7.1-2.3,8.4-8.7,8.4
	C378.1,363.2,316.3,363.3,254.4,363.3z M254.8,131.8c-58.1,0-116.2,0.1-174.3-0.1c-6.7,0-9.5,1.2-9.4,8.8
	c0.3,67.6,0.2,135.1,0.1,202.7c0,6.4,1.5,9,8.5,9c116.5-0.2,233-0.2,349.5,0c6.2,0,8.3-1.5,8.3-8.1c-0.2-68.1-0.3-136.2,0-204.3
	c0-6.7-2.1-8-8.3-8C371,131.9,312.9,131.8,254.8,131.8z"/>
</svg>
