<?xml version="1.0" encoding="utf-8"?>
<!-- Generator: Adobe Illustrator 26.1.0, SVG Export Plug-In . SVG Version: 6.00 Build 0)  -->
<svg version="1.1" id="Capa_1" xmlns="http://www.w3.org/2000/svg" xmlns:xlink="http://www.w3.org/1999/xlink" x="0px" y="0px"
	 viewBox="0 0 515.7 512" style="enable-background:new 0 0 515.7 512;" xml:space="preserve">
<style type="text/css">
	.st0{fill:#1EA5A5;stroke:#1EA5A5;stroke-width:3;stroke-miterlimit:10;}
</style>
<path class="st0" d="M386.1,202.8c-1.1,48.4-41,97.6-90.7,111.8c-64.4,18.3-132.6-17.4-154-80.9c-3.6-10.6-5.7-21.7-6.8-32.8
	c-0.6-5.8-2.2-13,6.6-13.9c8.6-0.8,8.9,6.1,9.3,12.2c1.3,24.8,9.4,47.1,25.5,66.2c28.8,34.1,77.7,47.7,120,33.3
	c43.5-14.8,73.2-53.8,75.5-98.9c0.1-2.5,0.1-4.9,0.5-7.3c0.8-3.9,3.2-6.1,7.4-5.7c3.9,0.4,6.6,2.2,6.7,6.5
	C386.2,196.6,386.1,199.6,386.1,202.8z"/>
<path class="st0" d="M397.5,358.7c-21.2-7.4-42.8-5.5-64.5-6.2c-6.5-0.2-11.1,1.7-15.7,6.4c-16.6,17.1-33.7,33.7-50.4,50.8
	c-4.3,4.4-7.1,5-11.7,0.1c-10.4-11.2-22.9-21-32.3-33c-15.5-19.6-34.1-25.3-58.9-24.6C96.3,354,42.2,405.5,40.6,473
	c-0.6,23.8,10.4,35.3,34,35.3c62.1,0,124.1,0,186.2,0c62.8,0,125.6,0,188.2,0c20.4,0,32.4-12.3,32.3-32.9
	C481.2,422.7,447.2,376.1,397.5,358.7z M446.5,493.8c-24.5,0.2-49.1,0.1-73.5,0.1c-37.5,0-75,0-112.5,0c-60.6,0-121.2,0-181.8,0
	c-18.9,0-23.7-5-23-23.8c2-55.5,51.2-101.7,108.3-103.7c19-0.7,33.1,3.7,45.6,18.5c13.8,16.2,30.2,30.3,44.9,45.6
	c4.8,5.1,7.8,4.9,12.5,0c19.1-19.5,38.6-38.6,57.9-58c3.9-4,8.1-5.7,13.8-5.8c24.7-0.4,49,0.8,71,14c35.7,21.5,54.9,53,56.9,94.6
	C467.4,487.5,460.3,493.7,446.5,493.8z"/>
<path class="st0" d="M410,40.9C365,29.3,319.8,18.3,274.8,7c-10.1-2.6-19.9-2.7-30,0C199.4,18.6,154,30.1,108.4,41.4
	c-13.9,3.4-23.4,11-26.6,25.1c-3.2,13.7,1.9,25.4,12.5,33.5c11.9,9.2,18.1,19.7,15.6,34.9c-1.4,8.3,2.5,12.4,10.2,15.6
	c44.9,18.7,91.9,26.7,141.3,27.1c47.7-0.3,95-8,140.1-27.4c6.8-3,10.4-6.9,9.4-14.2c-2.4-15.1,3.4-25.7,14.8-36.2
	C449.9,77.1,442,49,410,40.9z M418.9,86.7c-2.6,2.9-5.2,5.8-8.2,8.2c-10.7,8.3-17,18.4-14.2,32.5c1.7,8.7-3.7,11.1-10.5,13.7
	c-40.9,15.1-83.1,21.8-124,21.5c-45.7,0.1-87.6-6.7-128.1-21.8c-6.9-2.6-10.9-6.1-9.7-13.7c2.5-14.3-3.1-24.9-14.3-33.5
	c-3.8-2.9-7.1-6.8-10-10.7c-7.9-10.5-3.8-22.8,9.1-26.1c49.5-12.6,99-24.8,148.5-37.2c2.9-0.7,5.4,0,8.2,0.7
	c48.2,12.1,96.4,24,144.5,36.2C426,60.5,429.9,74.5,418.9,86.7z"/>
<path class="st0" d="M407.4,412.4c-13.1-0.3-20.9-5.4-25.8-17.8c-4.2-10.5-16-10.4-20.4,0.2c-4.9,11.6-11.8,17.3-24.8,17.7
	c-10.7,0.3-15.5,12.8-7.7,19.7c10,8.8,15.1,17.9,10.1,29.7c-0.6,13.3,9,19.4,19.6,12.2c10.1-6.8,18.3-6.1,27.5,0
	c0.9,0.6,1.8,1.1,2.8,1.5c8.7,3.3,15.6-1.2,16-10.4c0.1-3.4-0.5-7-1.6-10.2c-2.2-6.5-0.9-11.4,4.7-15.6c2.8-2.1,5.4-4.5,7.5-7.3
	C421.3,424,417,412.6,407.4,412.4z M396,429c-9.5,8-11.1,17.4-6.6,29.2c-18.5-6.6-18.5-6.6-32.8-0.6c-2.8-1.6-2.2-4.5-1.5-6.4
	c3.1-8.1,1-14.1-5.6-19.3c-4.3-3.4-5.4-7.1,2.2-7.5s13.3-2.9,15.9-10.8c1.8-5.5,5.4-6.9,7.9-0.6c3.2,7.9,8.4,11.4,16.7,11.5
	C394.6,424.5,399.3,426.2,396,429z"/>
<path class="st0" d="M295.9,57.8c-20.6-11.3-41.3-18.9-63.2-3.1c-0.3,0.2-0.6,0.3-1,0.4c-10.1,3.4-16.6,9.3-14.4,17.6
	c1.4,27,9.6,46.9,30.3,60.2c9.3,5.9,18.2,5.7,27.4-0.4c21.9-14.6,29.4-36.3,30.6-61.1C305.8,64.8,301.4,60.8,295.9,57.8z
	 M290.5,76.7c-1.7,17.4-8.3,32.3-22.9,43.1c-4.2,3.2-8.2,3.7-12.3,0.4c-13.3-10.8-21.8-24.4-22.9-42.8c-1-4.4,1.6-6.8,6.2-9.6
	c15.7-9.4,30.7-8.6,46.1,0.3C288.5,70.3,290.9,72.2,290.5,76.7z"/>
</svg>
