<?xml version="1.0" encoding="utf-8"?>
<!-- Generator: Adobe Illustrator 25.4.1, SVG Export Plug-In . SVG Version: 6.00 Build 0)  -->
<svg version="1.1" xmlns="http://www.w3.org/2000/svg" xmlns:xlink="http://www.w3.org/1999/xlink" x="0px" y="0px"
	 viewBox="0 0 599 800" style="enable-background:new 0 0 599 800;" xml:space="preserve">
<style type="text/css">
	.st0{fill:#FAFAFA;}
	.st1{fill:#E0E0E0;}
	.st2{fill:#101838;}
	.st3{opacity:0.1;}
	.st4{fill:#2C344F;}
	.st5{fill:#3D4664;}
	.st6{fill:#7081C8;}
	.st7{opacity:0.2;}
	.st8{opacity:0.3;}
	.st9{fill:#FFFFFF;}
	.st10{fill:#EBEBEB;}
	.st11{opacity:0.15;}
	.st12{opacity:0.5;}
	.st13{fill:#4D6445;}
	.st14{opacity:0.6;fill:#FFFFFF;}
	.st15{opacity:0.9;fill:#FFFFFF;}
	.st16{fill:none;stroke:#FFFFFF;stroke-width:0.589;stroke-linecap:round;stroke-linejoin:round;}
	.st17{fill:none;stroke:#FFFFFF;stroke-width:0.589;stroke-linecap:round;stroke-linejoin:round;stroke-dasharray:1.1308,2.2617;}
	.st18{fill:none;stroke:#FFFFFF;stroke-width:0.589;stroke-linecap:round;stroke-linejoin:round;stroke-dasharray:1.1758,2.3517;}
	.st19{fill:none;stroke:#FFFFFF;stroke-width:0.589;stroke-linecap:round;stroke-linejoin:round;stroke-dasharray:1.2812,2.5624;}
	.st20{fill:none;stroke:#FFFFFF;stroke-width:0.589;stroke-linecap:round;stroke-linejoin:round;stroke-dasharray:1.2126,2.4253;}
	.st21{opacity:0.4;}
	.st22{opacity:0.4;fill:#FFFFFF;}
	.st23{opacity:0.5;fill:#FFFFFF;}
	.st24{opacity:0.8;fill:#FFFFFF;}
	.st25{opacity:0.7;fill:#FFFFFF;}
	.st26{opacity:0.1;fill:#FFFFFF;}
	.st27{fill:#3D4F37;}
	.st28{fill:#2A3826;}
	.st29{opacity:0.85;fill:#FFFFFF;}
	.st30{opacity:0.2;fill:#FFFFFF;}
	.st31{fill:#5F64A7;}
	.st32{fill:#717470;}
	.st33{fill:#FFA792;}
	.st34{fill:#F2907B;}
	.st35{fill:#F0EBDC;}
	.st36{fill:#EBE6D7;}
	.st37{fill:#B16657;}
	.st38{fill:#C85FAA;}
	.st39{opacity:0.85;}
	.st40{opacity:0.6;}
	.st41{opacity:0.03;}
	.st42{opacity:0.5;fill:#C85FAA;}
</style>
<g id="Floor">
	<path id="Floor_00000048472611002434275530000014874776674649961896_" class="st0" d="M95.82,506.31
		c-113.51,65.53-113.5,171.79,0.01,237.32s297.55,65.53,411.05,0s113.5-171.79-0.01-237.32S209.32,440.78,95.82,506.31z"/>
</g>
<g id="Shadows">
	<path id="Shadow_00000169544227831236378040000000224550637073123994_" class="st1" d="M459.5,632.23c-3.03,0-5.75-2.25-6.31-5.23
		l-1.2-6.34c-2.8-0.54-5.52-1.21-8.11-2.01l-11.89,5.51c-0.93,0.43-2.01,0.66-3.12,0.66c-0.96,0-2.4-0.17-3.79-0.97l-12-6.93
		c-1.7-0.98-2.77-2.68-2.86-4.55c-0.09-1.87,0.8-3.67,2.39-4.82l6.66-4.79c-0.44-0.61-0.84-1.23-1.22-1.86l-14.9-0.94
		c-3.26-0.21-5.82-2.93-5.82-6.2v-8.92c0-3.27,2.55-5.99,5.82-6.2l14.91-0.94c0.38-0.63,0.78-1.25,1.22-1.86l-6.66-4.79
		c-1.59-1.15-2.49-2.95-2.4-4.82c0.09-1.87,1.17-3.57,2.87-4.55l12-6.93c1.39-0.8,2.82-0.97,3.79-0.97c1.11,0,2.19,0.23,3.12,0.66
		l11.89,5.51c2.59-0.8,5.31-1.47,8.11-2.01l1.2-6.34c0.57-2.98,3.28-5.23,6.31-5.23h17.65c3.03,0,5.75,2.25,6.31,5.23l1.2,6.34
		c2.8,0.54,5.52,1.21,8.11,2.01l11.89-5.51c0.93-0.43,2.01-0.66,3.12-0.66c0.96,0,2.4,0.17,3.79,0.97l12,6.93
		c1.7,0.98,2.77,2.68,2.86,4.55c0.09,1.87-0.8,3.67-2.39,4.82l-6.67,4.8c0.43,0.61,0.84,1.23,1.22,1.86l14.9,0.94
		c3.26,0.21,5.82,2.93,5.82,6.2v8.92c0,3.27-2.56,5.99-5.82,6.2l-14.9,0.94c-0.37,0.63-0.78,1.25-1.22,1.86l6.66,4.79
		c1.59,1.15,2.49,2.95,2.39,4.82c-0.09,1.87-1.17,3.57-2.87,4.55l-12,6.93c-1.39,0.8-2.82,0.97-3.79,0.97l0,0
		c-1.11,0-2.19-0.23-3.12-0.66l-11.89-5.51c-2.58,0.8-5.31,1.47-8.11,2.01l-1.2,6.34c-0.57,2.98-3.28,5.23-6.31,5.23H459.5z
		 M468.33,577.35c-6.76,0-13.31,1.54-17.97,4.23c-3.87,2.23-6.09,5.04-6.09,7.71c0,2.66,2.22,5.47,6.09,7.71
		c4.66,2.69,11.21,4.23,17.97,4.23c6.76,0,13.31-1.54,17.97-4.23c3.87-2.23,6.09-5.04,6.09-7.71c0-2.66-2.22-5.47-6.09-7.71
		C481.64,578.89,475.09,577.35,468.33,577.35z"/>
	<path id="Shadow_00000174602025994751010190000001178056897384062389_" class="st1" d="M271.15,666.87
		c-5.72,4.49-11.68,9-18.48,10.67c-6.8,1.67-14.72-0.11-18.97-6.36c-6.64-9.79-3.18-27.19,2.8-36.03c2.04-3.02,4.24-5.78,6.57-8.29
		c19.04-20.48,47.12-23.91,71.93-18.58c9.85,2.12,16.89,5.07,25.75,9.6c8.53,4.36,16.68,10.94,21.17,19.42
		c2.07,3.9,2.22,9.12-0.64,12.78c-1.82,2.34-5.57,4.86-11.98,6.2c-8.31,1.74-17.25,0.27-29.19-1.28
		c-8.62-1.12-17.49-1.85-26.06,0.16C285.5,657.18,278.3,661.26,271.15,666.87z"/>
	<path id="Shadow_00000116192973911701045640000012636713536723481489_" class="st1" d="M275.76,744.9c-5.27,0-9.98-3.9-10.95-9.07
		l-2.85-15.02c-6.54-1.19-12.89-2.73-18.9-4.61c-0.05-0.01-0.14-0.01-0.28-0.01c-0.27,0-0.49,0.03-0.59,0.05l-25.55,11.83
		c-1.64,0.76-3.57,1.16-5.57,1.17l0,0c-2.46,0-4.87-0.61-6.79-1.72l-25.35-14.64c-2.88-1.66-4.69-4.52-4.84-7.64
		c-0.16-3.13,1.36-6.15,4.05-8.09l16.06-11.56c-1.71-2.2-3.23-4.48-4.54-6.8l-32.77-2.07c-5.62-0.36-10.02-5.05-10.02-10.68V647.2
		c0-5.63,4.4-10.32,10.02-10.68l32.77-2.07c1.31-2.32,2.83-4.59,4.54-6.8l-16.07-11.56c-2.69-1.94-4.21-4.96-4.05-8.08
		c0.16-3.12,1.96-5.98,4.84-7.64l25.35-14.64c1.92-1.11,4.33-1.72,6.79-1.72c2,0,3.92,0.4,5.57,1.16L242.18,597
		c0.11,0.02,0.32,0.05,0.59,0.05c0.14,0,0.23-0.01,0.28-0.01c6-1.87,12.35-3.42,18.9-4.6l2.85-15.02c0.98-5.17,5.69-9.07,10.95-9.07
		l37.28,0c5.27,0,9.98,3.9,10.96,9.07l2.85,15.02c6.55,1.19,12.89,2.73,18.9,4.61c0.05,0.01,0.14,0.01,0.28,0.01
		c0.27,0,0.49-0.03,0.59-0.05l25.55-11.83c1.65-0.76,3.57-1.17,5.57-1.17c2.46,0,4.87,0.61,6.79,1.72l25.35,14.64
		c2.88,1.66,4.69,4.52,4.84,7.64c0.16,3.13-1.36,6.15-4.05,8.09l-16.07,11.56c1.71,2.2,3.23,4.48,4.54,6.8l32.77,2.07
		c5.61,0.36,10.01,5.05,10.02,10.68v18.85c0,5.64-4.41,10.33-10.02,10.68l-32.77,2.07c-1.31,2.32-2.83,4.59-4.54,6.8l16.07,11.56
		c2.7,1.94,4.21,4.96,4.05,8.09c-0.16,3.12-1.97,5.98-4.84,7.64l-25.35,14.64c-1.92,1.11-4.33,1.72-6.79,1.72
		c-2,0-3.92-0.4-5.57-1.16l-25.55-11.84c-0.11-0.02-0.32-0.05-0.6-0.05c-0.13,0-0.22,0.01-0.27,0.01
		c-6.01,1.87-12.36,3.42-18.9,4.61l-2.85,15.02c-0.99,5.16-5.69,9.06-10.95,9.06H275.76z M237.37,627.93
		c-13.85,7.99-21.48,18.19-21.48,28.69c0,10.51,7.63,20.7,21.48,28.69c15.12,8.73,35.37,13.53,57.03,13.53
		c21.66,0,41.91-4.8,57.03-13.53c13.85-7.99,21.47-18.19,21.47-28.69c0-10.51-7.63-20.7-21.48-28.7
		c-15.12-8.73-35.37-13.53-57.03-13.53C272.74,614.4,252.49,619.2,237.37,627.93z"/>
	<path id="Shadow_00000049196339956612829160000015329978977016005820_" class="st1" d="M108.8,632.23c-3.03,0-5.75-2.25-6.31-5.23
		l-1.2-6.34c-2.8-0.54-5.52-1.21-8.11-2.01l-11.89,5.51c-0.93,0.43-2.01,0.66-3.12,0.66c-0.96,0-2.4-0.17-3.79-0.97l-12-6.93
		c-1.7-0.98-2.77-2.68-2.86-4.55c-0.09-1.87,0.8-3.67,2.39-4.82l6.66-4.79c-0.44-0.61-0.84-1.23-1.22-1.86l-14.9-0.94
		c-3.26-0.21-5.82-2.93-5.82-6.2v-8.92c0-3.27,2.55-5.99,5.82-6.2l14.91-0.94c0.38-0.63,0.78-1.25,1.22-1.86l-6.66-4.79
		c-1.59-1.15-2.49-2.95-2.4-4.82c0.09-1.87,1.17-3.57,2.87-4.55l12-6.93c1.39-0.8,2.82-0.97,3.79-0.97c1.11,0,2.19,0.23,3.12,0.66
		l11.89,5.51c2.59-0.8,5.31-1.47,8.11-2.01l1.2-6.34c0.57-2.98,3.28-5.23,6.31-5.23h17.65c3.03,0,5.75,2.25,6.31,5.23l1.2,6.34
		c2.8,0.54,5.52,1.21,8.11,2.01l11.89-5.51c0.93-0.43,2.01-0.66,3.12-0.66c0.96,0,2.4,0.17,3.79,0.97l12,6.93
		c1.7,0.98,2.77,2.68,2.86,4.55c0.09,1.87-0.8,3.67-2.39,4.82l-6.67,4.8c0.44,0.61,0.84,1.23,1.22,1.86l14.9,0.94
		c3.26,0.21,5.82,2.93,5.82,6.2v8.92c0,3.27-2.56,5.99-5.82,6.2l-14.9,0.94c-0.37,0.63-0.78,1.25-1.22,1.86l6.66,4.79
		c1.59,1.15,2.49,2.95,2.39,4.82c-0.09,1.87-1.17,3.57-2.87,4.55l-12,6.93c-1.39,0.8-2.82,0.97-3.79,0.97l0,0
		c-1.11,0-2.19-0.23-3.12-0.66l-11.89-5.51c-2.58,0.8-5.31,1.47-8.11,2.01l-1.2,6.34c-0.57,2.98-3.28,5.23-6.31,5.23H108.8z
		 M117.63,577.35c-6.76,0-13.31,1.54-17.97,4.23c-3.87,2.23-6.09,5.04-6.09,7.71c0,2.66,2.22,5.47,6.09,7.71
		c4.66,2.69,11.21,4.23,17.97,4.23c6.76,0,13.31-1.54,17.97-4.23c3.87-2.23,6.09-5.04,6.09-7.71c0-2.66-2.22-5.47-6.09-7.71
		C130.94,578.89,124.39,577.35,117.63,577.35z"/>
</g>
<g id="Gears">
	<g id="Gear_00000123403423397891348100000005894846988999312783_">
		<g>
			<path class="st2" d="M521.26,551.38l-12-6.93c-0.72-0.41-1.91-0.47-2.66-0.12l-12.17,5.64c-0.75,0.35-1.99,0.41-2.78,0.17
				c-3.03-0.95-6.2-1.69-9.45-2.25c-0.82-0.14-1.6-0.9-1.76-1.71l-1.52-8.02c-0.15-0.81-0.95-1.47-1.78-1.47l-17.65,0
				c-0.83,0-1.62,0.66-1.78,1.47l-1.52,8.02c-0.15,0.81-0.94,1.57-1.76,1.71c-3.25,0.55-6.41,1.3-9.44,2.24
				c-0.79,0.25-2.03,0.18-2.78-0.17l-12.17-5.64c-0.75-0.35-1.94-0.29-2.66,0.12l-12,6.93c-0.37,0.21-0.56,0.51-0.56,0.82l0,0
				l-0.03,10.4l0,0c0,0.28,0.15,0.58,0.48,0.81l5.52,3.97c-0.42,0.31-0.9,0.54-1.36,0.57l-15.99,1.01
				c-0.83,0.05-1.49,0.77-1.49,1.59l0,6.8c0,0.01,0,0.01,0,0.02l-0.02,12.51c0,0.83,0.67,1.54,1.49,1.59l16,1.01
				c0.47,0.03,0.97,0.27,1.39,0.59l-5.49,3.95c-0.32,0.23-0.48,0.52-0.48,0.8l0,0l-0.03,10.42l0,0c0,0.3,0.19,0.6,0.56,0.81l12,6.93
				c0.72,0.41,1.91,0.47,2.66,0.12l12.17-5.64c0.75-0.35,1.99-0.41,2.78-0.17c3.03,0.95,6.2,1.69,9.45,2.25
				c0.82,0.14,1.6,0.9,1.76,1.71l1.52,8.02c0.15,0.81,0.95,1.47,1.78,1.47l17.65,0c0.83,0,1.62-0.66,1.78-1.47l1.52-8.02
				c0.15-0.81,0.94-1.57,1.76-1.71c3.25-0.55,6.41-1.3,9.45-2.25c0.79-0.25,2.03-0.18,2.78,0.17l12.17,5.64
				c0.75,0.35,1.94,0.29,2.66-0.12l12-6.93c0.36-0.21,0.55-0.5,0.56-0.8l0,0l0.03-10.44l0,0c0-0.28-0.16-0.57-0.48-0.8l-5.52-3.97
				c0.42-0.31,0.9-0.54,1.36-0.57l16-1.01c0.83-0.05,1.49-0.77,1.49-1.59l0.02-10.36c0-0.01,0.01-0.03,0.01-0.04l0-8.92
				c0-0.83-0.67-1.54-1.49-1.59l-16-1.01c-0.47-0.03-0.97-0.27-1.39-0.59l5.49-3.95c0.32-0.23,0.47-0.52,0.48-0.8l0,0l0.03-10.42
				l0,0C521.82,551.89,521.63,551.59,521.26,551.38z M440.23,578.34c0.86-2.88,3.43-5.69,7.81-8.22c11.2-6.47,29.36-6.47,40.56,0
				c4.11,2.37,6.79,4.98,8,7.65c-0.95,3.28-3.61,6.42-7.99,8.95c-11.2,6.47-29.36,6.47-40.56,0
				C443.92,584.34,441.32,581.41,440.23,578.34z"/>
		</g>
		<path class="st3" d="M421.6,583.52c-0.39-0.73-1.34-1.38-2.16-1.44l-16-1.01c-0.83-0.05-1.49-0.76-1.49-1.59l-0.01-2.11
			l-0.03,12.51c0.01,0.83,0.67,1.54,1.5,1.6l16,1.01c0.47,0.03,0.98,0.25,1.41,0.58l4-2.88c0.67-0.48,0.73-1.34,0.18-1.95
			C423.6,586.7,422.47,585.13,421.6,583.52z M414.79,562.6l0.01,0.01c-0.01,0.28,0.15,0.56,0.47,0.8l5.52,3.98
			c0.33-0.24,0.62-0.55,0.79-0.88c0.88-1.61,2.02-3.19,3.4-4.71c0.56-0.62,0.49-1.47-0.18-1.95l-9.52-6.84
			c-0.27-0.21-0.43-0.45-0.48-0.7L414.79,562.6z"/>
		<g>
			<path class="st4" d="M534.69,579.68c-0.11,0.73-0.73,1.33-1.48,1.39l-15.99,1.01c-0.26,0.01-0.54,0.09-0.8,0.22l-0.02,10.42
				c0.26-0.12,0.53-0.21,0.78-0.23l16-1.02c0.83-0.05,1.5-0.76,1.5-1.58L534.69,579.68z M521.82,552.19l-0.01-0.01
				c0.01,0.1-0.01,0.21-0.06,0.32c-0.02,0.11-0.1,0.22-0.19,0.31c-0.07,0.07-0.13,0.13-0.22,0.19l-9.51,6.84
				c-0.09,0.06-0.17,0.13-0.23,0.21c-0.16,0.18-0.26,0.38-0.3,0.59c-0.02,0.14-0.03,0.27-0.01,0.4c0.01,0.07,0.03,0.14,0.05,0.2
				c0.06,0.2,0.17,0.39,0.32,0.55c0.07,0.07,0.12,0.14,0.18,0.21c1.31,1.45,2.38,2.97,3.22,4.5c0.18,0.31,0.44,0.61,0.76,0.86
				l5.5-3.95c0.32-0.24,0.48-0.53,0.48-0.8l0.01,0.01L521.82,552.19z M521.82,597.92c-0.04,0.28-0.23,0.54-0.56,0.74l-12.01,6.93
				c-0.49,0.29-1.21,0.4-1.86,0.33l-0.02,10.39c0.65,0.08,1.36-0.03,1.86-0.32l12-6.93c0.37-0.21,0.56-0.49,0.56-0.79L521.82,597.92
				z M443.41,599.77c-0.45,0.04-0.87,0.14-1.2,0.29l-12.16,5.64c-0.3,0.15-0.69,0.23-1.08,0.23l-0.03,10.39
				c0.39-0.02,0.77-0.07,1.09-0.21l12.16-5.64c0.33-0.15,0.76-0.24,1.19-0.28L443.41,599.77z M478.63,612.54
				c-0.34,0.47-0.9,0.8-1.48,0.79l-17.66,0.01c-0.39-0.01-0.77-0.15-1.08-0.39l-0.01,10.41c0.31,0.24,0.68,0.38,1.07,0.39l17.64,0
				c0.63,0,1.22-0.37,1.55-0.89L478.63,612.54z"/>
		</g>
		<g>
			<path id="XMLID_00000177480112911367828420000004850206660383446409_" class="st5" d="M506.6,544.33l-12.17,5.64
				c-0.75,0.35-1.99,0.41-2.78,0.17c-3.03-0.95-6.2-1.69-9.45-2.25c-0.82-0.14-1.6-0.9-1.76-1.71l-1.52-8.02
				c-0.15-0.81-0.95-1.47-1.78-1.47l-17.65,0c-0.83,0-1.62,0.66-1.78,1.47l-1.52,8.02c-0.15,0.81-0.94,1.57-1.76,1.71
				c-3.25,0.55-6.41,1.3-9.44,2.24c-0.79,0.25-2.03,0.18-2.78-0.17l-12.17-5.64c-0.75-0.35-1.94-0.29-2.66,0.12l-12,6.93
				c-0.72,0.41-0.75,1.14-0.08,1.62l9.51,6.84c0.67,0.48,0.73,1.34,0.18,1.95c-1.39,1.52-2.52,3.1-3.4,4.71
				c-0.4,0.73-1.34,1.38-2.16,1.44l-15.99,1.01c-0.83,0.05-1.49,0.77-1.49,1.59l0,8.92c0,0.83,0.67,1.54,1.49,1.59l15.99,1.01
				c0.83,0.05,1.77,0.71,2.16,1.43c0.88,1.61,2.01,3.19,3.4,4.71c0.56,0.61,0.5,1.47-0.18,1.95l-9.51,6.84
				c-0.67,0.48-0.63,1.21,0.08,1.62l12,6.93c0.72,0.41,1.91,0.47,2.66,0.12l12.17-5.64c0.75-0.35,1.99-0.41,2.78-0.17
				c3.03,0.95,6.2,1.7,9.45,2.25c0.82,0.14,1.6,0.9,1.76,1.71l1.52,8.02c0.15,0.81,0.95,1.47,1.78,1.47l17.65,0
				c0.83,0,1.62-0.66,1.78-1.47l1.52-8.02c0.15-0.81,0.94-1.57,1.76-1.71c3.25-0.55,6.41-1.3,9.45-2.25
				c0.79-0.25,2.03-0.18,2.78,0.17l12.17,5.64c0.75,0.35,1.94,0.29,2.66-0.12l12-6.93c0.72-0.41,0.75-1.14,0.08-1.62l-9.51-6.84
				c-0.67-0.48-0.73-1.34-0.18-1.95c1.39-1.52,2.52-3.1,3.4-4.71c0.39-0.73,1.34-1.38,2.16-1.44l16-1.01
				c0.83-0.05,1.49-0.77,1.49-1.59l0-8.92c0-0.83-0.67-1.54-1.49-1.59l-16-1.01c-0.83-0.05-1.77-0.71-2.16-1.43
				c-0.88-1.61-2.01-3.19-3.4-4.71c-0.56-0.61-0.5-1.47,0.18-1.95l9.51-6.84c0.67-0.48,0.63-1.21-0.08-1.62l-12-6.93
				C508.54,544.04,507.35,543.98,506.6,544.33z M488.6,563.31c11.2,6.47,11.2,16.95,0,23.41c-11.2,6.47-29.36,6.47-40.56,0
				c-11.2-6.47-11.2-16.95,0-23.41C459.25,556.84,477.4,556.84,488.6,563.31z"/>
		</g>
	</g>
	<g id="Gear_00000087376028351967574990000016344367432230486697_">
		<g>
			<path class="st2" d="M170.56,551.38l-12-6.93c-0.72-0.41-1.91-0.47-2.66-0.12l-12.17,5.64c-0.75,0.35-1.99,0.41-2.78,0.17
				c-3.03-0.95-6.2-1.69-9.45-2.25c-0.82-0.14-1.6-0.9-1.76-1.71l-1.52-8.02c-0.15-0.81-0.95-1.47-1.78-1.47l-17.65,0
				c-0.83,0-1.62,0.66-1.78,1.47l-1.52,8.02c-0.15,0.81-0.94,1.57-1.76,1.71c-3.25,0.55-6.41,1.3-9.44,2.24
				c-0.79,0.25-2.03,0.18-2.78-0.17l-12.17-5.64c-0.75-0.35-1.94-0.29-2.66,0.12l-12,6.93c-0.37,0.21-0.56,0.51-0.56,0.82l0,0
				l-0.03,10.4l0,0c0,0.28,0.15,0.58,0.48,0.81l5.52,3.97c-0.42,0.31-0.9,0.54-1.36,0.57l-15.99,1.01
				c-0.83,0.05-1.49,0.77-1.49,1.59l0,6.8c0,0.01,0,0.01,0,0.02l-0.02,12.51c0,0.83,0.67,1.54,1.49,1.59l16,1.01
				c0.47,0.03,0.97,0.27,1.39,0.59l-5.49,3.95c-0.32,0.23-0.48,0.52-0.48,0.8l0,0l-0.03,10.42l0,0c0,0.3,0.19,0.6,0.56,0.81l12,6.93
				c0.72,0.41,1.91,0.47,2.66,0.12l12.17-5.64c0.75-0.35,1.99-0.41,2.78-0.17c3.03,0.95,6.2,1.69,9.45,2.25
				c0.82,0.14,1.6,0.9,1.76,1.71l1.52,8.02c0.15,0.81,0.95,1.47,1.78,1.47l17.65,0c0.83,0,1.62-0.66,1.78-1.47l1.52-8.02
				c0.15-0.81,0.94-1.57,1.76-1.71c3.25-0.55,6.41-1.3,9.45-2.25c0.79-0.25,2.03-0.18,2.78,0.17l12.17,5.64
				c0.75,0.35,1.94,0.29,2.66-0.12l12-6.93c0.36-0.21,0.55-0.5,0.56-0.8l0,0l0.03-10.44l0,0c0-0.28-0.16-0.57-0.48-0.8l-5.52-3.97
				c0.42-0.31,0.9-0.54,1.36-0.57l16-1.01c0.83-0.05,1.5-0.77,1.5-1.59l0.02-10.36c0-0.01,0.01-0.03,0.01-0.04l0-8.92
				c0-0.83-0.67-1.54-1.49-1.59l-16-1.01c-0.47-0.03-0.97-0.27-1.39-0.59l5.49-3.95c0.32-0.23,0.47-0.52,0.48-0.8l0,0l0.03-10.42
				l0,0C171.12,551.89,170.93,551.59,170.56,551.38z M89.53,578.34c0.86-2.88,3.43-5.69,7.81-8.22c11.2-6.47,29.36-6.47,40.56,0
				c4.11,2.37,6.79,4.98,8,7.65c-0.95,3.28-3.61,6.42-7.99,8.95c-11.2,6.47-29.36,6.47-40.56,0
				C93.22,584.34,90.62,581.41,89.53,578.34z"/>
		</g>
		<path class="st3" d="M70.9,583.52c-0.39-0.73-1.34-1.38-2.16-1.44l-16-1.01c-0.83-0.05-1.49-0.76-1.49-1.59l-0.01-2.11
			l-0.03,12.51c0.01,0.83,0.67,1.54,1.5,1.6l16,1.01c0.47,0.03,0.98,0.25,1.41,0.58l4-2.88c0.67-0.48,0.73-1.34,0.18-1.95
			C72.9,586.7,71.77,585.13,70.9,583.52z M64.09,562.6l0.01,0.01c-0.01,0.28,0.15,0.56,0.47,0.8l5.52,3.98
			c0.33-0.24,0.62-0.55,0.79-0.88c0.88-1.61,2.02-3.19,3.4-4.71c0.56-0.62,0.49-1.47-0.18-1.95l-9.51-6.84
			c-0.27-0.21-0.43-0.45-0.48-0.7L64.09,562.6z"/>
		<g>
			<path class="st4" d="M183.99,579.68c-0.11,0.73-0.73,1.33-1.48,1.39l-15.99,1.01c-0.26,0.01-0.54,0.09-0.8,0.22l-0.02,10.42
				c0.26-0.12,0.53-0.21,0.78-0.23l16-1.02c0.83-0.05,1.5-0.76,1.5-1.58L183.99,579.68z M171.13,552.19l-0.01-0.01
				c0.01,0.1-0.01,0.21-0.06,0.32c-0.02,0.11-0.1,0.22-0.19,0.31c-0.07,0.07-0.13,0.13-0.22,0.19l-9.51,6.84
				c-0.09,0.06-0.17,0.13-0.23,0.21c-0.16,0.18-0.26,0.38-0.3,0.59c-0.02,0.14-0.03,0.27-0.01,0.4c0.01,0.07,0.03,0.14,0.05,0.2
				c0.06,0.2,0.17,0.39,0.32,0.55c0.07,0.07,0.12,0.14,0.18,0.21c1.31,1.45,2.38,2.97,3.22,4.5c0.18,0.31,0.44,0.61,0.76,0.86
				l5.5-3.95c0.32-0.24,0.48-0.53,0.48-0.8l0.01,0.01L171.13,552.19z M171.12,597.92c-0.04,0.28-0.23,0.54-0.56,0.74l-12.01,6.93
				c-0.49,0.29-1.21,0.4-1.86,0.33l-0.02,10.39c0.65,0.08,1.36-0.03,1.86-0.32l12-6.93c0.37-0.21,0.56-0.49,0.56-0.79L171.12,597.92
				z M92.71,599.77c-0.45,0.04-0.87,0.14-1.2,0.29l-12.16,5.64c-0.3,0.15-0.69,0.23-1.08,0.23l-0.03,10.39
				c0.39-0.02,0.77-0.07,1.09-0.21l12.16-5.64c0.33-0.15,0.76-0.24,1.19-0.28L92.71,599.77z M127.93,612.54
				c-0.34,0.47-0.9,0.8-1.48,0.79l-17.66,0.01c-0.39-0.01-0.77-0.15-1.08-0.39l-0.01,10.41c0.31,0.24,0.68,0.38,1.07,0.39l17.64,0
				c0.63,0,1.22-0.37,1.55-0.89L127.93,612.54z"/>
		</g>
		<g>
			<path id="XMLID_00000138539796322363668520000012607118557589596569_" class="st5" d="M155.9,544.33l-12.17,5.64
				c-0.75,0.35-1.99,0.41-2.78,0.17c-3.03-0.95-6.2-1.69-9.45-2.25c-0.82-0.14-1.6-0.9-1.76-1.71l-1.52-8.02
				c-0.15-0.81-0.95-1.47-1.78-1.47l-17.65,0c-0.83,0-1.62,0.66-1.78,1.47l-1.52,8.02c-0.15,0.81-0.94,1.57-1.76,1.71
				c-3.25,0.55-6.41,1.3-9.44,2.24c-0.79,0.25-2.03,0.18-2.78-0.17l-12.17-5.64c-0.75-0.35-1.94-0.29-2.66,0.12l-12,6.93
				c-0.72,0.41-0.75,1.14-0.08,1.62l9.51,6.84c0.67,0.48,0.73,1.34,0.18,1.95c-1.39,1.52-2.52,3.1-3.4,4.71
				c-0.4,0.73-1.34,1.38-2.16,1.44l-15.99,1.01c-0.83,0.05-1.49,0.77-1.49,1.59l0,8.92c0,0.83,0.67,1.54,1.49,1.59l15.99,1.01
				c0.83,0.05,1.77,0.71,2.16,1.43c0.88,1.61,2.01,3.19,3.4,4.71c0.56,0.61,0.5,1.47-0.18,1.95l-9.51,6.84
				c-0.67,0.48-0.63,1.21,0.08,1.62l12,6.93c0.72,0.41,1.91,0.47,2.66,0.12l12.17-5.64c0.75-0.35,1.99-0.41,2.78-0.17
				c3.03,0.95,6.2,1.7,9.45,2.25c0.82,0.14,1.6,0.9,1.76,1.71l1.52,8.02c0.15,0.81,0.95,1.47,1.78,1.47l17.65,0
				c0.83,0,1.62-0.66,1.78-1.47l1.52-8.02c0.15-0.81,0.94-1.57,1.76-1.71c3.25-0.55,6.41-1.3,9.45-2.25
				c0.79-0.25,2.03-0.18,2.78,0.17l12.17,5.64c0.75,0.35,1.94,0.29,2.66-0.12l12-6.93c0.72-0.41,0.75-1.14,0.08-1.62l-9.51-6.84
				c-0.67-0.48-0.73-1.34-0.18-1.95c1.39-1.52,2.52-3.1,3.4-4.71c0.39-0.73,1.34-1.38,2.16-1.44l16-1.01
				c0.83-0.05,1.49-0.77,1.49-1.59l0-8.92c0-0.83-0.67-1.54-1.49-1.59l-16-1.01c-0.83-0.05-1.77-0.71-2.16-1.43
				c-0.88-1.61-2.01-3.19-3.4-4.71c-0.56-0.61-0.5-1.47,0.18-1.95l9.51-6.84c0.67-0.48,0.63-1.21-0.08-1.62l-12-6.93
				C157.84,544.04,156.65,543.98,155.9,544.33z M137.9,563.31c11.2,6.47,11.2,16.95,0,23.41c-11.2,6.47-29.36,6.47-40.56,0
				c-11.2-6.47-11.2-16.95,0-23.41C108.55,556.84,126.7,556.84,137.9,563.31z"/>
		</g>
	</g>
	<g id="Gear_00000026880211178656585560000003077532080656647298_">
		<g>
			<path class="st6" d="M181.41,584.8L181.41,584.8l0.05,22.01l0.01,0c0,0.59,0.33,1.2,1,1.68l11.6,8.34
				c-0.89,0.68-1.94,1.18-2.93,1.24l-33.78,2.14c-1.74,0.11-3.16,1.62-3.16,3.36v18.85c0,0.03,0.02,0.06,0.02,0.09l0.04,21.89
				c0,1.75,1.41,3.25,3.16,3.36l33.78,2.14c0.97,0.06,2,0.54,2.88,1.2l-11.66,8.39c-0.68,0.49-1,1.09-1,1.68l-0.01,0l0.06,22.04l0,0
				c0.02,0.63,0.42,1.24,1.18,1.68L208,719.53c1.51,0.87,4.02,0.99,5.61,0.25l25.7-11.91c1.59-0.73,4.21-0.87,5.88-0.35
				c6.4,2,13.09,3.58,19.95,4.74c1.72,0.29,3.39,1.89,3.71,3.61l3.21,16.93c0.33,1.72,2.01,3.11,3.75,3.11l37.27,0
				c1.75,0,3.43-1.39,3.75-3.11l3.21-16.93c0.33-1.72,1.99-3.32,3.72-3.61c6.86-1.16,13.55-2.74,19.95-4.74
				c1.67-0.52,4.29-0.38,5.88,0.35l25.7,11.9c1.58,0.73,4.1,0.62,5.61-0.25l25.35-14.64c0.78-0.45,1.17-1.08,1.18-1.72l0.01,0
				l-0.06-22l-0.01,0c0-0.59-0.33-1.2-1.01-1.69l-11.6-8.34c0.89-0.68,1.94-1.18,2.93-1.24l33.78-2.14
				c1.74-0.11,3.16-1.62,3.16-3.36l-0.05-26.43c0-0.01-0.01-0.02-0.01-0.03l0-14.36c0-1.75-1.41-3.25-3.16-3.36l-33.78-2.14
				c-0.97-0.06-2-0.54-2.88-1.2l11.66-8.39c0.69-0.49,1.01-1.11,1.01-1.71l0.01,0l-0.06-21.98l-0.01,0
				c-0.01-0.64-0.4-1.27-1.18-1.72l-25.35-14.64c-1.51-0.87-4.02-0.99-5.61-0.25l-25.7,11.91c-1.59,0.73-4.21,0.87-5.88,0.35
				c-6.4-2-13.09-3.58-19.95-4.74c-1.72-0.29-3.39-1.89-3.71-3.61l-3.22-16.93c-0.33-1.72-2.01-3.11-3.75-3.11l-37.27,0
				c-1.75,0-3.43,1.39-3.75,3.11l-3.22,16.93c-0.33,1.72-1.99,3.32-3.71,3.61c-6.86,1.16-13.55,2.74-19.95,4.74
				c-1.67,0.52-4.29,0.38-5.88-0.35l-25.7-11.91c-1.58-0.73-4.1-0.62-5.61,0.25l-25.35,14.64
				C181.81,583.54,181.42,584.16,181.41,584.8z M355.1,668.05c-33.52,19.35-87.87,19.35-121.39,0
				c-13.11-7.57-21.07-16.98-23.92-26.79c3.62-8,11.64-15.81,23.93-22.9c33.52-19.35,87.87-19.35,121.39,0
				c13.11,7.57,20.8,15.99,23.37,24.6C375.23,652.15,367.45,660.91,355.1,668.05z"/>
		</g>
		<g class="st7">
			<path d="M154.26,664.41c-0.01,1.73,1.41,3.24,3.17,3.34l33.79,2.15c0.54,0.03,1.11,0.22,1.66,0.48l-0.04-22.01
				c-0.55-0.26-1.14-0.43-1.7-0.46l-33.77-2.13c-1.59-0.12-2.9-1.4-3.13-2.93L154.26,664.41z M181.45,606.83l0.02-0.01
				c-0.01,0.58,0.34,1.18,1,1.69l11.62,8.34c0.67-0.53,1.22-1.17,1.6-1.81c1.78-3.24,4.04-6.44,6.81-9.5
				c0.11-0.15,0.23-0.3,0.37-0.45c0.31-0.35,0.55-0.75,0.68-1.17c0.04-0.14,0.07-0.27,0.1-0.43c0.04-0.28,0.02-0.56-0.03-0.85
				c-0.08-0.44-0.3-0.86-0.63-1.24c-0.12-0.16-0.3-0.32-0.48-0.44l-20.09-14.45c-0.19-0.12-0.32-0.25-0.46-0.4
				c-0.2-0.2-0.36-0.42-0.41-0.66c-0.1-0.23-0.15-0.46-0.13-0.67l-0.02,0.01L181.45,606.83z M181.47,703.22
				c0.02,0.62,0.42,1.22,1.19,1.67L208,719.53c1.04,0.61,2.55,0.83,3.92,0.67l-0.04-21.95c-1.37,0.16-2.89-0.08-3.93-0.69
				l-25.36-14.63c-0.71-0.43-1.11-0.97-1.19-1.56L181.47,703.22z M347.08,707.28c0.91,0.08,1.82,0.27,2.52,0.58l25.69,11.91
				c0.66,0.31,1.47,0.41,2.3,0.45l-0.06-21.94c-0.84-0.01-1.65-0.17-2.29-0.49l-25.69-11.91c-0.7-0.32-1.59-0.52-2.53-0.61
				L347.08,707.28z M272.57,734.05c0.69,1.1,1.94,1.87,3.27,1.88l37.26,0c0.82-0.02,1.6-0.32,2.26-0.82l-0.03-21.99
				c-0.65,0.52-1.46,0.81-2.28,0.83l-37.29-0.01c-1.23,0.02-2.4-0.68-3.12-1.67L272.57,734.05z"/>
		</g>
		<g>
			<path id="XMLID_00000052785154362531459540000001874375052816255374_" class="st6" d="M207.94,568.45l-25.35,14.64
				c-1.51,0.87-1.59,2.41-0.17,3.43l20.09,14.46c1.42,1.02,1.55,2.84,0.37,4.13c-2.93,3.21-5.32,6.54-7.17,9.95
				c-0.83,1.53-2.82,2.92-4.56,3.03l-33.78,2.14c-1.74,0.11-3.16,1.62-3.16,3.36v18.85c0,1.75,1.41,3.25,3.16,3.36l33.78,2.14
				c1.74,0.11,3.73,1.5,4.56,3.03c1.85,3.41,4.24,6.74,7.17,9.95c1.18,1.29,1.05,3.1-0.37,4.12l-20.09,14.46
				c-1.42,1.02-1.34,2.56,0.17,3.43l25.35,14.64c1.51,0.87,4.02,0.99,5.61,0.25l25.7-11.91c1.59-0.73,4.21-0.87,5.88-0.35
				c6.4,2,13.09,3.58,19.95,4.74c1.72,0.29,3.39,1.89,3.71,3.61l3.22,16.94c0.33,1.72,2.01,3.11,3.75,3.11l37.28,0
				c1.75,0,3.43-1.39,3.75-3.11l3.21-16.93c0.33-1.72,1.99-3.32,3.71-3.61c6.86-1.16,13.55-2.74,19.95-4.74
				c1.67-0.52,4.29-0.38,5.88,0.35l25.7,11.91c1.59,0.73,4.1,0.62,5.61-0.25l25.35-14.64c1.51-0.87,1.59-2.41,0.17-3.43
				l-20.09-14.46c-1.42-1.02-1.55-2.84-0.37-4.12c2.94-3.21,5.32-6.54,7.18-9.95c0.83-1.53,2.82-2.92,4.56-3.03l33.78-2.14
				c1.74-0.11,3.16-1.62,3.16-3.36l0-18.85c0-1.75-1.41-3.25-3.16-3.36l-33.78-2.14c-1.74-0.11-3.73-1.5-4.57-3.03
				c-1.85-3.41-4.24-6.74-7.18-9.95c-1.18-1.29-1.04-3.1,0.37-4.12l20.09-14.46c1.42-1.02,1.34-2.56-0.17-3.43l-25.35-14.64
				c-1.51-0.87-4.02-0.99-5.61-0.25l-25.7,11.91c-1.59,0.73-4.21,0.87-5.88,0.35c-6.4-2-13.09-3.58-19.95-4.74
				c-1.72-0.29-3.39-1.89-3.71-3.61l-3.22-16.93c-0.33-1.72-2.01-3.11-3.75-3.11l-37.27,0c-1.75,0-3.43,1.39-3.75,3.11l-3.22,16.93
				c-0.33,1.72-1.99,3.32-3.71,3.61c-6.86,1.16-13.55,2.74-19.95,4.74c-1.67,0.52-4.29,0.38-5.88-0.35l-25.7-11.91
				C211.97,567.46,209.46,567.57,207.94,568.45z M355.1,597.96c33.52,19.35,33.52,50.73,0,70.09c-33.52,19.35-87.87,19.35-121.39,0
				c-33.52-19.35-33.52-50.73,0-70.09C267.23,578.6,321.57,578.61,355.1,597.96z"/>
		</g>
		<g class="st8">
			<path id="XMLID_00000169550909348658233570000009056907293934783930_" class="st9" d="M207.94,568.45l-25.35,14.64
				c-1.51,0.87-1.59,2.41-0.17,3.43l20.09,14.46c1.42,1.02,1.55,2.84,0.37,4.13c-2.93,3.21-5.32,6.54-7.17,9.95
				c-0.83,1.53-2.82,2.92-4.56,3.03l-33.78,2.14c-1.74,0.11-3.16,1.62-3.16,3.36v18.85c0,1.75,1.41,3.25,3.16,3.36l33.78,2.14
				c1.74,0.11,3.73,1.5,4.56,3.03c1.85,3.41,4.24,6.74,7.17,9.95c1.18,1.29,1.05,3.1-0.37,4.12l-20.09,14.46
				c-1.42,1.02-1.34,2.56,0.17,3.43l25.35,14.64c1.51,0.87,4.02,0.99,5.61,0.25l25.7-11.91c1.59-0.73,4.21-0.87,5.88-0.35
				c6.4,2,13.09,3.58,19.95,4.74c1.72,0.29,3.39,1.89,3.71,3.61l3.22,16.94c0.33,1.72,2.01,3.11,3.75,3.11l37.28,0
				c1.75,0,3.43-1.39,3.75-3.11l3.21-16.93c0.33-1.72,1.99-3.32,3.71-3.61c6.86-1.16,13.55-2.74,19.95-4.74
				c1.67-0.52,4.29-0.38,5.88,0.35l25.7,11.91c1.59,0.73,4.1,0.62,5.61-0.25l25.35-14.64c1.51-0.87,1.59-2.41,0.17-3.43
				l-20.09-14.46c-1.42-1.02-1.55-2.84-0.37-4.12c2.94-3.21,5.32-6.54,7.18-9.95c0.83-1.53,2.82-2.92,4.56-3.03l33.78-2.14
				c1.74-0.11,3.16-1.62,3.16-3.36l0-18.85c0-1.75-1.41-3.25-3.16-3.36l-33.78-2.14c-1.74-0.11-3.73-1.5-4.57-3.03
				c-1.85-3.41-4.24-6.74-7.18-9.95c-1.18-1.29-1.04-3.1,0.37-4.12l20.09-14.46c1.42-1.02,1.34-2.56-0.17-3.43l-25.35-14.64
				c-1.51-0.87-4.02-0.99-5.61-0.25l-25.7,11.91c-1.59,0.73-4.21,0.87-5.88,0.35c-6.4-2-13.09-3.58-19.95-4.74
				c-1.72-0.29-3.39-1.89-3.71-3.61l-3.22-16.93c-0.33-1.72-2.01-3.11-3.75-3.11l-37.27,0c-1.75,0-3.43,1.39-3.75,3.11l-3.22,16.93
				c-0.33,1.72-1.99,3.32-3.71,3.61c-6.86,1.16-13.55,2.74-19.95,4.74c-1.67,0.52-4.29,0.38-5.88-0.35l-25.7-11.91
				C211.97,567.46,209.46,567.57,207.94,568.45z M355.1,597.96c33.52,19.35,33.52,50.73,0,70.09c-33.52,19.35-87.87,19.35-121.39,0
				c-33.52-19.35-33.52-50.73,0-70.09C267.23,578.6,321.57,578.61,355.1,597.96z"/>
		</g>
	</g>
</g>
<g id="Arrow_2">
	<path id="Arrow" class="st1" d="M546.91,655.53l-18.36-12.11c-1.07-0.7-2.5-0.41-3.2,0.65c-0.7,1.06-0.41,2.5,0.65,3.2l11.95,7.88
		c-35.32,0.2-56.73,8.25-95.48,55.13c-36.01,43.56-83.21,63.85-148.53,63.85c-65.32,0-112.51-20.29-148.53-63.85
		c-39.25-47.48-60.69-55.14-96.83-55.14c-1.27,0-2.31,1.03-2.31,2.31c0,1.28,1.03,2.31,2.31,2.31c34.61,0,55.22,7.43,93.28,53.47
		c36.96,44.71,85.28,65.53,152.08,65.53c66.8,0,115.13-20.82,152.08-65.53c37.54-45.41,58.11-53.25,91.89-53.46l-11.92,7.86
		c-1.06,0.7-1.36,2.14-0.66,3.2c0.44,0.67,1.18,1.04,1.93,1.04c0.44,0,0.88-0.12,1.27-0.38l18.36-12.11
		c0.65-0.43,1.04-1.15,1.04-1.93C547.95,656.68,547.56,655.96,546.91,655.53z"/>
</g>
<g id="Windows">
	<g id="Flowchart_Window">
		<g class="st7">
			<path d="M26.61,102.41l126.71-73.1c1.23-0.71,2.22-0.13,2.22,1.28l0,216.25c0,1.42-0.99,3.14-2.22,3.85l-126.71,73.1
				c-1.23,0.71-2.22,0.13-2.22-1.28l0-216.25C24.39,104.84,25.38,103.11,26.61,102.41z"/>
		</g>
		<g id="Window_2_">
			<g id="Window_00000070817575466413125300000001006803398159798438_">
				<path class="st0" d="M36.75,321.56c0.3,0,0.62-0.1,0.95-0.28l118.52-68.49c1.91-1.1,3.52-3.88,3.52-6.08V41.19
					c0-1.31-0.55-2.09-1.48-2.09c-0.41,0-0.9,0.15-1.39,0.44L38.34,107.96c-1.91,1.1-3.52,3.89-3.52,6.09v204.58
					c0,0.81,0.22,1.59,0.61,2.14C35.68,321.13,36.11,321.56,36.75,321.56z"/>
				<path id="XMLID_313_" class="st10" d="M30.88,319.18c0.42,0.22,3.4,1.92,4.71,2.67c-0.88-0.63-1.35-1.71-1.41-3.22V126.61
					l-4.91-2.87v192.12C29.26,317.33,29.9,318.66,30.88,319.18z"/>
			</g>
			<path id="Outline_1_" class="st1" d="M158.25,39.75c0.72,0,0.83,0.91,0.83,1.45v205.51c0,2-1.46,4.52-3.19,5.52L37.37,320.72
				c-0.23,0.13-0.44,0.2-0.62,0.2c-0.68,0-1.28-1.07-1.28-2.28V114.05c0-2,1.46-4.53,3.19-5.53L157.19,40.1
				C157.69,39.81,158.04,39.75,158.25,39.75 M158.25,38.45c-0.52,0-1.1,0.17-1.71,0.52L38.01,107.4c-2.12,1.22-3.84,4.2-3.84,6.65
				v204.58c0,1.94,1.07,3.58,2.57,3.58c0.4,0,0.82-0.12,1.27-0.37l118.52-68.49c2.12-1.22,3.84-4.19,3.84-6.64V41.19
				C160.38,39.46,159.51,38.45,158.25,38.45L158.25,38.45z"/>
			<g id="Up_Bar_2_">
				<g>
					<path class="st6" d="M160.37,41.12v12.8l-126.2,72.84l-4.91-2.86v-12.64c0-1.24,0.46-2.61,1.17-3.84
						c0.69-1.19,1.65-2.21,2.67-2.8l118.53-68.43c1.1-0.63,2.08-0.64,2.8-0.22c0.7,0.43,4.06,2.35,4.75,2.7
						c0.1,0.06,0.21,0.12,0.29,0.2c0.1,0.08,0.21,0.19,0.3,0.3c0.09,0.12,0.18,0.25,0.25,0.38c0.08,0.14,0.14,0.29,0.19,0.47
						c0.06,0.16,0.09,0.34,0.12,0.53c0,0,0,0.01,0,0.02C160.35,40.74,160.37,40.92,160.37,41.12z"/>
					<path class="st11" d="M160.37,41.12v12.8l-126.2,72.84l-4.91-2.86v-12.64c0-1.24,0.46-2.61,1.17-3.84
						c0.69-1.19,1.65-2.21,2.67-2.8l118.53-68.43c1.1-0.63,2.08-0.64,2.8-0.22c0.7,0.43,4.06,2.35,4.75,2.7
						c0.1,0.06,0.21,0.12,0.29,0.2c0.1,0.08,0.21,0.19,0.3,0.3c0.09,0.12,0.18,0.25,0.25,0.38c0.08,0.14,0.14,0.29,0.19,0.47
						c0.06,0.16,0.09,0.34,0.12,0.53c0,0,0,0.01,0,0.02C160.35,40.74,160.37,40.92,160.37,41.12z"/>
					<path class="st6" d="M160.37,41.12v12.8l-126.2,72.84v-12.71c0-0.77,0.16-1.58,0.47-2.38c0.05-0.13,0.09-0.27,0.15-0.4
						c0.15-0.35,0.33-0.7,0.53-1.04c0.7-1.2,1.65-2.24,2.7-2.84l118.52-68.42c1.18-0.69,2.23-0.68,2.94-0.12
						c0.1,0.08,0.21,0.19,0.3,0.3c0.09,0.12,0.18,0.25,0.25,0.38c0.08,0.14,0.14,0.29,0.19,0.47c0.06,0.16,0.09,0.34,0.12,0.53
						c0,0,0,0.01,0,0.02C160.35,40.74,160.37,40.92,160.37,41.12z"/>
					<g id="XMLID_737_">
						<path id="XMLID_740_" class="st0" d="M134.6,56.52c-1.32,0.76-2.4,3.03-2.4,5.07s1.07,3.07,2.4,2.31
							c1.32-0.76,2.4-3.03,2.4-5.07S135.93,55.75,134.6,56.52z"/>
						<path id="XMLID_739_" class="st0" d="M143.23,51.53c-1.32,0.76-2.4,3.04-2.4,5.07c0,2.04,1.07,3.07,2.4,2.31
							c1.32-0.76,2.4-3.03,2.4-5.07C145.63,51.8,144.55,50.76,143.23,51.53z"/>
						<path id="XMLID_738_" class="st0" d="M151.86,46.54c-1.32,0.76-2.4,3.04-2.4,5.07c0,2.04,1.07,3.07,2.4,2.31
							c1.32-0.76,2.4-3.03,2.4-5.07C154.25,46.81,153.18,45.77,151.86,46.54z"/>
					</g>
					<g id="XMLID_312_">
						<path class="st6" d="M156.54,38.98L38.02,107.4c-1.05,0.62-2.02,1.65-2.7,2.85l-4.88-2.82c0.69-1.18,1.63-2.21,2.67-2.8
							L151.64,36.2c1.1-0.64,2.08-0.65,2.79-0.23c0.69,0.42,3.88,2.23,4.68,2.67C158.43,38.31,157.53,38.41,156.54,38.98z"/>
					</g>
					<g id="XMLID_727_" class="st12">
						<path class="st9" d="M156.54,38.98L38.02,107.4c-1.05,0.62-2.02,1.65-2.7,2.85l-4.88-2.82c0.69-1.18,1.63-2.21,2.67-2.8
							L151.64,36.2c1.1-0.64,2.08-0.65,2.79-0.23c0.69,0.42,3.88,2.23,4.68,2.67C158.43,38.31,157.53,38.41,156.54,38.98z"/>
					</g>
				</g>
			</g>
		</g>
		<g id="Flowchart">
			<g>
				<g>
					<g>
						<path class="st13" d="M61.89,158.64c-0.2,0-0.36-0.16-0.36-0.36v-15.22c0-0.2,0.16-0.36,0.36-0.36c0.2,0,0.36,0.16,0.36,0.36
							v15.22C62.25,158.48,62.09,158.64,61.89,158.64z"/>
					</g>
					<g>
						<polygon class="st13" points="60.68,156.85 61.89,158.07 63.11,156.85 63.11,157.88 61.89,159.1 60.68,157.88 						"/>
					</g>
				</g>
				<g>
					<g>
						<path class="st13" d="M74.82,160.3c-0.12,0-0.24-0.06-0.31-0.18c-0.1-0.17-0.04-0.39,0.13-0.49l10.02-5.79
							c0.17-0.1,0.39-0.04,0.49,0.13c0.1,0.17,0.04,0.39-0.13,0.49L75,160.25C74.94,160.29,74.88,160.3,74.82,160.3z"/>
					</g>
					<g>
						<polygon class="st13" points="84.21,155.92 84.66,154.26 83,153.82 83.89,153.3 85.55,153.75 85.11,155.41 						"/>
					</g>
				</g>
				<g>
					<g>
						<path class="st13" d="M72.96,240.26c-0.12,0-0.24-0.06-0.31-0.18c-0.1-0.17-0.04-0.39,0.13-0.49l10.02-5.79
							c0.17-0.1,0.39-0.04,0.49,0.13c0.1,0.17,0.04,0.39-0.13,0.49l-10.02,5.79C73.09,240.24,73.02,240.26,72.96,240.26z"/>
					</g>
					<g>
						<polygon class="st13" points="82.36,235.88 82.8,234.22 81.14,233.78 82.04,233.26 83.69,233.71 83.25,235.36 						"/>
					</g>
				</g>
				<g>
					<g>
						<path class="st13" d="M109.34,219.26c-0.12,0-0.24-0.06-0.31-0.18c-0.1-0.17-0.04-0.39,0.13-0.49l10.02-5.79
							c0.17-0.1,0.39-0.04,0.49,0.13c0.1,0.17,0.04,0.39-0.13,0.49l-10.02,5.79C109.46,219.24,109.4,219.26,109.34,219.26z"/>
					</g>
					<g>
						<polygon class="st13" points="118.73,214.88 119.18,213.22 117.52,212.78 118.41,212.26 120.07,212.7 119.63,214.36 						"/>
					</g>
				</g>
				<g>
					<g>
						<path class="st13" d="M111.67,139.02c-0.12,0-0.24-0.06-0.31-0.18c-0.1-0.17-0.04-0.39,0.13-0.49l10.02-5.79
							c0.17-0.1,0.39-0.04,0.49,0.13c0.1,0.17,0.04,0.39-0.13,0.49l-10.02,5.79C111.8,139.01,111.73,139.02,111.67,139.02z"/>
					</g>
					<g>
						<polygon class="st13" points="121.07,134.64 121.51,132.98 119.86,132.54 120.75,132.03 122.41,132.47 121.96,134.13 						
							"/>
					</g>
				</g>
				<g>
					<g>
						<path class="st13" d="M111.02,179.24c-0.12,0-0.24-0.06-0.31-0.18c-0.1-0.17-0.04-0.39,0.13-0.49l10.02-5.79
							c0.17-0.1,0.39-0.04,0.49,0.13c0.1,0.17,0.04,0.39-0.13,0.49l-10.02,5.79C111.14,179.22,111.08,179.24,111.02,179.24z"/>
					</g>
					<g>
						<polygon class="st13" points="111.64,177.12 111.2,178.77 112.86,179.22 111.97,179.73 110.31,179.29 110.75,177.63 						"/>
					</g>
				</g>
				<g>
					<g>
						<path class="st13" d="M110.38,254.01c-0.12,0-0.24-0.06-0.31-0.18c-0.1-0.17-0.04-0.39,0.13-0.49l9.36-5.4
							c0.17-0.1,0.39-0.04,0.49,0.13c0.1,0.17,0.04,0.39-0.13,0.49l-9.36,5.4C110.5,253.99,110.44,254.01,110.38,254.01z"/>
					</g>
					<g>
						<polygon class="st13" points="111.01,251.88 110.56,253.54 112.22,253.99 111.33,254.5 109.67,254.06 110.12,252.4 						"/>
					</g>
				</g>
				<g>
					<g>
						<path class="st13" d="M74.99,200.04c-0.12,0-0.24-0.06-0.31-0.18c-0.1-0.17-0.04-0.39,0.13-0.49l10.02-5.79
							c0.17-0.1,0.39-0.04,0.49,0.13c0.1,0.17,0.04,0.39-0.13,0.49l-10.02,5.79C75.12,200.02,75.05,200.04,74.99,200.04z"/>
					</g>
					<g>
						<polygon class="st13" points="75.62,197.91 75.18,199.57 76.84,200.02 75.94,200.53 74.29,200.09 74.73,198.43 						"/>
					</g>
				</g>
				<g>
					<g>
						<path class="st13" d="M132,152.61c-0.2,0-0.36-0.16-0.36-0.36v-11.6c0-0.2,0.16-0.36,0.36-0.36s0.36,0.16,0.36,0.36v11.6
							C132.36,152.45,132.2,152.61,132,152.61z"/>
					</g>
					<g>
						<polygon class="st13" points="130.79,150.83 132,152.04 133.22,150.83 133.22,151.86 132,153.07 130.79,151.86 						"/>
					</g>
				</g>
				<g>
					<g>
						<path class="st13" d="M61.89,226.73c-0.06,0-0.12-0.02-0.18-0.05c-0.11-0.06-0.18-0.18-0.18-0.31v-8.54
							c0-0.2,0.16-0.36,0.36-0.36c0.2,0,0.36,0.16,0.36,0.36v7.92l69.39-40.06v-5.31c0-0.2,0.16-0.36,0.36-0.36s0.36,0.16,0.36,0.36
							v5.51c0,0.13-0.07,0.25-0.18,0.31l-70.11,40.48C62.02,226.71,61.96,226.73,61.89,226.73z"/>
					</g>
					<g>
						<polygon class="st13" points="63.11,219.26 61.89,218.05 60.68,219.26 60.68,218.23 61.89,217.02 63.11,218.23 						"/>
					</g>
				</g>
				<g>
					<g>
						<path class="st13" d="M61.89,266.32c-0.06,0-0.12-0.02-0.18-0.05c-0.11-0.06-0.18-0.18-0.18-0.31v-5.51
							c0-0.2,0.16-0.36,0.36-0.36c0.2,0,0.36,0.16,0.36,0.36v4.89l69.39-40.06v-8.33c0-0.2,0.16-0.36,0.36-0.36s0.36,0.16,0.36,0.36
							v8.54c0,0.13-0.07,0.25-0.18,0.31l-70.11,40.48C62.02,266.3,61.96,266.32,61.89,266.32z"/>
					</g>
					<g>
						<polygon class="st13" points="133.22,218.37 132,217.16 130.79,218.37 130.79,217.34 132,216.13 133.22,217.34 						"/>
					</g>
				</g>
				<g>
					<g>
						<path class="st13" d="M45.85,255.91c-0.06,0-0.12-0.02-0.18-0.05c-0.11-0.06-0.18-0.18-0.18-0.31V216.5
							c0-0.13,0.07-0.25,0.18-0.31l3.79-2.19c0.17-0.1,0.39-0.04,0.49,0.13c0.1,0.17,0.04,0.39-0.13,0.49l-3.61,2.09v38.23l3.98-2.3
							c0.17-0.1,0.39-0.04,0.49,0.13c0.1,0.17,0.04,0.39-0.13,0.49l-4.51,2.61C45.98,255.9,45.92,255.91,45.85,255.91z"/>
					</g>
					<g>
						<polygon class="st13" points="49.74,254.71 50.18,253.05 48.53,252.61 49.42,252.09 51.08,252.54 50.63,254.2 						"/>
					</g>
				</g>
				<g>
					<g>
						<path class="st13" d="M145.6,233.67c-0.12,0-0.24-0.06-0.31-0.18c-0.1-0.17-0.04-0.39,0.13-0.49l3.78-2.18V196.3l-3.25,1.88
							c-0.17,0.1-0.39,0.04-0.49-0.13c-0.1-0.17-0.04-0.39,0.13-0.49l3.79-2.19c0.11-0.06,0.25-0.06,0.36,0
							c0.11,0.06,0.18,0.18,0.18,0.31v35.35c0,0.13-0.07,0.25-0.18,0.31l-3.96,2.28C145.72,233.66,145.66,233.67,145.6,233.67z"/>
					</g>
					<g>
						<polygon class="st13" points="146.22,231.55 145.78,233.21 147.44,233.65 146.55,234.17 144.89,233.72 145.33,232.07 						
							"/>
					</g>
				</g>
			</g>
			<path class="st6" d="M72.71,127.38c0,4.05-4.84,10.13-10.82,13.58c-5.97,3.45-10.82,2.96-10.82-1.09
				c0-4.05,4.84-10.13,10.82-13.58C67.87,122.84,72.71,123.33,72.71,127.38z"/>
			<path class="st6" d="M108.22,254.89c0,4.05-4.84,10.13-10.82,13.58c-5.97,3.45-10.82,2.96-10.82-1.09
				c0-4.05,4.84-10.13,10.82-13.58C103.38,250.35,108.22,250.84,108.22,254.89z"/>
			<g>
				<path class="st6" d="M71.74,168.22l-19.7,11.37c-0.59,0.34-1.07-0.02-1.07-0.81v-10.15c0-0.79,0.48-1.7,1.07-2.04l19.7-11.37
					c0.59-0.34,1.07,0.02,1.07,0.81v10.15C72.81,166.96,72.33,167.88,71.74,168.22z"/>
				<path class="st14" d="M71.74,168.22l-19.7,11.37c-0.59,0.34-1.07-0.02-1.07-0.81v-10.15c0-0.79,0.48-1.7,1.07-2.04l19.7-11.37
					c0.59-0.34,1.07,0.02,1.07,0.81v10.15C72.81,166.96,72.33,167.88,71.74,168.22z"/>
			</g>
			<g>
				<path class="st6" d="M107.26,147.71l-19.7,11.38c-0.59,0.34-1.07-0.02-1.07-0.81v-10.15c0-0.79,0.48-1.7,1.07-2.04l19.7-11.37
					c0.59-0.34,1.07,0.02,1.07,0.81v10.15C108.33,146.46,107.85,147.37,107.26,147.71z"/>
				<path class="st14" d="M107.26,147.71l-19.7,11.38c-0.59,0.34-1.07-0.02-1.07-0.81v-10.15c0-0.79,0.48-1.7,1.07-2.04l19.7-11.37
					c0.59-0.34,1.07,0.02,1.07,0.81v10.15C108.33,146.46,107.85,147.37,107.26,147.71z"/>
			</g>
			<g>
				<path class="st6" d="M107.26,187.55l-19.7,11.37c-0.59,0.34-1.07-0.02-1.07-0.81v-10.15c0-0.79,0.48-1.7,1.07-2.04l19.7-11.37
					c0.59-0.34,1.07,0.02,1.07,0.81v10.15C108.33,186.29,107.85,187.21,107.26,187.55z"/>
				<path class="st14" d="M107.26,187.55l-19.7,11.37c-0.59,0.34-1.07-0.02-1.07-0.81v-10.15c0-0.79,0.48-1.7,1.07-2.04l19.7-11.37
					c0.59-0.34,1.07,0.02,1.07,0.81v10.15C108.33,186.29,107.85,187.21,107.26,187.55z"/>
			</g>
			<g>
				<path class="st6" d="M107.26,226.6l-19.7,11.37c-0.59,0.34-1.07-0.02-1.07-0.81v-10.15c0-0.79,0.48-1.7,1.07-2.04l19.7-11.37
					c0.59-0.34,1.07,0.02,1.07,0.81v10.15C108.33,225.35,107.85,226.26,107.26,226.6z"/>
				<path class="st14" d="M107.26,226.6l-19.7,11.37c-0.59,0.34-1.07-0.02-1.07-0.81v-10.15c0-0.79,0.48-1.7,1.07-2.04l19.7-11.37
					c0.59-0.34,1.07,0.02,1.07,0.81v10.15C108.33,225.35,107.85,226.26,107.26,226.6z"/>
			</g>
			<g>
				<path class="st6" d="M141.85,206.62L122.15,218c-0.59,0.34-1.07-0.02-1.07-0.81v-10.15c0-0.79,0.48-1.7,1.07-2.04l19.7-11.37
					c0.59-0.34,1.07,0.02,1.07,0.81v10.15C142.92,205.37,142.44,206.28,141.85,206.62z"/>
				<path class="st14" d="M141.85,206.62L122.15,218c-0.59,0.34-1.07-0.02-1.07-0.81v-10.15c0-0.79,0.48-1.7,1.07-2.04l19.7-11.37
					c0.59-0.34,1.07,0.02,1.07,0.81v10.15C142.92,205.37,142.44,206.28,141.85,206.62z"/>
			</g>
			<g>
				<path class="st6" d="M141.85,241.97l-19.7,11.37c-0.59,0.34-1.07-0.02-1.07-0.81v-10.15c0-0.79,0.48-1.7,1.07-2.04l19.7-11.38
					c0.59-0.34,1.07,0.02,1.07,0.81v10.15C142.92,240.72,142.44,241.63,141.85,241.97z"/>
				<path class="st14" d="M141.85,241.97l-19.7,11.37c-0.59,0.34-1.07-0.02-1.07-0.81v-10.15c0-0.79,0.48-1.7,1.07-2.04l19.7-11.38
					c0.59-0.34,1.07,0.02,1.07,0.81v10.15C142.92,240.72,142.44,241.63,141.85,241.97z"/>
			</g>
			<g>
				<path class="st6" d="M71.74,208.05l-19.7,11.37c-0.59,0.34-1.07-0.02-1.07-0.81v-10.15c0-0.79,0.48-1.7,1.07-2.04l19.7-11.38
					c0.59-0.34,1.07,0.02,1.07,0.81v10.15C72.81,206.8,72.33,207.71,71.74,208.05z"/>
				<path class="st14" d="M71.74,208.05l-19.7,11.37c-0.59,0.34-1.07-0.02-1.07-0.81v-10.15c0-0.79,0.48-1.7,1.07-2.04l19.7-11.38
					c0.59-0.34,1.07,0.02,1.07,0.81v10.15C72.81,206.8,72.33,207.71,71.74,208.05z"/>
			</g>
			<g>
				<path class="st13" d="M131.01,137.58l-8.33-11.64c-0.65-0.9-0.06-3.11,1-3.71l16.66-9.62c1.05-0.61,1.64,0.91,1,2.56L133,136.43
					C132.49,137.72,131.51,138.29,131.01,137.58z"/>
			</g>
			<g>
				<path class="st6" d="M140.47,163.43l-7.72,13.31c-0.45,0.77-1.06,1.13-1.51,0.87l-7.72-4.4c-0.68-0.39-0.68-1.95,0-3.12
					l7.72-13.31c0.45-0.77,1.06-1.13,1.51-0.87l7.72,4.4C141.15,160.7,141.15,162.26,140.47,163.43z"/>
			</g>
			<g class="st8">
				<path class="st9" d="M140.47,163.43l-7.72,13.31c-0.45,0.77-1.06,1.13-1.51,0.87l-7.72-4.4c-0.68-0.39-0.68-1.95,0-3.12
					l7.72-13.31c0.45-0.77,1.06-1.13,1.51-0.87l7.72,4.4C141.15,160.7,141.15,162.26,140.47,163.43z"/>
			</g>
			<g>
				<path class="st6" d="M70.37,242.96l-7.72,13.31c-0.45,0.77-1.06,1.13-1.51,0.87l-7.72-4.4c-0.68-0.39-0.68-1.95,0-3.12
					l7.72-13.31c0.45-0.77,1.06-1.13,1.51-0.87l7.72,4.4C71.04,240.23,71.04,241.79,70.37,242.96z"/>
			</g>
			<g class="st8">
				<path class="st9" d="M70.37,242.96l-7.72,13.31c-0.45,0.77-1.06,1.13-1.51,0.87l-7.72-4.4c-0.68-0.39-0.68-1.95,0-3.12
					l7.72-13.31c0.45-0.77,1.06-1.13,1.51-0.87l7.72,4.4C71.04,240.23,71.04,241.79,70.37,242.96z"/>
			</g>
			<g>
				<g>
					<path class="st13" d="M85.78,164.99c-0.12,0-0.24-0.06-0.31-0.18c-0.1-0.17-0.04-0.39,0.13-0.49l23.26-13.43
						c0.17-0.1,0.39-0.04,0.49,0.13c0.1,0.17,0.04,0.39-0.13,0.49l-23.26,13.43C85.9,164.97,85.84,164.99,85.78,164.99z"/>
				</g>
				<g>
					<path class="st1" d="M85.78,168.36c-0.12,0-0.24-0.06-0.31-0.18c-0.1-0.17-0.04-0.39,0.13-0.49l23.26-13.43
						c0.17-0.1,0.39-0.04,0.49,0.13c0.1,0.17,0.04,0.39-0.13,0.49l-23.26,13.43C85.9,168.35,85.84,168.36,85.78,168.36z"/>
				</g>
				<g>
					<path class="st1" d="M85.78,171.73c-0.12,0-0.24-0.06-0.31-0.18c-0.1-0.17-0.04-0.39,0.13-0.49l23.26-13.43
						c0.17-0.1,0.39-0.04,0.49,0.13c0.1,0.17,0.04,0.39-0.13,0.49l-23.26,13.43C85.9,171.72,85.84,171.73,85.78,171.73z"/>
				</g>
				<g>
					<path class="st1" d="M85.78,175.11c-0.12,0-0.24-0.06-0.31-0.18c-0.1-0.17-0.04-0.39,0.13-0.49l23.26-13.43
						c0.17-0.1,0.39-0.04,0.49,0.13c0.1,0.17,0.04,0.39-0.13,0.49l-23.26,13.43C85.9,175.09,85.84,175.11,85.78,175.11z"/>
				</g>
			</g>
			<g>
				<g>
					<path class="st13" d="M119.43,107.31c-0.12,0-0.24-0.06-0.31-0.18c-0.1-0.17-0.04-0.39,0.13-0.49l23.26-13.43
						c0.17-0.1,0.39-0.04,0.49,0.13c0.1,0.17,0.04,0.39-0.13,0.49l-23.26,13.43C119.55,107.29,119.49,107.31,119.43,107.31z"/>
				</g>
				<g>
					<path class="st1" d="M119.43,110.68c-0.12,0-0.24-0.06-0.31-0.18c-0.1-0.17-0.04-0.39,0.13-0.49l23.26-13.43
						c0.17-0.1,0.39-0.04,0.49,0.13c0.1,0.17,0.04,0.39-0.13,0.49l-23.26,13.43C119.55,110.66,119.49,110.68,119.43,110.68z"/>
				</g>
				<g>
					<path class="st1" d="M119.43,114.05c-0.12,0-0.24-0.06-0.31-0.18c-0.1-0.17-0.04-0.39,0.13-0.49l23.26-13.43
						c0.17-0.1,0.39-0.04,0.49,0.13c0.1,0.17,0.04,0.39-0.13,0.49L119.61,114C119.55,114.04,119.49,114.05,119.43,114.05z"/>
				</g>
				<g>
					<path class="st1" d="M119.43,117.42c-0.12,0-0.24-0.06-0.31-0.18c-0.1-0.17-0.04-0.39,0.13-0.49l23.26-13.43
						c0.17-0.1,0.39-0.04,0.49,0.13c0.1,0.17,0.04,0.39-0.13,0.49l-23.26,13.43C119.55,117.41,119.49,117.42,119.43,117.42z"/>
				</g>
			</g>
		</g>
	</g>
	<g id="Chart_Window">
		<g class="st7">
			<path d="M556.99,112.65L429.75,39.25c-1.23-0.71-2.23-0.13-2.23,1.29l0,130.62c0,1.42,1,3.15,2.23,3.86l127.24,73.41
				c1.23,0.71,2.23,0.13,2.23-1.29l0-130.62C559.22,115.09,558.22,113.36,556.99,112.65z"/>
		</g>
		<g id="Window_00000072970316148799616750000012894762491200557706_">
			<g id="Window_00000080914863752581720970000011956579419456184978_">
				<path class="st0" d="M546.81,246.19c-0.3,0-0.62-0.1-0.95-0.29l-119.01-68.78c-1.92-1.1-3.54-3.9-3.54-6.11V51.18
					c0-1.32,0.55-2.1,1.49-2.1c0.42,0,0.9,0.15,1.4,0.44l119.02,68.71c1.91,1.11,3.53,3.91,3.53,6.11v118.9
					c0,0.81-0.22,1.6-0.61,2.15C547.89,245.76,547.45,246.19,546.81,246.19z"/>
				<path id="XMLID_00000170254336357483720030000002536556523271891105_" class="st10" d="M552.7,243.8
					c-0.42,0.22-3.41,1.93-4.73,2.68c0.89-0.63,1.35-1.72,1.42-3.24V136.96l4.93-2.89v106.39
					C554.33,241.95,553.69,243.28,552.7,243.8z"/>
			</g>
			<path id="Outline_00000011753147469020753320000017024090959493294726_" class="st1" d="M424.8,49.73c0.21,0,0.57,0.06,1.07,0.35
				l119.02,68.71c1.74,1,3.2,3.54,3.2,5.55v118.9c0,1.22-0.6,2.29-1.28,2.29c-0.18,0-0.39-0.07-0.62-0.2l-119.02-68.78
				c-1.74-1-3.21-3.54-3.21-5.54V51.18C423.97,50.64,424.07,49.73,424.8,49.73 M424.8,48.43c-1.27,0-2.13,1.01-2.13,2.75v119.84
				c0,2.46,1.73,5.44,3.86,6.67l119.02,68.78c0.45,0.26,0.87,0.37,1.27,0.37c1.51,0,2.58-1.65,2.58-3.59v-118.9
				c0-2.46-1.73-5.45-3.85-6.68L426.52,48.96C425.9,48.6,425.32,48.43,424.8,48.43L424.8,48.43z"/>
			<g id="Up_Bar_00000109709121189584297750000011377735497961370762_">
				<g>
					<path class="st6" d="M422.67,51.11v12.85l126.73,73.14l4.93-2.87v-12.69c0-1.24-0.46-2.63-1.17-3.86
						c-0.69-1.2-1.65-2.21-2.68-2.81L431.45,46.16c-1.1-0.63-2.09-0.64-2.81-0.22c-0.7,0.43-4.08,2.36-4.77,2.71
						c-0.11,0.06-0.21,0.12-0.29,0.2c-0.11,0.08-0.21,0.19-0.3,0.3c-0.09,0.12-0.18,0.25-0.25,0.39c-0.08,0.14-0.14,0.29-0.19,0.47
						c-0.06,0.16-0.09,0.34-0.12,0.53c0,0,0,0.01,0,0.02C422.69,50.73,422.67,50.91,422.67,51.11z"/>
					<path class="st11" d="M422.67,51.11v12.85l126.73,73.14l4.93-2.87v-12.69c0-1.24-0.46-2.63-1.17-3.86
						c-0.69-1.2-1.65-2.21-2.68-2.81L431.45,46.16c-1.1-0.63-2.09-0.64-2.81-0.22c-0.7,0.43-4.08,2.36-4.77,2.71
						c-0.11,0.06-0.21,0.12-0.29,0.2c-0.11,0.08-0.21,0.19-0.3,0.3c-0.09,0.12-0.18,0.25-0.25,0.39c-0.08,0.14-0.14,0.29-0.19,0.47
						c-0.06,0.16-0.09,0.34-0.12,0.53c0,0,0,0.01,0,0.02C422.69,50.73,422.67,50.91,422.67,51.11z"/>
					<path class="st6" d="M422.67,51.11v12.85l126.73,73.14v-12.76c0-0.77-0.16-1.58-0.47-2.39c-0.05-0.13-0.09-0.27-0.15-0.4
						c-0.15-0.35-0.33-0.7-0.53-1.04c-0.7-1.21-1.65-2.25-2.71-2.85l-119.02-68.7c-1.18-0.69-2.24-0.68-2.95-0.12
						c-0.11,0.08-0.21,0.19-0.3,0.3c-0.09,0.12-0.18,0.25-0.25,0.39c-0.08,0.14-0.14,0.29-0.19,0.47c-0.06,0.16-0.09,0.34-0.12,0.53
						c0,0,0,0.01,0,0.02C422.69,50.73,422.67,50.91,422.67,51.11z"/>
					<g id="XMLID_00000146461892139568764480000014668739897387586187_">
						<path id="XMLID_00000139261275085701080150000012707108773211060659_" class="st0" d="M448.55,66.57
							c1.33,0.77,2.41,3.05,2.41,5.09c0,2.05-1.08,3.08-2.41,2.32c-1.33-0.77-2.41-3.05-2.41-5.09
							C446.14,66.84,447.22,65.8,448.55,66.57z"/>
						<path id="XMLID_00000006705502451458051040000015723672130542968236_" class="st0" d="M439.88,61.56
							c1.33,0.77,2.41,3.05,2.41,5.09c0,2.05-1.08,3.08-2.41,2.32c-1.33-0.77-2.41-3.05-2.41-5.09
							C437.48,61.83,438.56,60.79,439.88,61.56z"/>
						<path id="XMLID_00000017497254832503773370000013165855654182155921_" class="st0" d="M431.22,56.55
							c1.33,0.77,2.41,3.05,2.41,5.09c0,2.05-1.08,3.08-2.41,2.32c-1.33-0.77-2.41-3.05-2.41-5.09
							C428.82,56.82,429.89,55.78,431.22,56.55z"/>
					</g>
					<g id="XMLID_00000129922617177580276840000010937646176136768942_">
						<path class="st6" d="M426.52,48.96l119.02,68.71c1.05,0.62,2.02,1.66,2.72,2.86l4.9-2.84c-0.69-1.19-1.64-2.22-2.68-2.81
							L431.44,46.17c-1.1-0.64-2.09-0.65-2.8-0.23c-0.69,0.42-3.89,2.24-4.7,2.68C424.62,48.29,425.53,48.39,426.52,48.96z"/>
					</g>
					<g id="XMLID_00000031193202037432730320000001810893478097406395_" class="st12">
						<path class="st9" d="M426.52,48.96l119.02,68.71c1.05,0.62,2.02,1.66,2.72,2.86l4.9-2.84c-0.69-1.19-1.64-2.22-2.68-2.81
							L431.44,46.17c-1.1-0.64-2.09-0.65-2.8-0.23c-0.69,0.42-3.89,2.24-4.7,2.68C424.62,48.29,425.53,48.39,426.52,48.96z"/>
					</g>
				</g>
			</g>
		</g>
		<g id="Chart_1_">
			<g id="XMLID_526_">
				<path id="XMLID_529_" class="st6" d="M538.54,142.98l-104.5-59.95c-1.47-0.85-2.66-0.16-2.66,1.54v77.29
					c0,1.7,1.19,3.76,2.66,4.61l104.5,59.95c1.47,0.85,2.66,0.16,2.66-1.54l0-77.29C541.2,145.89,540.01,143.83,538.54,142.98z"/>
				<path id="XMLID_267_" class="st15" d="M538.54,142.98l-104.5-59.95c-1.47-0.85-2.66-0.16-2.66,1.54v77.29
					c0,1.7,1.19,3.76,2.66,4.61l104.5,59.95c1.47,0.85,2.66,0.16,2.66-1.54l0-77.29C541.2,145.89,540.01,143.83,538.54,142.98z"/>
				<g id="XMLID_527_" class="st8">
					<path class="st6" d="M432.86,83.25c0.26,0,0.57,0.1,0.89,0.29l104.5,59.95c1.28,0.74,2.36,2.62,2.36,4.1l0,77.29
						c0,0.39-0.09,1.31-0.88,1.31c-0.26,0-0.57-0.1-0.89-0.29l-104.5-59.95c-1.28-0.74-2.36-2.62-2.36-4.1V84.56
						C431.98,84.17,432.06,83.25,432.86,83.25 M432.86,82.66c-0.87,0-1.47,0.7-1.47,1.9v77.29c0,1.7,1.19,3.76,2.66,4.61
						l104.5,59.95c0.43,0.25,0.83,0.36,1.19,0.36c0.87,0,1.47-0.7,1.47-1.9l0-77.29c0-1.7-1.19-3.76-2.66-4.61l-104.5-59.95
						C433.62,82.78,433.22,82.66,432.86,82.66L432.86,82.66z"/>
				</g>
			</g>
			<g id="XMLID_3358_" class="st8">
				<path id="XMLID_3357_" class="st6" d="M528.67,210.33c0,0,0-7.46-1.28-18.25c-0.78-6.58-2.37-17.68-8.72-21.34
					c-6.34-3.66-8.73,2.96-9.64,6.22c-1.19,4.23-7.39,1.55-8.26-5.42c-0.87-6.97-1.42-29.17-8.86-33.46
					c-7.43-4.29-9.84,6.04-10.68,8.92c-1.66,5.66-6.55,4.1-8.14,0.35c-1.59-3.76-5.93-4.67-7.58,0.61
					c-1.64,5.28-2.66,11.34-7.97,8.23c-4.66-2.73-2.52-7.71-7.07-10.07c-3.6-1.86-5.27,7.02-5.27,16.02L528.67,210.33z"/>
				<path id="XMLID_3356_" class="st6" d="M527.91,166.25c0,0.97-0.87,1.25-1.94,0.63l-10.53-6.06c-1.07-0.62-1.94-1.9-1.94-2.87
					c0-0.97,0.87-1.25,1.94-0.63l10.53,6.06C527.05,163.99,527.91,165.28,527.91,166.25z"/>
				<path id="XMLID_3359_" class="st6" d="M498.43,135.11c0,0.97-0.87,1.25-1.94,0.63l-10.53-6.06c-1.07-0.62-1.94-1.9-1.94-2.87
					c0-0.97,0.87-1.25,1.94-0.63l10.53,6.06C497.56,132.86,498.43,134.14,498.43,135.11z"/>
				<path id="XMLID_00000121973591318830343230000016205576455292288699_" class="st6" d="M477.71,139.17
					c0,0.97-0.87,1.25-1.94,0.63l-10.53-6.06c-1.07-0.62-1.94-1.91-1.94-2.87c0-0.97,0.87-1.25,1.94-0.63l10.53,6.06
					C476.84,136.92,477.71,138.2,477.71,139.17z"/>
				<path id="XMLID_3371_" class="st6" d="M458.34,143.62c0,0.97-0.87,1.25-1.94,0.63l-10.53-6.06c-1.07-0.62-1.94-1.9-1.94-2.87
					c0-0.97,0.87-1.25,1.94-0.63l10.53,6.06C457.47,141.36,458.34,142.65,458.34,143.62z"/>
			</g>
			<g>
				<g>
					<line class="st16" x1="518.67" y1="170.75" x2="518.67" y2="171.34"/>
					<line class="st17" x1="518.67" y1="173.6" x2="518.67" y2="203"/>
					<line class="st16" x1="518.67" y1="204.13" x2="518.67" y2="204.72"/>
				</g>
			</g>
			<g>
				<g>
					<line class="st16" x1="469.6" y1="144.57" x2="469.6" y2="145.16"/>
					<line class="st18" x1="469.6" y1="147.51" x2="469.6" y2="174.56"/>
					<line class="st16" x1="469.6" y1="175.73" x2="469.6" y2="176.32"/>
				</g>
			</g>
			<g>
				<g>
					<line class="st16" x1="450.44" y1="146.13" x2="450.44" y2="146.72"/>
					<line class="st19" x1="450.44" y1="149.28" x2="450.41" y2="163.37"/>
					<line class="st16" x1="450.41" y1="164.65" x2="450.41" y2="165.24"/>
				</g>
			</g>
			<g>
				<g>
					<line class="st16" x1="490.22" y1="137.33" x2="490.22" y2="137.92"/>
					<line class="st20" x1="490.22" y1="140.35" x2="490.22" y2="186.43"/>
					<line class="st16" x1="490.22" y1="187.64" x2="490.22" y2="188.23"/>
				</g>
			</g>
		</g>
	</g>
	<g id="Donut_Chart_Window">
		<g class="st7">
			<path d="M120.53,262.03l78.29-45.17c0.76-0.44,1.37-0.08,1.37,0.79l0,76.9c0,0.87-0.61,1.94-1.37,2.38l-78.29,45.17
				c-0.76,0.44-1.37,0.08-1.37-0.79l0-76.9C119.15,263.53,119.77,262.47,120.53,262.03z"/>
		</g>
		<g>
			<path id="XMLID_00000011735441191018566250000018291234499821354113_" class="st6" d="M196.87,223.15l-72.58,41.85
				c-0.83,0.48-1.51,1.65-1.51,2.62v74.25c0,0.96,0.68,2.13,1.52,2.6l2.88,1.63c0.84,0.47,2.2,0.47,3.03-0.01l72.58-41.85
				c0.83-0.48,1.51-1.65,1.51-2.62v-74.25c0-0.96-0.68-2.13-1.52-2.6l-2.88-1.63C199.06,222.67,197.7,222.67,196.87,223.15z"/>
			<path id="XMLID_00000009571545373461929980000003095646342358492597_" class="st7" d="M130.21,346.1
				c-0.8,0.47-2.27,0.48-3.03,0.02l-2.88-1.64c-0.84-0.47-1.52-1.64-1.52-2.6v-74.25c0-0.5,0.19-1.05,0.48-1.54l5.89,3.41
				c-0.28,0.47-0.45,1.01-0.45,1.49v74.25C128.69,346.11,129.32,346.62,130.21,346.1z"/>
			<g id="XMLID_00000101079130278195280840000016100559331476274101_" class="st7">
				<path class="st9" d="M204.28,227.1c-0.12-0.76-0.74-1.03-1.49-0.6l-72.58,41.86c-0.42,0.24-0.8,0.66-1.07,1.13l-5.89-3.41
					c0.27-0.45,0.64-0.84,1.04-1.08l72.58-41.86c0.83-0.48,2.19-0.49,3.03-0.01l2.88,1.63C203.54,225.2,204.18,226.2,204.28,227.1z"
					/>
			</g>
			<g>
				<path class="st9" d="M202.79,226.5l-72.58,41.85c-0.83,0.48-1.51,1.65-1.51,2.62l0,57.62l0,16.63c0,0.96,0.68,1.36,1.51,0.87
					l72.58-41.85c0.84-0.48,1.51-1.65,1.51-2.62v-74.25C204.3,226.41,203.63,226.02,202.79,226.5z"/>
				<path class="st6" d="M203.09,227.73v73.9c0,0.53-0.45,1.31-0.91,1.57l-72.28,41.68l0-16.28l0-57.62c0-0.53,0.45-1.31,0.91-1.57
					L203.09,227.73 M203.47,226.3c-0.2,0-0.43,0.07-0.68,0.21l-72.58,41.86c-0.83,0.48-1.51,1.65-1.51,2.62l0,57.62l0,16.63
					c0,0.68,0.34,1.08,0.84,1.08c0.2,0,0.43-0.07,0.68-0.21l72.58-41.85c0.84-0.48,1.51-1.65,1.51-2.62v-74.25
					C204.3,226.69,203.96,226.3,203.47,226.3L203.47,226.3z"/>
			</g>
		</g>
		<g>
			<g>
				<g>
					<g>
						<g>
							<path class="st6" d="M153.46,273.64v10.44c-4.52,2.61-8.18,9.61-8.18,15.63l-7.83,4.52
								C137.45,292.44,144.62,278.75,153.46,273.64z"/>
						</g>
					</g>
					<g>
						<g>
							<path class="st6" d="M147.58,305.96l-5.64,10.51c-2.95-2.37-4.49-6.58-4.49-12.24l7.83-4.52
								C145.28,302.66,146.16,304.82,147.58,305.96z"/>
						</g>
					</g>
					<g>
						<g>
							<path class="st6" d="M169.47,285.75c0,11.79-7.17,25.49-16.01,30.6c-4.6,2.66-8.32,2.7-11.52,0.13l5.64-10.51
								c1.48,1.2,3.57,1.27,5.88-0.07c4.52-2.61,8.18-9.6,8.18-15.63c0-6.02-3.66-8.79-8.18-6.18v-10.44
								C162.3,268.54,169.47,273.96,169.47,285.75z"/>
						</g>
					</g>
					<g class="st21">
						<g>
							<path class="st9" d="M169.47,285.75c0,11.79-7.17,25.49-16.01,30.6c-4.6,2.66-8.32,2.7-11.52,0.13l5.64-10.51
								c1.48,1.2,3.57,1.27,5.88-0.07c4.52-2.61,8.18-9.6,8.18-15.63c0-6.02-3.66-8.79-8.18-6.18v-10.44
								C162.3,268.54,169.47,273.96,169.47,285.75z"/>
						</g>
					</g>
					<path class="st6" d="M157.73,301.82c-1.24,1.73-2.7,3.17-4.26,4.07c-2.31,1.33-4.4,1.26-5.88,0.07
						c-1.42-1.15-2.3-3.31-2.3-6.25l-7.83,4.52c0,5.66,1.54,9.87,4.49,12.24c3.2,2.56,6.92,2.53,11.52-0.13
						c3.12-1.8,6.01-4.68,8.47-8.15L157.73,301.82z"/>
					<path class="st8" d="M157.73,301.82c-1.24,1.73-2.7,3.17-4.26,4.07c-2.31,1.33-4.4,1.26-5.88,0.07
						c-1.42-1.15-2.3-3.31-2.3-6.25l-7.83,4.52c0,5.66,1.54,9.87,4.49,12.24c3.2,2.56,6.92,2.53,11.52-0.13
						c3.12-1.8,6.01-4.68,8.47-8.15L157.73,301.82z"/>
				</g>
				<g>
					<g>
						<path class="st6" d="M179.32,267.16l-4.67,2.69c-0.05,0.03-0.09,0.1-0.09,0.16v5.39c0,0.06,0.04,0.08,0.09,0.05l4.67-2.69
							c0.05-0.03,0.09-0.1,0.09-0.16v-5.39C179.42,267.15,179.38,267.13,179.32,267.16z"/>
						<path class="st22" d="M179.32,267.16l-4.67,2.69c-0.05,0.03-0.09,0.1-0.09,0.16v5.39c0,0.06,0.04,0.08,0.09,0.05l4.67-2.69
							c0.05-0.03,0.09-0.1,0.09-0.16v-5.39C179.42,267.15,179.38,267.13,179.32,267.16z"/>
						<g>
							<path class="st13" d="M182.77,267.09c-0.12,0-0.24-0.06-0.3-0.17c-0.1-0.17-0.04-0.38,0.13-0.47l13.07-7.51
								c0.17-0.1,0.38-0.04,0.47,0.13c0.1,0.17,0.04,0.38-0.13,0.47l-13.07,7.51C182.89,267.08,182.83,267.09,182.77,267.09z"/>
						</g>
						<g>
							<path class="st13" d="M182.77,270.06c-0.12,0-0.24-0.06-0.3-0.17c-0.1-0.17-0.04-0.38,0.13-0.47l13.07-7.51
								c0.17-0.1,0.38-0.04,0.47,0.13c0.1,0.17,0.04,0.38-0.13,0.47l-13.07,7.51C182.89,270.05,182.83,270.06,182.77,270.06z"/>
						</g>
					</g>
					<g>
						<path class="st6" d="M179.32,278.18l-4.67,2.69c-0.05,0.03-0.09,0.1-0.09,0.16v5.39c0,0.06,0.04,0.08,0.09,0.05l4.67-2.69
							c0.05-0.03,0.09-0.1,0.09-0.16v-5.39C179.42,278.18,179.38,278.15,179.32,278.18z"/>
						<g>
							<path class="st13" d="M182.77,278.11c-0.12,0-0.24-0.06-0.3-0.17c-0.1-0.17-0.04-0.38,0.13-0.47l13.07-7.51
								c0.17-0.1,0.38-0.04,0.47,0.13c0.1,0.17,0.04,0.38-0.13,0.47l-13.07,7.51C182.89,278.1,182.83,278.11,182.77,278.11z"/>
						</g>
						<g>
							<path class="st13" d="M182.77,281.09c-0.12,0-0.24-0.06-0.3-0.17c-0.1-0.17-0.04-0.38,0.13-0.47l13.07-7.51
								c0.17-0.1,0.38-0.04,0.47,0.13c0.1,0.17,0.04,0.38-0.13,0.47l-13.07,7.51C182.89,281.07,182.83,281.09,182.77,281.09z"/>
						</g>
					</g>
					<g>
						<path class="st6" d="M179.32,289.21l-4.67,2.69c-0.05,0.03-0.09,0.1-0.09,0.16v5.39c0,0.06,0.04,0.08,0.09,0.05l4.67-2.69
							c0.05-0.03,0.09-0.1,0.09-0.16v-5.39C179.42,289.2,179.38,289.18,179.32,289.21z"/>
						<path class="st8" d="M179.32,289.21l-4.67,2.69c-0.05,0.03-0.09,0.1-0.09,0.16v5.39c0,0.06,0.04,0.08,0.09,0.05l4.67-2.69
							c0.05-0.03,0.09-0.1,0.09-0.16v-5.39C179.42,289.2,179.38,289.18,179.32,289.21z"/>
						<g>
							<path class="st13" d="M182.77,289.14c-0.12,0-0.24-0.06-0.3-0.17c-0.1-0.17-0.04-0.38,0.13-0.47l13.07-7.51
								c0.17-0.1,0.38-0.04,0.47,0.13c0.1,0.17,0.04,0.38-0.13,0.47l-13.07,7.51C182.89,289.12,182.83,289.14,182.77,289.14z"/>
						</g>
						<g>
							<path class="st13" d="M182.77,292.11c-0.12,0-0.24-0.06-0.3-0.17c-0.1-0.17-0.04-0.38,0.13-0.47l13.07-7.51
								c0.17-0.1,0.38-0.04,0.47,0.13c0.1,0.17,0.04,0.38-0.13,0.47l-13.07,7.51C182.89,292.1,182.83,292.11,182.77,292.11z"/>
						</g>
					</g>
				</g>
			</g>
		</g>
	</g>
	<g id="Customer_Window">
		<g class="st7">
			<path d="M475.43,266.78l-78.62-45.36c-0.76-0.44-1.38-0.08-1.38,0.8l0,77.23c0,0.88,0.62,1.95,1.38,2.39l78.62,45.36
				c0.76,0.44,1.38,0.08,1.38-0.8l0-77.23C476.81,268.29,476.19,267.22,475.43,266.78z"/>
		</g>
		<g>
			<path id="XMLID_00000176751840011744686270000004970103497237301911_" class="st6" d="M398.77,227.74l72.89,42.03
				c0.84,0.48,1.52,1.66,1.52,2.63v74.56c0,0.97-0.68,2.14-1.53,2.61l-2.89,1.64c-0.84,0.48-2.21,0.47-3.05-0.01l-72.89-42.03
				c-0.84-0.48-1.52-1.66-1.52-2.63v-74.56c0-0.97,0.68-2.14,1.53-2.61l2.89-1.64C396.57,227.25,397.93,227.25,398.77,227.74z"/>
			<path id="XMLID_00000018208956936769879740000008060566918424856456_" class="st7" d="M465.71,351.2
				c0.81,0.47,2.28,0.49,3.05,0.02l2.89-1.65c0.84-0.47,1.53-1.64,1.53-2.61V272.4c0-0.5-0.19-1.06-0.48-1.55l-5.91,3.42
				c0.28,0.47,0.45,1.01,0.45,1.49v74.56C467.23,351.21,466.6,351.72,465.71,351.2z"/>
			<g id="XMLID_00000091724570579858037870000000535664148276055211_" class="st7">
				<path class="st9" d="M391.32,231.7c0.12-0.76,0.74-1.04,1.5-0.6l72.88,42.03c0.42,0.25,0.8,0.66,1.07,1.14l5.92-3.42
					c-0.27-0.46-0.64-0.85-1.05-1.08l-72.89-42.03c-0.83-0.48-2.2-0.49-3.04-0.01l-2.89,1.64
					C392.07,229.8,391.43,230.8,391.32,231.7z"/>
			</g>
			<g>
				<path class="st9" d="M392.82,231.1l72.89,42.03c0.84,0.48,1.52,1.66,1.52,2.63l0,57.86l0,16.7c0,0.97-0.68,1.36-1.52,0.88
					l-72.89-42.03c-0.84-0.48-1.52-1.66-1.52-2.63v-74.56C391.3,231.01,391.98,230.62,392.82,231.1z"/>
				<path class="st6" d="M392.52,232.33l72.59,41.86c0.46,0.27,0.91,1.05,0.91,1.58l0,57.86l0,16.35l-72.59-41.86
					c-0.46-0.27-0.91-1.05-0.91-1.58V232.33 M392.14,230.89c-0.5,0-0.84,0.4-0.84,1.08v74.56c0,0.97,0.68,2.15,1.52,2.63
					l72.89,42.03c0.24,0.14,0.47,0.21,0.68,0.21c0.5,0,0.84-0.4,0.84-1.08l0-16.7l0-57.86c0-0.97-0.68-2.15-1.52-2.63l-72.89-42.03
					C392.58,230.96,392.35,230.89,392.14,230.89L392.14,230.89z"/>
			</g>
		</g>
		<path class="st6" d="M417.59,264.77c0-4.46-2.71-9.64-6.06-11.57c-1.67-0.97-3.19-0.94-4.28-0.11c-1.1,0.83-1.77,2.46-1.77,4.69
			c0,4.46,2.71,9.64,6.06,11.57c1.67,0.97,3.19,0.94,4.28,0.11S417.59,267,417.59,264.77z M400.41,277.55l22.25,12.85l-0.36-4.15
			c-0.46-5.25-3.23-10.55-6.5-12.43l-8.53-4.93c-1.63-0.94-3.14-0.89-4.29-0.02c-1.16,0.88-1.97,2.58-2.2,4.95L400.41,277.55z"/>
		<path class="st13" d="M411.54,303.01c0-4.46-2.71-9.64-6.06-11.57c-1.67-0.97-3.19-0.94-4.28-0.11c-1.1,0.83-1.77,2.46-1.77,4.69
			c0,4.46,2.71,9.64,6.06,11.57c1.67,0.97,3.19,0.94,4.28,0.11C410.86,306.87,411.54,305.24,411.54,303.01z"/>
		<path class="st6" d="M433.58,315.27c0-4.46-2.71-9.64-6.06-11.57c-1.67-0.97-3.19-0.94-4.28-0.11c-1.1,0.83-1.77,2.46-1.77,4.69
			c0,4.46,2.71,9.64,6.06,11.57c1.67,0.97,3.19,0.94,4.28,0.11C432.9,319.12,433.58,317.49,433.58,315.27z"/>
		<path class="st6" d="M455.61,327.52c0-4.46-2.71-9.64-6.06-11.57c-1.67-0.97-3.19-0.94-4.28-0.11c-1.1,0.83-1.77,2.46-1.77,4.69
			c0,4.46,2.71,9.64,6.06,11.57c1.67,0.97,3.19,0.94,4.28,0.11C454.93,331.38,455.61,329.75,455.61,327.52z"/>
		<path class="st23" d="M455.61,327.52c0-4.46-2.71-9.64-6.06-11.57c-1.67-0.97-3.19-0.94-4.28-0.11c-1.1,0.83-1.77,2.46-1.77,4.69
			c0,4.46,2.71,9.64,6.06,11.57c1.67,0.97,3.19,0.94,4.28,0.11C454.93,331.38,455.61,329.75,455.61,327.52z"/>
		<g>
			<path class="st13" d="M456.81,285.44c0.24,0,0.47-0.12,0.59-0.34c0.19-0.33,0.08-0.74-0.25-0.93l-25.75-14.79
				c-0.33-0.19-0.75-0.08-0.93,0.25c-0.19,0.33-0.08,0.74,0.25,0.93l25.75,14.79C456.58,285.41,456.7,285.44,456.81,285.44z"/>
		</g>
		<g>
			<path class="st13" d="M456.81,291.29c0.24,0,0.47-0.12,0.59-0.34c0.19-0.33,0.08-0.74-0.25-0.93l-25.75-14.79
				c-0.33-0.19-0.75-0.08-0.93,0.25c-0.19,0.33-0.08,0.74,0.25,0.93l25.75,14.79C456.58,291.27,456.7,291.29,456.81,291.29z"/>
		</g>
		<g>
			<path class="st1" d="M456.81,302.15c0.24,0,0.47-0.12,0.59-0.34c0.19-0.33,0.08-0.74-0.25-0.93l-25.75-14.79
				c-0.33-0.19-0.75-0.08-0.93,0.25c-0.19,0.33-0.08,0.74,0.25,0.93l25.75,14.79C456.58,302.13,456.7,302.15,456.81,302.15z"/>
		</g>
		<g>
			<path class="st1" d="M456.81,308.01c0.24,0,0.47-0.12,0.59-0.34c0.19-0.33,0.08-0.74-0.25-0.93l-25.75-14.79
				c-0.33-0.19-0.75-0.08-0.93,0.25c-0.19,0.33-0.08,0.74,0.25,0.93l25.75,14.79C456.58,307.98,456.7,308.01,456.81,308.01z"/>
		</g>
	</g>
</g>
<g id="Arrows_1">
	<g id="Arrows_00000168114597842980486310000001494400752395147929_">
		<g id="Arrow_00000093162275370343603730000003042918694169503875_">
			<polygon class="st6" points="180.99,201.59 186.61,204.83 195.86,199.49 195.86,86.58 202.02,83.02 191.44,74.88 185.82,71.64 
				174.82,92.23 180.44,95.48 180.99,95.16 			"/>
			<polygon class="st24" points="180.99,201.59 186.61,204.83 195.86,199.49 195.86,86.58 202.02,83.02 191.44,74.88 185.82,71.64 
				174.82,92.23 180.44,95.48 180.99,95.16 			"/>
			<polygon id="Down_Arrow_00000176020923339112821890000017521591945691932801_" class="st6" points="186.61,204.83 195.86,199.49 
				195.86,86.58 202.02,83.02 191.44,74.88 180.44,95.48 186.61,91.92 			"/>
			<polygon id="Down_Arrow_00000134956108596212541210000007638991850338560910_" class="st25" points="186.61,204.83 
				195.86,199.49 195.86,86.58 202.02,83.02 191.44,74.88 180.44,95.48 186.61,91.92 			"/>
			<polygon class="st6" points="180.99,201.59 186.61,204.83 186.61,91.92 180.99,95.16 			"/>
			<polygon class="st23" points="180.99,201.59 186.61,204.83 186.61,91.92 180.99,95.16 			"/>
		</g>
		<g id="Arrow_00000093871791093174832800000013942321270638262419_">
			<polygon class="st6" points="207.28,188.01 211.49,190.44 218.42,186.44 218.42,94.68 223.04,92.01 215.12,85.91 210.9,83.48 
				202.66,98.91 206.87,101.35 207.28,101.11 			"/>
			<polygon class="st26" points="206.87,101.35 215.12,85.91 210.9,83.48 202.66,98.91 			"/>
			<polygon id="Down_Arrow_00000170240736991059745220000014911094569018434473_" class="st6" points="211.49,190.44 218.42,186.44 
				218.42,94.68 223.04,92.01 215.12,85.91 206.87,101.35 211.49,98.68 			"/>
			<polygon id="Down_Arrow_00000005257157995005841090000009091263462930719651_" class="st3" points="211.49,190.44 218.42,186.44 
				218.42,94.68 223.04,92.01 215.12,85.91 206.87,101.35 211.49,98.68 			"/>
			<polygon class="st8" points="207.28,188.01 211.49,190.44 211.49,98.68 207.28,101.11 			"/>
		</g>
	</g>
</g>
<g id="Icons">
	<g id="Icon_00000003785175595903668940000015716623266213663149_">
		<g id="XMLID_00000117660484386137973730000015401052125057839014_">
			<path id="XMLID_00000085931632026779090560000008689619552407053456_" class="st11" d="M475.41,227.57
				c0-1.96,1.38-2.76,3.08-1.78l25.69,14.85c1.7,0.98,3.08,3.37,3.08,5.33v38.94c0,1.96-1.38,2.76-3.08,1.78l-25.69-14.85
				c-1.7-0.98-3.08-3.37-3.08-5.33L475.41,227.57z"/>
			<path id="XMLID_00000032637739043726462550000017226538150442887608_" class="st27" d="M498.46,244.08l-25.69-14.85
				c-1.7-0.98-4.45-0.98-6.15,0l-2.51,1.45c-1.7,0.98-3.08,3.37-3.08,5.33l0,38.94c0,1.96,1.38,4.35,3.08,5.33l25.69,14.85
				c1.7,0.98,4.45,0.98,6.15,0l2.51-1.45c1.7-0.98,3.08-3.37,3.08-5.33v-38.94C501.53,247.45,500.15,245.07,498.46,244.08z"/>
			<path id="XMLID_00000163764895979339282960000009288783821919767990_" class="st13" d="M461.04,236.01
				c0-1.96,1.38-2.76,3.08-1.78l25.69,14.85c1.7,0.98,3.08,3.37,3.08,5.33v38.94c0,1.96-1.38,2.76-3.08,1.78l-25.69-14.85
				c-1.7-0.98-3.08-3.37-3.08-5.33L461.04,236.01z"/>
			<path id="XMLID_00000008834134950923858950000002427814527483585674_" class="st28" d="M501.53,288.35
				c0,1.96-1.38,4.35-3.08,5.33l-2.51,1.45c-1.54,0.89-3.93,0.96-5.63,0.25c1.45,0.55,2.55-0.27,2.55-2.02v-38.94
				c0-0.98-0.34-2.07-0.9-3.03l8.66-5c0.56,0.96,0.9,2.05,0.9,3.03L501.53,288.35z"/>
		</g>
		<path class="st6" d="M479.88,275.01l-4.98-2.88c-0.21-0.13-0.38,0.04-0.38,0.36c0,0.32,0.17,0.67,0.38,0.79l4.98,2.88
			c0.21,0.11,0.38-0.04,0.38-0.36C480.25,275.48,480.08,275.12,479.88,275.01z M475.61,261.69l0.03,0.08
			c0.14,0.54,0.28,1.14,0.4,1.77c0.53,2.84,0.5,5.38,0.47,7.62v0.79l1.78,1.02v-0.63c-0.03-2.27-0.06-4.84,0.49-7.06
			c0.11-0.51,0.25-0.96,0.4-1.32l0.04-0.1l-0.1-0.11c-0.42-0.47-0.81-1.03-1.2-1.7c-0.19-0.36-0.39-0.71-0.56-1.07l-0.01-0.04
			c-0.15,0.15-0.33,0.29-0.54,0.42C476.46,261.58,476.04,261.69,475.61,261.69z M479.88,277.15l-4.98-2.86
			c-0.21-0.13-0.38,0.03-0.38,0.35c0,2.43,1.28,5.16,2.86,6.06c1.57,0.92,2.85-0.32,2.85-2.75
			C480.24,277.62,480.07,277.28,479.88,277.15z M477.76,247.4c-2.14-1.39-4.16-1.39-5.7-0.03c-1.53,1.39-2.39,3.93-2.39,7.22
			c0,4.16,1.46,8.91,3.8,12.39c0.64,0.93,1.03,2.2,1.03,3.3c0,0.28,0.14,0.6,0.33,0.71l1,0.57v-0.53c0.01-2.31,0.04-4.77-0.46-7.47
			c-0.14-0.71-0.29-1.33-0.44-1.86l-0.06-0.17c-0.22,0-0.45-0.1-0.65-0.22c-0.47-0.26-0.88-0.65-1.14-1.1
			c-0.29-0.49-0.4-1-0.29-1.42c0.08-0.38,0.31-0.6,0.6-0.6c0.13,0,0.25,0.04,0.39,0.11c0.51,0.31,1.06,1.15,1.5,2.35l0.03,0.08
			l0.12,0.01c0.35,0,0.7-0.1,1-0.29c0.21-0.11,0.39-0.29,0.53-0.46l-0.03-0.1c-0.5-1.39-0.71-2.73-0.51-3.46
			c0.11-0.42,0.35-0.65,0.65-0.65c0.12,0,0.26,0.04,0.4,0.13c0.43,0.25,0.78,0.82,0.92,1.52c0.19,0.97-0.01,2.09-0.53,2.89
			l-0.03,0.06c0.17,0.38,0.41,0.83,0.6,1.18c0.36,0.65,0.75,1.2,1.15,1.63c0.36-0.5,0.72-0.74,1.1-0.74c0.17,0,0.33,0.04,0.49,0.14
			c0.42,0.24,0.74,0.76,0.86,1.39c0.1,0.57-0.04,0.97-0.38,1.14c-0.1,0.04-0.21,0.07-0.35,0.07c-0.25,0-0.54-0.08-0.85-0.26
			c-0.19-0.13-0.4-0.26-0.61-0.44c-0.17,0.39-0.29,0.81-0.42,1.28c-0.5,2.1-0.47,4.51-0.46,6.84c0,0.19,0.01,0.5,0.01,0.78
			l0.96,0.56c0.08,0.06,0.17,0.04,0.24-0.01c0.06-0.06,0.1-0.18,0.1-0.31c0-1.11,0.38-1.9,1.02-2.11c2.39-0.79,3.84-3.93,3.8-8.2
			C485.02,257.12,481.74,249.98,477.76,247.4z M473.81,259.06c-0.07-0.04-0.14-0.06-0.2-0.06c-0.32,0-0.29,0.41-0.22,0.62
			c0.1,0.29,0.3,0.55,0.53,0.76c0.13,0.11,0.27,0.21,0.44,0.27c0.11,0.04,0.38,0.11,0.37-0.08c-0.01-0.16-0.09-0.31-0.15-0.45
			c-0.06-0.13-0.13-0.26-0.2-0.39C474.22,259.48,474.05,259.18,473.81,259.06z M477.61,259.27c0.28-0.54,0.39-1.21,0.29-1.76
			c-0.07-0.35-0.22-0.58-0.44-0.7c-0.08-0.05-0.15-0.07-0.22-0.07c-0.09,0-0.25,0.03-0.34,0.32c-0.1,0.43,0.01,1.22,0.29,2.07
			c0.03,0.08,0.07,0.17,0.12,0.24c0.02,0.03,0.04,0.05,0.07,0.06c0.02,0,0.03,0,0.05,0C477.52,259.41,477.57,259.35,477.61,259.27z
			 M480.47,264.2c0.25,0.15,0.49,0.22,0.67,0.22c0.07,0,0.15-0.01,0.25-0.06c0.05-0.04,0.2-0.14,0.15-0.42
			c-0.05-0.3-0.2-0.55-0.41-0.67c-0.09-0.05-0.19-0.07-0.29-0.07c-0.35,0-0.59,0.27-0.79,0.51c-0.01,0.01-0.02,0.02-0.03,0.04
			c-0.01,0.03-0.01,0.07,0,0.1c0.04,0.14,0.16,0.19,0.27,0.26C480.34,264.14,480.39,264.17,480.47,264.2z"/>
		<path class="st29" d="M479.88,275.01l-4.98-2.88c-0.21-0.13-0.38,0.04-0.38,0.36c0,0.32,0.17,0.67,0.38,0.79l4.98,2.88
			c0.21,0.11,0.38-0.04,0.38-0.36C480.25,275.48,480.08,275.12,479.88,275.01z M475.61,261.69l0.03,0.08
			c0.14,0.54,0.28,1.14,0.4,1.77c0.53,2.84,0.5,5.38,0.47,7.62v0.79l1.78,1.02v-0.63c-0.03-2.27-0.06-4.84,0.49-7.06
			c0.11-0.51,0.25-0.96,0.4-1.32l0.04-0.1l-0.1-0.11c-0.42-0.47-0.81-1.03-1.2-1.7c-0.19-0.36-0.39-0.71-0.56-1.07l-0.01-0.04
			c-0.15,0.15-0.33,0.29-0.54,0.42C476.46,261.58,476.04,261.69,475.61,261.69z M479.88,277.15l-4.98-2.86
			c-0.21-0.13-0.38,0.03-0.38,0.35c0,2.43,1.28,5.16,2.86,6.06c1.57,0.92,2.85-0.32,2.85-2.75
			C480.24,277.62,480.07,277.28,479.88,277.15z M477.76,247.4c-2.14-1.39-4.16-1.39-5.7-0.03c-1.53,1.39-2.39,3.93-2.39,7.22
			c0,4.16,1.46,8.91,3.8,12.39c0.64,0.93,1.03,2.2,1.03,3.3c0,0.28,0.14,0.6,0.33,0.71l1,0.57v-0.53c0.01-2.31,0.04-4.77-0.46-7.47
			c-0.14-0.71-0.29-1.33-0.44-1.86l-0.06-0.17c-0.22,0-0.45-0.1-0.65-0.22c-0.47-0.26-0.88-0.65-1.14-1.1
			c-0.29-0.49-0.4-1-0.29-1.42c0.08-0.38,0.31-0.6,0.6-0.6c0.13,0,0.25,0.04,0.39,0.11c0.51,0.31,1.06,1.15,1.5,2.35l0.03,0.08
			l0.12,0.01c0.35,0,0.7-0.1,1-0.29c0.21-0.11,0.39-0.29,0.53-0.46l-0.03-0.1c-0.5-1.39-0.71-2.73-0.51-3.46
			c0.11-0.42,0.35-0.65,0.65-0.65c0.12,0,0.26,0.04,0.4,0.13c0.43,0.25,0.78,0.82,0.92,1.52c0.19,0.97-0.01,2.09-0.53,2.89
			l-0.03,0.06c0.17,0.38,0.41,0.83,0.6,1.18c0.36,0.65,0.75,1.2,1.15,1.63c0.36-0.5,0.72-0.74,1.1-0.74c0.17,0,0.33,0.04,0.49,0.14
			c0.42,0.24,0.74,0.76,0.86,1.39c0.1,0.57-0.04,0.97-0.38,1.14c-0.1,0.04-0.21,0.07-0.35,0.07c-0.25,0-0.54-0.08-0.85-0.26
			c-0.19-0.13-0.4-0.26-0.61-0.44c-0.17,0.39-0.29,0.81-0.42,1.28c-0.5,2.1-0.47,4.51-0.46,6.84c0,0.19,0.01,0.5,0.01,0.78
			l0.96,0.56c0.08,0.06,0.17,0.04,0.24-0.01c0.06-0.06,0.1-0.18,0.1-0.31c0-1.11,0.38-1.9,1.02-2.11c2.39-0.79,3.84-3.93,3.8-8.2
			C485.02,257.12,481.74,249.98,477.76,247.4z M473.81,259.06c-0.07-0.04-0.14-0.06-0.2-0.06c-0.32,0-0.29,0.41-0.22,0.62
			c0.1,0.29,0.3,0.55,0.53,0.76c0.13,0.11,0.27,0.21,0.44,0.27c0.11,0.04,0.38,0.11,0.37-0.08c-0.01-0.16-0.09-0.31-0.15-0.45
			c-0.06-0.13-0.13-0.26-0.2-0.39C474.22,259.48,474.05,259.18,473.81,259.06z M477.61,259.27c0.28-0.54,0.39-1.21,0.29-1.76
			c-0.07-0.35-0.22-0.58-0.44-0.7c-0.08-0.05-0.15-0.07-0.22-0.07c-0.09,0-0.25,0.03-0.34,0.32c-0.1,0.43,0.01,1.22,0.29,2.07
			c0.03,0.08,0.07,0.17,0.12,0.24c0.02,0.03,0.04,0.05,0.07,0.06c0.02,0,0.03,0,0.05,0C477.52,259.41,477.57,259.35,477.61,259.27z
			 M480.47,264.2c0.25,0.15,0.49,0.22,0.67,0.22c0.07,0,0.15-0.01,0.25-0.06c0.05-0.04,0.2-0.14,0.15-0.42
			c-0.05-0.3-0.2-0.55-0.41-0.67c-0.09-0.05-0.19-0.07-0.29-0.07c-0.35,0-0.59,0.27-0.79,0.51c-0.01,0.01-0.02,0.02-0.03,0.04
			c-0.01,0.03-0.01,0.07,0,0.1c0.04,0.14,0.16,0.19,0.27,0.26C480.34,264.14,480.39,264.17,480.47,264.2z"/>
	</g>
	<g id="Icon_00000160905584144144492190000017571580117587742357_">
		<g id="XMLID_00000175317008278661028020000004843218530456902589_">
			<path id="XMLID_00000036929913405614931100000014425103067908171169_" class="st11" d="M519.82,253.17
				c0-1.96,1.38-2.76,3.08-1.78l25.69,14.85c1.7,0.98,3.08,3.37,3.08,5.33v38.94c0,1.96-1.38,2.76-3.08,1.78l-25.69-14.85
				c-1.7-0.98-3.08-3.37-3.08-5.33L519.82,253.17z"/>
			<path id="XMLID_00000139983298612520882970000003437632886632223163_" class="st6" d="M542.87,269.69l-25.69-14.85
				c-1.7-0.98-4.45-0.98-6.15,0l-2.5,1.45c-1.7,0.98-3.08,3.37-3.08,5.33l0,38.94c0,1.96,1.38,4.35,3.08,5.33l25.69,14.85
				c1.7,0.98,4.45,0.98,6.15,0l2.51-1.45c1.7-0.98,3.08-3.37,3.08-5.33v-38.94C545.95,273.06,544.57,270.67,542.87,269.69z"/>
			<path id="XMLID_00000105399280393201931650000008414364924753792181_" class="st25" d="M542.87,269.69l-25.69-14.85
				c-1.7-0.98-4.45-0.98-6.15,0l-2.5,1.45c-1.7,0.98-3.08,3.37-3.08,5.33l0,38.94c0,1.96,1.38,4.35,3.08,5.33l25.69,14.85
				c1.7,0.98,4.45,0.98,6.15,0l2.51-1.45c1.7-0.98,3.08-3.37,3.08-5.33v-38.94C545.95,273.06,544.57,270.67,542.87,269.69z"/>
			<path id="XMLID_00000049907071087324608560000015727414659899785638_" class="st6" d="M505.45,261.61c0-1.96,1.38-2.76,3.08-1.78
				l25.69,14.85c1.7,0.98,3.08,3.37,3.08,5.33v38.94c0,1.96-1.38,2.76-3.08,1.78l-25.69-14.85c-1.7-0.98-3.08-3.37-3.08-5.33
				L505.45,261.61z"/>
			<path id="XMLID_00000034089109032825493490000000240887473676264583_" class="st22" d="M505.45,261.61
				c0-1.96,1.38-2.76,3.08-1.78l25.69,14.85c1.7,0.98,3.08,3.37,3.08,5.33v38.94c0,1.96-1.38,2.76-3.08,1.78l-25.69-14.85
				c-1.7-0.98-3.08-3.37-3.08-5.33L505.45,261.61z"/>
			<path id="XMLID_00000091708048661916624770000007774339705381620916_" class="st6" d="M545.95,313.96c0,1.96-1.38,4.35-3.08,5.33
				l-2.51,1.45c-1.54,0.89-3.93,0.96-5.63,0.25c1.45,0.55,2.55-0.27,2.55-2.02v-38.94c0-0.98-0.34-2.07-0.9-3.03l8.66-5
				c0.56,0.96,0.9,2.05,0.9,3.03L545.95,313.96z"/>
			<path id="XMLID_00000126286222543079771960000008489253136163714722_" class="st30" d="M545.95,313.96
				c0,1.96-1.38,4.35-3.08,5.33l-2.51,1.45c-1.54,0.89-3.93,0.96-5.63,0.25c1.45,0.55,2.55-0.27,2.55-2.02v-38.94
				c0-0.98-0.34-2.07-0.9-3.03l8.66-5c0.56,0.96,0.9,2.05,0.9,3.03L545.95,313.96z"/>
		</g>
		<path class="st9" d="M509.63,283.54c0,0.92,0.06,1.86,0.17,2.76c0.02,0.18,0.12,0.36,0.25,0.45l2.15,1.56
			c0.48,0.35,0.9,1.03,1.09,1.76c0,0.01,0,0.01,0,0.01c0,0.01,0,0.02,0.01,0.04c0.2,0.75,0.14,1.4-0.16,1.74l-1.34,1.49
			c-0.08,0.09-0.08,0.27-0.01,0.45c0.78,1.92,1.73,3.73,2.84,5.4c0.1,0.15,0.24,0.23,0.34,0.18l1.69-0.83
			c0.38-0.18,0.9,0.04,1.38,0.57c0,0.01,0.02,0.02,0.03,0.03c0.47,0.53,0.79,1.27,0.85,1.94l0.25,3.01
			c0.02,0.17,0.11,0.36,0.23,0.46c0.64,0.52,1.32,0.98,2,1.38c0.69,0.4,1.36,0.7,2,0.92c0.13,0.04,0.22-0.04,0.23-0.2l0.24-2.73
			c0.06-0.61,0.37-0.98,0.85-0.97c0.01,0,0.02,0,0.03,0.01c0.47,0.01,1,0.4,1.38,1.01l1.69,2.77c0.1,0.16,0.24,0.25,0.34,0.21
			c1.1-0.4,2.06-1.12,2.83-2.15c0.07-0.1,0.06-0.28-0.02-0.46l-1.34-3.04c-0.31-0.68-0.37-1.4-0.17-1.93c0-0.01,0.01-0.02,0.01-0.03
			c0.2-0.52,0.62-0.71,1.09-0.51l2.15,0.9c0.12,0.06,0.22-0.01,0.25-0.17c0.11-0.78,0.17-1.65,0.17-2.56c0-0.92-0.06-1.85-0.18-2.77
			c-0.02-0.17-0.12-0.36-0.24-0.45l-2.16-1.57c-0.48-0.35-0.88-1-1.08-1.74c-0.01-0.02-0.01-0.04-0.01-0.06
			c-0.2-0.74-0.14-1.41,0.16-1.74l1.34-1.49c0.08-0.09,0.08-0.27,0.01-0.45c-0.77-1.92-1.73-3.74-2.83-5.4
			c-0.1-0.15-0.24-0.23-0.34-0.18l-1.69,0.82c-0.37,0.19-0.9-0.04-1.38-0.56c-0.01-0.01-0.02-0.02-0.03-0.03
			c-0.47-0.53-0.8-1.28-0.85-1.95l-0.25-3.01c-0.02-0.18-0.11-0.36-0.23-0.46c-1.28-1.04-2.73-1.88-4-2.3
			c-0.12-0.03-0.22,0.04-0.23,0.2l-0.24,2.73c-0.05,0.61-0.37,0.98-0.85,0.97c-0.01,0-0.01,0-0.02,0c-0.47-0.02-1.01-0.41-1.38-1.02
			l-1.7-2.77c-0.1-0.15-0.23-0.24-0.33-0.2c-1.11,0.39-2.06,1.12-2.82,2.15c-0.07,0.09-0.07,0.28,0.01,0.45l1.35,3.03
			c0.31,0.68,0.37,1.41,0.17,1.93c-0.01,0.02-0.01,0.03-0.01,0.05c-0.19,0.5-0.61,0.69-1.08,0.49l-2.15-0.91
			c-0.13-0.05-0.22,0.02-0.25,0.17C509.68,281.79,509.62,282.66,509.63,283.54z M515.43,286.88c-0.01-4.37,2.65-6.4,5.91-4.52
			c3.27,1.88,5.94,6.97,5.94,11.34c0.01,4.36-2.64,6.38-5.92,4.51C518.11,296.32,515.44,291.25,515.43,286.88z"/>
	</g>
</g>
<g id="Speech_Bubble">
	<g id="Speech_Bubble_00000093147617770490158840000012283201206142170262_">
		<g id="Speech_Bubble_00000093886887531083942330000012600915579477453708_">
			<path class="st9" d="M333.9,169.07c-8.83,8.67-13.47,20.01-13.95,31.5l0.08,5.37c0.77,10.72,5.19,21.23,13.3,29.48
				c18.13,18.45,47.89,18.71,66.34,0.58c8.25-8.11,12.85-18.54,13.81-29.24l0.18-5.37c-0.28-11.5-4.73-22.91-13.4-31.74
				C382.12,151.2,352.36,150.94,333.9,169.07z"/>
			<path class="st5" d="M331.17,166.17c-17.99,17.61-20.1,45.4-6.16,65.41l-6.54,14.4c-1.12,2.46,1.38,5,3.86,3.94l14.53-6.23
				c19.71,14.35,47.54,12.83,65.53-4.78c20.05-19.63,20.39-51.92,0.76-71.98C383.51,146.88,351.22,146.54,331.17,166.17z
				 M400.31,169.71c8.66,8.84,13.08,20.26,13.35,31.76l-0.19,5.37c-0.98,10.7-5.6,21.13-13.86,29.22
				c-18.48,18.1-48.24,17.78-66.34-0.7c-8.09-8.27-12.49-18.79-13.25-29.5l-0.07-5.37c0.51-11.49,5.17-22.82,14.01-31.47
				C352.44,150.91,382.2,151.22,400.31,169.71z"/>
		</g>
	</g>
	<g>
		<path class="st31" d="M365.68,213.24c-0.71,0-1.39-0.27-1.9-0.77l-7.88-7.61c-1.09-1.05-1.12-2.79-0.07-3.87
			c1.05-1.09,2.79-1.12,3.87-0.07l5.72,5.52l15.37-19.19c0.95-1.18,2.67-1.37,3.85-0.43c1.18,0.95,1.37,2.67,0.43,3.85l-17.25,21.54
			c-0.48,0.6-1.19,0.97-1.96,1.02C365.8,213.24,365.74,213.24,365.68,213.24z"/>
		<path class="st32" d="M365.86,227.5c-12.97,0-23.53-10.55-23.53-23.53c0-8.28,4.43-16.04,11.56-20.26
			c1.12-0.66,2.56-0.29,3.22,0.82c0.66,1.12,0.29,2.56-0.82,3.22c-5.71,3.38-9.25,9.59-9.25,16.22c0,10.38,8.45,18.83,18.83,18.83
			c10.38,0,18.83-8.45,18.83-18.83c0-1.3,1.05-2.35,2.35-2.35s2.35,1.05,2.35,2.35C389.39,216.94,378.83,227.5,365.86,227.5z"/>
		<path class="st32" d="M361.5,193.24c-0.41,0-0.83-0.11-1.21-0.33c-1.11-0.67-1.47-2.11-0.81-3.22l4.16-6.94l-7.83-2.32
			c-1.24-0.37-1.95-1.68-1.58-2.92c0.37-1.24,1.68-1.95,2.92-1.58l10.73,3.19c0.7,0.21,1.26,0.72,1.52,1.4
			c0.26,0.68,0.2,1.44-0.17,2.06l-5.72,9.54C363.08,192.84,362.3,193.24,361.5,193.24z"/>
	</g>
</g>
<g id="Character">
	<g id="Character_00000136373301470115450710000003501158914189753738_">
		<g id="Bottom_00000114782815874941028840000017525277942751625361_">
			<g>
				<path class="st33" d="M240.54,608.25c1.58-16.83-0.83-20.17,1.13-46.46l0,0c0.27-6.74,0.67-13.97,1.26-20.38
					c1.98-21.57,5.47-28.88,5.87-33.05c0,0,1.29-33.6,3.7-80.84c1.14-22.22,7.72-28.82,13.12-40.51l61.2,1.3
					c6.22,29.27,6.81,92.82,5.97,122.83c-0.43,15.3-7.05,81.89-7.22,83.77c-0.58,6.67-0.05,9.32,2.51,12.18
					c5.36,6,13.19,11.77,19.95,17.04c-1.05,2.61-10.51,3.56-14.56,1.48c-6.47-3.33-12.85-8.35-15.04-10.05
					c-5.56-4.3-12.7-7.81-12.66-14.17c0-0.79-0.21-1.02-0.17-1.14c-0.03-3.72-7.61-44.75-8.06-57.47
					c-0.39-10.94,1.34-29.45,1.34-29.45l-6.06-46.43c0,0-4.93,27.26-9.72,45.85c-3.9,15.13-10.36,40.95-14.78,59.57l0,0
					c-4.33,21.47-8.32,27.62-9.54,38.39c-0.35,2.57-4.54,27.74-5.87,33.51c-1.33,5.77-13.95,5.65-14.55-4.33
					C237.95,633.26,240.24,611.42,240.54,608.25z"/>
				<path id="XMLID_00000062896479089656776100000015644569446531026352_" class="st34" d="M292.81,466.92l5.86-33.28
					c0,0,19.97-1.94,27.37-8.75c0,0-9.41,12.7-22.97,14.51l-6.27,27.55l2.03,45.99L292.81,466.92z"/>
			</g>
			<g>
				<path class="st2" d="M358.37,632.35c0.35,0,0.84,3.86-1.08,5.48c-2.21,1.87-8.68,4.9-17.16,3.71
					c-8.49-1.19-13.06-3.87-16.43-6.75c-3.37-2.88-8.09-6.95-11.93-7.84c-3.56-0.83-7.42-2.48-8.55-3.6
					c-1.13-1.12-0.92-6.02-0.92-6.02L358.37,632.35z"/>
				<path id="XMLID_00000041293519968770506840000015943117836965160610_" class="st4" d="M305.46,598.48c0,0-0.64,0.01-0.87,1.15
					c-0.28,1.35-0.6,5.28-1.19,7.49c-0.81,3.08-1.4,9.39-0.96,11.91c0.44,2.52,6.24,4.33,9.95,5.78c3.78,1.49,8.15,4.52,11.97,7.74
					c3.96,3.33,12.32,6.73,17.86,6.87c8.45,0.21,13.95-2.02,15.68-5.04c2.13-3.74,1.72-7.16-7.95-11.77
					c-1.83-0.87-8.25-4.76-10.44-6.17c-2.31-1.49-4.52-3.14-6.56-4.99c-1.03-0.94-2.01-1.92-2.94-2.97
					c-0.81-0.92-1.95-2.03-2.43-3.17c-0.11-0.26-0.18-0.56-0.28-0.83c-0.28-0.77-0.46-1.48-0.61-2.28c-0.15-0.81-0.23-1.99-1-2.48
					c-0.88-0.57-2.47-0.51-3.47-0.45c-1.26,0.08-4.05,0.67-5.27,0.98c-2.18,0.55-2.78,1.16-3.64,2.49
					c-0.66,1.02-0.77,2.32-0.84,3.51c-0.03,0.57-0.02,1.14-0.04,1.71c-0.01,0.24,0.09,0.68-0.24,0.57c-0.32-0.1-0.67-0.95-0.79-1.24
					c-0.26-0.64-0.43-1.32-0.72-1.95c-0.33-0.72-0.7-1.45-1.19-2.07c-0.45-0.57-0.95-1.13-1.52-1.58c-0.52-0.41-1.19-0.63-1.65-1.1
					C305.76,600,305.51,598.96,305.46,598.48z"/>
				<path class="st9" d="M351.51,623.37c-12.25,0.71-17.39,9.46-17.96,14.13c3.02,1.11,6.14,1.85,8.67,1.92
					c8.45,0.21,14.3-2.02,16.02-5.04C360.26,630.86,360.15,626.75,351.51,623.37z"/>
				<g>
					<g>
						<path class="st35" d="M331.95,624.53c-0.13,0-0.27-0.05-0.38-0.14c-0.25-0.21-0.29-0.59-0.08-0.84
							c1.73-2.07,7.87-6.01,12.32-5.48c0.33,0.04,0.56,0.34,0.52,0.66c-0.04,0.33-0.33,0.56-0.66,0.52
							c-4.15-0.48-9.89,3.41-11.26,5.06C332.3,624.46,332.13,624.53,331.95,624.53z"/>
					</g>
					<g>
						<path class="st35" d="M326.71,621.4c-0.13,0-0.27-0.05-0.38-0.14c-0.25-0.21-0.29-0.59-0.08-0.84
							c1.73-2.07,7.88-6.02,12.32-5.48c0.33,0.04,0.56,0.34,0.52,0.66c-0.04,0.33-0.32,0.56-0.66,0.52
							c-4.15-0.49-9.89,3.41-11.26,5.06C327.06,621.33,326.89,621.4,326.71,621.4z"/>
					</g>
					<g>
						<path class="st35" d="M321.87,617.84c-0.13,0-0.27-0.05-0.38-0.14c-0.25-0.21-0.29-0.59-0.08-0.84
							c1.73-2.07,7.89-6.01,12.32-5.48c0.33,0.04,0.56,0.34,0.52,0.66c-0.04,0.33-0.32,0.56-0.66,0.52
							c-4.14-0.49-9.89,3.41-11.26,5.06C322.21,617.77,322.04,617.84,321.87,617.84z"/>
					</g>
					<g>
						<path class="st35" d="M317.12,614.28c-0.13,0-0.26-0.04-0.37-0.13c-0.26-0.21-0.3-0.58-0.09-0.84
							c2.38-2.94,8.9-6.06,13.34-5.53c0.33,0.04,0.56,0.34,0.52,0.66c-0.04,0.33-0.33,0.55-0.66,0.52c-4-0.48-10.16,2.49-12.27,5.09
							C317.47,614.21,317.29,614.28,317.12,614.28z"/>
					</g>
				</g>
			</g>
			<g>
				<path class="st2" d="M257.45,647.9c-0.48,6.09-1.52,10.12-3.76,13.65c-2.24,3.53-6.35,4.57-10.46,3.43
					c-4.11-1.14-9.35-4.05-10.42-9.34c-1.07-5.29-1.69-8.91-0.63-14.55L257.45,647.9z"/>
				<path id="XMLID_00000155145560079026633160000007242408476445114529_" class="st4" d="M240.96,603.19
					c-1.71,0.1-2.34,8.44-3.49,16.62c-1.24,8.77-3.94,12.35-5.04,19.53c-1.25,8.21,0.03,11.92,2.81,16.96
					c2.78,5.04,12.89,10.14,18.07,3.12c4.23-5.73,4.53-12.17,4.33-20.4c-0.21-8.51,0.51-14.38,0.99-20.82
					c0.46-6.16,2.69-13.03,1.23-13.74c-0.27,1.38-0.54,2.48-0.68,3.36c-0.17,1.09-0.66,2.49-1.08,3.53
					c-0.18,0.45-0.57,0.93-0.71,0.18c-0.09-0.51-0.03-1.03,0.03-1.53c0.3-2.27-0.84-2.47-1.46-2.66c-1.33-0.41-6.61-1.17-7.88-1.29
					c-1.3-0.12-5.79-0.41-6.39,0.32c-0.41,0.49-0.48,1.33-0.62,2.37c-0.17,1.24-0.48,2.14-0.51,1.75c-0.06-0.89,0.07-2.72,0.1-3.28
					c0.03-0.53,0.13-1.68,0.15-2.21C240.84,604.46,240.91,603.72,240.96,603.19z"/>
				<path class="st9" d="M231.85,644.11c-0.4,5.11,0.75,8.63,2.92,12.58c2.78,5.04,13.71,10.17,18.9,3.15
					c2.58-3.49,3.34-7.67,3.78-11.95C254.54,642.33,236.71,639.53,231.85,644.11z"/>
				<g>
					<g>
						<path class="st35" d="M253.92,638.86c-0.07-0.01-0.14-0.03-0.21-0.06c-0.07-0.03-7.88-3.46-15.59-1.85
							c-0.34,0.07-0.68-0.15-0.75-0.49c-0.07-0.34,0.15-0.68,0.49-0.75c8.16-1.7,16.12,1.81,16.42,1.96
							c0.31,0.16,0.44,0.54,0.28,0.85C254.43,638.76,254.17,638.89,253.92,638.86z"/>
					</g>
					<g>
						<path class="st35" d="M238.63,630.82c-0.24-0.03-0.45-0.19-0.53-0.44c-0.1-0.33,0.08-0.69,0.41-0.79
							c7.69-2.42,16.09,1.64,16.4,1.81c0.31,0.17,0.42,0.55,0.25,0.86c-0.17,0.3-0.56,0.41-0.86,0.25
							c-0.07-0.04-8.25-3.98-15.41-1.71C238.8,630.82,238.71,630.83,238.63,630.82z"/>
					</g>
					<g>
						<path class="st35" d="M239.02,625.04c-0.23-0.03-0.44-0.19-0.52-0.43c-0.11-0.33,0.07-0.69,0.4-0.8
							c8.47-2.83,16.42,1.58,16.72,1.77c0.29,0.19,0.38,0.58,0.19,0.87c-0.19,0.29-0.59,0.38-0.87,0.19
							c-0.07-0.04-7.76-4.27-15.63-1.64C239.2,625.04,239.11,625.05,239.02,625.04z"/>
					</g>
					<g>
						<path class="st36" d="M239.56,619.35c-0.23-0.03-0.44-0.18-0.52-0.42c-0.11-0.33,0.06-0.69,0.39-0.81
							c7.94-2.78,16.5,1.75,16.82,1.95c0.3,0.18,0.39,0.57,0.21,0.87c-0.18,0.3-0.57,0.4-0.87,0.21c-0.07-0.04-8.38-4.42-15.75-1.84
							C239.75,619.35,239.65,619.36,239.56,619.35z"/>
					</g>
				</g>
			</g>
			<path class="st4" d="M261.35,386.93c-7.53,13.07-11.67,23.8-13.24,63.09c-1.57,39.3-2.07,51.37-2.32,56.11
				c-0.25,4.74-4.95,11.72-5.98,33.78c-1.26,27.19-0.2,48.64-0.2,48.64s2.64,4.03,11.55,5.02c8.22,0.91,13.32-2.07,13.32-2.07
				s11.82-41.11,15.25-55.1c3.42-14,12.89-60.06,12.89-60.06l4.59,37.62c0,0-2.79,12.83-0.71,33.36c2.08,20.53,5.2,36.9,5.2,36.9
				s6.5,2.86,13.55,2.91c7.05,0.04,12.42-2.9,12.42-2.9s6.95-56.41,7.44-79.62c0.49-23.21,0.03-82.41-4.5-116.88L261.35,386.93z"/>
			<path class="st2" d="M300.91,431.85l-8.3,44.47l4.59,37.62l-1.48-38.06l7.35-36.48c5.63-1.22,18.5-7.66,22.21-17.17
				C316.46,431.07,300.91,431.85,300.91,431.85z M275.31,405.21c1.07-3.73,2.19-7.44,3.44-11.16c-2.18,3.29-3.84,6.89-5.27,10.55
				c-1.44,3.66-2.59,7.43-3.6,11.22c-0.97,3.8-1.78,7.64-2.37,11.52c-0.6,3.87-1.03,7.79-1.03,11.73c1.02-3.8,1.97-7.57,2.92-11.34
				c0.97-3.77,1.88-7.54,2.87-11.29C273.24,412.67,274.27,408.94,275.31,405.21z M269.75,402.27c1.31-2.26,2.63-4.53,3.84-6.92
				c-2.02,1.76-3.8,3.75-5.44,5.84c-1.65,2.09-3.11,4.32-4.46,6.61c-1.31,2.32-2.5,4.71-3.43,7.22c-0.94,2.5-1.68,5.09-1.96,7.76
				l3.72-6.95c1.26-2.28,2.51-4.55,3.82-6.79C267.11,406.77,268.45,404.54,269.75,402.27z M261.92,551.2
				c-2.43,12.04-4.71,24.11-6.83,36.21c3.06-11.91,5.97-23.84,8.71-35.8c2.78-11.97,5.42-23.92,8.04-35.96
				c2.47-12.08,4.22-24.27,5.66-36.47c1.47-12.2,2.62-24.43,3.62-36.68c-1.95,12.13-3.73,24.29-5.52,36.42
				c-1.83,12.13-3.68,24.25-6.18,36.23C266.86,527.11,264.31,539.16,261.92,551.2z M326.69,491.5c0.13,5.33,0.33,10.69,0.13,15.95
				c-0.22,5.29-0.66,10.63-1.04,15.96l-1.15,16c-0.77,10.67-1.43,21.34-1.95,32.04c1.48-10.6,2.78-21.23,3.88-31.87
				c1.1-10.65,2.15-21.27,2.74-32.03c0.2-10.82-0.49-21.47-1.22-32.16c-0.76-10.68-1.82-21.34-3.24-31.95l1.32,32.06
				C326.33,480.82,326.56,486.16,326.69,491.5z"/>
		</g>
		<g id="Top_00000136373455988813959510000009634765158693566123_">
			<g id="Top_00000034807417966400054800000005234291120417035685_">
				<g id="Arm_00000072999729964395124130000011011333593625243284_">
					<path class="st33" d="M366,367.42c-9.25,8.44-15.5,6.01-21.9,0.43c-10.77-9.39-24.88-26.16-24.88-26.16s-6.8-24.22-1.26-35.1
						c12.19,1.12,15.22,5.53,25.85,20.25c6.42,8.87,13.51,18.61,13.51,18.61s15.82-9.71,18.86-13.15c3.04-3.44,4.71-5.48,6.4-7.97
						c1.8-2.65,4.73-5.43,6.07-6.79c3.11-3.17,6.66-5.84,9.9-8.86c0.23-0.21,0.47-0.44,0.78-0.52c1.17-0.3,1.49,1.33,1.52,2.16
						c0.03,1.13-0.6,2.19-1.24,3.11c-0.84,1.21-1.73,2.36-2.59,3.57c-0.23,0.32-1.11,1.34-0.78,1.75c0.36,0.44,1.42-0.48,1.72-0.69
						c1.2-0.83,2.31-1.77,3.42-2.71c2.77-2.36,5.54-4.72,8.31-7.08c0.38-0.33,0.77-0.65,1.23-0.85c1.84-0.79,3.02,1.12,1.93,3.1
						c-0.29,0.53-0.63,1.03-1.01,1.49c-1.2,1.43-2.48,2.8-3.83,4.08c-0.56,0.53-1.12,1.03-1.6,1.64c-0.1,0.12-0.78,0.95-0.26,0.91
						c0.13-0.01,0.23-0.09,0.34-0.16c1.97-1.49,3.79-3.17,5.65-4.8c0.94-0.82,1.9-1.64,2.88-2.41c0.66-0.51,1.73-1.65,2.65-1.54
						c0.31,0.04,0.58,0.21,0.81,0.41c0.71,0.65,1,1.73,0.72,2.64c-0.16,0.51-0.43,1.05-0.71,1.51c-0.19,0.32-0.63,0.86-1.06,1.32
						c1.47-0.42,2.35,1.29,1.9,2.56c-0.69,1.93-2.19,3.17-4.02,4.76c-2.07,1.8-3.08,2.67-6.28,5.24c-0.62,0.5-0.79,1.1,0.01,0.66
						c0.68-0.38,1.28-0.76,1.91-1.21c0.78-0.55,1.02-0.74,1.85-1.32c1.1-0.77,3-2.44,3.72-2.42c0.68,0.02,1.04,0.9,1.03,1.52
						c-0.01,0.47-0.22,0.92-0.46,1.33c-1.52,2.64-4.12,4.46-6.65,6.16c-2.02,1.36-4.06,2.71-6.1,4.05
						c-3.74,2.47-7.84,4.38-11.33,5.54C385.87,344.88,375.25,358.98,366,367.42z"/>
					<path class="st34" d="M397.34,323.99c2.75,2.98-0.42,7.71-2.42,10.2c-0.4,0.5-2.03,1.48-1.35,0.12
						c0.24-0.48,0.49-0.95,0.72-1.43c0.44-0.92,0.85-1.86,1.17-2.84c0.55-1.67,0.83-3.47,0.55-5.21c-0.08-0.47-0.12-1.1,0.33-1.28
						c0.28-0.12,0.61,0.04,0.82,0.26C397.23,323.86,397.29,323.93,397.34,323.99z"/>
					<g>
						<path class="st34" d="M417.41,315.63c-3.84,2.98-7.52,6.11-10.74,9.77C410.66,322.63,414.37,319.45,417.41,315.63
							L417.41,315.63z"/>
					</g>
					<path class="st5" d="M318.1,305.96c10.43,1.13,14.58,3.77,26.52,20.12c5.66,7.75,12.91,18.51,12.91,18.51l14.38-9.17
						c0,0,0.09,4.3,3.9,9.9c3.26,4.8,6.92,6.06,6.92,6.06s-3.88,5.04-18.08,17.81c-8.33,7.49-15.72,3.42-20.02,0.08
						c-7.87-6.11-25.87-27.07-25.87-27.07C316.12,337.36,311.62,313.96,318.1,305.96z"/>
					<path class="st4" d="M357.54,344.58c-4.8,2.82-7.78,8.18-8.6,12.07c-1.5-8.94,7.23-14.1,7.23-14.1L357.54,344.58z"/>
				</g>
				<g id="Chest_00000158728588648787695810000003348290241799363259_">
					<path id="Chest_00000181781126087969900180000001783244921702816435_" class="st35" d="M279.88,305.09
						c-4.66,0.97-17.49,6.41-22.85,9.39c0,0-7.49,13.21-4.32,43.23c0.51,4.8,1.79,17.75,2.4,27.76c0.81,13.49,0.23,17.28-0.14,24.46
						c0,0,12.64,11.03,45.54,8.53c25.83-1.97,33.59-12.59,33.59-12.59s-0.15-34.85-0.83-53.9c-0.9-25.02-8.49-39.46-14.07-43.82
						l-16.96-2.81L279.88,305.09z"/>
					<g>
						<path class="st4" d="M275.35,305.25l0.09,1.97c0,0,7.69,14.54,8.23,43.89c0.54,29.35-0.04,76.34-0.04,76.34
							s-20.04-0.4-33.49-11.2c0,0,2.48-25.46,2.19-37.13c-0.3-11.67,0.97-16.94-2.35-33.52c-3.38-16.85,6.59-34.03,6.59-34.03
							C261.57,309.76,265.02,308.65,275.35,305.25z"/>
						<path class="st4" d="M302.3,303.76l15.81,2.2c0,0,11.01,8.37,14.55,31.39c3.54,23.02,5.33,78.82,5.33,78.82
							c-2.25,1.41-8.21,3.76-11.04,4.16c0,0-1.06-27.47-2.54-52.78c-1.78-30.54-4.16-49.14-21.87-61.57L302.3,303.76z"/>
						<path class="st8" d="M280.14,341.62l0.34-0.66c-3.01-1.19-6.04-2.31-9.08-3.42c-0.41-8.96-0.93-18.26-1.74-27.15
							c-0.1,9.08,0.12,18.55,0.43,27.65l0.01,0.43l0.41,0.16c2.68,1.04,5.37,2.07,8.07,3.05c-0.55,1.11-3.26,6.52-3.26,6.52
							c-1.27,2.49-2.43,5.04-3.66,7.55l0.25,0.22c3.13,2.84,6.31,5.62,9.52,8.36c-2.84-2.97-5.73-5.89-8.66-8.77
							C275.04,351.49,278,345.73,280.14,341.62z M331.88,346.34c-2.09-3.39-4.23-6.75-6.4-10.09l3.16-4.79c0,0,0.19-0.28,0.19-0.28
							c-3.02-8.95-8.62-16.84-15-23.71c4.16,5.53,7.97,11.3,11,17.5c0.93,1.97,1.77,3.97,2.45,6.02l-3.2,4.88l-0.25,0.38l0.25,0.37
							c2.24,3.38,4.52,6.73,6.84,10.06c-1.46,3.86-2.9,7.73-4.23,11.64c1.82-3.81,3.54-7.66,5.22-11.52l0.1-0.22L331.88,346.34z"/>
					</g>
				</g>
				<g>
					<g id="Head_00000176019964239836341190000002478795509755405224_">
						<g>
							<g id="XMLID_00000064314783965027375570000014384449250067170999_">
								<g id="XMLID_00000090980270661345589320000001849616048971866007_">
									<path class="st2" d="M268.36,254.41c0,0-4.69,0.5-6.7,4.2c-2.01,3.7-2.99,10.29,0.21,17.43
										c3.53,7.86,9.96,15.27,11.39,17.45c1.44,2.18,3.98,2.58,3.98,2.58l-1.23-9.85l-1.05-6.84c0,0,5.05-5.58,5.04-10.57
										c-0.01-6.42-2.85-9.78-2.85-9.78L268.36,254.41z"/>
									<path class="st2" d="M303.26,262.62c-2.79-1.01-6.24-1.14-9.15-1.04c-2.78,0.1-5.55,0.18-8.33,0.28
										c-2.97,0.1-5.95,0.2-8.92,0.29c0,0-9.61-0.64-10.27-7.34c-0.33-3.29,1.07-5.65,1.37-6.16c1.06-1.8,2.82-3.89,4.45-5.18
										c3.88-3.07,7.5-4.81,12.5-5.66c3.6-0.61,7.29-0.46,10.93-0.12c2.46,0.23,4.99,0.54,7.38-0.1c1.71-0.46,3.47-1.67,3.6-3.44
										c2.1,2.09,2.76,5.48,1.61,8.2c2.36-0.34,4.78,1.27,5.63,3.51c0.95,2.5-0.04,4.68-1.37,6.76c0.16-0.26,1.3,1.54,1.39,1.69
										c0.63,1.05,0.93,2.29,0.82,3.54c-0.16,1.76-1.59,3.14-3.09,4.07C309.14,263.55,306.15,263.67,303.26,262.62z"/>
									<path class="st33" d="M267.28,290c5.36,1.98,7.3-2.3,7.3-2.3l0.86,19.52c9.15,14.08,35.35,9.81,27.09-1.24l-0.47-5.74
										c0,0,1.73-0.12,4.39-0.87c7-1.98,8.41-6.4,9.03-11.47c0.96-7.89-0.35-18.59-4.3-30.68c-0.76-2.33-2.05-4.84-4.35-5.7
										c-5.7-2.15-10.35,2.22-17.63,5.92c-3.02,1.53-10.57,2.82-12.67,2.08c2.93,2.66,3.82,11.88,0.29,16
										c-0.55,1.36-1.2,2.19-1.7,2.73c-1.52,1.61-3.24-1.98-4.77-3.3c-1.55-1.31-6.9-2.09-8.68,2.92
										C259.88,282.96,262.31,288.16,267.28,290z"/>
									<path class="st34" d="M302.06,300.24c-5.95,0.55-11.07,0.35-15.36-1.42c-3.54-1.46-8.7-5.97-10.18-10.58
										c0.83,7.53,3.97,10.8,9.56,13.07c5.59,2.27,12.32,2.16,16.21,1.86L302.06,300.24z"/>
								</g>
								<g id="XMLID_00000087383163108126332480000018391003694670928311_">
									<path id="XMLID_00000027574901913621813260000001449389436153366171_" class="st2" d="M290.53,263.93l-4.26,3.44
										c-0.94-1.23-0.74-3,0.44-3.95C287.89,262.47,289.6,262.7,290.53,263.93z"/>
									<path id="XMLID_00000133508819150212099020000001766835268224540575_" class="st2" d="M309.96,263.57l-5.16-1.95
										c0.49-1.46,2.04-2.2,3.47-1.66C309.69,260.5,310.45,262.11,309.96,263.57z"/>
									<path class="st2" d="M288.79,271.23c0.16,1.22,1.29,2.08,2.51,1.91c1.22-0.16,2.08-1.29,1.91-2.51
										c-0.16-1.22-1.29-2.08-2.51-1.91C289.48,268.88,288.63,270.01,288.79,271.23z"/>
									<path class="st2" d="M305.34,268.9c0.16,1.22,1.29,2.08,2.51,1.91c1.22-0.17,2.08-1.29,1.91-2.51
										c-0.17-1.22-1.29-2.08-2.51-1.91C305.85,266.58,305.15,267.49,305.34,268.9z"/>
									<path id="XMLID_00000122708691521644259540000007450877615579985044_" class="st34" d="M297.87,266.79l3.23,13.96l7.2-3.49
										C305.14,272.53,301.67,269.04,297.87,266.79z"/>
									<path id="XMLID_00000071524158360122123200000003516842626851963326_" class="st37" d="M293.59,282.73l9.3,1.68
										c-0.55,2.61-3.08,4.36-5.65,3.89C294.67,287.84,293.03,285.35,293.59,282.73z"/>
									<path class="st34" d="M299.43,288.16c-0.96-2.44-3.28-4.13-5.93-4.25c0.07,2.15,1.56,4.01,3.74,4.4
										C297.99,288.44,298.73,288.37,299.43,288.16z"/>
								</g>
							</g>
						</g>
					</g>
				</g>
			</g>
			<g id="Arm_00000044887916161747104520000009104297582945386684_">
				<g>
					<path class="st33" d="M256.17,312.64c-10.77,3.12-13.95,6.46-17.78,14.04c-5.4,10.68-14.96,32.33-18.58,44.6
						c-1.89,6.4-1.69,12.61,5.88,19.01c5.75,4.86,19.14,14.77,30.26,22c2.19,1.43,9.13,6.51,11.21,7.57
						c12.66,6.46,27.18,4.59,27.18,4.59l-13.88-8.2l-2.51-4.64l-32.37-36.54c0,0,11-24.11,14.13-31.47
						C262.94,335.94,264.51,317.49,256.17,312.64z"/>
				</g>
				<g>
					<g id="XMLID_00000049204404202189173680000012889356975108740738_">
						<g id="XMLID_00000103945117696219600940000005760356003711050661_">
							<path id="XMLID_00000111167149309394784920000008992379542277972918_" class="st38" d="M267.74,405.3l-0.01,1.29
								c-0.01,1.31,0.67,2.52,1.79,3.19l34.64,20.46c0.56,0.33,1.19,0.5,1.83,0.51c0.63,0.01,1.26-0.15,1.83-0.47l64.37-36.21
								c1.14-0.64,1.85-1.84,1.87-3.15l0.01-0.89l-68.05,38.28L267.74,405.3z"/>
						</g>
						<g id="XMLID_00000168838218107698300400000004300836418112491405_" class="st12">
							<path id="XMLID_00000111155080720123286490000007872415767013951885_" class="st9" d="M267.74,405.3l-0.01,1.29
								c-0.01,1.31,0.67,2.52,1.79,3.19l34.64,20.46c0.56,0.33,1.19,0.5,1.83,0.51c0.63,0.01,1.26-0.15,1.83-0.47l64.37-36.21
								c1.14-0.64,1.85-1.84,1.87-3.15l0.01-0.89l-68.05,38.28L267.74,405.3z"/>
						</g>
						<g id="XMLID_00000120549051829622931330000009202317765906469019_" class="st3">
							<path id="XMLID_00000072239111051259255600000008800883209767497143_" d="M267.74,405.3l-0.01,1.29
								c-0.01,1.31,0.67,2.52,1.79,3.19l34.64,20.46c0.56,0.33,1.19,0.5,1.83,0.51c0.63,0.01,1.26-0.15,1.83-0.47l64.37-36.21
								c1.14-0.64,1.85-1.84,1.87-3.15l0.01-0.89l-68.05,38.28L267.74,405.3z"/>
						</g>
						<g id="XMLID_00000063612272500408422500000008245974323624904365_">
							<path id="XMLID_00000042735462185450900680000007701031353328327867_" class="st38" d="M374.06,390.04l-37.68-22.32
								c-0.67-0.4-1.5-0.41-2.18-0.02l-66.22,37.25c-0.33,0.18-0.33,0.65-0.01,0.84l38.03,22.53L374.06,390.04z"/>
						</g>
						<g id="XMLID_00000023271735236799367120000009974544035444673412_" class="st39">
							<path id="XMLID_00000149364774958355909010000015612341953189446565_" class="st9" d="M374.06,390.04l-37.68-22.32
								c-0.67-0.4-1.5-0.41-2.18-0.02l-66.22,37.25c-0.33,0.18-0.33,0.65-0.01,0.84l38.03,22.53L374.06,390.04z"/>
						</g>
						<g id="XMLID_00000014626469170161758670000002663841558236426674_">
							<polygon id="XMLID_00000038403859974786806820000011253722472724778398_" class="st38" points="306.29,424.75 285.97,412.73 
								345.57,379.21 366,391.17 							"/>
						</g>
						<g id="XMLID_00000016783129167964420020000006028808379616803469_" class="st40">
							<polygon id="XMLID_00000038384925733866172560000011766328341177436066_" class="st9" points="306.29,424.75 285.97,412.73 
								345.57,379.21 366,391.17 							"/>
						</g>
						<g id="XMLID_00000101790989669325983490000003980925278525276350_">
							<polygon id="XMLID_00000091016696035606434720000012399422078320094650_" class="st38" points="296.01,392.16 296.38,392.39 
								306.34,398.29 324.29,388.19 324.66,387.99 314.33,381.86 							"/>
						</g>
						<g id="XMLID_00000030485665659447687450000014663783707828113593_">
							<polygon id="XMLID_00000172438163778648388040000003801880853303275689_" class="st38" points="296.38,392.39 306.34,398.29 
								324.29,388.19 314.32,382.29 							"/>
						</g>
						<g id="XMLID_00000139256954989370899270000009331115700025546880_" class="st40">
							<polygon id="XMLID_00000081623423588500874970000005492753627207987077_" class="st9" points="296.38,392.39 306.34,398.29 
								324.29,388.19 314.32,382.29 							"/>
						</g>
						<g id="XMLID_00000139256517207375028580000016543248343804337590_">
							<path id="XMLID_00000146492429151262176570000013270315187785812122_" class="st38" d="M306.01,428.32l-0.03,2.43
								c0.63,0.01,1.26-0.15,1.83-0.47l64.37-36.21c1.14-0.64,1.85-1.84,1.87-3.15l0.01-0.89L306.01,428.32z"/>
						</g>
						<g id="XMLID_00000136373754476152776700000001455869478689165498_" class="st41">
							<path id="XMLID_00000096038938231633666590000014454561104065739170_" class="st9" d="M306.01,428.32l-0.03,2.43
								c0.63,0.01,1.26-0.15,1.83-0.47l64.37-36.21c1.14-0.64,1.85-1.84,1.87-3.15l0.01-0.89L306.01,428.32z"/>
						</g>
						<g id="XMLID_00000144338561400815065170000008968969008704141487_" class="st7">
							<path id="XMLID_00000129186692544784361780000011053528852568575914_" d="M306.01,428.32l-0.03,2.43
								c0.63,0.01,1.26-0.15,1.83-0.47l64.37-36.21c1.14-0.64,1.85-1.84,1.87-3.15l0.01-0.89L306.01,428.32z"/>
						</g>
						<g id="XMLID_00000129207585520208605380000012168798709132322188_">
							<path id="XMLID_00000156588287676026354760000010210888262958776729_" class="st38" d="M307.03,428.87
								c1.2,0.48,2.58,0.41,3.74-0.25l64.09-36.05c1.13-0.63,1.91-1.73,2.14-3l7.44-41.49c0.04-0.24,0.06-0.47,0.07-0.71
								c0.01-1.16-0.44-2.27-1.25-3.09l-66.6,37.47c-0.83,0.47-1.41,1.28-1.58,2.22L307.03,428.87z"/>
						</g>
						<g id="XMLID_00000026123975053266457860000001879827872648823739_" class="st21">
							<path id="XMLID_00000181045858369536076340000000914871629492180099_" class="st9" d="M307.03,428.87
								c1.2,0.48,2.58,0.41,3.74-0.25l64.09-36.05c1.13-0.63,1.91-1.73,2.14-3l7.44-41.49c0.04-0.24,0.06-0.47,0.07-0.71
								c0.01-1.16-0.44-2.27-1.25-3.09l-66.6,37.47c-0.83,0.47-1.41,1.28-1.58,2.22L307.03,428.87z"/>
						</g>
						<g id="XMLID_00000129181143087742112810000003512148245707652527_">
							<path id="XMLID_00000175280529266240936830000001283109406558540942_" class="st38" d="M306.01,428.32l0.43,0.25
								c0.19,0.11,0.39,0.21,0.59,0.3l8.04-44.91c0.17-0.94,0.75-1.75,1.58-2.22l66.6-37.47c-0.25-0.26-0.55-0.49-0.88-0.68
								l-66.74,37.54c-0.83,0.47-1.41,1.28-1.58,2.22L306.01,428.32z"/>
						</g>
						<g id="XMLID_00000039826492746738541060000006849570230408715413_" class="st40">
							<path id="XMLID_00000164506627350470136130000007576498864836053396_" class="st9" d="M306.01,428.32l0.43,0.25
								c0.19,0.11,0.39,0.21,0.59,0.3l8.04-44.91c0.17-0.94,0.75-1.75,1.58-2.22l66.6-37.47c-0.25-0.26-0.55-0.49-0.88-0.68
								l-66.74,37.54c-0.83,0.47-1.41,1.28-1.58,2.22L306.01,428.32z"/>
						</g>
						<path class="st38" d="M315.69,382.59l-1.02-0.61c-0.3,0.4-0.52,0.86-0.61,1.36l-8.05,44.97l0.43,0.25
							c0.19,0.11,0.39,0.21,0.59,0.3l8.04-44.91C315.16,383.45,315.38,382.99,315.69,382.59z"/>
						<path class="st23" d="M315.69,382.59l-1.02-0.61c-0.3,0.4-0.52,0.86-0.61,1.36l-8.05,44.97l0.43,0.25
							c0.19,0.11,0.39,0.21,0.59,0.3l8.04-44.91C315.16,383.45,315.38,382.99,315.69,382.59z"/>
						<path class="st42" d="M315.69,382.59l-1.02-0.61c-0.3,0.4-0.52,0.86-0.61,1.36l-8.05,44.97l0.43,0.25
							c0.19,0.11,0.39,0.21,0.59,0.3l8.04-44.91C315.16,383.45,315.38,382.99,315.69,382.59z"/>
						<g id="XMLID_00000071549630376411212580000008321667444366786960_">
							<path id="XMLID_00000090279489478677077990000013277869884112014512_" class="st38" d="M343.33,390.89
								c0.5-2.78,3.41-6.44,6.51-8.19c3.1-1.74,5.21-0.9,4.71,1.88c-0.5,2.78-3.41,6.44-6.51,8.18
								C344.94,394.51,342.83,393.67,343.33,390.89z"/>
						</g>
					</g>
				</g>
				<path class="st33" d="M266.14,398.29c3.7,4.6,8.58,2.85,13.37,3.38c4.79,0.53,9.27,1.83,13.1,2.14
					c3.77,0.31,4.89,1.89,2.92,3.98c-2.8,2.97-10.39,1.42-12.46,2.38c-2.07,0.96-3.33,4.33-0.89,7.1c2.28,2.6-12.87-2.31-14.92-5.39
					C265.21,408.79,263.41,398.71,266.14,398.29z"/>
				<path class="st5" d="M227.53,347.8c2.26-5.84,9.44-20.14,12.93-25.8c3.49-5.66,8.81-8.29,16.1-10.43
					c10.27,3.95,8.28,20.89,7.06,26.24c-1.21,5.34-16.56,37.25-16.56,37.25l15.98,18.62c0,0-4.66,0.77-9.23,5.43
					c-4.57,4.66-5.23,9.04-5.23,9.04s-18.26-13.16-23.88-17.85c-5.61-4.69-8.51-8.69-5.92-17.72
					C221.39,363.53,225.28,353.64,227.53,347.8z"/>
				<path class="st4" d="M247.08,375.06c-3.39-3.14-9.22-2.23-12.07-1.09c8.34-0.34,14.25,3.62,14.25,3.62L247.08,375.06z"/>
			</g>
		</g>
	</g>
</g>
</svg>
