<?xml version="1.0" encoding="utf-8"?>
<!-- Generator: Adobe Illustrator 25.4.1, SVG Export Plug-In . SVG Version: 6.00 Build 0)  -->
<svg version="1.1" xmlns="http://www.w3.org/2000/svg" xmlns:xlink="http://www.w3.org/1999/xlink" x="0px" y="0px"
	 viewBox="0 0 750 500" style="enable-background:new 0 0 750 500;" xml:space="preserve">
<style type="text/css">
	.st0{fill:#E0E0E0;}
	.st1{fill:#EBEBEB;}
	.st2{opacity:0.9;fill:#F5F5F5;enable-background:new    ;}
	.st3{fill:#FFFFFF;}
	.st4{opacity:0.9;fill:#EBEBEB;enable-background:new    ;}
	.st5{fill:#F5F5F5;}
	.st6{fill:#E6E6E6;}
	.st7{display:none;}
	.st8{display:inline;}
	.st9{fill:#407BFF;}
	.st10{opacity:0.9;fill:#FFFFFF;}
	.st11{opacity:0.8;fill:#FFFFFF;enable-background:new    ;}
	.st12{opacity:0.2;}
	.st13{opacity:0.3;fill:#FFFFFF;enable-background:new    ;}
	.st14{fill:#263238;}
	.st15{opacity:0.7;fill:#FFFFFF;}
	.st16{opacity:0.3;fill:#FFFFFF;}
	.st17{opacity:0.3;}
	.st18{fill:#FDBBB5;}
	.st19{opacity:0.2;enable-background:new    ;}
	.st20{fill:#EE7C74;}
	.st21{fill:#FF9885;}
	.st22{fill:#DB7163;}
	.st23{fill:#D78163;}
	.st24{fill:#703131;}
	.st25{fill:#D7504D;}
	.st26{opacity:0.4;fill:#FFFFFF;}
	.st27{opacity:0.5;}
</style>
<g id="Background_complete">
	<g>
		<g>
			<g>
				<g>
					<g>
						<g>
							<path class="st0" d="M673.73,310.78H492.99c-3.23,0-5.86-2.63-5.86-5.86V41.65c0-3.23,2.63-5.86,5.86-5.86h180.75
								c3.23,0,5.86,2.63,5.86,5.86v263.27C679.6,308.15,676.97,310.78,673.73,310.78z M492.99,36.04c-3.09,0-5.61,2.52-5.61,5.61
								v263.27c0,3.09,2.52,5.61,5.61,5.61h180.75c3.09,0,5.61-2.52,5.61-5.61V41.65c0-3.09-2.52-5.61-5.61-5.61H492.99z"/>
						</g>
					</g>
					<g>
						<g>
							<path class="st0" d="M465.31,310.78H284.56c-3.23,0-5.86-2.63-5.86-5.86V41.65c0-3.23,2.63-5.86,5.86-5.86h180.75
								c3.23,0,5.86,2.63,5.86,5.86v263.27C471.17,308.15,468.54,310.78,465.31,310.78z M284.56,36.04c-3.09,0-5.61,2.52-5.61,5.61
								v263.27c0,3.09,2.52,5.61,5.61,5.61h180.75c3.09,0,5.61-2.52,5.61-5.61V41.65c0-3.09-2.52-5.61-5.61-5.61H284.56z"/>
						</g>
					</g>
				</g>
				<g>
					<g>
						<g>
							<path class="st0" d="M257.01,310.78H76.27c-3.23,0-5.86-2.63-5.86-5.86V41.65c0-3.23,2.63-5.86,5.86-5.86h180.75
								c3.23,0,5.86,2.63,5.86,5.86v263.27C262.87,308.15,260.24,310.78,257.01,310.78z M76.27,36.04c-3.09,0-5.61,2.52-5.61,5.61
								v263.27c0,3.09,2.52,5.61,5.61,5.61h180.75c3.09,0,5.61-2.52,5.61-5.61V41.65c0-3.09-2.52-5.61-5.61-5.61H76.27z"/>
						</g>
					</g>
				</g>
			</g>
			<g>
				<g>
					<rect y="371.85" class="st0" width="750" height="0.12"/>
				</g>
			</g>
		</g>
		<g>
			<rect x="653.63" y="401.23" class="st1" width="55.73" height="0.42"/>
			<rect x="495.04" y="405.79" class="st1" width="14.63" height="0.42"/>
			<rect x="40.64" y="388.43" class="st1" width="72.67" height="0.42"/>
			<rect x="128.3" y="388.43" class="st1" width="10.66" height="0.42"/>
			<rect x="173.59" y="395.54" class="st1" width="157.61" height="0.42"/>
		</g>
	</g>
	<g>
		<g>
			<rect x="411.37" y="148.52" class="st0" width="78.96" height="62.19"/>
			<rect x="415.41" y="152.67" class="st2" width="70.75" height="53.9"/>
			<rect x="419.22" y="157.41" class="st3" width="63.36" height="45.18"/>
			<rect x="430.03" y="166.04" class="st4" width="44.21" height="27.16"/>
		</g>
	</g>
	<g>
		<g>
			<rect x="274.7" y="147.8" class="st0" width="78.96" height="62.19"/>
			<rect x="278.74" y="151.95" class="st2" width="70.75" height="53.9"/>
			<rect x="282.56" y="156.69" class="st3" width="63.36" height="45.18"/>
			<rect x="293.37" y="165.32" class="st4" width="44.21" height="27.16"/>
		</g>
	</g>
	<rect x="14.73" y="256.18" class="st5" width="711.17" height="196.17"/>
	<rect x="14.73" y="437.46" class="st6" width="711.17" height="14.89"/>
</g>
<g id="Background_simple" class="st7">
	<g class="st8">
		<path class="st9" d="M319.88,44.52c-18,2.38-35.35,7.43-50.74,15.37c-18.14,9.35-36.67,23.92-31.2,42.97
			c10.11,35.17,58.59,35.81,48.91,59.47c-10.96,26.79-3.61,58.21,45.59,66.95c93.45,16.6,206.42-80.52,174.69-133.88
			C487.38,62.17,415.43,31.91,319.88,44.52z"/>
		<path class="st10" d="M319.88,44.52c-18,2.38-35.35,7.43-50.74,15.37c-18.14,9.35-36.67,23.92-31.2,42.97
			c10.11,35.17,58.59,35.81,48.91,59.47c-10.96,26.79-3.61,58.21,45.59,66.95c93.45,16.6,206.42-80.52,174.69-133.88
			C487.38,62.17,415.43,31.91,319.88,44.52z"/>
	</g>
</g>
<g id="Window">
	<g>
		<rect x="534.41" y="62.02" class="st9" width="163.37" height="387.09"/>
		<rect x="534.41" y="62.02" class="st11" width="163.37" height="387.09"/>
		<path class="st9" d="M586.31,62.42c0,50.39,0,100.78,0,151.17c0,50.13,0,100.26,0,150.4c0,28.28,0,56.56,0,84.84
			c0,0.48,0.75,0.48,0.75,0c0-50.39,0-100.78,0-151.17c0-50.13,0-100.26,0-150.4c0-28.28,0-56.56,0-84.84
			C587.06,61.94,586.31,61.94,586.31,62.42L586.31,62.42z"/>
		<path class="st9" d="M644.79,62.64c0,50.53,0,101.06,0,151.59c0,50.27,0,100.54,0,150.82c0,28.36,0,56.72,0,85.08
			c0,0.48,0.75,0.48,0.75,0c0-50.53,0-101.06,0-151.59c0-50.27,0-100.54,0-150.82c0-28.36,0-56.72,0-85.08
			C645.54,62.16,644.79,62.16,644.79,62.64L644.79,62.64z"/>
		<path class="st9" d="M535.19,111.98c20.96,0,41.92,0,62.88,0c20.96,0,41.92,0,62.88,0c11.81,0,23.62,0,35.43,0
			c0.48,0,0.48-0.75,0-0.75c-20.96,0-41.92,0-62.88,0c-20.96,0-41.92,0-62.88,0c-11.81,0-23.62,0-35.43,0
			C534.7,111.23,534.7,111.98,535.19,111.98L535.19,111.98z"/>
		<path class="st9" d="M535.19,160.23c20.96,0,41.92,0,62.88,0c20.96,0,41.92,0,62.88,0c11.81,0,23.62,0,35.43,0
			c0.48,0,0.48-0.75,0-0.75c-20.96,0-41.92,0-62.88,0c-20.96,0-41.92,0-62.88,0c-11.81,0-23.62,0-35.43,0
			C534.7,159.48,534.7,160.23,535.19,160.23L535.19,160.23z"/>
		<path class="st9" d="M535.19,208.48c20.96,0,41.92,0,62.88,0c20.96,0,41.92,0,62.88,0c11.81,0,23.62,0,35.43,0
			c0.48,0,0.48-0.75,0-0.75c-20.96,0-41.92,0-62.88,0c-20.96,0-41.92,0-62.88,0c-11.81,0-23.62,0-35.43,0
			C534.7,207.73,534.7,208.48,535.19,208.48L535.19,208.48z"/>
		<path class="st9" d="M535.19,256.73c20.96,0,41.92,0,62.88,0c20.96,0,41.92,0,62.88,0c11.81,0,23.62,0,35.43,0
			c0.48,0,0.48-0.75,0-0.75c-20.96,0-41.92,0-62.88,0c-20.96,0-41.92,0-62.88,0c-11.81,0-23.62,0-35.43,0
			C534.7,255.98,534.7,256.73,535.19,256.73L535.19,256.73z"/>
		<path class="st9" d="M535.19,304.98c20.96,0,41.92,0,62.88,0c20.96,0,41.92,0,62.88,0c11.81,0,23.62,0,35.43,0
			c0.48,0,0.48-0.75,0-0.75c-20.96,0-41.92,0-62.88,0c-20.96,0-41.92,0-62.88,0c-11.81,0-23.62,0-35.43,0
			C534.7,304.23,534.7,304.98,535.19,304.98L535.19,304.98z"/>
		<path class="st9" d="M535.19,353.23c20.96,0,41.92,0,62.88,0c20.96,0,41.92,0,62.88,0c11.81,0,23.62,0,35.43,0
			c0.48,0,0.48-0.75,0-0.75c-20.96,0-41.92,0-62.88,0c-20.96,0-41.92,0-62.88,0c-11.81,0-23.62,0-35.43,0
			C534.7,352.48,534.7,353.23,535.19,353.23L535.19,353.23z"/>
		<path class="st9" d="M535.19,401.48c20.96,0,41.92,0,62.88,0c20.96,0,41.92,0,62.88,0c11.81,0,23.62,0,35.43,0
			c0.48,0,0.48-0.75,0-0.75c-20.96,0-41.92,0-62.88,0c-20.96,0-41.92,0-62.88,0c-11.81,0-23.62,0-35.43,0
			C534.7,400.73,534.7,401.48,535.19,401.48L535.19,401.48z"/>
		<path class="st12" d="M542.36,449.11l-3.07-381.54c0,0,158.49,0.66,158.49-0.05c0-3.53,0-5.5,0-5.5H534.41v387.09H542.36z"/>
		<path class="st13" d="M697.78,62.02c0,0-60.69,69.12-69.76,69.54c-9.07,0.42-11.92-19.81-29.56-6.41s-64.06,71.5-64.06,71.5v31.23
			c0,0,63.77-88.17,74.16-84.28c10.39,3.89,11.41,24.95,26.15,13.01c14.73-11.94,63.07-58.49,63.07-58.49V62.02z"/>
		<path class="st13" d="M534.41,319.67c0,0,56.25-72.22,66.58-61.89c10.34,10.33,12.99,60.9,36.06,48.31s60.39-43.68,60.39-43.68
			v33.98c0,0-50.11,38.41-71.92,29.4c-21.81-9.01-22.93-42.88-30.38-37.94c-7.44,4.95-60.73,79.16-60.73,79.16V319.67z"/>
	</g>
</g>
<g id="Elevator_00000059988096757821769120000013236448701723757230_">
	<g>
		<rect x="51.55" y="84.71" class="st14" width="166.38" height="367.54"/>
		<rect x="51.55" y="84.71" class="st15" width="166.38" height="367.54"/>
		<rect x="64.15" y="109.89" class="st16" width="141.2" height="342.36"/>
		<path class="st16" d="M74.65,452.39c4.37-3.09,8.73-6.19,13.1-9.28c10.48-7.43,20.97-14.86,31.45-22.29
			c12.64-8.96,25.28-17.92,37.93-26.88c10.93-7.74,21.86-15.49,32.78-23.23c5.32-3.77,10.68-7.49,15.96-11.31
			c0.07-0.05,0.15-0.1,0.22-0.16c1.56-1.11,0.07-3.71-1.51-2.59c-4.37,3.09-8.73,6.19-13.1,9.28
			c-10.48,7.43-20.97,14.86-31.45,22.29c-12.64,8.96-25.28,17.92-37.93,26.88c-10.93,7.74-21.86,15.49-32.78,23.23
			c-5.32,3.77-10.68,7.49-15.96,11.31c-0.07,0.05-0.15,0.1-0.22,0.16C71.58,450.91,73.07,453.51,74.65,452.39L74.65,452.39z"/>
		<g class="st17">
			<path class="st3" d="M65.84,333.51c26.11-17.07,51.83-34.78,77.11-53.12c4.14-3,8.57-6.49,9.61-11.59
				c1.23-6.04-2.94-11.99-8-15.3c-5.05-3.3-11.01-4.8-16.36-7.56c-5.36-2.75-10.45-7.43-11.06-13.56
				c-0.66-6.71,4.16-12.57,8.91-17.21c22.85-22.34,51.21-37.57,79.17-52.51l0.55,31.05c-15.44,5.56-30.34,12.7-44.42,21.27
				c-4.7,2.86-9.93,7.13-9.25,12.71c0.5,4.07,4.09,6.98,7.7,8.71c3.62,1.72,7.62,2.79,10.68,5.42c5.51,4.73,6.42,13.22,4.91,20.44
				c-3.65,17.52-18.04,30.15-31.57,41.4c-26.38,21.93-52.76,43.87-79.14,65.8"/>
		</g>
		<path class="st14" d="M133.99,110.99c0,44.62,0,89.23,0,133.85c0,44.3,0,88.59,0,132.89c0,24.94,0,49.89,0,74.83
			c0,0.97,1.5,0.97,1.5,0c0-44.62,0-89.23,0-133.85c0-44.3,0-88.59,0-132.89c0-24.94,0-49.89,0-74.83
			C135.49,110.02,133.99,110.02,133.99,110.99L133.99,110.99z"/>
		<rect x="117.44" y="92.62" class="st14" width="34.61" height="9.01"/>
		<g>
			<rect x="27.13" y="250.7" class="st14" width="15.65" height="35.2"/>
			<path class="st9" d="M39.35,260.04c0,2.5-1.96,4.52-4.38,4.52c-2.42,0-4.38-2.02-4.38-4.52c0-2.5,1.96-4.52,4.38-4.52
				C37.38,255.52,39.35,257.55,39.35,260.04z"/>
			<path class="st9" d="M39.35,275.35c0,2.5-1.96,4.52-4.38,4.52c-2.42,0-4.38-2.02-4.38-4.52c0-2.5,1.96-4.52,4.38-4.52
				C37.38,270.83,39.35,272.85,39.35,275.35z"/>
		</g>
		<polygon class="st12" points="71.33,452.55 71.65,117 205.34,117 205.34,109.89 64.15,109.89 64.15,452.25 		"/>
	</g>
</g>
<g id="Clocks">
	<g>
		<g>
			<g>
				
					<ellipse transform="matrix(0.159 -0.9873 0.9873 0.159 170.2051 386.9868)" class="st14" cx="312.24" cy="93.59" rx="24.82" ry="24.82"/>
				<g>
					
						<ellipse transform="matrix(0.9079 -0.4191 0.4191 0.9079 -10.481 139.4702)" class="st9" cx="312.24" cy="93.59" rx="22.29" ry="22.29"/>
					
						<ellipse transform="matrix(0.0355 -0.9994 0.9994 0.0355 207.6113 402.3109)" class="st15" cx="312.24" cy="93.59" rx="22.29" ry="22.29"/>
					<path class="st15" d="M319.79,72.62c0,0-13.06,12.87-11.52,17.18c2.95,8.21,4.92,10.89-10.31,20.92l3.92,2.62
						c0,0,16.85-13.47,15.49-19.27c-1.11-4.7-5.23-4.88-2.76-8.65c2.43-3.7,10.39-10.09,10.39-10.09
						C323.38,74.26,321.63,73.37,319.79,72.62z"/>
				</g>
			</g>
			<path class="st14" d="M294.69,94.72c1.34,0,2.68,0,4.02,0c0.48,0,0.48-0.75,0-0.75c-0.08,0-0.17,0-0.25,0
				c-0.48,0-0.48,0.75,0,0.75c0.08,0,0.17,0,0.25,0c0.48,0,0.48-0.75,0-0.75c-1.34,0-2.68,0-4.02,0
				C294.2,93.97,294.2,94.72,294.69,94.72L294.69,94.72z"/>
			<path class="st14" d="M300.67,107.94c0.89-1.01,1.77-2.01,2.66-3.02c-0.18-0.18-0.35-0.35-0.53-0.53
				c-0.06,0.06-0.11,0.13-0.17,0.19c-0.13,0.15-0.15,0.38,0,0.53c0.14,0.14,0.4,0.15,0.53,0c0.06-0.06,0.11-0.13,0.17-0.19
				c0.13-0.15,0.15-0.38,0-0.53c-0.14-0.14-0.4-0.15-0.53,0c-0.89,1.01-1.77,2.01-2.66,3.02c-0.13,0.15-0.15,0.38,0,0.53
				C300.28,108.08,300.54,108.1,300.67,107.94L300.67,107.94z"/>
			<path class="st14" d="M314.51,112.44c-0.02-1.34-0.05-2.68-0.07-4.02c-0.25,0-0.5,0-0.75,0c0,0.08,0,0.17,0,0.25
				c0.01,0.48,0.76,0.48,0.75,0c0-0.08,0-0.17,0-0.25c-0.01-0.48-0.76-0.48-0.75,0c0.02,1.34,0.05,2.68,0.07,4.02
				C313.77,112.93,314.52,112.93,314.51,112.44L314.51,112.44z"/>
			<path class="st14" d="M312.41,74.98c0,1.34,0,2.68,0,4.02c0,0.48,0.75,0.48,0.75,0c0-0.08,0-0.17,0-0.25c0-0.48-0.75-0.48-0.75,0
				c0,0.08,0,0.17,0,0.25c0,0.48,0.75,0.48,0.75,0c0-1.34,0-2.68,0-4.02C313.16,74.49,312.41,74.49,312.41,74.98L312.41,74.98z"/>
			<path class="st14" d="M299.19,80.97c1.01,0.89,2.01,1.77,3.02,2.66c0.15,0.13,0.38,0.15,0.53,0c0.14-0.14,0.15-0.4,0-0.53
				c-0.06-0.06-0.13-0.11-0.19-0.17c-0.15-0.13-0.38-0.15-0.53,0c-0.14,0.14-0.15,0.4,0,0.53c0.06,0.06,0.13,0.11,0.19,0.17
				c0.18-0.18,0.35-0.35,0.53-0.53c-1.01-0.89-2.01-1.77-3.02-2.66c-0.15-0.13-0.38-0.15-0.53,0
				C299.05,80.57,299.03,80.83,299.19,80.97L299.19,80.97z"/>
			<path class="st14" d="M331.28,94.08c-1.34,0-2.68,0-4.02,0c-0.48,0-0.48,0.75,0,0.75c0.08,0,0.17,0,0.25,0
				c0.48,0,0.48-0.75,0-0.75c-0.08,0-0.17,0-0.25,0c-0.48,0-0.48,0.75,0,0.75c1.34,0,2.68,0,4.02,0
				C331.76,94.83,331.76,94.08,331.28,94.08L331.28,94.08z"/>
			<path class="st14" d="M325.82,107.53c-0.89-1.01-1.77-2.01-2.66-3.02c-0.18,0.18-0.35,0.35-0.53,0.53
				c0.06,0.06,0.11,0.13,0.17,0.19c0.13,0.15,0.39,0.14,0.53,0c0.15-0.15,0.13-0.38,0-0.53c-0.06-0.06-0.11-0.13-0.17-0.19
				c-0.13-0.15-0.39-0.14-0.53,0c-0.15,0.15-0.13,0.38,0,0.53c0.89,1.01,1.77,2.01,2.66,3.02c0.13,0.15,0.39,0.14,0.53,0
				C325.97,107.91,325.96,107.68,325.82,107.53L325.82,107.53z"/>
			<path class="st14" d="M326.25,80.55c-1.01,0.89-2.01,1.77-3.02,2.66c0.18,0.18,0.35,0.35,0.53,0.53
				c0.06-0.06,0.13-0.11,0.19-0.17c0.15-0.13,0.14-0.39,0-0.53c-0.15-0.15-0.38-0.13-0.53,0c-0.06,0.06-0.13,0.11-0.19,0.17
				c-0.15,0.13-0.14,0.39,0,0.53c0.15,0.15,0.38,0.13,0.53,0c1.01-0.89,2.01-1.77,3.02-2.66c0.15-0.13,0.14-0.39,0-0.53
				C326.63,80.4,326.4,80.41,326.25,80.55L326.25,80.55z"/>
			<path class="st14" d="M308.81,94.31c3.1,0.07,6.2,0.14,9.3,0.21c0.45,0.01,0.89,0.02,1.34,0.03c0.48,0.01,0.48-0.74,0-0.75
				c-3.1-0.07-6.2-0.14-9.3-0.21c-0.45-0.01-0.89-0.02-1.34-0.03C308.33,93.55,308.33,94.3,308.81,94.31L308.81,94.31z"/>
			<path class="st14" d="M317.91,77.84c-2.06,6.03-4.11,12.06-6.17,18.09c-0.29,0.85-0.58,1.71-0.87,2.56
				c-0.16,0.46,0.57,0.65,0.72,0.2c2.06-6.03,4.11-12.06,6.17-18.09c0.29-0.85,0.58-1.71,0.87-2.56
				C318.79,77.59,318.06,77.39,317.91,77.84L317.91,77.84z"/>
			<path class="st14" d="M314.62,93.87c0,0.94-0.76,1.69-1.69,1.69c-0.94,0-1.69-0.76-1.69-1.69c0-0.94,0.76-1.69,1.69-1.69
				C313.86,92.17,314.62,92.93,314.62,93.87z"/>
		</g>
		<g>
			
				<ellipse transform="matrix(0.2273 -0.9738 0.9738 0.2273 204.6124 445.067)" class="st14" cx="382.77" cy="93.59" rx="24.82" ry="24.82"/>
			<g>
				
					<ellipse transform="matrix(0.2276 -0.9738 0.9738 0.2276 204.5242 445.0223)" class="st9" cx="382.77" cy="93.59" rx="22.29" ry="22.29"/>
				
					<ellipse transform="matrix(0.5678 -0.8232 0.8232 0.5678 88.3982 355.5445)" class="st15" cx="382.77" cy="93.59" rx="22.29" ry="22.29"/>
				<path class="st15" d="M390.32,72.62c0,0-13.06,12.87-11.52,17.18c2.95,8.21,4.92,10.89-10.31,20.92l3.92,2.62
					c0,0,16.85-13.47,15.49-19.27c-1.11-4.7-5.23-4.88-2.76-8.65c2.43-3.7,10.39-10.09,10.39-10.09
					C393.91,74.26,392.16,73.37,390.32,72.62z"/>
			</g>
		</g>
		<path class="st14" d="M365.22,94.72c1.34,0,2.68,0,4.02,0c0.48,0,0.48-0.75,0-0.75c-0.08,0-0.17,0-0.25,0
			c-0.48,0-0.48,0.75,0,0.75c0.08,0,0.17,0,0.25,0c0.48,0,0.48-0.75,0-0.75c-1.34,0-2.68,0-4.02,0
			C364.74,93.97,364.74,94.72,365.22,94.72L365.22,94.72z"/>
		<path class="st14" d="M371.21,107.94c0.89-1.01,1.77-2.01,2.66-3.02c0.13-0.15,0.15-0.38,0-0.53c-0.14-0.14-0.4-0.15-0.53,0
			c-0.06,0.06-0.11,0.13-0.17,0.19c-0.13,0.15-0.15,0.38,0,0.53c0.14,0.14,0.4,0.15,0.53,0c0.06-0.06,0.11-0.13,0.17-0.19
			c-0.18-0.18-0.35-0.35-0.53-0.53c-0.89,1.01-1.77,2.01-2.66,3.02c-0.13,0.15-0.15,0.38,0,0.53
			C370.81,108.08,371.07,108.1,371.21,107.94L371.21,107.94z"/>
		<path class="st14" d="M385.04,112.44c-0.02-1.34-0.05-2.68-0.07-4.02c-0.25,0-0.5,0-0.75,0c0,0.08,0,0.17,0,0.25
			c0.01,0.48,0.76,0.48,0.75,0c0-0.08,0-0.17,0-0.25c-0.01-0.48-0.76-0.48-0.75,0c0.02,1.34,0.05,2.68,0.07,4.02
			C384.3,112.93,385.05,112.93,385.04,112.44L385.04,112.44z"/>
		<path class="st14" d="M382.94,74.98c0,1.34,0,2.68,0,4.02c0,0.48,0.75,0.48,0.75,0c0-0.08,0-0.17,0-0.25c0-0.48-0.75-0.48-0.75,0
			c0,0.08,0,0.17,0,0.25c0,0.48,0.75,0.48,0.75,0c0-1.34,0-2.68,0-4.02C383.69,74.49,382.94,74.49,382.94,74.98L382.94,74.98z"/>
		<path class="st14" d="M369.72,80.97c1.01,0.89,2.01,1.77,3.02,2.66c0.18-0.18,0.35-0.35,0.53-0.53c-0.06-0.06-0.13-0.11-0.19-0.17
			c-0.15-0.13-0.38-0.15-0.53,0c-0.14,0.14-0.15,0.4,0,0.53c0.06,0.06,0.13,0.11,0.19,0.17c0.15,0.13,0.38,0.15,0.53,0
			c0.14-0.14,0.15-0.4,0-0.53c-1.01-0.89-2.01-1.77-3.02-2.66c-0.15-0.13-0.38-0.15-0.53,0C369.58,80.57,369.57,80.83,369.72,80.97
			L369.72,80.97z"/>
		<path class="st14" d="M401.81,94.08c-1.34,0-2.68,0-4.02,0c-0.48,0-0.48,0.75,0,0.75c0.08,0,0.17,0,0.25,0
			c0.48,0,0.48-0.75,0-0.75c-0.08,0-0.17,0-0.25,0c-0.48,0-0.48,0.75,0,0.75c1.34,0,2.68,0,4.02,0
			C402.3,94.83,402.3,94.08,401.81,94.08L401.81,94.08z"/>
		<path class="st14" d="M396.36,107.53c-0.89-1.01-1.77-2.01-2.66-3.02c-0.18,0.18-0.35,0.35-0.53,0.53
			c0.06,0.06,0.11,0.13,0.17,0.19c0.13,0.15,0.39,0.14,0.53,0c0.15-0.15,0.13-0.38,0-0.53c-0.06-0.06-0.11-0.13-0.17-0.19
			c-0.13-0.15-0.39-0.14-0.53,0c-0.15,0.15-0.13,0.38,0,0.53c0.89,1.01,1.77,2.01,2.66,3.02c0.13,0.15,0.39,0.14,0.53,0
			C396.51,107.91,396.49,107.68,396.36,107.53L396.36,107.53z"/>
		<path class="st14" d="M396.78,80.55c-1.01,0.89-2.01,1.77-3.02,2.66c0.18,0.18,0.35,0.35,0.53,0.53c0.06-0.06,0.13-0.11,0.19-0.17
			c0.15-0.13,0.14-0.39,0-0.53c-0.15-0.15-0.38-0.13-0.53,0c-0.06,0.06-0.13,0.11-0.19,0.17c-0.15,0.13-0.14,0.39,0,0.53
			c0.15,0.15,0.38,0.13,0.53,0c1.01-0.89,2.01-1.77,3.02-2.66c0.15-0.13,0.14-0.39,0-0.53C397.16,80.4,396.94,80.41,396.78,80.55
			L396.78,80.55z"/>
		<path class="st14" d="M379.35,94.31c3.1,0.07,6.2,0.14,9.3,0.21c0.45,0.01,0.89,0.02,1.34,0.03c0.48,0.01,0.48-0.74,0-0.75
			c-3.1-0.07-6.2-0.14-9.3-0.21c-0.45-0.01-0.89-0.02-1.34-0.03C378.86,93.55,378.86,94.3,379.35,94.31L379.35,94.31z"/>
		<path class="st14" d="M385,88.17c-2.06,6.03-4.11,12.06-6.17,18.09c-0.29,0.85-0.58,1.71-0.87,2.56c-0.16,0.46,0.57,0.65,0.72,0.2
			c2.06-6.03,4.11-12.06,6.17-18.09c0.29-0.85,0.58-1.71,0.87-2.56C385.88,87.91,385.15,87.71,385,88.17L385,88.17z"/>
		<path class="st14" d="M385.15,93.87c0,0.94-0.76,1.69-1.69,1.69c-0.94,0-1.69-0.76-1.69-1.69c0-0.94,0.76-1.69,1.69-1.69
			C384.39,92.17,385.15,92.93,385.15,93.87z"/>
		<g>
			<g>
				
					<ellipse transform="matrix(0.1675 -0.9859 0.9859 0.1675 285.949 525.8022)" class="st14" cx="454.3" cy="93.59" rx="24.82" ry="24.82"/>
				<g>
					
						<ellipse transform="matrix(0.9362 -0.3515 0.3515 0.9362 -3.9065 165.67)" class="st9" cx="454.3" cy="93.59" rx="22.29" ry="22.29"/>
					
						<ellipse transform="matrix(0.089 -0.996 0.996 0.089 320.6238 537.7521)" class="st15" cx="454.3" cy="93.59" rx="22.29" ry="22.29"/>
					<path class="st15" d="M461.85,72.62c0,0-13.06,12.87-11.52,17.18c2.95,8.21,4.92,10.89-10.31,20.92l3.92,2.62
						c0,0,16.85-13.47,15.49-19.27c-1.11-4.7-5.23-4.88-2.76-8.65c2.43-3.7,10.39-10.09,10.39-10.09
						C465.43,74.26,463.69,73.37,461.85,72.62z"/>
				</g>
			</g>
			<path class="st14" d="M436.74,94.72c1.34,0,2.68,0,4.02,0c0.48,0,0.48-0.75,0-0.75c-0.08,0-0.17,0-0.25,0
				c-0.48,0-0.48,0.75,0,0.75c0.08,0,0.17,0,0.25,0c0.48,0,0.48-0.75,0-0.75c-1.34,0-2.68,0-4.02,0
				C436.26,93.97,436.26,94.72,436.74,94.72L436.74,94.72z"/>
			<path class="st14" d="M442.73,107.94c0.89-1.01,1.77-2.01,2.66-3.02c-0.18-0.18-0.35-0.35-0.53-0.53
				c-0.06,0.06-0.11,0.13-0.17,0.19c-0.13,0.15-0.15,0.38,0,0.53c0.14,0.14,0.4,0.15,0.53,0c0.06-0.06,0.11-0.13,0.17-0.19
				c0.13-0.15,0.15-0.38,0-0.53c-0.14-0.14-0.4-0.15-0.53,0c-0.89,1.01-1.77,2.01-2.66,3.02c-0.13,0.15-0.15,0.38,0,0.53
				C442.34,108.08,442.6,108.1,442.73,107.94L442.73,107.94z"/>
			<path class="st14" d="M456.57,112.44c-0.02-1.34-0.05-2.68-0.07-4.02c-0.01-0.48-0.76-0.48-0.75,0c0,0.08,0,0.17,0,0.25
				c0.01,0.48,0.76,0.48,0.75,0c0-0.08,0-0.17,0-0.25c-0.25,0-0.5,0-0.75,0c0.02,1.34,0.05,2.68,0.07,4.02
				C455.82,112.93,456.57,112.93,456.57,112.44L456.57,112.44z"/>
			<path class="st14" d="M454.47,74.98c0,1.34,0,2.68,0,4.02c0,0.48,0.75,0.48,0.75,0c0-0.08,0-0.17,0-0.25c0-0.48-0.75-0.48-0.75,0
				c0,0.08,0,0.17,0,0.25c0,0.48,0.75,0.48,0.75,0c0-1.34,0-2.68,0-4.02C455.22,74.49,454.47,74.49,454.47,74.98L454.47,74.98z"/>
			<path class="st14" d="M441.24,80.97c1.01,0.89,2.01,1.77,3.02,2.66c0.15,0.13,0.38,0.15,0.53,0c0.14-0.14,0.15-0.4,0-0.53
				c-0.06-0.06-0.13-0.11-0.19-0.17c-0.15-0.13-0.38-0.15-0.53,0c-0.14,0.14-0.15,0.4,0,0.53c0.06,0.06,0.13,0.11,0.19,0.17
				c0.18-0.18,0.35-0.35,0.53-0.53c-1.01-0.89-2.01-1.77-3.02-2.66c-0.15-0.13-0.38-0.15-0.53,0
				C441.11,80.57,441.09,80.83,441.24,80.97L441.24,80.97z"/>
			<path class="st14" d="M473.34,94.08c-1.34,0-2.68,0-4.02,0c-0.48,0-0.48,0.75,0,0.75c0.08,0,0.17,0,0.25,0
				c0.48,0,0.48-0.75,0-0.75c-0.08,0-0.17,0-0.25,0c-0.48,0-0.48,0.75,0,0.75c1.34,0,2.68,0,4.02,0
				C473.82,94.83,473.82,94.08,473.34,94.08L473.34,94.08z"/>
			<path class="st14" d="M467.88,107.53c-0.89-1.01-1.77-2.01-2.66-3.02c-0.18,0.18-0.35,0.35-0.53,0.53
				c0.06,0.06,0.11,0.13,0.17,0.19c0.13,0.15,0.39,0.14,0.53,0c0.15-0.15,0.13-0.38,0-0.53c-0.06-0.06-0.11-0.13-0.17-0.19
				c-0.13-0.15-0.39-0.14-0.53,0c-0.15,0.15-0.13,0.38,0,0.53c0.89,1.01,1.77,2.01,2.66,3.02c0.13,0.15,0.39,0.14,0.53,0
				C468.03,107.91,468.01,107.68,467.88,107.53L467.88,107.53z"/>
			<path class="st14" d="M468.31,80.55c-1.01,0.89-2.01,1.77-3.02,2.66c0.18,0.18,0.35,0.35,0.53,0.53
				c0.06-0.06,0.13-0.11,0.19-0.17c0.15-0.13,0.14-0.39,0-0.53c-0.15-0.15-0.38-0.13-0.53,0c-0.06,0.06-0.13,0.11-0.19,0.17
				c-0.15,0.13-0.14,0.39,0,0.53c0.15,0.15,0.38,0.13,0.53,0c1.01-0.89,2.01-1.77,3.02-2.66c0.15-0.13,0.14-0.39,0-0.53
				C468.69,80.4,468.46,80.41,468.31,80.55L468.31,80.55z"/>
			<path class="st14" d="M450.87,94.31c3.1,0.07,6.2,0.14,9.3,0.21c0.45,0.01,0.89,0.02,1.34,0.03c0.48,0.01,0.48-0.74,0-0.75
				c-3.1-0.07-6.2-0.14-9.3-0.21c-0.45-0.01-0.89-0.02-1.34-0.03C450.39,93.55,450.39,94.3,450.87,94.31L450.87,94.31z"/>
			<path class="st14" d="M451.79,89.72c2.98,5.62,5.96,11.25,8.95,16.87c0.42,0.8,0.85,1.6,1.27,2.4c0.23,0.43,0.87,0.05,0.65-0.38
				c-2.98-5.62-5.96-11.25-8.95-16.87c-0.42-0.8-0.85-1.6-1.27-2.4C452.21,88.91,451.56,89.29,451.79,89.72L451.79,89.72z"/>
			<path class="st14" d="M456.68,93.87c0,0.94-0.76,1.69-1.69,1.69c-0.94,0-1.69-0.76-1.69-1.69c0-0.94,0.76-1.69,1.69-1.69
				C455.92,92.17,456.68,92.93,456.68,93.87z"/>
		</g>
	</g>
</g>
<g id="Character_3">
	<g>
		<g>
			<path class="st18" d="M629.76,299.66l-0.3,1.74c0,0-5.94,5.96-5.49,6.86c0.45,0.91,1.31,0.97,1.72,1.28
				c0.41,0.31-0.32,3.54,0.84,4.06c1.16,0.52,1.79-0.16,1.79-0.16s1.06,1.19,1.75,1.15c0.42-0.02,1.2-0.45,1.2-0.45
				s1.61,1.23,2.24,0.21c0.31-0.5,0.38-0.71,0.38-0.79c0.25,0.13,1.04,0.43,1.43-0.52c0.46-1.14,0.21-10.53,0.21-10.53
				S629.1,299.47,629.76,299.66z"/>
		</g>
		<path class="st14" d="M631.63,249.13c0,0-2.15,20.14-1.94,26.43c0.21,6.3-0.2,25.44-0.2,25.44l5.98,1.06c0,0,3.88-20.36,3.79-26.5
			c-0.09-6.15-0.68-25.64-0.68-25.64l-1.7-13.94L631.63,249.13z"/>
		<path class="st19" d="M631.63,249.13c0,0-2.15,20.14-1.94,26.43c0.21,6.3-0.2,25.44-0.2,25.44l5.98,1.06c0,0,3.88-20.36,3.79-26.5
			c-0.09-6.15-0.68-25.64-0.68-25.64l-1.7-13.94L631.63,249.13z"/>
		<g>
			<g>
				<path class="st9" d="M585.42,355.63c0,0,6.48-31.17,8.39-33.74s7.18-3.56,11.18-3.08c4,0.48,56.11,12.82,57.36,17.08
					c1.25,4.26-6.75,35.77-7.72,36.06c-0.97,0.29-11.73,1.68-14.13,1.25C638.1,372.77,585.42,355.63,585.42,355.63z"/>
				<path class="st16" d="M585.42,355.63c0,0,6.48-31.17,8.39-33.74s7.18-3.56,11.18-3.08c4,0.48,56.11,12.82,57.36,17.08
					c1.25,4.26-6.75,35.77-7.72,36.06c-0.97,0.29-11.73,1.68-14.13,1.25C638.1,372.77,585.42,355.63,585.42,355.63z"/>
				<path class="st14" d="M599.64,331.52c0,0,18.64-21.91,25.25-21.71c0,0,13.42,4.26,13.74,4.96c0.32,0.7-8.44,27.6-8.44,27.6
					l-5.15-2.05c0,0,10.75-21.45,10.7-23.19c-0.05-1.74-10.62-5.29-12.04-5.03c-1.42,0.26-2.12,0.57-2.93,1.35
					c-0.81,0.78-16.86,19.28-16.86,19.28L599.64,331.52z"/>
				<path class="st14" d="M619.43,321.99l3.54-10.45l2.55,0.65c0,0-3.52,10.47-3.18,10.55
					C622.69,322.83,619.43,321.99,619.43,321.99z"/>
				<polygon class="st14" points="636.61,316.61 642.22,328.01 647.17,329.47 638.63,314.76 				"/>
				<path class="st14" d="M585.78,355.73c1.16-3.68,2.25-7.38,3.42-11.05c0.67-2.11,1.35-4.22,2.11-6.31
					c0.77-2.14,1.78-3.98,3.76-5.29c3.69-2.44,8.72-0.44,12.53,0.78c4.21,1.35,8.3,3.04,12.37,4.76c3.03,1.28,6.24,2.32,9.13,3.91
					c3.08,1.7,4.7,4.47,5.55,7.8c1.78,6.95,1.66,14.2,0.24,21.21c-0.1,0.47,0.63,0.67,0.72,0.2c1.28-6.32,1.59-12.97,0.28-19.3
					c-0.65-3.16-1.48-6.39-3.87-8.72c-2.36-2.3-5.74-3.36-8.74-4.55c-4.12-1.63-8.16-3.47-12.33-4.98
					c-2.17-0.78-4.36-1.49-6.58-2.09c-2.02-0.54-4.16-1.12-6.27-0.91c-2.84,0.3-5.46,2.32-6.69,4.88c-0.81,1.67-1.34,3.51-1.92,5.27
					c-1.56,4.7-2.94,9.45-4.43,14.16C584.91,355.99,585.64,356.18,585.78,355.73L585.78,355.73z"/>
				<path class="st14" d="M642.06,373.38c1.96-8.46,3.33-17.06,5.52-25.47c1.01-3.87,2.57-8.04,6.01-10.4
					c2.26-1.54,5.81-1.71,8.45-1.43c0.48,0.05,0.48-0.7,0-0.75c-2.63-0.28-6.18-0.09-8.5,1.32c-3.15,1.9-4.96,5.46-6.05,8.84
					c-1.41,4.38-2.22,9-3.15,13.5c-0.97,4.74-1.91,9.48-3.01,14.19C641.22,373.65,641.95,373.85,642.06,373.38L642.06,373.38z"/>
			</g>
			<path class="st14" d="M655.24,335.52c-18.2-6.45-36.78-11.78-55.63-15.95c-0.47-0.1-0.67,0.62-0.2,0.72
				c18.85,4.17,37.43,9.5,55.63,15.95C655.49,336.4,655.69,335.68,655.24,335.52L655.24,335.52z"/>
		</g>
		<path class="st19" d="M599.64,331.52c0,0,1.34-1.48,13,1.89c11.66,3.38,20.38,7.28,22.88,11.85c2.5,4.57,4.59,19.59,2.05,26.27
			l-2.14-0.54c0,0,3.41-14.3-2.2-25.19C630.52,340.56,599.64,331.52,599.64,331.52z"/>
		<path class="st18" d="M625.98,312.79c0,0-0.81-4.29,0.29-4.62c1.09-0.32,1.93,3.36,1.93,3.36s-0.49-3.79,0.75-3.38
			c1.24,0.41,1.37,3.81,1.37,3.81s-0.32-3.53,0.96-3.02c1.29,0.51,1.03,4.69,0.39,5.33c-0.64,0.64-2.93,0.71-3.33-0.83
			c0,0-1.99,1.18-2.26-0.39"/>
		<path class="st14" d="M685.73,243.19c0.17-2.02-1.14-3.91-2.73-5.18c-1.59-1.27-3.47-2.11-5.12-3.29
			c-3.09-2.21-6.06-5.91-6.77-9.64c-0.93-6-1.24-21.82-6.55-31.68c-5.31-9.86-16.84-6.83-16.84-6.83l-1.84,5.42
			c-4.01,3.73-6.49,8.89-7.68,14.23c-1.19,5.34-1.18,10.88-0.79,16.34c0.44,6.18,1.38,12.39,3.61,18.17
			c0.53,1.36,1.25,2.82,2.62,3.34c2.1,0.79,4.37-1.32,4.63-3.55c0.26-2.23-0.83-4.36-1.88-6.34c5.61,7.75,12.81,14.36,21.1,19.16
			c2.35,1.36,4.85,2.59,7.55,2.86c2.7,0.27,5.65-0.59,7.28-2.75c1.63-2.17,1.42-5.71-0.83-7.22
			C683.35,247.04,685.56,245.22,685.73,243.19z"/>
		<path class="st14" d="M641.24,448.4c7.17-0.56,11.99-5.48,11.5-10.69c-0.27-2.87,8.91-3.13,8.91-3.13
			c-1.45,8.91,0.37,10.18,0.97,12.48s0.45,4.85-1.45,4.89c-2.27,0.06-3.33-0.37-6.19-0.27c-3.31,0.13-6.89,0.26-12.76,0.27
			C639.89,451.97,638.06,448.65,641.24,448.4z"/>
		<path class="st14" d="M716.32,434.62c-2.62-2.81-4.84-5.96-6.6-9.37c0,0-8.2,2.02-6.59,4.42c2.92,4.29,4.34,13.11,0.58,17.83
			c-2.15,2.7,1.25,3.15,3.49,1.99c3.54-1.83,3.42-2.52,5.31-5.56c1.58-2.59,2.21-3.61,4.42-4.72
			C718.71,438.26,717.82,436.45,716.32,434.62z"/>
		<g>
			<path class="st9" d="M632.54,281.25c0,0-0.49,41.07,5.59,72.52c1.44,26.62,14.03,85.15,14.03,85.15
				c3.14,0.74,6.41,0.71,9.53-0.09c0,0,6.36-42.75,0-85.51c4.65-44.82,3.07-72.77,3.07-72.77L632.54,281.25z"/>
			<path class="st19" d="M664.97,301.34c-0.22,12.53-1.01,30.28-3.26,51.98c0.48,3.21,0.88,6.43,1.14,9.62
				C647.28,337.17,643.59,296.44,664.97,301.34z"/>
			<path class="st9" d="M643.16,280.56c0,0,13.81,58.03,22.51,82.81c9.15,26.02,36.05,66.19,37.02,67.92
				c3.59-0.96,6.79-2.22,8.93-4.3c0,0-10.24-41.67-21.8-69.93c-2.99-14.62-4.98-23.17-5.27-38.77
				c-0.54-28.93-13.95-37.73-13.95-37.73L643.16,280.56z"/>
		</g>
		<path class="st14" d="M630.92,238.7c0,0-5.39,12.97,1.61,20.65c0.77,18.83-3.08,24.39-0.56,27.73c3.64,2.65,25.55-3.6,41.93-5.77
			c-1.85-7.53-5.8-23.63-1.24-45.51c0.99-4.72-2.04-9.35-6.76-10.33c-0.3-0.06-0.6-0.11-0.91-0.14c-1.37-0.13-2.83-0.26-4.33-0.33
			c-5.22-0.37-8.19-0.28-13.41,0.09c-0.91,0.08-4.05,0.95-6.78,1.74c-2.85,0.82-5.22,2.81-6.51,5.48
			C632.58,235.16,630.98,238.47,630.92,238.7z"/>
		<g>
			<path class="st18" d="M648.21,224.58c1.08-1.07,1.31-1.91,1.12-3.47c-0.14-1.2-0.52-2.45-0.97-3.67l1.61-1.73l8.38-7.78
				c-0.43,5.41-1.89,14.14,2.22,17.26l2.48,0.7c-1.42,1.07-9.96,10.66-18.05,9.67c-7.36-0.9-2.91-6.72-1.64-8.81
				C645.49,226.17,646.88,225.82,648.21,224.58z"/>
			<path class="st12" d="M649.31,221.8c2.3-0.53,5.62-2.05,6.19-4.67c0.23-1.08,0.26-2.15,0.2-2.86l-6.87,4.26
				C648.91,219.55,649.47,220.33,649.31,221.8z"/>
			<path class="st18" d="M661.73,199.34c-1.14,8.23-1.45,11.72-5.91,15.86c-6.71,6.22-16.48,3.57-17.8-4.69
				c-1.19-7.44,0.87-19.64,9.14-22.74C655.32,184.71,662.87,191.12,661.73,199.34z"/>
			<path class="st14" d="M650.77,202.13c-0.01,0.78-0.47,1.43-1.01,1.46c-0.54,0.03-0.97-0.57-0.96-1.35
				c0.01-0.78,0.47-1.43,1.01-1.46C650.35,200.76,650.78,201.36,650.77,202.13z"/>
			<path class="st14" d="M652.48,199.25c-0.11,0.01-0.21-0.03-0.29-0.11c-1.21-1.25-2.66-0.92-2.68-0.91
				c-0.22,0.05-0.42-0.08-0.46-0.3c-0.04-0.22,0.11-0.44,0.33-0.49c0.08-0.02,1.9-0.44,3.4,1.11c0.15,0.15,0.14,0.41-0.03,0.58
				C652.68,199.2,652.58,199.25,652.48,199.25z"/>
			<path class="st14" d="M640.48,196.9c-0.1-0.03-0.18-0.1-0.22-0.19c-0.09-0.19,0-0.43,0.21-0.53c2.1-0.99,3.71-0.1,3.78-0.06
				c0.19,0.11,0.25,0.35,0.12,0.54c-0.12,0.19-0.38,0.25-0.57,0.15c-0.06-0.04-1.33-0.71-2.99,0.08
				C640.7,196.93,640.58,196.94,640.48,196.9z"/>
			<path class="st20" d="M645,200.84c0,0-1.44,3.03-2.98,4.89c-0.27,0.33-0.14,0.82,0.25,0.99c1,0.42,2.21,0.14,2.21,0.14
				L645,200.84z"/>
			<path class="st14" d="M650.2,200.79l-1.91-0.38C648.29,200.42,649.64,201.79,650.2,200.79z"/>
			<path class="st14" d="M642.86,201.49c-0.01,0.78-0.47,1.43-1.01,1.46c-0.54,0.03-0.97-0.57-0.96-1.35
				c0.01-0.78,0.47-1.43,1.01-1.46C642.44,200.12,642.87,200.72,642.86,201.49z"/>
			<path class="st14" d="M642.27,200.15l-1.91-0.38C640.35,199.78,641.71,201.15,642.27,200.15z"/>
			<path class="st14" d="M646.09,210.67c-0.09,0-0.19,0-0.28-0.01c-0.14-0.01-0.24-0.13-0.23-0.27c0.01-0.14,0.13-0.25,0.27-0.23
				c1.42,0.1,2.85-0.66,3.56-1.89c0.07-0.12,0.22-0.16,0.34-0.09c0.12,0.07,0.16,0.22,0.09,0.34
				C649.08,209.83,647.6,210.67,646.09,210.67z"/>
			<path class="st14" d="M657.85,213.65c8.06-5.24,9.03-26.27-5.4-27.44c-14.43-1.17-14.47,16.17-14.47,16.17
				c5.24-12.07,16.65-10.31,16.65-10.31c-2.77,6.39,2.85,10.59,2.85,10.59C659.48,207.03,657.85,213.65,657.85,213.65z"/>
			<path class="st18" d="M663.92,206.19c-1.05,1.65-2.69,2.64-4.16,2.94c-2.21,0.45-3.18-3.12-2.33-5.28
				c0.76-1.94,2.97-3.15,5.08-2.62C664.59,201.75,665.13,204.3,663.92,206.19z"/>
			<path class="st12" d="M660.28,207.13c-0.11,0-0.22-0.08-0.24-0.19c-0.03-0.13,0.05-0.27,0.19-0.3c1.17-0.27,1.71-0.86,1.95-1.31
				c0.26-0.49,0.25-0.94,0.16-1.17c-0.18-0.47-0.77-0.85-1.33-0.64c-0.13,0.05-0.27-0.02-0.32-0.15c-0.05-0.13,0.02-0.27,0.15-0.32
				c0.84-0.31,1.7,0.23,1.97,0.93c0.17,0.44,0.1,1.05-0.18,1.59c-0.29,0.54-0.92,1.25-2.28,1.56
				C660.32,207.13,660.3,207.13,660.28,207.13z"/>
		</g>
		<path class="st19" d="M638.84,260.75c0,0,4.79,5,8.43,7.33c3.21,2.06,19,9.63,25.16,7.43l-0.46-5.55c0,0-30.76-9.81-31-9.85
			C640.73,260.07,638.84,260.75,638.84,260.75z"/>
		<g>
			<path class="st19" d="M667.52,244.78c-0.79,4.65,5.83,21.39-2.23,20.06c-3.77-5.23-3.07-18.98-2.83-23.41L667.52,244.78z"/>
		</g>
		<g>
			<g>
				<path class="st9" d="M667.52,287.23c-1.17-7.62-2.58-15.21-3.76-22.83c-0.76-4.91-1.49-9.84-2.06-14.77
					c-0.43-3.65-0.88-7.36-0.79-11.04c0.05-2.07,0.49-4.23,1.42-6.09c0.78-1.57,2.12-3.02,3.9-3.38c1.71-0.35,3.39,0.52,4.55,1.72
					c1.57,1.63,2.1,3.89,2.91,6.08c2.77,7.59,5.42,15.22,8.03,22.87c1.32,3.85,2.62,7.71,3.88,11.59c0.76,2.33,1.58,4.67,2.15,7.06
					c0.03,0.14,0.07,0.28,0.09,0.41c0.05,0.25,0.01,0.02,0.02,0.11c0.07,0.96,1.57,0.96,1.5,0c-0.15-1.95-1.03-3.97-1.62-5.81
					c-1.22-3.83-2.5-7.64-3.79-11.45c-2.77-8.18-5.6-16.34-8.55-24.46c-0.7-1.93-1.27-4.1-2.33-5.88c-1.46-2.44-4.29-4.34-7.23-3.7
					c-3.31,0.73-5.09,3.98-5.86,7.01c-0.85,3.36-0.56,6.8-0.26,10.22c0.43,4.84,1.09,9.67,1.79,14.48c1.3,8.9,2.86,17.75,4.32,26.62
					c0.09,0.54,0.18,1.09,0.26,1.63C666.22,288.58,667.66,288.18,667.52,287.23L667.52,287.23z"/>
				<path class="st19" d="M667.52,287.23c-1.15-7.48-2.53-14.92-3.69-22.39c-0.75-4.84-1.47-9.69-2.05-14.55
					c-0.44-3.69-0.89-7.43-0.87-11.15c0.01-1.68,0.25-3.25,0.74-4.87c1.01-3.32,4.08-6.67,7.74-4.54c2.52,1.46,3.11,3.96,4.04,6.49
					c2.71,7.39,5.28,14.83,7.81,22.28c1.3,3.82,2.59,7.64,3.83,11.48c0.76,2.34,1.59,4.7,2.15,7.1c0.05,0.22,0.12,0.63,0.11,0.52
					c0.07,0.96,1.57,0.96,1.5,0c-0.15-1.94-1.02-3.97-1.61-5.8c-1.2-3.8-2.47-7.58-3.74-11.36c-2.71-8-5.46-15.99-8.35-23.92
					c-0.78-2.14-1.42-4.56-2.91-6.32c-1.91-2.25-4.97-3.38-7.74-2.02c-3.06,1.5-4.31,5.02-4.86,8.16c-0.53,3.02-0.13,6.25,0.16,9.28
					c0.45,4.8,1.11,9.59,1.81,14.36c1.28,8.73,2.81,17.41,4.24,26.11c0.09,0.52,0.17,1.04,0.25,1.56
					C666.22,288.58,667.66,288.18,667.52,287.23L667.52,287.23z"/>
				<path class="st9" d="M702.9,301.89l-33.12,9.75c-1.38,0.41-2.83-0.38-3.23-1.76l-7.7-26.17c-0.41-1.38,0.38-2.83,1.76-3.23
					l33.12-9.75c1.38-0.41,2.83,0.38,3.23,1.76l7.7,26.17C705.07,300.03,704.28,301.48,702.9,301.89z"/>
				<path class="st19" d="M702.9,301.89l-33.12,9.75c-1.38,0.41-2.83-0.38-3.23-1.76l-7.7-26.17c-0.41-1.38,0.38-2.83,1.76-3.23
					l33.12-9.75c1.38-0.41,2.83,0.38,3.23,1.76l7.7,26.17C705.07,300.03,704.28,301.48,702.9,301.89z"/>
				<path d="M659.96,283.42c5.29,3.82,12.11,6.81,18.67,7.07c4.14,0.16,8.23-1,11.23-3.94c2.42-2.37,3.95-5.53,4.88-8.76
					c0.55-1.91,0.96-3.94,1.05-5.93c0.02-0.48-0.73-0.48-0.75,0c-0.19,4.6-1.81,9.67-4.81,13.19c-5.97,7.01-16.04,4.92-23.37,1.47
					c-2.26-1.06-4.5-2.28-6.52-3.75C659.95,282.49,659.57,283.14,659.96,283.42L659.96,283.42z"/>
			</g>
			<path class="st18" d="M647.82,257.81l-3.41-4.56l-6.25,6.94c0,0,4.17,3.75,8.53,4.13l0.63-1.05
				C648.33,261.63,648.52,259.61,647.82,257.81z"/>
			<path class="st18" d="M638.15,252.93l-1.86,2.65c-0.84,1.23-0.54,2.9,0.67,3.76l1.19,0.83l6.25-6.94l-2.96-1.28
				C640.26,251.42,638.86,251.83,638.15,252.93z"/>
			<path class="st14" d="M667.66,228.62c0,0,6.72,0.39,9.54,15.66c2.82,15.27,3.75,29.25-4.77,30.43
				c-8.52,1.18-26.57-9.42-26.57-9.42s-1-7.19,3.01-7.73l16.37,3.66c0,0-2.39-17.06-2.76-19.79S660.04,230.25,667.66,228.62z"/>
			<g class="st19">
				<path d="M670.69,262.66c-1.55-3.54-4.89-1.3-4.89-1.3l-16.93-3.79c0,0,17.11,2.78,16.93,2.6c-0.18-0.18,0.89-1.25,2.94-0.76
					C670.79,259.89,670.69,262.66,670.69,262.66z"/>
			</g>
		</g>
	</g>
	<path d="M635.98,228.81"/>
</g>
<g id="Character_2">
	<g>
		<g>
			<polygon class="st14" points="611.29,447.63 604.22,448.81 602.91,449.02 602.46,446.31 610.84,444.91 			"/>
			<path class="st14" d="M609.29,453.51c0,0-3.12,0.07-4.09-2.54c-0.97-2.61-0.6-3.62-0.6-3.62l5.57-0.92l0.46,2.75L609.29,453.51z"
				/>
			<path class="st14" d="M612.56,451.38c0.26,1.55-0.79,3.01-2.34,3.27c-1.55,0.26-3.01-0.79-3.27-2.34
				c-0.26-1.55,0.79-3.01,2.34-3.27C610.83,448.78,612.3,449.83,612.56,451.38z"/>
			<polygon class="st14" points="653.65,440.6 646.57,441.78 645.27,441.99 644.82,439.27 653.2,437.88 			"/>
			<path class="st14" d="M651.64,446.48c0,0-3.12,0.07-4.09-2.54c-0.97-2.61-0.6-3.62-0.6-3.62l5.57-0.92l0.46,2.75L651.64,446.48z"
				/>
			<path class="st14" d="M654.91,444.35c0.26,1.55-0.79,3.01-2.34,3.27c-1.55,0.26-3.01-0.79-3.27-2.34
				c-0.26-1.55,0.79-3.01,2.34-3.27C653.19,441.75,654.65,442.8,654.91,444.35z"/>
			<path class="st9" d="M600.77,443.83c0,0,1.87,2.19,11.04,1.67c9.17-0.52,37.01-6.15,37.01-6.15s6.01-1.5,5.65-6.69
				c-0.36-5.19-10.27-61.85-10.27-61.85s-2.49-13.35-17.82-12.31c-15.33,1.04-33.43,3.55-33.44,20.06
				C592.93,395.08,600.77,443.83,600.77,443.83z"/>
			<path class="st14" d="M617.86,359.23c0,0,9.89-0.63,12.16,9.39c2.28,10.02,11.47,64.18,11.04,66.49
				c-0.43,2.32-2.63,6.25-2.63,6.25l5.55-1.06c0,0,2.1-1.95,1.97-7.64c-0.13-5.69-9.98-65.04-9.98-65.04s-0.78-9.54-12.1-8.95
				L617.86,359.23z"/>
			<path class="st14" d="M618.04,444.82c0,0,0.51-4.15,2.89-5.83c2.37-1.68,9.9-3.73,10.72-1.22c0.82,2.51-1.56,5.14-1.56,5.14
				L618.04,444.82z"/>
			<path class="st14" d="M599.82,438.08c0,0,2.46,3.94,5.04,5.7c2.58,1.76,4.63,0.85,4.11,1.8c-0.52,0.95-4.07,1.51-6.34,0.71
				c-1.9-0.68-2.01-1.11-2.3-1.75C598.88,441.38,599.82,438.08,599.82,438.08z"/>
			<path class="st14" d="M645.9,440.28c-0.01-0.08,2.51-6.81,3.97-7.7c1.46-0.88,3.93-1.46,4.47-1.12c0.54,0.34,0.96,2.9,0.66,3.99
				c-0.3,1.09-2.45,3.59-4.71,4.5C648.03,440.87,645.9,440.28,645.9,440.28z"/>
			<polygon class="st14" points="628.96,445.65 621.88,446.82 620.58,447.04 620.13,444.32 628.51,442.93 			"/>
			<path class="st14" d="M626.96,451.53c0,0-3.12,0.07-4.09-2.54c-0.97-2.61-0.6-3.62-0.6-3.62l5.57-0.92l0.46,2.75L626.96,451.53z"
				/>
			<path class="st14" d="M630.22,449.4c0.26,1.55-0.79,3.01-2.34,3.27c-1.55,0.26-3.01-0.79-3.27-2.34
				c-0.26-1.55,0.79-3.01,2.34-3.27C628.5,446.8,629.97,447.85,630.22,449.4z"/>
			<path d="M603.06,364.93c4.4-0.83,9.19-1.06,12.85,2.03c2.78,2.35,3.76,5.77,4.42,9.21c0.47,2.45,0.92,4.91,1.37,7.36
				c2.6,14.26,5.09,28.55,7.58,42.83c0.67,3.83,1.34,7.67,2,11.51c0.08,0.47,0.81,0.27,0.72-0.2c-1.82-10.5-3.65-21-5.5-31.49
				c-1.3-7.4-2.61-14.81-3.96-22.2c-0.47-2.58-0.94-5.16-1.43-7.73c-0.63-3.27-1.46-6.51-3.81-9c-3.83-4.06-9.38-3.98-14.44-3.03
				C602.38,364.29,602.59,365.02,603.06,364.93L603.06,364.93z"/>
			
				<rect x="596.38" y="308.75" transform="matrix(0.9896 -0.1441 0.1441 0.9896 -43.1693 89.672)" class="st14" width="2" height="68.13"/>
			
				<rect x="605.59" y="307.22" transform="matrix(0.9896 -0.1441 0.1441 0.9896 -42.8516 90.9821)" class="st14" width="2" height="68.13"/>
			<path class="st14" d="M589.86,304.33l0.73,4.38c0.09,0.54,0.6,0.9,1.14,0.82l1.99-0.33c0.54-0.09,0.91-0.6,0.82-1.14l-0.2-1.21
				c-0.09-0.54,0.28-1.05,0.82-1.14l2.62-0.44c0.54-0.09,1.05,0.28,1.14,0.82l0.26,1.57c0.09,0.54,0.6,0.91,1.14,0.82l2.9-0.48
				c0.54-0.09,0.91-0.6,0.82-1.14l-0.79-4.73c-0.09-0.54-0.6-0.9-1.14-0.82l-11.42,1.9C590.14,303.28,589.77,303.79,589.86,304.33z"
				/>
			
				<rect x="598.26" y="371.58" transform="matrix(0.9865 -0.1638 0.1638 0.9865 -53.1017 104.3996)" class="st14" width="16.64" height="5.32"/>
		</g>
		<path class="st21" d="M521.14,243.37c-0.43,0.84,2.52,27.79,2.8,32.15c0.25,3.95,0.24,28.61,0.24,28.61h6.85l3.63-28.2l0.82-30.64
			L521.14,243.37z"/>
		<g>
			<g>
				<g>
					<g>
						<g>
							<g>
								<path class="st21" d="M530.22,302.11c0,0,2.68,0.6,3.88,2.53c1.2,1.93,2.66,3.16,3.45,4.66c0.79,1.5-1.34,0.66-2.38-0.01
									c-1.04-0.67-2.23-1.43-2.61-0.56c-0.38,0.86,0.49,8.94-0.17,10.08c-0.66,1.14-1.21-0.12-1.21-0.12s0.16,1.97-0.6,2.24
									c-0.2,0.07-0.77-0.08-0.99-0.97c-0.48-1.99-1.27-6.22-1.27-6.22c0.05,0.24,0.65,5.53,0.64,6.34
									c-0.02,1.05-0.56,1.54-1.17,1.51c-0.87-0.04-1.84-6.58-2.07-6.82c0,0,0.69,3.74-0.18,4.45c-0.87,0.71-1.43-1.63-1.53-3.78
									c-0.09-1.97-0.11-7.92-0.01-9.93c0.12-2.48,0.07-2.02,2.24-2.87C528.4,301.77,530.22,302.11,530.22,302.11z"/>
							</g>
						</g>
					</g>
				</g>
			</g>
		</g>
		<g>
			<path class="st19" d="M580.97,382.26c-0.24,1.02,2.01,6.53,3.55,14.27c1.54,7.74,0.54,29.61,1.84,34.92
				c1.3,5.31,4.12,15.46,4.12,15.46l-6.08-0.63l-6.53-40.33l-3.78-23.7H580.97z"/>
			<path class="st21" d="M576.95,445.8l8.46-6.39c-4.02-19.39,0.9-43.73-6.72-57.92l-15.63,1.51
				C569.55,405.24,576.95,445.8,576.95,445.8z"/>
			<path class="st0" d="M576.08,444.56c0.6-3.89-1.36-9.62-2.06-11.4c-1.16-2.94,10.51-4.2,10.6-2.51c0.56,4.59,1.5,9.13,2.8,13.57
				C584.67,445.91,576.08,444.56,576.08,444.56z"/>
			<path class="st14" d="M584.97,438.76c1.26,0.14,2.31,1.03,2.65,2.25l2.69,9.02c0.22,0.81-0.26,1.63-1.06,1.85
				c-0.02,0.01-0.04,0.01-0.06,0.02c-4.56,0.89-1.9,0.2-6.34,1c-5.18,0.92-10.03,3.34-17.73,2.29c-3.7-0.5-3.65-4.27-2.05-4.55
				c10.21-1.74,9.78-7.58,11.87-8.58c0,0-3.28-2.73-2.1-5.33c1.18-2.6,6.94-2.13,8.7-0.64c2.25,1.91,1.28,3.37,1.28,3.37
				C583.44,438.98,584.2,438.73,584.97,438.76z"/>
		</g>
		<g>
			<path class="st21" d="M550.35,440.69c-0.05-16.9,7.35-33.89,1.24-58.68h-16.05c5.23,23.47,6.85,58.73,4.93,58.52L550.35,440.69z"
				/>
			<path class="st0" d="M539.71,441.13c1.6-3.6,1.22-9.64,1-11.54c-0.35-3.15,11.22-1.3,10.89,0.35c-0.66,4.57-0.95,9.19-0.86,13.81
				C547.65,444.67,539.71,441.13,539.71,441.13z"/>
			<path class="st14" d="M551.8,439.25l1.04,10.65c0.06,0.82-0.55,1.54-1.38,1.6c-0.04,0-0.08,0-0.12,0
				c-4.65,0-7.59-0.16-12.08-0.23c-5.26-0.08-8.57,0.4-14.74,0.3c-3.73-0.06-4.31-3.7-2.73-4.17c7.52-2.24,11.69-3.77,15.53-8.28
				c0,0-1.87-3.45,0.28-5.37s7.95-0.06,8.39,2.21s-0.44,2.12-0.44,2.12S549.68,436.72,551.8,439.25z"/>
		</g>
		<g>
			<path class="st21" d="M576.64,234.67c0.82,0.99,13.18,27.33,14.28,31.13c1.09,3.8,6.74,27.21,6.74,27.21l-7.36,0l-9.8-24.83
				l-13.57-26.61L576.64,234.67z"/>
			<path class="st9" d="M557.43,218.29c-0.92,7.25,1.35,19.97,7.45,29.67c4.11,0.94,16.6-7.44,16.6-7.44s-3.47-11.8-9.11-19.29
				C566.53,213.4,557.95,214.35,557.43,218.29z"/>
			<g>
				<path class="st21" d="M590.51,292.07l0.31,1.87c0,0-3.44,10.03-2.42,10.69c1.01,0.65,1.92,0.2,2.53,0.26
					c0.61,0.06,1.83,3.8,3.32,3.63c1.5-0.18,1.73-1.25,1.73-1.25s1.81,0.57,2.48,0.11c0.42-0.28,0.95-1.18,0.95-1.18
					s2.38,0.27,2.41-1.15c0.01-0.69-0.04-0.95-0.09-1.04c0.34-0.02,1.32-0.19,1.13-1.4c-0.22-1.45-5.22-11.58-5.72-11.52
					C596.65,291.13,589.72,292.27,590.51,292.07z"/>
			</g>
		</g>
		<g>
			<path class="st14" d="M554.04,333.61c-1.36,9.79-0.18,20.14-0.21,30.31c0.56,10.03,2.9,9.9-0.1,20.87l-18.01,0.28
				c-3.93-6.39-5.51-10.4-5.76-18.46c-0.64-22.18-3.12-81.3-3.12-81.3l16-0.28l21.08-0.35
				C559.65,300.78,556.35,317.12,554.04,333.61z"/>
			<path class="st14" d="M578.73,360.53c-5.33-34.42-1.2-63.45-5.29-71.79l-26.96-7.51c0,0,2.68,23.24,5.16,46.06
				c1.38,12.61,2.39,25.14,3.45,33.48c1.19,9.32,3.94,10.85,7.48,24.36l18.39-2.6C583.87,370.42,582.2,370.78,578.73,360.53z"/>
			<path d="M559.69,295.7c2.54,5.16,8.63,8.08,14.25,6.9c0.47-0.1,0.27-0.82-0.2-0.72c-5.3,1.12-11.02-1.71-13.4-6.56
				C560.12,294.89,559.47,295.27,559.69,295.7L559.69,295.7z"/>
			<path d="M543.4,299.23c0.63,5.93,0.85,12.05,2.72,17.76c0.04,0.12,0.13,0.24,0.26,0.26c0.86,0.17,1.71,0.35,2.57,0.52
				c0.47,0.1,0.67-0.63,0.2-0.72c-0.86-0.17-1.71-0.35-2.57-0.52c0.09,0.09,0.17,0.17,0.26,0.26c-1.85-5.65-2.06-11.69-2.69-17.56
				C544.1,298.76,543.35,298.75,543.4,299.23L543.4,299.23z"/>
			<polygon class="st19" points="553.61,354.66 548.2,322.45 545.38,317.41 549.48,317.94 553.33,344.99 			"/>
			<path d="M528.54,308.58c2.55-1.98,4.33-4.87,4.97-8.03c0.1-0.47-0.63-0.67-0.72-0.2c-0.62,3.05-2.32,5.79-4.78,7.7
				C527.63,308.35,528.16,308.87,528.54,308.58L528.54,308.58z"/>
		</g>
		<g>
			<path class="st19" d="M528.15,297.94c0,0,4.75,5,17.23,2.62c12.48-2.38,26.87-8.79,26.87-8.79l-0.67-2.28l-44.31,5.04
				L528.15,297.94z"/>
			<path class="st9" d="M560.17,214.79c-10.5-0.25-20.99,0.74-31.26,2.93c-4.56,1.04-7.07,5.24-7.27,9.91
				c0.86,9.4,3.15,29.82,4.33,55.63c0.09,1.88-0.2,11.49-0.03,13.47c4.19,4.75,30.68,0.14,48.85-5.82
				c-1.34-4.83-6.28-30.51-5.42-46.49c0.41-7.58,3.96-15.16,3.96-15.16c0.61-7.36-4.87-13.81-12.22-14.42
				C560.78,214.81,560.48,214.8,560.17,214.79z"/>
			<path class="st9" d="M524.31,220.27c-4.59,5.77-6.84,21.93-8.53,29.37c3.84,4.31,18.63,2.59,18.63,2.59
				c1.4-6.9,1.96-13.94,1.65-20.97C535.39,220.7,527.12,217.47,524.31,220.27z"/>
			<path class="st19" d="M558.24,230.88c0,0,3.09,18.76,6.32,19.1c2.31,0.24,4.62-0.53,4.62-0.53v-3.44L558.24,230.88z"/>
			<polygon class="st19" points="523.98,252.44 522.45,235.35 521.63,252.13 			"/>
			<g class="st19">
				<path d="M532.29,285.01c11.19-1.31,22.09-5.08,31.69-10.98c-1.78,3.34-5.01,5.74-8.52,7.17c-3.51,1.42-8.49,3.14-12.26,3.48
					C539.43,285.02,535.57,285.53,532.29,285.01"/>
			</g>
		</g>
		<g>
			<path class="st21" d="M553.62,214.75c-3.06-2.93-0.96-12.03,0.73-17.49l-14.13,8.71c0.2,0.68,0.34,1.37,0.44,2.07
				c0.23,1.26,0.12,2.56-0.3,3.76c-0.39,0.99-1.59,4.18-1.59,4.18s1.11,5.15,7,4.31C550.91,218.96,553.62,214.75,553.62,214.75z"/>
			<path class="st19" d="M551.2,202.59c-0.32,6.64-7.37,8.73-10.85,9.24c0.42-1.21,0.52-2.5,0.3-3.76L551.2,202.59z"/>
			<g>
				<g>
					<path class="st21" d="M557.27,192.74c-2.79,7.45-4.2,11.71-9.33,14.4c-7.72,4.04-16.14-2.17-15.71-10.33
						c0.39-7.35,4.88-18.3,13.45-18.97C554.12,177.18,560.05,185.29,557.27,192.74z"/>
					<path class="st14" d="M561.63,179.21c2.82-6.9-11.27-6.53-11.27-6.53s3.05-4.03-1.55-5.93c-5.14-2.13-7.88,1.42-8.99,5.08
						c-0.82-2.59-7.3-6.15-7.93-1.91c-0.64,4.24,4.91,7.17,4.91,7.17s-6.9-1.09-6.32,2.28c0.96,5.59,16.3,5.59,21.79,5.09
						c-1.79,1.26-0.71,3.8,0.29,6.63c-2.29,2.63-2.19,3.25-4.44,5.94c-2.24,2.69-6.92-1.54-9.56-0.38c-3.35-1.26-6.61-1.7-7.15,0.43
						c-0.65,2.52,0.08,6.45,0.53,8.66c0.81,4.04,10.07,4.76,15.69,3c5.62-1.76,4.85-6.59,4.89-9.28c0.1-1.39,0.46-2.75,1.06-4.01
						c0.01,0.12,0.03,0.24,0.03,0.37c1.43,0.36,2.95,0.08,4.16-0.77C557.18,189.18,570.05,183.69,561.63,179.21z"/>
					<path class="st21" d="M558.43,200c-1.22,1.77-3.17,2.81-4.95,3.09c-2.68,0.43-2.8-2.31-1.85-4.64c0.85-2.1,2.3-4.53,4.89-3.9
						C559.07,195.18,559.83,197.97,558.43,200z"/>
					<path class="st14" d="M544.73,191.37c-0.24,0.78-0.85,1.28-1.37,1.12c-0.52-0.16-0.76-0.92-0.52-1.7
						c0.24-0.78,0.85-1.28,1.37-1.12C544.74,189.84,544.97,190.6,544.73,191.37z"/>
					<path class="st14" d="M536.81,189.6c-0.24,0.78-0.85,1.28-1.37,1.12c-0.52-0.16-0.76-0.92-0.52-1.7
						c0.24-0.78,0.85-1.28,1.37-1.12C536.81,188.06,537.04,188.82,536.81,189.6z"/>
					<path class="st22" d="M540.18,189.74c0,0-3.71,3.11-5,4.44c0.82,1.31,2.88,1.43,2.88,1.43L540.18,189.74z"/>
					<path class="st14" d="M548.47,188.52c-0.14,0.01-0.28-0.05-0.36-0.16c-1.02-1.4-2.46-1.38-2.47-1.38
						c-0.22,0.01-0.4-0.16-0.41-0.37c-0.01-0.21,0.16-0.38,0.37-0.39c0.08,0,1.88-0.03,3.14,1.71c0.13,0.17,0.09,0.41-0.09,0.53
						C548.6,188.49,548.53,188.51,548.47,188.52z"/>
					<path class="st3" d="M538.85,200.19c0.08-0.11,0.21-0.18,0.36-0.17c1.72,0.14,2.65-0.96,2.66-0.97
						c0.14-0.17,0.38-0.2,0.55-0.07c0.17,0.13,0.19,0.37,0.05,0.54c-0.05,0.06-1.21,1.44-3.35,1.27c-0.21-0.02-0.37-0.2-0.34-0.41
						C538.79,200.31,538.81,200.25,538.85,200.19z"/>
				</g>
				<path class="st12" d="M553.02,198.82c-0.03,0-0.07-0.01-0.1-0.02c-0.13-0.06-0.18-0.2-0.13-0.33c0.29-0.67,0.76-1.26,1.36-1.7
					c0.41-0.3,1.04-0.65,1.79-0.6c0.73,0.04,1.38,0.5,1.58,1.11c0.04,0.13-0.03,0.27-0.16,0.31c-0.13,0.04-0.27-0.03-0.32-0.16
					c-0.13-0.41-0.61-0.74-1.13-0.77c-0.6-0.03-1.12,0.26-1.46,0.51c-0.53,0.39-0.94,0.9-1.2,1.49
					C553.21,198.77,553.12,198.82,553.02,198.82z"/>
			</g>
			<path class="st14" d="M535.03,185.1c-0.07-0.04-0.12-0.09-0.16-0.16c-0.1-0.19-0.03-0.42,0.16-0.51c1.9-0.97,3.47-0.1,3.55-0.08
				c0.19,0.1,0.26,0.34,0.15,0.52c-0.1,0.18-0.34,0.25-0.53,0.14c-0.06-0.04-1.28-0.69-2.81,0.09
				C535.28,185.16,535.14,185.16,535.03,185.1z"/>
		</g>
	</g>
</g>
<g id="Character_1">
	<g>
		<g>
			<g>
				<g>
					<g>
						<g>
							<g>
								<polygon class="st23" points="357.65,421.96 351.64,442.33 345.24,440.26 344.09,420.15 								"/>
							</g>
						</g>
					</g>
				</g>
				<g>
					<g>
						<g>
							<g>
								<g>
									<g>
										<g>
											<g>
												<g>
													<g>
														<g>
															<g>
																<path class="st14" d="M352.33,450.35l-5.8-0.04c0,0-1.17-0.63-1.86-0.55c-0.69,0.08-3.08,0.52-3.08,0.52
																	l-15.41-0.12c0.13-0.65,0.28-1.22,0.46-1.73c0.22-0.62,0.47-1.14,0.74-1.59c0.97-1.55,2.27-2.1,3.69-2.17
																	c2.16-0.12,8.98-4.6,8.98-4.6s2.47-0.84,2.62-3.46c0.06-0.98,1.52-2.17,2.21-2.26c1.41-0.19,2.19,0.71,2.38,2.12
																	l0.22,1.64l3.26-0.48c0,0,3.32-1.64,3.15-0.02c-0.1,0.92-0.69,5.03-1.06,8.29c-0.09,0.76-0.17,1.48-0.24,2.11l0,0
																	C352.44,449.38,352.33,450.35,352.33,450.35z"/>
															</g>
														</g>
													</g>
												</g>
											</g>
										</g>
										<g class="st12">
											<path class="st3" d="M326.18,450.15l15.41,0.12c0,0,2.39-0.44,3.08-0.52c0.69-0.08,1.86,0.55,1.86,0.55l5.8,0.04
												c0,0,0.11-0.96,0.27-2.36l-25.96,0.44C326.47,448.93,326.31,449.5,326.18,450.15z"/>
										</g>
										<g>
											<g>
												<g>
													<g>
														<path class="st9" d="M336.66,441.72c0.07-0.07,0.18-0.08,0.27-0.02c0.38,0.26,0.7,0.62,0.91,1.07
															c0.11,0.24-0.23,0.46-0.35,0.22c-0.19-0.4-0.47-0.72-0.8-0.94C336.58,441.97,336.56,441.81,336.66,441.72
															C336.66,441.72,336.66,441.72,336.66,441.72z"/>
													</g>
												</g>
											</g>
										</g>
										<g>
											<g>
												<g>
													<g>
														<path class="st9" d="M337.89,441c0.07-0.07,0.18-0.08,0.27-0.02c0.38,0.26,0.7,0.62,0.91,1.07
															c0.11,0.24-0.23,0.46-0.35,0.22c-0.19-0.4-0.47-0.72-0.8-0.94C337.81,441.26,337.79,441.1,337.89,441
															C337.89,441.01,337.89,441,337.89,441z"/>
													</g>
												</g>
											</g>
										</g>
										<g>
											<g>
												<g>
													<g>
														<path class="st9" d="M339.16,440.34c0.07-0.07,0.18-0.08,0.27-0.02c0.38,0.26,0.7,0.62,0.91,1.07
															c0.11,0.24-0.23,0.46-0.35,0.22c-0.19-0.4-0.47-0.72-0.8-0.94C339.08,440.59,339.06,440.43,339.16,440.34
															C339.16,440.34,339.16,440.34,339.16,440.34z"/>
													</g>
												</g>
											</g>
										</g>
									</g>
								</g>
							</g>
						</g>
					</g>
				</g>
			</g>
			<g>
				<g>
					<g>
						<g>
							<polygon class="st23" points="386.7,421.28 389.53,442.02 396.29,442.36 398.48,422.37 							"/>
						</g>
					</g>
				</g>
			</g>
			<g>
				<g>
					<g>
						<path class="st14" d="M402.04,451.64h-15.12c0,0-0.33-0.63,0.05-2.33c0.06-0.26,0.13-0.55,0.23-0.87
							c0.01-0.02,0.01-0.03,0.01-0.05c0.14-0.47,0.3-1.04,0.48-1.66c0.69-2.53,1.51-5.84,1.51-5.84s2.51-5.38,5.46-4.04
							c2.58,1.18,1.97,4.55,1.97,4.55s0.25,1.98,2.21,3.73c1.21,1.08,2.41,1.92,2.99,3.26c0.11,0.25,0.19,0.52,0.25,0.81
							c0.01,0.03,0.01,0.07,0.02,0.11C402.22,449.97,402.22,450.72,402.04,451.64z"/>
					</g>
				</g>
			</g>
			<g class="st12">
				<path class="st3" d="M386.97,449.32c-0.38,1.69-0.05,2.33-0.05,2.33h15.12c0.17-0.92,0.18-1.68,0.06-2.33H386.97z"/>
			</g>
			<g>
				<g>
					<g>
						<g>
							<path class="st9" d="M396.02,442.26c-0.85-0.66-1.97-0.58-2.73,0.17c-0.21,0.2-0.52-0.11-0.32-0.32
								c0.95-0.93,2.32-0.98,3.36-0.17C396.56,442.12,396.24,442.44,396.02,442.26L396.02,442.26z"/>
						</g>
					</g>
				</g>
			</g>
			<g>
				<g>
					<g>
						<g>
							<path class="st9" d="M396.44,443.68c-0.85-0.66-1.97-0.58-2.73,0.17c-0.21,0.2-0.52-0.11-0.32-0.32
								c0.95-0.93,2.32-0.98,3.36-0.17C396.99,443.54,396.67,443.85,396.44,443.68L396.44,443.68z"/>
						</g>
					</g>
				</g>
			</g>
			<g>
				<g>
					<g>
						<g>
							<path class="st9" d="M396.87,444.97c-0.85-0.66-1.97-0.58-2.73,0.17c-0.21,0.2-0.52-0.11-0.32-0.32
								c0.95-0.93,2.32-0.98,3.36-0.17C397.41,444.83,397.1,445.15,396.87,444.97L396.87,444.97z"/>
						</g>
					</g>
				</g>
			</g>
		</g>
		<g>
			<path class="st9" d="M374.9,260.53l-10.3-1.68l-5.56,9.02c-1.53,13.28-10.17,54.67-13.78,94.53
				c-4.09,44.12-3.28,71.67-3.28,71.67l14,2.29l8.75-69.33l20.54-99.65L374.9,260.53z"/>
			<g class="st12">
				<path d="M374.9,260.53l-10.3-1.68l-5.56,9.02c-1.53,13.28-10.17,54.67-13.78,94.53c-4.09,44.12-3.28,71.67-3.28,71.67l14,2.29
					l8.75-69.33l20.54-99.65L374.9,260.53z"/>
			</g>
			<path class="st9" d="M388.8,262.42h-10.03l-3.88,9.88c1.3,28.32,11.27,165.05,11.27,165.05h13.6l-0.09-169.78L388.8,262.42z"/>
			<g class="st12">
				<path d="M388.8,262.42h-10.03l-3.88,9.88c1.3,28.32,11.27,165.05,11.27,165.05h13.6l-0.09-169.78L388.8,262.42z"/>
			</g>
		</g>
		<g>
			<path class="st23" d="M391.86,195.43c-3.76-4.44-1.12-14.71,0.58-20.2l-14.22,8.76c0.2,0.68,0.35,1.38,0.45,2.09
				c0.23,1.27,0.1,1.69,0.02,3.89c-0.25,2.03-0.79,4.35-0.88,3.9c0,0-2.61,2.8,5.89,4.03C387.37,198.84,391.86,195.43,391.86,195.43
				z"/>
			<path class="st19" d="M389.27,180.58c-0.32,6.68-7.13,9.22-10.62,9.72c0.09-1.41,0.24-2.95,0.01-4.22L389.27,180.58z"/>
			<g>
				<g>
					<path class="st23" d="M395.37,170.68c-2.8,7.5-4.23,11.79-9.39,14.49c-7.77,4.06-16.24-2.18-15.8-10.4
						c0.39-7.39,4.91-18.42,13.54-19.09C392.21,155.02,398.17,163.18,395.37,170.68z"/>
					<path class="st14" d="M398.51,170c8.82-17.76-11.27-19.44-11.27-19.44l0,0c0.1-2.04-1.36-3.83-3.37-4.15l0,0
						c-2.62-0.24-5.21,0.75-6.99,2.69c-3.11,3.33-5.02,9.13,13.46,12.84c0,0,2.83,1.21-0.5,3.68c-3.33,2.47,0.74,15.18,0.74,15.18
						C393.47,177.39,396.12,173.78,398.51,170z"/>
					<path class="st14" d="M399.83,160.54c0.21-4.84-11.39-8.36-15.34-7.02c-0.59,0.2,5.27,5.61,4.9,5.33l2.91,2.05
						c0.53,0.04,1.34,0.9,1.39,2.56c0,0-4.17,12.41-1.61,17.13c3.36-0.52,5.04-5.43,6.86-8.11
						C401.66,168.48,405.28,162.53,399.83,160.54z"/>
					<path class="st23" d="M396.54,177.97c-1.23,1.78-3.19,2.82-4.98,3.11c-2.69,0.43-2.81-2.32-1.86-4.66
						c0.86-2.11,2.31-4.55,4.92-3.92C397.19,173.13,397.95,175.94,396.54,177.97z"/>
					<path class="st14" d="M384.48,169.3c-0.24,0.78-0.86,1.28-1.38,1.12c-0.53-0.16-0.76-0.93-0.52-1.71
						c0.24-0.78,0.86-1.29,1.38-1.12C384.49,167.75,384.72,168.52,384.48,169.3z"/>
					<path class="st14" d="M376.47,167.51c-0.24,0.78-0.86,1.29-1.38,1.12c-0.53-0.16-0.76-0.93-0.52-1.71
						c0.24-0.78,0.86-1.28,1.38-1.12C376.47,165.97,376.7,166.73,376.47,167.51z"/>
					<path class="st24" d="M378.18,167.66c0,0-3.73,3.13-5.03,4.47c0.82,1.32,2.89,1.44,2.89,1.44L378.18,167.66z"/>
					<path class="st14" d="M386.52,166.42c-0.14,0.01-0.28-0.05-0.36-0.16c-1.03-1.41-2.47-1.39-2.49-1.39
						c-0.22,0.01-0.4-0.16-0.41-0.37c-0.01-0.21,0.16-0.39,0.37-0.39c0.08,0,1.89-0.03,3.16,1.72c0.13,0.17,0.09,0.41-0.09,0.53
						C386.64,166.4,386.58,166.42,386.52,166.42z"/>
				</g>
				<path class="st12" d="M391.1,176.79c-0.03,0-0.07-0.01-0.1-0.02c-0.13-0.06-0.18-0.2-0.13-0.33c0.3-0.68,0.77-1.27,1.37-1.71
					c0.41-0.3,1.05-0.64,1.8-0.6c0.74,0.04,1.39,0.5,1.59,1.12c0.04,0.13-0.03,0.27-0.16,0.32c-0.13,0.04-0.27-0.03-0.32-0.16
					c-0.13-0.42-0.62-0.74-1.14-0.77c-0.61-0.03-1.13,0.26-1.47,0.51c-0.53,0.39-0.95,0.91-1.21,1.5
					C391.29,176.74,391.19,176.79,391.1,176.79z"/>
			</g>
			<path class="st14" d="M372.99,162.98c-0.07-0.04-0.12-0.09-0.16-0.16c-0.1-0.19-0.03-0.42,0.16-0.52
				c1.91-0.98,3.49-0.11,3.57-0.08c0.19,0.11,0.26,0.34,0.15,0.52c-0.1,0.18-0.34,0.25-0.53,0.15c-0.06-0.04-1.29-0.69-2.83,0.09
				C373.24,163.05,373.1,163.04,372.99,162.98z"/>
			<g>
				<path class="st14" d="M375.09,175.83c0.18,1.09,0.29,2.19,0.31,3.29c0.19,0.03,0.39,0.06,0.58,0.08
					c2.62,0.34,3.95-0.36,4.62-1.26c0.32-0.44,0.53-0.96,0.62-1.5c0.06-0.3,0.07-0.61,0.04-0.92c-1.5,0.65-3.96,0.52-5.27,0.4
					C375.42,175.84,375.09,175.83,375.09,175.83z"/>
				<path class="st3" d="M375.96,175.9l0.12,0.97c2.46,0.31,4.24,0.21,5.12-0.45c0.06-0.3,0.07-0.61,0.04-0.92
					C379.73,176.16,377.28,176.02,375.96,175.9z"/>
				<path class="st25" d="M376.02,179.21c2.62,0.34,3.91-0.38,4.58-1.27c-1-0.11-1.96-0.03-2.94,0.21
					C377.02,178.33,376.44,178.7,376.02,179.21z"/>
			</g>
		</g>
		<g>
			<g>
				<polygon class="st23" points="313.55,205.6 305.86,202.4 301.78,206.64 308.46,211.54 				"/>
				<g>
					<g>
						<g>
							<g>
								<g>
									<g>
										<g>
											<path class="st23" d="M307.05,202.14c0,0,0.31-2.88-1.22-4.72c-1.52-1.84-2.25-3.72-3.48-5.01
												c-1.23-1.29-1.11,1.11-0.79,2.38c0.32,1.27,0.67,2.7-0.32,2.79c-0.99,0.09-8.74-3.5-10.1-3.23
												c-1.36,0.28-0.29,1.25-0.29,1.25s-1.91-0.82-2.44-0.15c-0.14,0.17-0.18,0.8,0.63,1.31c1.82,1.15,5.77,3.36,5.77,3.36
												c-0.22-0.13-5.29-2.51-6.1-2.77c-1.05-0.34-1.72,0.04-1.9,0.66c-0.25,0.88,5.93,4.05,6.1,4.36c0,0-3.5-1.94-4.5-1.31
												c-1,0.63,1.14,1.97,3.25,2.8c1.93,0.76,5.53,2.75,7.57,3.33c2.51,0.71,4.36,0.63,5.95-1.24
												C306.77,204.07,307.05,202.14,307.05,202.14z"/>
										</g>
									</g>
								</g>
							</g>
						</g>
					</g>
					<path class="st17" d="M295.51,198.12c-0.02,0-0.04-0.01-0.06-0.02c-1.43-0.83-2.92-1.6-4.42-2.29
						c-0.06-0.03-0.09-0.1-0.06-0.17c0.03-0.06,0.1-0.09,0.17-0.06c1.51,0.69,3,1.47,4.44,2.3c0.06,0.03,0.08,0.11,0.05,0.17
						C295.6,198.1,295.56,198.12,295.51,198.12z"/>
					<path class="st17" d="M294.21,203.33c-0.01,0-0.01,0-0.02,0c-0.07-0.01-0.11-0.08-0.1-0.14c0.36-2.14,1.37-4.18,2.85-5.76
						c0.05-0.05,0.13-0.05,0.18-0.01c0.05,0.05,0.05,0.13,0.01,0.18c-1.45,1.54-2.44,3.54-2.79,5.63
						C294.33,203.29,294.27,203.33,294.21,203.33z"/>
					<path class="st17" d="M303.33,203.24c-0.02,0-0.04,0-0.06-0.01c-0.8-0.41-1.47-1.11-1.82-1.94c-0.36-0.82-0.42-1.79-0.17-2.66
						c0.02-0.07,0.09-0.1,0.15-0.09c0.07,0.02,0.1,0.09,0.09,0.15c-0.23,0.81-0.18,1.71,0.16,2.49c0.33,0.77,0.96,1.43,1.71,1.81
						c0.06,0.03,0.09,0.11,0.05,0.17C303.42,203.22,303.38,203.24,303.33,203.24z"/>
				</g>
			</g>
			<path class="st23" d="M391.38,253.1c0,0-14.21,3.44-17.73,1.05c-3.52-2.4,0.85-7.81,0.85-7.81l3.05-1.97
				c1.31,0.82,2.7,1.49,4.15,2c3.22,0.73,6.48,1.27,9.76,1.62L391.38,253.1z"/>
			<path class="st9" d="M395.82,253.78l-6.42,0.25c0.89-2.31,1-4.84,0.29-7.21c2.07-0.55,4.24-0.63,6.35-0.25L395.82,253.78z"/>
			<path class="st11" d="M395.82,253.78l-6.42,0.25c0.89-2.31,1-4.84,0.29-7.21c2.07-0.55,4.24-0.63,6.35-0.25L395.82,253.78z"/>
			<path class="st14" d="M405.02,220.51c3.55,2.36,7.32,20.4,7.32,20.4c-7.11,2.09-18.49,5.01-18.49,5.01
				c0.84,2.92,0.73,6.03-0.31,8.89l15.98,0.36c19.86,1.01,15.08-16.02,14.23-22.64c-4.22-32.61-15.52-35.57-15.52-35.57
				C403.62,203.39,405.02,220.51,405.02,220.51z"/>
			<path class="st14" d="M407.56,196.63c-2.4-0.84-7.05-2.42-13.22-3.19c0,0-10.07-0.81-21.05,0.44c-4.61,0.52-9.51,1.74-13.67,2.99
				c-1.01,0.33-1.73,1.24-1.8,2.31l1.02,51.69c0.08,3.62-4.18,26.19-4.73,29.77l24.91,2.2l1.48-5.03l1.36,6.08l18.71,1.8
				c1.29-0.21,2.24-1.34,2.22-2.65c0-3.21-0.11-9.05,0-11.47c0.76-16.43,5.5-62.01,6.57-72.15
				C409.49,198.17,408.74,197.01,407.56,196.63z"/>
			<rect x="361.01" y="218.34" class="st3" width="12.28" height="3.82"/>
			<path class="st9" d="M307.98,210.8l-4.73-1.35c0.67-3.4,2.6-6.42,5.41-8.44l3.07,2.96L307.98,210.8z"/>
			<path class="st11" d="M307.98,210.8l-4.73-1.35c0.67-3.4,2.6-6.42,5.41-8.44l3.07,2.96L307.98,210.8z"/>
			<path class="st14" d="M306.86,210.89c6.94,4.17,24.79,17.18,31.82,16.04c8.87-1.5,21.24-13.75,21.24-13.75l-0.58-16.22
				c-8.93,3.48-14.71,11.4-22.02,15.13c-9.13-1.33-17.93-4.33-25.97-8.86C309.3,205.42,307.76,208.04,306.86,210.89z"/>
			<polygon class="st9" points="376.01,193.43 373.29,193.87 383.45,231.1 394.34,193.43 392.51,193.43 388.4,195.44 381.78,197.74 
							"/>
			<polygon class="st9" points="376.01,193.43 373.29,193.87 383.45,231.1 394.34,193.43 392.51,193.43 388.4,195.44 381.78,197.74 
							"/>
			<polygon class="st26" points="376.01,193.43 373.29,193.87 383.45,231.1 394.34,193.43 392.51,193.43 388.4,195.44 
				381.78,197.74 			"/>
			<polygon class="st9" points="389.97,189.97 382.83,197.19 378.69,189.97 375.98,193.43 379.09,202.65 382.81,197.73 
				382.81,197.72 386.52,202.65 393.16,193.52 			"/>
			<polygon class="st26" points="389.97,189.97 382.83,197.19 378.69,189.97 375.98,193.43 379.09,202.65 382.81,197.73 
				382.81,197.72 386.52,202.65 393.16,193.52 			"/>
			<path class="st27" d="M383.45,231.1c0,0,9.35-12.26,9.71-14.73c0.3-2.05,0-5.84,0-5.84s1.47-0.63,2.44-1.84
				c0.96-1.22,1.35-14.88,1.35-14.88l-2.61-0.39L383.45,231.1z"/>
			<path class="st27" d="M383.45,231.1c0,0-9.35-12.26-9.71-14.73c-0.3-2.05,0-5.84,0-5.84s-1.47-0.63-2.44-1.84
				c-0.96-1.22-0.4-14.5-0.4-14.5l2.4-0.33L383.45,231.1z"/>
			<polygon class="st27" points="358.13,214.88 357.8,205.2 354.53,217.99 			"/>
			<path class="st27" d="M406.79,222.83l2.26-13.87c0.33,0.26,0,19.5,0,19.5L406.79,222.83z"/>
			<polygon class="st27" points="405.04,242.96 403.97,255.05 407.65,255.13 407.65,242.24 			"/>
			<path class="st12" d="M376.27,194.29l2.49,9.49l3.98-4.65l3.94,4.84c0,0,5.52-8.91,5.17-8.54c-0.35,0.37-5.33,7.22-5.33,7.22
				l-3.72-4.93l-3.72,4.93L376.27,194.29z"/>
			<polygon class="st9" points="380.22,201.15 381.74,204.16 384.34,204.16 385.39,201.15 383.45,198.57 382.17,198.57 			"/>
			<path class="st9" d="M381.74,204.16l-1.52,15.12c0,0,3.27,12.17,3.23,11.82c-0.05-0.35,3.69-12.76,3.69-12.76l-2.8-14.18H381.74z
				"/>
		</g>
	</g>
</g>
<g id="Counter">
	<g>
		<g>
			<polygon class="st14" points="487.02,270.58 435.07,270.58 438.55,233.96 490.5,233.96 			"/>
			<polygon class="st27" points="435.07,270.58 438.55,233.96 441.96,233.92 437.95,270.58 			"/>
			<polygon class="st14" points="465.81,276.98 453.35,276.98 454.61,270.58 467.07,270.58 			"/>
			<polygon class="st27" points="453.35,276.98 454.61,270.58 467.07,270.58 466.71,272.42 456.13,272.39 455.34,276.98 			"/>
			<polygon class="st27" points="467.58,255.22 459.85,255.22 460.38,252.25 468.11,252.25 			"/>
		</g>
		<rect x="254.44" y="275.16" class="st14" width="248.96" height="8.46"/>
		<rect x="254.44" y="275.16" class="st16" width="248.96" height="8.46"/>
		<rect x="257.69" y="283.61" class="st14" width="243.12" height="168.81"/>
		<rect x="257.69" y="283.61" class="st15" width="243.12" height="168.81"/>
		<path class="st16" d="M307.87,283.64c-5.86,2.64-11.65,5.53-17.24,8.71c-7.3,4.16-19.07,10.84-16.23,21.06
			c1.4,5.04,6.29,6.35,10.65,7.92c2.09,0.75,4.51,2.11,5.26,4.37c0.8,2.44-1.67,3.46-3.29,4.58c-2.02,1.4-4.34,3.2-6.56,4.76
			c-2.88,2.02-5.79,4-8.7,5.97c-4.38,2.97-8.78,5.92-13.19,8.84c-1.6,1.06-0.1,3.66,1.51,2.59c9.09-6.02,18.32-11.95,27.04-18.51
			c1.4-1.05,2.96-1.9,4.29-3.03c1.75-1.48,2.48-3.79,1.79-6c-1.57-5.06-6.99-6.1-11.26-7.82c-2.12-0.85-4.01-2.17-4.65-4.47
			c-0.6-2.16-0.13-4.58,0.92-6.52c2.3-4.25,7.02-7,11.02-9.44c6.44-3.93,13.27-7.32,20.15-10.42
			C311.14,285.44,309.61,282.85,307.87,283.64L307.87,283.64z"/>
		<g class="st17">
			<path class="st3" d="M500.81,356.35c-11.06,6.12-21.19,13.88-29.95,22.93c-2.79,2.88-5.64,6.64-4.56,10.49
				c0.92,3.28,4.37,5.23,5.93,8.26c1.74,3.37,0.82,7.61-1.36,10.71c-2.18,3.11-5.43,5.3-8.66,7.31
				c-28.44,17.7-61.2,27.14-93.47,36.37h49.39c0,0,71.33-23.45,75.09-39.91c3.76-16.46-14.04-16.8-6.46-28.67
				c3.78-5.91,13.94-9.27,13.94-9.27L500.81,356.35z"/>
		</g>
		<rect x="257.69" y="283.61" class="st12" width="243.12" height="7.03"/>
		<g>
			<rect x="324.19" y="271.21" class="st14" width="9.77" height="2.08"/>
			<path class="st9" d="M335.25,275.16h-12.7c-0.61,0-1.11-0.49-1.11-1.11v-0.09c0-0.61,0.49-1.11,1.11-1.11h12.7
				c0.61,0,1.11,0.49,1.11,1.11v0.09C336.36,274.66,335.86,275.16,335.25,275.16z"/>
			<path class="st9" d="M329.82,265.27c0.14-0.15,0.23-0.35,0.23-0.57c0-0.46-0.37-0.83-0.83-0.83c-0.46,0-0.83,0.37-0.83,0.83
				c0,0.21,0.08,0.39,0.21,0.53c-3.35,0.21-6.01,2.99-6.01,6.4h12.83C335.42,268.36,332.98,265.67,329.82,265.27z"/>
			<g class="st17">
				<path class="st3" d="M323.76,270.72c2-0.14,3.95-0.95,5.46-2.28c0.23-0.21,0.46-0.43,0.61-0.7c0.15-0.27,0.21-0.61,0.1-0.9
					c-0.21-0.54-0.89-0.72-1.47-0.71c-1.19,0.02-2.37,0.5-3.22,1.33c-0.86,0.83-1.38,1.99-1.44,3.18"/>
			</g>
		</g>
		<rect x="268.81" y="249.04" class="st14" width="26.12" height="26.12"/>
		<g>
			<path class="st9" d="M278.42,242.65c1.24,3.69,0.71,7.94-1.41,11.2c-2.12,3.27-5.78,5.49-9.66,5.86
				c-1.88,0.18-4.03-0.19-5.11-1.74c-1.19-1.7-1.07-6.23-0.2-8.12c1.92-4.2,4.03-5.54,7.79-8.23c1.13-0.81,3.83-1.7,5.22-1.68
				c1.39,0.02,2.64,0.84,3.03,1.88L278.42,242.65z"/>
		</g>
		<g>
			<path class="st9" d="M283.61,246.26c-1.14,3.38-0.65,7.26,1.29,10.25c1.94,2.99,5.29,5.02,8.84,5.36
				c1.72,0.16,3.69-0.17,4.68-1.59c1.09-1.56,0.98-5.71,0.19-7.43c-1.76-3.84-3.69-5.07-7.13-7.53c-1.04-0.74-3.5-1.55-4.77-1.54
				c-1.27,0.02-2.42,0.77-2.78,1.72L283.61,246.26z"/>
		</g>
		<g>
			<path class="st9" d="M283.83,236.2c0.25-3.89,2.35-7.61,5.55-9.83c3.2-2.22,7.43-2.89,11.15-1.76c1.81,0.55,3.66,1.7,4.07,3.55
				c0.45,2.03-1.37,6.17-2.89,7.59c-3.37,3.16-5.83,3.6-10.33,4.66c-1.35,0.32-4.18,0.12-5.46-0.42c-1.28-0.55-2.12-1.78-2.09-2.89
				L283.83,236.2z"/>
		</g>
		<g>
			<path class="st9" d="M280.71,233.85c-0.3-4.69-2.83-9.18-6.69-11.86c-3.86-2.68-8.95-3.48-13.45-2.13
				c-2.18,0.66-4.41,2.06-4.91,4.28c-0.55,2.44,1.66,7.44,3.48,9.16c4.06,3.81,7.03,4.35,12.45,5.62c1.63,0.38,5.04,0.15,6.59-0.51
				c1.54-0.66,2.56-2.15,2.53-3.48L280.71,233.85z"/>
		</g>
		<path class="st14" d="M263.4,258.45c3.1-7.03,8.02-13.15,14.24-17.66c0.39-0.28,0.01-0.93-0.38-0.65
			c-6.33,4.58-11.36,10.78-14.51,17.93C262.56,258.51,263.21,258.89,263.4,258.45L263.4,258.45z"/>
		<path class="st14" d="M277.19,240.73c0.73,0.91,1.39,1.87,1.99,2.87c0.61,1.02,1.25,2.12,1.46,3.3c0.09,0.47,0.81,0.27,0.72-0.2
			c-0.23-1.24-0.9-2.41-1.54-3.48c-0.63-1.05-1.34-2.06-2.1-3.02C277.42,239.83,276.89,240.36,277.19,240.73L277.19,240.73z"/>
		<path class="st14" d="M284.91,244.47c4.71,4.57,8.55,9.95,11.37,15.88c0.21,0.44,0.85,0.06,0.65-0.38
			c-2.84-5.98-6.74-11.42-11.48-16.03C285.09,243.61,284.56,244.13,284.91,244.47L284.91,244.47z"/>
		<path class="st14" d="M282.24,249.94c0.28-5.82,2.82-11.98,7.45-15.68c4.08-3.26,9.49-5.45,14.63-6.25
			c0.48-0.07,0.27-0.8-0.2-0.72c-5.34,0.84-11.01,3.17-15.19,6.63c-4.63,3.84-7.15,10.11-7.43,16.02
			C281.47,250.43,282.22,250.43,282.24,249.94L282.24,249.94z"/>
		<path class="st14" d="M255.58,223.98c7.65,1.16,14.87,4.62,20.53,9.91c0.67,0.63,1.33,1.29,1.95,1.96
			c0.38,0.41,1.22,1.1,1.45,1.57c0.19,0.39,0.13,1.1,0.19,1.52c0.26,2.14,0.52,4.28,0.78,6.42c0.2,1.6,0.39,3.21,0.59,4.81
			c0.06,0.47,0.73,0.49,0.75,0c0.08-1.79,0.83-5.79,3.25-5.71c0.48,0.01,0.48-0.74,0-0.75c-2.94-0.09-3.89,4.22-4,6.46
			c0.25,0,0.5,0,0.75,0c-0.45-3.71-0.91-7.43-1.36-11.14c-0.06-0.5-0.04-1.12-0.2-1.6c-0.35-1.12-1.81-2.28-2.63-3.1
			c-2.76-2.78-5.96-5.14-9.42-6.97c-3.88-2.06-8.09-3.44-12.43-4.1C255.31,223.19,255.11,223.91,255.58,223.98L255.58,223.98z"/>
		<g class="st17">
			<path class="st3" d="M257.73,450.99c34.43-12.37,69.14-29.56,105.28-47.17c26.02-12.69,52.82-29.21,76.85-45.14
				c2.97-1.97,5.95-4.1,7.94-7.02c1.99-2.92,2.83-6.84,1.26-9.99c-2.14-4.3-7.63-5.66-12.43-6.54c-11.38-2.08-22.77-4.16-34.15-6.25
				c-2.69-0.49-6.22-2.46-4.99-4.86c0.49-0.96,1.61-1.42,2.63-1.8c28.82-10.73,57.65-21.45,86.47-32.18l-77.3,0.06
				c-22.88,10.94-47.04,19.39-66.49,35.46c-2.18,1.8-3.59,6.47-2.81,9.15c0.8,2.78,5.4,5.67,8.25,6.42
				c5.14,1.35,10.13,3.21,14.87,5.56c3.25,1.61,6.75,3.96,7.13,7.5c0.44,4-0.28,12.84-3.72,15.04
				c-17.45,11.17-31.11,15.12-55.25,27.74c-14.87,7.78-37.51,18.98-53.59,23.78L257.73,450.99z"/>
		</g>
		<g class="st27">
			<path d="M257.12,321.24c3.1-0.44,6.19,1.43,7.98,4c1.79,2.57,2.5,5.73,2.95,8.83c2.01,14.09-0.91,28.83-8.14,41.09
				c6.95-3.77,11.63-12.4,19.54-12.7c6.04-0.23,11.28,5.2,12.3,11.16c1.03,5.96-1.36,12.06-4.88,16.98
				c-3.52,4.91-8.13,8.92-12.34,13.26c-2.4,2.48-4.7,5.11-6.4,8.12c-6.68,11.85-2.88,26.85-6.52,39.95h-3.92L257.12,321.24z"/>
		</g>
	</g>
</g>
<g id="Plant">
	<g>
		<g>
			<g>
				<path class="st9" d="M234.23,407.38c0.14,0.35,0.6-0.32,0.45-2.35c-0.09-1.23-0.35-2.75-0.66-3.93
					c-1.22-4.7-0.61-7.95-1.84-12.65c-2.34-8.97-7-20.15-14.56-25.52c-2.62-1.86-6.78-2.82-8.67-0.22
					c-1.42,1.95-0.63,4.66,0.21,6.92c1.32,3.55,2.64,7.1,3.96,10.65c2.07,5.58,4.18,11.21,7.47,16.17
					C223.88,401.39,228.53,405.67,234.23,407.38"/>
			</g>
			<g class="st17">
				<path class="st3" d="M234.23,407.38c0.14,0.35,0.6-0.32,0.45-2.35c-0.09-1.23-0.35-2.75-0.66-3.93
					c-1.22-4.7-0.61-7.95-1.84-12.65c-2.34-8.97-7-20.15-14.56-25.52c-2.62-1.86-6.78-2.82-8.67-0.22
					c-1.42,1.95-0.63,4.66,0.21,6.92c1.32,3.55,2.64,7.1,3.96,10.65c2.07,5.58,4.18,11.21,7.47,16.17
					C223.88,401.39,228.53,405.67,234.23,407.38"/>
			</g>
			<path class="st14" d="M239.16,422.58c-0.87-4.31-2.28-8.5-3.93-12.57c-2.26-5.57-5.22-10.73-7.88-16.1
				c-4.13-8.34-6.2-17.87-11.69-25.47c-1.69-2.34-3.29-4.76-4.93-7.13c-0.27-0.39-0.92-0.02-0.65,0.38c1.49,2.15,2.98,4.3,4.46,6.45
				c0.65,0.94,1.38,1.82,1.98,2.79c1.22,1.96,2.16,4.09,3.05,6.22c2.08,4.98,3.86,10.08,6.1,14.99c2.51,5.49,5.66,10.63,8.04,16.19
				c2,4.66,3.71,9.48,4.72,14.46C238.53,423.25,239.25,423.05,239.16,422.58L239.16,422.58z"/>
			<g>
				<path class="st9" d="M250.83,417.03c-2.32-10.25-0.85-21.32,4.07-30.6c4.93-9.29,13.26-16.71,23.05-20.54
					c1.97-0.77,4.21-1.39,6.17-0.59c2.09,0.86,3.28,3.2,3.37,5.46c0.09,2.26-0.72,4.45-1.66,6.51c-2.81,6.18-6.8,11.74-10.77,17.25
					c-3.89,5.41-7.78,10.82-11.67,16.23c-1.24,1.72-2.52,3.48-4.28,4.65C257.34,416.58,252.68,418.06,250.83,417.03"/>
			</g>
			<g class="st17">
				<path class="st3" d="M250.83,417.03c-2.32-10.25-0.85-21.32,4.07-30.6c4.93-9.29,13.26-16.71,23.05-20.54
					c1.97-0.77,4.21-1.39,6.17-0.59c2.09,0.86,3.28,3.2,3.37,5.46c0.09,2.26-0.72,4.45-1.66,6.51c-2.81,6.18-6.8,11.74-10.77,17.25
					c-3.89,5.41-7.78,10.82-11.67,16.23c-1.24,1.72-2.52,3.48-4.28,4.65C257.34,416.58,252.68,418.06,250.83,417.03"/>
			</g>
			<g>
				<path class="st9" d="M240.88,389.36c-2.41-2.65-4.5-12.36-4.45-14c0.18-6.47-0.64-4.47-0.46-10.94
					c0.34-12.35,4.47-28.01,12.67-37.25c2.84-3.2,7.95-5.69,11.19-2.89c2.43,2.1,2.22,5.86,1.81,9.04c-0.65,5-1.3,10-1.94,15
					c-1.02,7.86-2.06,15.8-4.85,23.21c-2.79,7.42-7.54,14.37-14.43,18.29"/>
			</g>
			<g class="st17">
				<path class="st3" d="M240.88,389.36c-2.41-2.65-4.5-12.36-4.45-14c0.18-6.47-0.64-4.47-0.46-10.94
					c0.34-12.35,4.47-28.01,12.67-37.25c2.84-3.2,7.95-5.69,11.19-2.89c2.43,2.1,2.22,5.86,1.81,9.04c-0.65,5-1.3,10-1.94,15
					c-1.02,7.86-2.06,15.8-4.85,23.21c-2.79,7.42-7.54,14.37-14.43,18.29"/>
			</g>
			<path class="st14" d="M242.02,440.94c-1.98-6.15,0.99-12.41,4.65-17.28c3.69-4.89,8.15-9.14,10.94-14.66
				c2.75-5.46,4.15-11.46,6.09-17.23c1.63-4.85,4.14-9.06,7.58-12.86c4.2-4.63,9.41-8.49,15.37-10.5c0.46-0.15,0.26-0.88-0.2-0.72
				c-5.26,1.77-9.95,4.95-13.9,8.82c-3.44,3.37-6.52,7.36-8.39,11.82c-2.52,6.03-3.7,12.53-6.36,18.51
				c-2.74,6.15-7.41,10.75-11.46,16.01c-3.93,5.11-7.15,11.74-5.05,18.27C241.45,441.6,242.17,441.4,242.02,440.94L242.02,440.94z"
				/>
			<path class="st14" d="M236.81,443c0.72-8.52,2.01-16.98,3-25.47c0.52-4.49,0.95-8.99,1.19-13.51c0.26-4.81,0.16-9.62,0.26-14.43
				c0.21-9.62,1.34-19.23,3.38-28.63c1.02-4.72,2.27-9.39,3.75-13.99c1.38-4.31,2.83-8.75,4.8-12.83c1.72-3.56,3.6-7.05,5.4-10.58
				c0.22-0.43-0.43-0.81-0.65-0.38c-1.73,3.38-3.45,6.76-5.18,10.15c-1.57,3.08-2.71,6.48-3.85,9.74c-1.6,4.56-2.97,9.19-4.11,13.88
				c-2.26,9.27-3.64,18.76-4.12,28.29c-0.25,4.89-0.11,9.79-0.25,14.68c-0.13,4.63-0.47,9.26-0.95,13.87
				c-1,9.76-2.58,19.44-3.41,29.22C236.02,443.48,236.77,443.48,236.81,443L236.81,443z"/>
		</g>
		<path class="st14" d="M259.08,421.27h-38.32c0,0-2.8,6.99,2.8,8.95l3.5,22.94h26.43l2.94-22.52
			C256.42,430.64,260.75,428.83,259.08,421.27z"/>
		<path d="M223.91,430.67c10.77,0,21.55,0,32.32,0c0.48,0,0.48-0.75,0-0.75c-10.77,0-21.55,0-32.32,0
			C223.43,429.92,223.43,430.67,223.91,430.67L223.91,430.67z"/>
		<path class="st9" d="M227.36,447.46c0.02-0.2,0.79-0.98,1.03-1.25c0.61-0.7,1.23-1.38,1.86-2.06c0.84-0.91,1.68-1.81,2.54-2.7
			c-0.18,0-0.35,0-0.53,0c1.68,2.09,3.35,4.18,5.03,6.27c0.13,0.16,0.4,0.13,0.53,0c2.17-2.09,4.34-4.18,6.51-6.27
			c-0.18,0-0.35,0-0.53,0c1.97,2.09,3.94,4.18,5.91,6.27c0.13,0.14,0.41,0.16,0.53,0c1.51-1.89,3.02-3.77,4.52-5.66
			c0.3-0.37-0.23-0.91-0.53-0.53c-1.51,1.89-3.02,3.77-4.52,5.66c0.18,0,0.35,0,0.53,0c-1.97-2.09-3.94-4.18-5.91-6.27
			c-0.14-0.15-0.39-0.14-0.53,0c-2.17,2.09-4.34,4.18-6.51,6.27c0.18,0,0.35,0,0.53,0c-1.68-2.09-3.35-4.18-5.03-6.27
			c-0.13-0.16-0.4-0.13-0.53,0c-1.03,1.07-2.04,2.15-3.05,3.25c-0.65,0.71-1.31,1.43-1.91,2.18c-0.25,0.31-0.64,0.69-0.68,1.11
			C226.57,447.94,227.32,447.94,227.36,447.46L227.36,447.46z"/>
	</g>
</g>
</svg>
