<?xml version="1.0" encoding="utf-8"?>
<!-- Generator: Adobe Illustrator 25.4.1, SVG Export Plug-In . SVG Version: 6.00 Build 0)  -->
<svg version="1.1" id="Capa_1" xmlns="http://www.w3.org/2000/svg" xmlns:xlink="http://www.w3.org/1999/xlink" x="0px" y="0px"
	 viewBox="0 0 336 62" style="enable-background:new 0 0 336 62;" xml:space="preserve">
<style type="text/css">
	.st0{fill:#5C64AC;}
	.st1{fill:#FFFFFF;}
</style>
<g>
	<g>
		<path class="st0" d="M29.2,44.9c-0.8,0-1.6-0.3-2.3-0.9l-9.3-9c-1.3-1.2-1.3-3.3-0.1-4.6c1.2-1.3,3.3-1.3,4.6-0.1l6.8,6.5
			l18.2-22.7c1.1-1.4,3.2-1.6,4.6-0.5c1.4,1.1,1.6,3.2,0.5,4.6L31.8,43.7c-0.6,0.7-1.4,1.2-2.3,1.2C29.4,44.9,29.3,44.9,29.2,44.9z"
			/>
		<path class="st1" d="M29.5,61.8c-15.4,0-27.9-12.5-27.9-27.9c0-9.8,5.3-19,13.7-24c1.3-0.8,3-0.3,3.8,1c0.8,1.3,0.3,3-1,3.8
			c-6.8,4-11,11.4-11,19.2c0,12.3,10,22.3,22.3,22.3s22.3-10,22.3-22.3c0-1.5,1.2-2.8,2.8-2.8s2.8,1.2,2.8,2.8
			C57.3,49.3,44.8,61.8,29.5,61.8z"/>
		<path class="st1" d="M24.3,21.2c-0.5,0-1-0.1-1.4-0.4c-1.3-0.8-1.7-2.5-1-3.8l4.9-8.2L17.5,6c-1.5-0.4-2.3-2-1.9-3.5
			c0.4-1.5,2-2.3,3.5-1.9l12.7,3.8c0.8,0.2,1.5,0.9,1.8,1.7c0.4,0.8,0.3,1.7-0.1,2.4l-6.8,11.3C26.2,20.7,25.2,21.2,24.3,21.2z"/>
	</g>
	<g>
		<path class="st1" d="M73.5,45.8V17.4h14.8c2.3,0,4.2,0.4,5.7,1.3s2.6,2,3.3,3.6c0.7,1.5,1.1,3.3,1.1,5.3c0,1.9-0.5,3.6-1.4,5.1
			c-1,1.5-2.2,2.6-3.8,3.3c0.3,0.3,0.6,0.6,0.8,1c0.2,0.4,0.5,0.9,0.8,1.5l3.3,7.5h-8.7l-3-6.8c-0.2-0.5-0.5-0.9-0.9-1.1
			c-0.3-0.2-0.8-0.3-1.4-0.3h-2.3v8H73.5z M81.8,31.2h4.4c1.2,0,2.1-0.3,2.8-1c0.7-0.6,1-1.5,1-2.7c0-2.5-1.2-3.8-3.5-3.8h-4.6v7.5
			H81.8z"/>
		<path class="st1" d="M109.1,46.3c-2.4,0-4.4-0.7-5.7-2.1c-1.4-1.4-2.1-3.4-2.1-6.1V24.9h8.3v12.6c0,1.8,0.9,2.7,2.8,2.7
			c0.7,0,1.3-0.1,2-0.4c0.6-0.3,1.2-0.7,1.5-1.1V24.9h8.3v20.9h-7.7l-0.2-1.6c-0.8,0.6-1.8,1.1-3,1.5
			C112,46.1,110.7,46.3,109.1,46.3z"/>
		<path class="st1" d="M137.2,46.3c-2.8,0-4.8-0.7-6.1-2.1c-1.3-1.4-1.9-3.3-1.9-5.7v-7.4h-2.7V25h2.7v-4.3l8.3-2V25h4.8l-0.3,6.1
			h-4.5v6.7c0,0.9,0.2,1.5,0.7,1.9c0.4,0.4,1.1,0.6,2,0.6s1.7-0.1,2.6-0.4v5.5C141.3,46,139.4,46.3,137.2,46.3z"/>
		<path class="st1" d="M147.2,45.8V30.9h-3l0.7-6.1h10.6v21H147.2z M146.5,22.1v-6h9v6H146.5z"/>
		<path class="st1" d="M159.4,45.8V24.9h7.8l0.2,1.6c0.8-0.5,1.8-1,3.2-1.4c1.3-0.4,2.7-0.6,4.2-0.6c2.6,0,4.5,0.6,5.7,1.9
			s1.8,3.3,1.8,6v13.4H174V33.2c0-0.9-0.2-1.6-0.6-2c-0.4-0.4-1.1-0.6-2.2-0.6c-0.6,0-1.3,0.1-1.9,0.4c-0.7,0.3-1.2,0.6-1.6,1.1
			v13.7H159.4z"/>
		<path class="st1" d="M192,46.3c-1.3,0-2.6-0.2-3.7-0.7c-1.1-0.5-2-1.2-2.7-2.2s-1-2.3-1-3.8c0-2.2,0.7-3.9,2.2-5.1
			c1.5-1.2,3.7-1.8,6.7-1.8h5.4v-0.4c0-0.8-0.3-1.4-1-1.8s-1.9-0.6-3.6-0.6c-2.4,0-4.8,0.4-7.2,1.1v-5c1.1-0.4,2.4-0.8,4-1
			c1.6-0.3,3.2-0.4,4.9-0.4c3.3,0,6,0.7,7.9,2c1.9,1.4,2.9,3.5,2.9,6.5v12.7h-7.2l-0.4-1.7c-0.7,0.6-1.7,1.2-2.9,1.5
			C195.1,46.1,193.7,46.3,192,46.3z M194.8,41.4c0.9,0,1.7-0.2,2.4-0.5s1.2-0.7,1.7-1.2v-2.6h-4c-1.8,0-2.7,0.7-2.7,2.2
			C192.1,40.7,193,41.4,194.8,41.4z"/>
		<path class="st0" d="M225.5,46.3c-5.2,0-9.1-1.3-11.8-3.8s-4.1-6.1-4.1-10.7c0-4.8,1.3-8.4,4-11c2.7-2.5,6.6-3.8,11.8-3.8
			c1.8,0,3.3,0.1,4.7,0.4s2.7,0.6,4,1.1v7.2c-2.5-1.1-5.2-1.7-8.1-1.7c-2.7,0-4.7,0.6-6,1.8c-1.3,1.2-1.9,3.2-1.9,5.9
			s0.7,4.6,2.1,5.7c1.4,1.2,3.4,1.7,5.9,1.7c1.4,0,2.8-0.1,4.1-0.4c1.3-0.3,2.7-0.7,4-1.2v7.3c-1.3,0.4-2.6,0.8-4,1
			C228.9,46.2,227.3,46.3,225.5,46.3z"/>
		<path class="st0" d="M237.4,45.8V16.1h8.3v10.1c0.7-0.5,1.7-0.9,2.8-1.2c1.1-0.3,2.3-0.5,3.6-0.5c2.9,0,5,0.7,6.3,2s2,3.4,2,6.2
			v13.1H252V33.3c0-1-0.2-1.7-0.6-2.1c-0.4-0.4-1.1-0.6-2.1-0.6c-0.6,0-1.3,0.1-1.9,0.4c-0.7,0.3-1.2,0.6-1.6,1.1v13.7H237.4z"/>
		<path class="st0" d="M275.3,46.3c-2.4,0-4.6-0.4-6.5-1.2s-3.3-2-4.4-3.6c-1-1.6-1.6-3.6-1.6-6c0-3.3,0.9-6,2.8-8s4.7-3,8.4-3
			c3.4,0,6.1,0.9,8,2.6s2.9,4.1,2.9,7.1v3.6h-14.5c0.4,1.1,1.1,1.9,2.3,2.4c1.1,0.5,2.6,0.7,4.6,0.7c1.2,0,2.4-0.1,3.6-0.3
			s2.2-0.5,2.9-0.8v5C281.9,45.8,279,46.3,275.3,46.3z M270.6,33.3h7.4v-0.8c0-0.8-0.3-1.5-0.8-2s-1.4-0.8-2.7-0.8
			c-1.4,0-2.5,0.3-3,0.9C270.9,31.3,270.6,32.2,270.6,33.3z"/>
		<path class="st0" d="M299.7,46.3c-3.8,0-6.8-0.9-9-2.7s-3.3-4.5-3.3-8.2c0-2.5,0.5-4.5,1.5-6.1s2.5-2.8,4.3-3.6
			c1.9-0.8,4-1.2,6.5-1.2c1.6,0,3,0.1,4.2,0.3c1.2,0.2,2.4,0.6,3.5,1.1v5.8c-1.7-0.8-3.7-1.2-5.9-1.2c-1.9,0-3.3,0.4-4.3,1.1
			c-1,0.7-1.4,2-1.4,3.8c0,1.7,0.5,2.9,1.4,3.7s2.4,1.1,4.3,1.1c1.1,0,2.1-0.1,3.1-0.4c1-0.3,2-0.6,2.9-1.1v6.1
			c-1.1,0.5-2.3,0.9-3.6,1.1C302.6,46.2,301.2,46.3,299.7,46.3z"/>
		<path class="st0" d="M310.6,45.8V16.1h8.3v14.7l5.8-5.9h9.4l-8.4,8.8l8.8,12.1h-8.8l-5.2-7.8l-1.7,1.7v6.1H310.6z"/>
	</g>
</g>
</svg>
