<?xml version="1.0" encoding="utf-8"?>
<!-- Generator: Adobe Illustrator 25.4.1, SVG Export Plug-In . SVG Version: 6.00 Build 0)  -->
<svg version="1.1" id="Capa_1" xmlns="http://www.w3.org/2000/svg" xmlns:xlink="http://www.w3.org/1999/xlink" x="0px" y="0px"
	 viewBox="0 0 62 62" style="enable-background:new 0 0 62 62;" xml:space="preserve">
<style type="text/css">
	.st0{fill:#5C64AC;}
	.st1{fill:#707570;}
</style>
<g>
	<path class="st0" d="M30.8,44.9c-0.8,0-1.7-0.3-2.3-0.9l-9.5-9.1c-1.3-1.3-1.3-3.3-0.1-4.6c1.3-1.3,3.3-1.3,4.6-0.1l6.9,6.6
		l18.4-23c1.1-1.4,3.2-1.6,4.6-0.5c1.4,1.1,1.6,3.2,0.5,4.6L33.4,43.7c-0.6,0.7-1.4,1.2-2.4,1.2C30.9,44.9,30.9,44.9,30.8,44.9z"/>
	<path class="st1" d="M31,62C15.4,62,2.8,49.3,2.8,33.8c0-9.9,5.3-19.2,13.9-24.3c1.3-0.8,3.1-0.4,3.9,1c0.8,1.3,0.4,3.1-1,3.9
		C12.7,18.4,8.4,25.8,8.4,33.8c0,12.5,10.1,22.6,22.6,22.6s22.6-10.1,22.6-22.6c0-1.6,1.3-2.8,2.8-2.8c1.6,0,2.8,1.3,2.8,2.8
		C59.2,49.3,46.6,62,31,62z"/>
	<path class="st1" d="M25.8,20.9c-0.5,0-1-0.1-1.4-0.4c-1.3-0.8-1.8-2.5-1-3.9l5-8.3L19,5.5c-1.5-0.4-2.3-2-1.9-3.5
		c0.4-1.5,2-2.3,3.5-1.9l12.9,3.8c0.8,0.2,1.5,0.9,1.8,1.7c0.3,0.8,0.2,1.7-0.2,2.5l-6.9,11.4C27.7,20.4,26.7,20.9,25.8,20.9z"/>
</g>
</svg>
