<?xml version="1.0" encoding="utf-8"?>
<!-- Generator: Adobe Illustrator 25.4.1, SVG Export Plug-In . SVG Version: 6.00 Build 0)  -->
<svg version="1.1" id="Capa_1" xmlns="http://www.w3.org/2000/svg" xmlns:xlink="http://www.w3.org/1999/xlink" x="0px" y="0px"
	 viewBox="0 0 335.2 62" style="enable-background:new 0 0 335.2 62;" xml:space="preserve">
<style type="text/css">
	.st0{fill:#5C64AC;}
	.st1{fill:#707570;}
</style>
<g>
	<g>
		<path class="st0" d="M28.7,45.1c-0.8,0-1.6-0.3-2.3-0.9l-9.3-9c-1.3-1.2-1.3-3.3-0.1-4.6c1.2-1.3,3.3-1.3,4.6-0.1l6.8,6.5
			l18.2-22.7c1.1-1.4,3.2-1.6,4.6-0.5c1.4,1.1,1.6,3.2,0.5,4.6L31.3,43.9c-0.6,0.7-1.4,1.2-2.3,1.2C28.9,45.1,28.8,45.1,28.7,45.1z"
			/>
		<path class="st1" d="M29,62C13.6,62,1.1,49.5,1.1,34.1c0-9.8,5.3-19,13.7-24c1.3-0.8,3-0.3,3.8,1c0.8,1.3,0.3,3-1,3.8
			c-6.8,4-11,11.4-11,19.2c0,12.3,10,22.3,22.3,22.3s22.3-10,22.3-22.3c0-1.5,1.2-2.8,2.8-2.8s2.8,1.2,2.8,2.8
			C56.8,49.5,44.3,62,29,62z"/>
		<path class="st1" d="M23.8,21.4c-0.5,0-1-0.1-1.4-0.4c-1.3-0.8-1.7-2.5-1-3.8l4.9-8.2l-9.3-2.8c-1.5-0.4-2.3-2-1.9-3.5
			c0.4-1.5,2-2.3,3.5-1.9l12.7,3.8c0.8,0.2,1.5,0.9,1.8,1.7C33.5,7.1,33.4,8,33,8.7L26.2,20C25.7,20.9,24.7,21.4,23.8,21.4z"/>
	</g>
	<g>
		<path class="st1" d="M73,46V17.6h14.8c2.3,0,4.2,0.4,5.7,1.3c1.5,0.9,2.6,2,3.3,3.6c0.7,1.5,1.1,3.3,1.1,5.3
			c0,1.9-0.5,3.6-1.4,5.1c-1,1.5-2.2,2.6-3.8,3.3c0.3,0.3,0.6,0.6,0.8,1c0.2,0.4,0.5,0.9,0.8,1.5l3.3,7.5h-8.7l-3-6.8
			c-0.2-0.5-0.5-0.9-0.9-1.1c-0.3-0.2-0.8-0.3-1.4-0.3h-2.3V46H73z M81.3,31.4h4.4c1.2,0,2.1-0.3,2.8-1c0.7-0.6,1-1.5,1-2.7
			c0-2.5-1.2-3.8-3.5-3.8h-4.6V31.4z"/>
		<path class="st1" d="M108.6,46.5c-2.4,0-4.4-0.7-5.7-2.1c-1.4-1.4-2.1-3.4-2.1-6.1V25.1h8.3v12.6c0,1.8,0.9,2.7,2.8,2.7
			c0.7,0,1.3-0.1,2-0.4c0.6-0.3,1.2-0.7,1.5-1.1V25.1h8.3V46H116l-0.2-1.6c-0.8,0.6-1.8,1.1-3,1.5C111.5,46.3,110.2,46.5,108.6,46.5
			z"/>
		<path class="st1" d="M136.7,46.5c-2.8,0-4.8-0.7-6.1-2.1c-1.3-1.4-1.9-3.3-1.9-5.7v-7.4H126v-6.1h2.7v-4.3l8.3-2v6.3h4.8l-0.3,6.1
			H137V38c0,0.9,0.2,1.5,0.7,1.9c0.4,0.4,1.1,0.6,2,0.6c0.9,0,1.7-0.1,2.6-0.4v5.5C140.8,46.2,138.9,46.5,136.7,46.5z"/>
		<path class="st1" d="M146.7,46V31.1h-3l0.7-6.1H155V46H146.7z M146,22.3v-6h9v6H146z"/>
		<path class="st1" d="M158.9,46V25.1h7.8l0.2,1.6c0.8-0.5,1.8-1,3.2-1.4c1.3-0.4,2.7-0.6,4.2-0.6c2.6,0,4.5,0.6,5.7,1.9
			c1.2,1.3,1.8,3.3,1.8,6V46h-8.3V33.4c0-0.9-0.2-1.6-0.6-2c-0.4-0.4-1.1-0.6-2.2-0.6c-0.6,0-1.3,0.1-1.9,0.4
			c-0.7,0.3-1.2,0.6-1.6,1.1V46H158.9z"/>
		<path class="st1" d="M191.5,46.5c-1.3,0-2.6-0.2-3.7-0.7c-1.1-0.5-2-1.2-2.7-2.2c-0.7-1-1-2.3-1-3.8c0-2.2,0.7-3.9,2.2-5.1
			c1.5-1.2,3.7-1.8,6.7-1.8h5.4v-0.4c0-0.8-0.3-1.4-1-1.8c-0.7-0.4-1.9-0.6-3.6-0.6c-2.4,0-4.8,0.4-7.2,1.1v-5c1.1-0.4,2.4-0.8,4-1
			c1.6-0.3,3.2-0.4,4.9-0.4c3.3,0,6,0.7,7.9,2c1.9,1.4,2.9,3.5,2.9,6.5V46h-7.2l-0.4-1.7c-0.7,0.6-1.7,1.2-2.9,1.5
			C194.6,46.3,193.2,46.5,191.5,46.5z M194.3,41.6c0.9,0,1.7-0.2,2.4-0.5c0.7-0.3,1.2-0.7,1.7-1.2v-2.6h-4c-1.8,0-2.7,0.7-2.7,2.2
			C191.6,40.9,192.5,41.6,194.3,41.6z"/>
		<path class="st0" d="M225,46.5c-5.2,0-9.1-1.3-11.8-3.8c-2.7-2.5-4.1-6.1-4.1-10.7c0-4.8,1.3-8.4,4-11c2.7-2.5,6.6-3.8,11.8-3.8
			c1.8,0,3.3,0.1,4.7,0.4c1.4,0.3,2.7,0.6,4,1.1v7.2c-2.5-1.1-5.2-1.7-8.1-1.7c-2.7,0-4.7,0.6-6,1.8c-1.3,1.2-1.9,3.2-1.9,5.9
			c0,2.7,0.7,4.6,2.1,5.7c1.4,1.2,3.4,1.7,5.9,1.7c1.4,0,2.8-0.1,4.1-0.4c1.3-0.3,2.7-0.7,4-1.2v7.3c-1.3,0.4-2.6,0.8-4,1
			C228.4,46.4,226.8,46.5,225,46.5z"/>
		<path class="st0" d="M236.9,46V16.3h8.3v10.1c0.7-0.5,1.7-0.9,2.8-1.2c1.1-0.3,2.3-0.5,3.6-0.5c2.9,0,5,0.7,6.3,2
			c1.3,1.3,2,3.4,2,6.2V46h-8.4V33.5c0-1-0.2-1.7-0.6-2.1c-0.4-0.4-1.1-0.6-2.1-0.6c-0.6,0-1.3,0.1-1.9,0.4
			c-0.7,0.3-1.2,0.6-1.6,1.1V46H236.9z"/>
		<path class="st0" d="M274.8,46.5c-2.4,0-4.6-0.4-6.5-1.2c-1.9-0.8-3.3-2-4.4-3.6c-1-1.6-1.6-3.6-1.6-6c0-3.3,0.9-6,2.8-8
			c1.9-2,4.7-3,8.4-3c3.4,0,6.1,0.9,8,2.6c1.9,1.7,2.9,4.1,2.9,7.1V38h-14.5c0.4,1.1,1.1,1.9,2.3,2.4c1.1,0.5,2.6,0.7,4.6,0.7
			c1.2,0,2.4-0.1,3.6-0.3c1.2-0.2,2.2-0.5,2.9-0.8v5C281.4,46,278.5,46.5,274.8,46.5z M270.1,33.5h7.4v-0.8c0-0.8-0.3-1.5-0.8-2
			c-0.5-0.5-1.4-0.8-2.7-0.8c-1.4,0-2.5,0.3-3,0.9C270.4,31.5,270.1,32.4,270.1,33.5z"/>
		<path class="st0" d="M299.2,46.5c-3.8,0-6.8-0.9-9-2.7c-2.2-1.8-3.3-4.5-3.3-8.2c0-2.5,0.5-4.5,1.5-6.1c1-1.6,2.5-2.8,4.3-3.6
			c1.9-0.8,4-1.2,6.5-1.2c1.6,0,3,0.1,4.2,0.3c1.2,0.2,2.4,0.6,3.5,1.1v5.8c-1.7-0.8-3.7-1.2-5.9-1.2c-1.9,0-3.3,0.4-4.3,1.1
			c-1,0.7-1.4,2-1.4,3.8c0,1.7,0.5,2.9,1.4,3.7c0.9,0.8,2.4,1.1,4.3,1.1c1.1,0,2.1-0.1,3.1-0.4c1-0.3,2-0.6,2.9-1.1v6.1
			c-1.1,0.5-2.3,0.9-3.6,1.1C302.1,46.4,300.7,46.5,299.2,46.5z"/>
		<path class="st0" d="M310.1,46V16.3h8.3V31l5.8-5.9h9.4l-8.4,8.8l8.8,12.1h-8.8l-5.2-7.8l-1.7,1.7V46H310.1z"/>
	</g>
</g>
</svg>
