<?xml version="1.0" encoding="utf-8"?>
<!-- Generator: Adobe Illustrator 25.4.1, SVG Export Plug-In . SVG Version: 6.00 Build 0)  -->
<svg version="1.1" id="OBJECTS" xmlns="http://www.w3.org/2000/svg" xmlns:xlink="http://www.w3.org/1999/xlink" x="0px" y="0px"
	 viewBox="0 0 600 800" style="enable-background:new 0 0 600 800;" xml:space="preserve">
<style type="text/css">
	.st0{fill:#A855C0;}
	.st1{fill:#6B437A;}
	.st2{fill:#2B1A15;}
	.st3{fill:#89BDE3;}
	.st4{fill:#3F9BD3;}
	.st5{fill:#EBF4E9;}
	.st6{fill:#808080;}
	.st7{fill:#2C1F14;}
	.st8{fill:none;stroke:#AC8FC5;stroke-linecap:round;stroke-linejoin:round;stroke-miterlimit:10;}
	.st9{fill:#DBB945;}
	.st10{fill:none;stroke:#6B437A;stroke-linecap:round;stroke-linejoin:round;stroke-miterlimit:10;}
	
		.st11{clip-path:url(#SVGID_00000011718856148062037800000012622782927237253562_);fill:none;stroke:#AC8FC5;stroke-linecap:round;stroke-linejoin:round;stroke-miterlimit:10;}
</style>
<g>
	<path class="st0" d="M472.71,205.44H119.83c-3.19,0-5.77-2.58-5.77-5.77V179.1c0-3.19,2.58-5.77,5.77-5.77h352.88
		c3.19,0,5.77,2.58,5.77,5.77v20.57C478.48,202.86,475.9,205.44,472.71,205.44z"/>
	<path class="st1" d="M349.68,208.24l-0.26-0.48l-12.04-22.29h-74.7l-12.11,22.41l0.02,0.03c-0.39,0.79-0.63,1.66-0.63,2.6
		c0,3.23,2.62,5.85,5.85,5.85h88.48c3.23,0,5.85-2.62,5.85-5.85C350.14,209.71,349.98,208.94,349.68,208.24z"/>
	<path class="st1" d="M58.17,55.17c0,0,5.02-17.23,11.76-16.86c0,0,461.84,0,465.11,0c6.35-0.01,13.06,11.17,12.52,17.63"/>
	<path class="st2" d="M469.13,192.13H132.32c-7.88,0.03-16.06-3.98-18.25-8.96L58.68,57.65c-2.2-4.98,4.77-9.01,15.56-9.01h458.11
		c10.79,0,17.55,4,15.11,8.93l-61.62,124.36C483.38,186.85,477.02,192.1,469.13,192.13z"/>
	<path class="st3" d="M470.26,166.89H130.01c-6.21,0.02-12.48-2.95-14-6.64L75.96,63.25c-1.52-3.68,3.62-6.67,11.49-6.67
		l431.27-0.07c7.87,0,12.86,2.96,11.16,6.61l-44.86,96.16C483.32,162.93,476.48,166.87,470.26,166.89z"/>
	<path class="st4" d="M234.76,166.89H130.01c-6.21,0.02-12.48-2.95-14-6.64L75.96,63.25c-1.52-3.68,3.62-6.67,11.49-6.67
		l215.66-0.03"/>
	<path class="st5" d="M308.51,179.08c-0.15,3.19-4.01,5.78-8.62,5.8s-8.35-2.56-8.33-5.75c0.01-3.19,3.87-5.79,8.62-5.8
		C304.93,173.32,308.66,175.89,308.51,179.08z"/>
	<path class="st6" d="M349.42,207.77l0.26,0.48C349.61,208.07,349.51,207.93,349.42,207.77z"/>
</g>
<g>
	<path class="st0" d="M335.9,381.54L91.25,358.69c-2.55-0.24-4.42-2.5-4.19-5.05l8.14-87.2c0.24-2.55,2.5-4.42,5.05-4.19
		L344.9,285.1c2.55,0.24,4.42,2.5,4.19,5.05l-8.14,87.2C340.71,379.9,338.45,381.78,335.9,381.54z"/>
	<path class="st1" d="M335.67,377.99L91.02,355.15c-2.55-0.24-4.42-2.5-4.19-5.05l8.14-87.2c0.24-2.55,2.5-4.42,5.05-4.19
		l244.64,22.85c2.55,0.24,4.42,2.5,4.19,5.05l-8.14,87.2C340.48,376.36,338.22,378.23,335.67,377.99z"/>
	<path class="st3" d="M335.9,374.44L91.25,351.6c-2.55-0.24-4.42-2.5-4.19-5.05l8.14-87.2c0.24-2.55,2.5-4.42,5.05-4.19L344.9,278
		c2.55,0.24,4.42,2.5,4.19,5.05l-8.14,87.2C340.71,372.81,338.45,374.68,335.9,374.44z"/>
	<path class="st4" d="M321.47,348.77l-211.79-19.78c-2.55-0.24-4.42-2.5-4.19-5.05l4.82-51.61c0.24-2.55,2.5-4.42,5.05-4.19
		l211.79,19.78c2.55,0.24,4.42,2.5,4.19,5.05l-4.82,51.61C326.28,347.13,324.02,349.01,321.47,348.77z"/>
	<g>
		<path class="st7" d="M128.05,288.23l-9.66-0.9c-0.97-0.09-1.68-0.95-1.59-1.92l0.9-9.66c0.09-0.97,0.95-1.68,1.92-1.59l9.66,0.9
			c0.97,0.09,1.68,0.95,1.59,1.92l-0.9,9.66C129.88,287.6,129.02,288.32,128.05,288.23z"/>
		<path class="st7" d="M145.48,289.85l-9.66-0.9c-0.97-0.09-1.68-0.95-1.59-1.92l0.9-9.66c0.09-0.97,0.95-1.68,1.92-1.59l9.66,0.9
			c0.97,0.09,1.68,0.95,1.59,1.92l-0.9,9.66C147.31,289.23,146.45,289.94,145.48,289.85z"/>
		<path class="st7" d="M162.91,291.48l-9.66-0.9c-0.97-0.09-1.68-0.95-1.59-1.92l0.9-9.66c0.09-0.97,0.95-1.68,1.92-1.59l9.66,0.9
			c0.97,0.09,1.68,0.95,1.59,1.92l-0.9,9.66C164.74,290.86,163.88,291.57,162.91,291.48z"/>
		<path class="st7" d="M180.34,293.11l-9.66-0.9c-0.97-0.09-1.68-0.95-1.59-1.92l0.9-9.66c0.09-0.97,0.95-1.68,1.92-1.59l9.66,0.9
			c0.97,0.09,1.68,0.95,1.59,1.92l-0.9,9.66C182.17,292.49,181.31,293.2,180.34,293.11z"/>
		<path class="st7" d="M197.77,294.74l-9.66-0.9c-0.97-0.09-1.68-0.95-1.59-1.92l0.9-9.66c0.09-0.97,0.95-1.68,1.92-1.59l9.66,0.9
			c0.97,0.09,1.68,0.95,1.59,1.92l-0.9,9.66C199.6,294.11,198.74,294.83,197.77,294.74z"/>
		<path class="st7" d="M215.2,296.36l-9.66-0.9c-0.97-0.09-1.68-0.95-1.59-1.92l0.9-9.66c0.09-0.97,0.95-1.68,1.92-1.59l9.66,0.9
			c0.97,0.09,1.68,0.95,1.59,1.92l-0.9,9.66C217.02,295.74,216.17,296.45,215.2,296.36z"/>
		<path class="st7" d="M232.62,297.99l-9.66-0.9c-0.97-0.09-1.68-0.95-1.59-1.92l0.9-9.66c0.09-0.97,0.95-1.68,1.92-1.59l9.66,0.9
			c0.97,0.09,1.68,0.95,1.59,1.92l-0.9,9.66C234.45,297.37,233.59,298.08,232.62,297.99z"/>
		<path class="st7" d="M250.05,299.62l-9.66-0.9c-0.97-0.09-1.68-0.95-1.59-1.92l0.9-9.66c0.09-0.97,0.95-1.68,1.92-1.59l9.66,0.9
			c0.97,0.09,1.68,0.95,1.59,1.92l-0.9,9.66C251.88,299,251.02,299.71,250.05,299.62z"/>
		<path class="st7" d="M267.48,301.25l-9.66-0.9c-0.97-0.09-1.68-0.95-1.59-1.92l0.9-9.66c0.09-0.97,0.95-1.68,1.92-1.59l9.66,0.9
			c0.97,0.09,1.68,0.95,1.59,1.92l-0.9,9.66C269.31,300.62,268.45,301.34,267.48,301.25z"/>
		<path class="st7" d="M284.91,302.87l-9.66-0.9c-0.97-0.09-1.68-0.95-1.59-1.92l0.9-9.66c0.09-0.97,0.95-1.68,1.92-1.59l9.66,0.9
			c0.97,0.09,1.68,0.95,1.59,1.92l-0.9,9.66C286.74,302.25,285.88,302.96,284.91,302.87z"/>
		<path class="st7" d="M302.34,304.5l-9.66-0.9c-0.97-0.09-1.68-0.95-1.59-1.92l0.9-9.66c0.09-0.97,0.95-1.68,1.92-1.59l9.66,0.9
			c0.97,0.09,1.68,0.95,1.59,1.92l-0.9,9.66C304.17,303.88,303.31,304.59,302.34,304.5z"/>
		<path class="st7" d="M319.77,306.13l-9.66-0.9c-0.97-0.09-1.68-0.95-1.59-1.92l0.9-9.66c0.09-0.97,0.95-1.68,1.92-1.59l9.66,0.9
			c0.97,0.09,1.68,0.95,1.59,1.92l-0.9,9.66C321.6,305.51,320.74,306.22,319.77,306.13z"/>
		<path class="st7" d="M127.05,306.3l-9.66-0.9c-0.97-0.09-1.68-0.95-1.59-1.92l0.9-9.66c0.09-0.97,0.95-1.68,1.92-1.59l9.66,0.9
			c0.97,0.09,1.68,0.95,1.59,1.92l-0.9,9.66C128.88,305.68,128.02,306.39,127.05,306.3z"/>
		<path class="st7" d="M144.48,307.93l-9.66-0.9c-0.97-0.09-1.68-0.95-1.59-1.92l0.9-9.66c0.09-0.97,0.95-1.68,1.92-1.59l9.66,0.9
			c0.97,0.09,1.68,0.95,1.59,1.92l-0.9,9.66C146.31,307.31,145.45,308.02,144.48,307.93z"/>
		<path class="st7" d="M161.91,309.55l-9.66-0.9c-0.97-0.09-1.68-0.95-1.59-1.92l0.9-9.66c0.09-0.97,0.95-1.68,1.92-1.59l9.66,0.9
			c0.97,0.09,1.68,0.95,1.59,1.92l-0.9,9.66C163.73,308.93,162.88,309.65,161.91,309.55z"/>
		<path class="st7" d="M179.33,311.18l-9.66-0.9c-0.97-0.09-1.68-0.95-1.59-1.92l0.9-9.66c0.09-0.97,0.95-1.68,1.92-1.59l9.66,0.9
			c0.97,0.09,1.68,0.95,1.59,1.92l-0.9,9.66C181.16,310.56,180.3,311.27,179.33,311.18z"/>
		<path class="st7" d="M196.76,312.81l-9.66-0.9c-0.97-0.09-1.68-0.95-1.59-1.92l0.9-9.66c0.09-0.97,0.95-1.68,1.92-1.59l9.66,0.9
			c0.97,0.09,1.68,0.95,1.59,1.92l-0.9,9.66C198.59,312.19,197.73,312.9,196.76,312.81z"/>
		<path class="st7" d="M214.19,314.44l-9.66-0.9c-0.97-0.09-1.68-0.95-1.59-1.92l0.9-9.66c0.09-0.97,0.95-1.68,1.92-1.59l9.66,0.9
			c0.97,0.09,1.68,0.95,1.59,1.92l-0.9,9.66C216.02,313.82,215.16,314.53,214.19,314.44z"/>
		<path class="st7" d="M231.62,316.06l-9.66-0.9c-0.97-0.09-1.68-0.95-1.59-1.92l0.9-9.66c0.09-0.97,0.95-1.68,1.92-1.59l9.66,0.9
			c0.97,0.09,1.68,0.95,1.59,1.92l-0.9,9.66C233.45,315.44,232.59,316.16,231.62,316.06z"/>
		<path class="st7" d="M249.05,317.69l-9.66-0.9c-0.97-0.09-1.68-0.95-1.59-1.92l0.9-9.66c0.09-0.97,0.95-1.68,1.92-1.59l9.66,0.9
			c0.97,0.09,1.68,0.95,1.59,1.92l-0.9,9.66C250.88,317.07,250.02,317.78,249.05,317.69z"/>
		<path class="st7" d="M266.48,319.32l-9.66-0.9c-0.97-0.09-1.68-0.95-1.59-1.92l0.9-9.66c0.09-0.97,0.95-1.68,1.92-1.59l9.66,0.9
			c0.97,0.09,1.68,0.95,1.59,1.92l-0.9,9.66C268.31,318.7,267.45,319.41,266.48,319.32z"/>
		<path class="st7" d="M283.91,320.95l-9.66-0.9c-0.97-0.09-1.68-0.95-1.59-1.92l0.9-9.66c0.09-0.97,0.95-1.68,1.92-1.59l9.66,0.9
			c0.97,0.09,1.68,0.95,1.59,1.92l-0.9,9.66C285.74,320.33,284.88,321.04,283.91,320.95z"/>
		<path class="st7" d="M301.34,322.57l-9.66-0.9c-0.97-0.09-1.68-0.95-1.59-1.92l0.9-9.66c0.09-0.97,0.95-1.68,1.92-1.59l9.66,0.9
			c0.97,0.09,1.68,0.95,1.59,1.92l-0.9,9.66C303.16,321.95,302.31,322.67,301.34,322.57z"/>
		<path class="st7" d="M318.76,324.2l-9.66-0.9c-0.97-0.09-1.68-0.95-1.59-1.92l0.9-9.66c0.09-0.97,0.95-1.68,1.92-1.59l9.66,0.9
			c0.97,0.09,1.68,0.95,1.59,1.92l-0.9,9.66C320.59,323.58,319.73,324.29,318.76,324.2z"/>
		<path class="st7" d="M126.04,324.37l-9.66-0.9c-0.97-0.09-1.68-0.95-1.59-1.92l0.9-9.66c0.09-0.97,0.95-1.68,1.92-1.59l9.66,0.9
			c0.97,0.09,1.68,0.95,1.59,1.92l-0.9,9.66C127.87,323.75,127.01,324.46,126.04,324.37z"/>
		<path class="st7" d="M143.47,326l-9.66-0.9c-0.97-0.09-1.68-0.95-1.59-1.92l0.9-9.66c0.09-0.97,0.95-1.68,1.92-1.59l9.66,0.9
			c0.97,0.09,1.68,0.95,1.59,1.92l-0.9,9.66C145.3,325.38,144.44,326.09,143.47,326z"/>
		<path class="st7" d="M160.9,327.63l-9.66-0.9c-0.97-0.09-1.68-0.95-1.59-1.92l0.9-9.66c0.09-0.97,0.95-1.68,1.92-1.59l9.66,0.9
			c0.97,0.09,1.68,0.95,1.59,1.92l-0.9,9.66C162.73,327.01,161.87,327.72,160.9,327.63z"/>
		<path class="st7" d="M178.33,329.26l-9.66-0.9c-0.97-0.09-1.68-0.95-1.59-1.92l0.9-9.66c0.09-0.97,0.95-1.68,1.92-1.59l9.66,0.9
			c0.97,0.09,1.68,0.95,1.59,1.92l-0.9,9.66C180.16,328.63,179.3,329.35,178.33,329.26z"/>
		<path class="st7" d="M195.76,330.88l-9.66-0.9c-0.97-0.09-1.68-0.95-1.59-1.92l0.9-9.66c0.09-0.97,0.95-1.68,1.92-1.59l9.66,0.9
			c0.97,0.09,1.68,0.95,1.59,1.92l-0.9,9.66C197.59,330.26,196.73,330.97,195.76,330.88z"/>
		<path class="st7" d="M213.19,332.51l-9.66-0.9c-0.97-0.09-1.68-0.95-1.59-1.92l0.9-9.66c0.09-0.97,0.95-1.68,1.92-1.59l9.66,0.9
			c0.97,0.09,1.68,0.95,1.59,1.92l-0.9,9.66C215.02,331.89,214.16,332.6,213.19,332.51z"/>
		<path class="st7" d="M230.62,334.14l-9.66-0.9c-0.97-0.09-1.68-0.95-1.59-1.92l0.9-9.66c0.09-0.97,0.95-1.68,1.92-1.59l9.66,0.9
			c0.97,0.09,1.68,0.95,1.59,1.92l-0.9,9.66C232.45,333.52,231.59,334.23,230.62,334.14z"/>
		<path class="st7" d="M248.05,335.77l-9.66-0.9c-0.97-0.09-1.68-0.95-1.59-1.92l0.9-9.66c0.09-0.97,0.95-1.68,1.92-1.59l9.66,0.9
			c0.97,0.09,1.68,0.95,1.59,1.92l-0.9,9.66C249.87,335.14,249.01,335.86,248.05,335.77z"/>
		<path class="st7" d="M265.47,337.39l-9.66-0.9c-0.97-0.09-1.68-0.95-1.59-1.92l0.9-9.66c0.09-0.97,0.95-1.68,1.92-1.59l9.66,0.9
			c0.97,0.09,1.68,0.95,1.59,1.92l-0.9,9.66C267.3,336.77,266.44,337.48,265.47,337.39z"/>
		<path class="st7" d="M282.9,339.02l-9.66-0.9c-0.97-0.09-1.68-0.95-1.59-1.92l0.9-9.66c0.09-0.97,0.95-1.68,1.92-1.59l9.66,0.9
			c0.97,0.09,1.68,0.95,1.59,1.92l-0.9,9.66C284.73,338.4,283.87,339.11,282.9,339.02z"/>
		<path class="st7" d="M300.33,340.65l-9.66-0.9c-0.97-0.09-1.68-0.95-1.59-1.92l0.9-9.66c0.09-0.97,0.95-1.68,1.92-1.59l9.66,0.9
			c0.97,0.09,1.68,0.95,1.59,1.92l-0.9,9.66C302.16,340.03,301.3,340.74,300.33,340.65z"/>
		<path class="st7" d="M317.76,342.28l-9.66-0.9c-0.97-0.09-1.68-0.95-1.59-1.92l0.9-9.66c0.09-0.97,0.95-1.68,1.92-1.59l9.66,0.9
			c0.97,0.09,1.68,0.95,1.59,1.92l-0.9,9.66C319.59,341.65,318.73,342.37,317.76,342.28z"/>
		<path class="st1" d="M249.71,357.8l-70.68-6.6c-3.1-0.29-5.38-3.04-5.09-6.14l0,0c0.29-3.1,3.04-5.38,6.14-5.09l70.68,6.6
			c3.1,0.29,5.38,3.04,5.09,6.14l0,0C255.56,355.81,252.81,358.09,249.71,357.8z"/>
	</g>
</g>
<g>
	<g>
		<path class="st0" d="M464.03,372.41l-25.87,7.05c-5.22,1.42-10.61-1.66-12.03-6.88l-15.25-55.99c-1.42-5.22,1.66-10.61,6.88-12.03
			l25.87-7.05c5.22-1.42,10.61,1.66,12.03,6.88l15.25,55.99C472.33,365.6,469.25,370.99,464.03,372.41z"/>
		<path class="st0" d="M433.1,300.38c11.04-3.01,22.43,3.51,25.44,14.55l9.51,34.92c3.01,11.04-3.51,22.43-14.55,25.44"/>
	</g>
	<g>
		<path class="st3" d="M464.03,369.17l-25.87,7.05c-5.22,1.42-10.61-1.66-12.03-6.88l-15.25-55.99c-1.42-5.22,1.66-10.61,6.88-12.03
			l25.87-7.05c5.22-1.42,10.61,1.66,12.03,6.88l15.25,55.99C472.33,362.36,469.25,367.75,464.03,369.17z"/>
		<path class="st4" d="M433.1,297.14c11.04-3.01,22.43,3.51,25.44,14.55l9.51,34.92c3.01,11.04-3.51,22.43-14.55,25.44"/>
	</g>
	<path class="st5" d="M454.46,359.28c0,2.77-2.25,5.02-5.02,5.02c-2.77,0-5.02-2.25-5.02-5.02c0-2.77,2.25-5.02,5.02-5.02
		C452.21,354.26,454.46,356.51,454.46,359.28z"/>
</g>
<g>
	<path class="st0" d="M424.07,486.14l0.84,2.06c1.13,2.09,3.59,3.21,5.49,2.5l46.65-17.48c1.91-0.71,3.05-3.18,2.56-5.52l-0.69-1.98
		L424.07,486.14z"/>
	<path class="st4" d="M423.41,485.17l0.96,1.74c1.07,1.96,3.49,2.96,5.4,2.25l46.65-17.48c1.91-0.71,3.1-3.07,2.65-5.27l-0.39-1.95
		L423.41,485.17z"/>
	<path class="st7" d="M477.67,467.5l-51.53,19.31c-1.14,0.43-2.41-0.15-2.84-1.29l-4.02-10.72c-0.43-1.14,0.15-2.41,1.29-2.84
		l51.53-19.31c1.14-0.43,2.41,0.15,2.84,1.29l4.02,10.71C479.39,465.8,478.81,467.07,477.67,467.5z"/>
	<path class="st4" d="M448.8,442.62c0.01-0.07,0.02-0.13,0.02-0.13l-0.02,0c-0.02-1.36-0.26-2.76-0.77-4.13
		c-2.15-5.74-8.07-8.83-13.23-6.9s-7.59,8.15-5.44,13.89c0.51,1.37,1.25,2.59,2.13,3.63l0,0l0.01,0.01
		c0.57,0.67,1.21,1.26,1.89,1.76c2.84,2.86,7.72,8.73,6.12,14.1l6.5-2.44l0.7-0.26l6.5-2.44c-4.78-3.03-4.92-10.78-4.65-14.77
		C448.71,444.2,448.8,443.42,448.8,442.62z"/>
</g>
<g>
	<path class="st0" d="M442.81,603.66c0.07,0.17,0.15,0.33,0.2,0.51c0.75,2.77-0.9,5.63-3.67,6.37c-2.77,0.75-5.63-0.9-6.37-3.67
		c-0.05-0.18-0.06-0.36-0.09-0.54l-3.54,0.95c0.07,0.17,0.15,0.33,0.2,0.51c0.75,2.77-0.9,5.63-3.67,6.37
		c-2.77,0.75-5.63-0.9-6.37-3.67c-0.05-0.18-0.06-0.36-0.09-0.54l-3.54,0.95c0.07,0.17,0.15,0.33,0.2,0.51
		c0.75,2.77-0.9,5.63-3.67,6.37c-2.77,0.75-5.63-0.9-6.37-3.67c-0.05-0.18-0.06-0.36-0.09-0.54l-3.54,0.95
		c0.07,0.17,0.15,0.33,0.2,0.51c0.75,2.77-0.9,5.63-3.67,6.37c-2.77,0.75-5.63-0.9-6.37-3.67c-0.05-0.18-0.06-0.36-0.09-0.54
		l-3.54,0.95c0.07,0.17,0.15,0.33,0.2,0.51c0.75,2.77-0.9,5.63-3.67,6.37c-2.77,0.75-5.63-0.9-6.37-3.67
		c-0.05-0.18-0.06-0.36-0.09-0.54l-3.54,0.95c0.07,0.17,0.15,0.33,0.2,0.51c0.75,2.77-0.9,5.63-3.67,6.37
		c-2.77,0.75-5.63-0.9-6.37-3.67c-0.05-0.18-0.06-0.36-0.09-0.54l-6.68,1.8l32.96,122.62l91.09-24.49L449.9,601.76L442.81,603.66z"
		/>
	<path class="st5" d="M444.45,601.15c0.07,0.17,0.15,0.33,0.2,0.51c0.75,2.77-0.9,5.63-3.67,6.37c-2.77,0.75-5.63-0.9-6.37-3.67
		c-0.05-0.18-0.06-0.36-0.09-0.54l-3.54,0.95c0.07,0.17,0.15,0.33,0.2,0.51c0.75,2.77-0.9,5.63-3.67,6.37
		c-2.77,0.75-5.63-0.9-6.37-3.67c-0.05-0.18-0.06-0.36-0.09-0.54l-3.54,0.95c0.07,0.17,0.15,0.33,0.2,0.51
		c0.75,2.77-0.9,5.63-3.67,6.37c-2.77,0.75-5.63-0.9-6.37-3.67c-0.05-0.18-0.06-0.36-0.09-0.54l-3.54,0.95
		c0.07,0.17,0.15,0.33,0.2,0.51c0.75,2.77-0.9,5.63-3.67,6.37c-2.77,0.75-5.63-0.9-6.37-3.67c-0.05-0.18-0.06-0.36-0.09-0.54
		l-3.54,0.95c0.07,0.17,0.15,0.33,0.2,0.51c0.75,2.77-0.9,5.63-3.67,6.37c-2.77,0.75-5.63-0.9-6.37-3.67
		c-0.05-0.18-0.06-0.36-0.09-0.54l-3.54,0.95c0.07,0.17,0.15,0.33,0.2,0.51c0.75,2.77-0.9,5.63-3.67,6.37
		c-2.77,0.75-5.63-0.9-6.37-3.67c-0.05-0.18-0.06-0.36-0.09-0.54l-6.68,1.8l32.96,122.62l91.09-24.49l-32.96-122.62L444.45,601.15z"
		/>
	<path class="st0" d="M475.29,589.24c0.03,0.18,0.09,0.35,0.1,0.54c0.24,2.86-1.88,5.38-4.74,5.62c-2.86,0.24-5.38-1.88-5.62-4.74
		c-0.02-0.19,0.01-0.37,0.01-0.55l-3.65,0.31c0.03,0.18,0.09,0.35,0.1,0.54c0.24,2.86-1.88,5.38-4.74,5.62
		c-2.86,0.24-5.38-1.88-5.62-4.74c-0.02-0.19,0.01-0.37,0.01-0.55l-3.65,0.31c0.03,0.18,0.09,0.35,0.1,0.54
		c0.24,2.86-1.88,5.38-4.74,5.62c-2.86,0.24-5.38-1.88-5.62-4.74c-0.02-0.19,0.01-0.37,0.01-0.55l-3.65,0.31
		c0.03,0.18,0.09,0.35,0.1,0.54c0.24,2.86-1.88,5.38-4.74,5.62c-2.86,0.24-5.38-1.88-5.62-4.74c-0.02-0.19,0.01-0.37,0.01-0.55
		l-3.65,0.31c0.03,0.18,0.09,0.35,0.1,0.54c0.24,2.86-1.88,5.38-4.74,5.62c-2.86,0.24-5.38-1.88-5.62-4.74
		c-0.02-0.19,0.01-0.37,0.01-0.55l-3.65,0.31c0.03,0.18,0.09,0.35,0.1,0.54c0.24,2.86-1.88,5.38-4.74,5.62
		c-2.86,0.24-5.38-1.88-5.62-4.74c-0.02-0.19,0.01-0.37,0.01-0.55l-6.89,0.58l10.66,126.52l93.99-7.92L482.6,588.62L475.29,589.24z"
		/>
	<path class="st5" d="M477.11,587.41c0.03,0.18,0.09,0.35,0.1,0.54c0.24,2.86-1.88,5.38-4.74,5.62c-2.86,0.24-5.38-1.88-5.62-4.74
		c-0.02-0.19,0.01-0.37,0.01-0.55l-3.65,0.31c0.03,0.18,0.09,0.35,0.1,0.54c0.24,2.86-1.88,5.38-4.74,5.62
		c-2.86,0.24-5.38-1.88-5.62-4.74c-0.02-0.19,0.01-0.37,0.01-0.55l-3.65,0.31c0.03,0.18,0.09,0.35,0.1,0.54
		c0.24,2.86-1.88,5.38-4.74,5.62c-2.86,0.24-5.38-1.88-5.62-4.74c-0.02-0.19,0.01-0.37,0.01-0.55l-3.65,0.31
		c0.03,0.18,0.09,0.35,0.1,0.54c0.24,2.86-1.88,5.38-4.74,5.62c-2.86,0.24-5.38-1.88-5.62-4.74c-0.02-0.19,0.01-0.37,0.01-0.55
		l-3.65,0.31c0.03,0.18,0.09,0.35,0.1,0.54c0.24,2.86-1.88,5.38-4.74,5.62c-2.86,0.24-5.38-1.88-5.62-4.74
		c-0.02-0.19,0.01-0.37,0.01-0.55l-3.65,0.31c0.03,0.18,0.09,0.35,0.1,0.54c0.24,2.86-1.88,5.38-4.74,5.62
		c-2.86,0.24-5.38-1.88-5.62-4.74c-0.02-0.19,0.01-0.37,0.01-0.55l-6.89,0.58l10.66,126.52l93.99-7.92l-10.66-126.52L477.11,587.41z
		"/>
	<g>
		<line class="st8" x1="403.74" y1="615.64" x2="475.08" y2="611.19"/>
		<line class="st8" x1="403.74" y1="623.44" x2="475.08" y2="618.99"/>
	</g>
	<path class="st0" d="M522.91,665.67c-0.02-0.07-0.05-0.14-0.08-0.2c-0.46-1.09-1.47-1.92-2.73-2.07c-0.58-0.07-1.14,0.02-1.64,0.22
		l0.43-3.55c0.44-3.7-2.2-7.06-5.9-7.5c-3.7-0.44-7.06,2.2-7.5,5.9l-9.82,81.89c-0.22,1.85,5.2,13.3,5.2,13.3s7.98-9.84,8.2-11.69
		l8.68-72.37c0.45,0.31,0.96,0.54,1.54,0.61c0.08,0.01,0.16,0,0.25,0l-2.78,23.18c-0.1,0.8,0.48,1.53,1.28,1.62
		c0.8,0.1,1.53-0.47,1.62-1.27l3.03-25.27l0.27-2.27C522.97,666.02,522.95,665.84,522.91,665.67z"/>
	<g>
		<path class="st9" d="M495.07,736.97l9.82-81.89c0.44-3.7,3.8-6.34,7.5-5.9h0c3.7,0.44,6.34,3.8,5.9,7.5l-9.82,81.89
			c-0.22,1.85-8.2,11.69-8.2,11.69S494.85,738.82,495.07,736.97z"/>
		<path class="st4" d="M512.4,649.19c3.7,0.44,6.34,3.8,5.9,7.5l-9.82,81.89c-0.22,1.85-8.2,11.69-8.2,11.69"/>
		<path class="st3" d="M500.27,750.27c0,0-5.42-11.45-5.2-13.3l9.82-81.89c0.44-3.7,3.8-6.34,7.5-5.9"/>
		<path class="st4" d="M522.32,662.29c-0.02-0.07-0.05-0.14-0.08-0.2c-0.46-1.09-1.47-1.92-2.73-2.07c-1.88-0.23-3.58,1.11-3.8,2.99
			c-0.23,1.88,1.11,3.58,2.99,3.8c0.08,0.01,0.16,0,0.25,0L516.16,690c-0.1,0.8,0.47,1.53,1.28,1.62c0.8,0.1,1.53-0.47,1.62-1.28
			l3.03-25.27l0.27-2.27C522.38,662.63,522.36,662.46,522.32,662.29z"/>
	</g>
</g>
<g>
	<path class="st0" d="M111.51,393.47c-6.02-16.1-23.95-24.28-40.06-18.26c-14.76,5.52-22.82,21.04-19.44,35.99l-10.52,3.93
		c-2.18,0.82-3.29,3.25-2.48,5.43c0.82,2.18,3.25,3.29,5.43,2.48l10.52-3.93c7.25,13.51,23.52,19.94,38.28,14.42
		C109.36,427.5,117.53,409.57,111.51,393.47z"/>
	<g>
		
			<ellipse transform="matrix(0.4042 -0.9147 0.9147 0.4042 -317.7186 314.2515)" class="st5" cx="82.35" cy="401" rx="31.13" ry="31.13"/>
		<path class="st1" d="M59.93,409.38c-4.59-12.28,1.65-25.96,13.93-30.55c12.28-4.59,25.96,1.65,30.55,13.93
			c4.59,12.28-1.65,25.96-13.93,30.55C78.2,427.9,64.52,421.67,59.93,409.38z"/>
		<path class="st5" d="M41.5,411.76l10.88-4.06c2.18-0.82,4.61,0.29,5.43,2.48l0,0c0.82,2.18-0.29,4.61-2.48,5.43l-10.88,4.06
			c-2.18,0.82-4.61-0.29-5.43-2.48l0,0C38.21,415.01,39.32,412.58,41.5,411.76z"/>
	</g>
</g>
<g>
	<path class="st0" d="M189.76,552.62c-0.19-7.44-6.38-13.31-13.82-13.12l-96.66,2.52c-7.44,0.19-13.31,6.38-13.12,13.82l1.48,56.76
		c0.19,7.44,6.38,13.31,13.82,13.12l96.66-2.52c7.44-0.19,13.31-6.38,13.12-13.82L189.76,552.62z"/>
	<g>
		<path class="st7" d="M186.91,619.03l-109.66,2.86c-3.85,0.1-7.05-2.94-7.15-6.79l-1.82-69.76c-0.1-3.85,2.94-7.05,6.79-7.15
			l109.66-2.86c3.85-0.1,7.05,2.94,7.15,6.79l1.82,69.76C193.8,615.73,190.76,618.93,186.91,619.03z"/>
		<path class="st3" d="M175.27,615.26l-94.38,2.46c-3.1,0.08-5.67-2.36-5.75-5.46l-1.68-64.35c-0.08-3.1,2.36-5.67,5.46-5.75
			l94.38-2.46c3.1-0.08,5.67,2.36,5.75,5.46l1.68,64.35C180.82,612.61,178.37,615.18,175.27,615.26z"/>
		<path class="st4" d="M86.12,617.59c-5.98,0.16-10.96-4.57-11.12-10.55l-1.41-53.9c-0.16-5.98,4.57-10.96,10.55-11.12l83.93-2.19
			c5.98-0.16,10.96,4.57,11.12,10.55"/>
		<path class="st5" d="M189.7,577.08c0.04,1.7-1.3,3.11-2.99,3.15c-1.7,0.04-3.11-1.3-3.15-2.99c-0.04-1.7,1.3-3.11,2.99-3.15
			C188.24,574.04,189.65,575.38,189.7,577.08z"/>
		<g>
			<polyline class="st10" points="91.27,554.13 92.55,603.14 166.94,601.2 			"/>
			
				<rect x="100.89" y="572.07" transform="matrix(0.9997 -0.0261 0.0261 0.9997 -15.2817 2.9312)" class="st1" width="7.73" height="30.75"/>
			
				<rect x="114.3" y="562.76" transform="matrix(0.9997 -0.0261 0.0261 0.9997 -15.1513 3.279)" class="st1" width="7.73" height="39.7"/>
			
				<rect x="128.09" y="583.52" transform="matrix(0.9997 -0.0261 0.0261 0.9997 -15.4125 3.6422)" class="st1" width="7.73" height="18.59"/>
			
				<rect x="141.52" y="576.48" transform="matrix(0.9997 -0.0261 0.0261 0.9997 -15.312 3.9912)" class="st1" width="7.73" height="25.27"/>
		</g>
	</g>
</g>
<g>
	<path class="st0" d="M266.35,688.02c-1.17-14.32-13.73-24.98-28.06-23.8c-11.61,0.95-20.8,9.38-23.25,20.17
		c-2.43-1.91-5.43-2.85-8.52-2.59c-3.04,0.25-5.79,1.63-7.87,3.84c-4.35-9.85-14.57-16.36-25.91-15.43
		c-14.32,1.17-24.98,13.73-23.8,28.06c1.17,14.32,13.73,24.98,28.06,23.8c14.32-1.17,24.98-13.73,23.8-28.06
		c-0.16-2-0.57-3.92-1.15-5.76c0.15-0.2,0.26-0.42,0.42-0.61c1.69-1.99,4.05-3.2,6.65-3.42c2.6-0.2,5.13,0.6,7.12,2.29
		c0.27,0.23,0.48,0.5,0.72,0.75c-0.18,1.64-0.22,3.31-0.08,5.01c1.17,14.32,13.73,24.98,28.06,23.8
		C256.86,714.9,267.52,702.34,266.35,688.02z"/>
	<g>
		<g>
			<path class="st2" d="M197.2,691.96c-0.55-6.71,4.47-12.62,11.17-13.17c3.25-0.27,6.41,0.75,8.9,2.86
				c2.49,2.11,4.01,5.06,4.27,8.31l-2.43,0.2c-0.21-2.6-1.43-4.96-3.42-6.65c-1.99-1.69-4.52-2.49-7.12-2.29
				c-5.37,0.44-9.38,5.17-8.94,10.54L197.2,691.96z"/>
		</g>
		<g>
			<path class="st2" d="M202.65,691c1.17,14.32-9.48,26.88-23.8,28.06c-14.32,1.17-26.88-9.48-28.06-23.8
				c-1.17-14.32,9.48-26.88,23.8-28.06C188.92,666.02,201.48,676.68,202.65,691z"/>
		</g>
		<g>
			
				<ellipse transform="matrix(0.2866 -0.9581 0.9581 0.2866 -537.9738 663.8158)" class="st3" cx="176.72" cy="693.12" rx="21.77" ry="21.77"/>
		</g>
		<g>
			<path class="st4" d="M170.65,714.04c-8.42-2.45-14.86-9.88-15.62-19.14c-0.98-11.99,7.94-22.5,19.92-23.48
				c3-0.25,5.9,0.13,8.59,1.01"/>
		</g>
		<g>
			<path class="st2" d="M268.2,685.02c1.17,14.32-9.48,26.88-23.8,28.06c-14.32,1.17-26.88-9.48-28.06-23.8
				c-1.17-14.32,9.48-26.88,23.8-28.06C254.46,660.04,267.02,670.69,268.2,685.02z"/>
		</g>
		<g>
			
				<ellipse transform="matrix(0.8447 -0.5353 0.5353 0.8447 -330.1676 236.393)" class="st3" cx="242.27" cy="687.14" rx="21.77" ry="21.77"/>
		</g>
		<g>
			<path class="st4" d="M236.19,708.06c-8.42-2.45-14.86-9.88-15.62-19.14c-0.98-11.99,7.94-22.5,19.92-23.48
				c3-0.25,5.9,0.13,8.59,1.01"/>
		</g>
	</g>
</g>
<g>
	
		<rect x="229.8" y="438.57" transform="matrix(0.9944 -0.1059 0.1059 0.9944 -52.5149 32.6417)" class="st0" width="102.83" height="144.84"/>
	
		<rect x="226.76" y="435.71" transform="matrix(0.9944 -0.1059 0.1059 0.9944 -52.2294 32.3035)" class="st5" width="102.83" height="144.84"/>
	<g>
		<defs>
			
				<rect id="SVGID_1_" x="226.76" y="435.71" transform="matrix(0.9944 -0.1059 0.1059 0.9944 -52.2294 32.3035)" width="102.83" height="144.84"/>
		</defs>
		<clipPath id="SVGID_00000032615277335450511060000012710048235292933298_">
			<use xlink:href="#SVGID_1_"  style="overflow:visible;"/>
		</clipPath>
		
			<polyline style="clip-path:url(#SVGID_00000032615277335450511060000012710048235292933298_);fill:none;stroke:#AC8FC5;stroke-linecap:round;stroke-linejoin:round;stroke-miterlimit:10;" points="
			215.98,438.61 241.74,462.87 305.01,456.13 324.89,426.08 		"/>
		
			<path style="clip-path:url(#SVGID_00000032615277335450511060000012710048235292933298_);fill:none;stroke:#AC8FC5;stroke-linecap:round;stroke-linejoin:round;stroke-miterlimit:10;" d="
			M281.56,458.63c0.43,4-2.47,7.6-6.48,8.02c-4,0.43-7.6-2.47-8.02-6.48c-0.43-4,2.47-7.6,6.48-8.02
			C277.54,451.72,281.13,454.62,281.56,458.63z"/>
	</g>
</g>
</svg>
