<?xml version="1.0" encoding="utf-8"?>
<!-- Generator: Adobe Illustrator 25.4.1, SVG Export Plug-In . SVG Version: 6.00 Build 0)  -->
<svg version="1.1" xmlns="http://www.w3.org/2000/svg" xmlns:xlink="http://www.w3.org/1999/xlink" x="0px" y="0px"
	 viewBox="0 0 760 500" style="enable-background:new 0 0 760 500;" xml:space="preserve">
<style type="text/css">
	.st0{fill:#A2B2E3;}
	.st1{opacity:0.7;fill:#FFFFFF;}
	.st2{fill:#B3B0B0;stroke:#B3B0B0;stroke-linecap:round;stroke-linejoin:round;stroke-miterlimit:10;}
	.st3{fill:none;stroke:#B3B0B0;stroke-linecap:round;stroke-linejoin:round;stroke-miterlimit:10;}
	.st4{fill:#FFFFFF;stroke:#B3B0B0;stroke-linecap:round;stroke-linejoin:round;stroke-miterlimit:10;}
	.st5{fill:#636261;stroke:#636261;stroke-linecap:round;stroke-linejoin:round;stroke-miterlimit:10;}
	.st6{fill:none;stroke:#636261;stroke-width:2;stroke-linecap:round;stroke-linejoin:round;stroke-miterlimit:10;}
	.st7{fill:none;stroke:#2E2938;stroke-width:3;stroke-linecap:round;stroke-linejoin:round;stroke-miterlimit:10;}
	.st8{fill:#2E2938;stroke:#2E2938;stroke-linejoin:round;stroke-miterlimit:10;}
	.st9{fill:#FFFFFF;stroke:#2E2938;stroke-linecap:round;stroke-linejoin:round;stroke-miterlimit:10;}
	.st10{fill:#A2B2E3;stroke:#2E2938;stroke-linecap:round;stroke-linejoin:round;stroke-miterlimit:10;}
	.st11{fill:none;stroke:#2E2938;stroke-linecap:round;stroke-linejoin:round;stroke-miterlimit:10;}
	.st12{fill:#2E2938;stroke:#2E2938;stroke-linecap:round;stroke-linejoin:round;stroke-miterlimit:10;}
	.st13{fill:#8C8A8A;stroke:#2E2938;stroke-linecap:round;stroke-linejoin:round;stroke-miterlimit:10;}
	.st14{fill:#FFFFFF;}
	.st15{fill:#2E2938;}
</style>
<g id="Background_Simple">
	<g>
		<path class="st0" d="M472.11,42.7c0,0-76.99-27.38-152.56,16.21c-75.57,43.58-113.7,130.1-146.45,199.41
			c-32.75,69.3-13.9,139.8,43.79,171.94c57.69,32.14,96.92-15.24,177.84-17.55c80.93-2.31,102.69,9.26,169.85-36.45
			c67.15-45.72,79.29-153.69,26.32-233.58C537.93,62.79,472.11,42.7,472.11,42.7z"/>
		<path class="st1" d="M472.11,42.7c0,0-76.99-27.38-152.56,16.21c-75.57,43.58-113.7,130.1-146.45,199.41
			c-32.75,69.3-13.9,139.8,43.79,171.94c57.69,32.14,96.92-15.24,177.84-17.55c80.93-2.31,102.69,9.26,169.85-36.45
			c67.15-45.72,79.29-153.69,26.32-233.58C537.93,62.79,472.11,42.7,472.11,42.7z"/>
	</g>
</g>
<g id="Picture">
	<g>
		<path class="st2" d="M197.98,31v142h398.95V31H197.98z M582.89,165H212.03V39h370.86V165z"/>
		<path class="st3" d="M211.75,95c0,0,122.32-39.11,131.34-29.17c9.02,9.93-53.14,35.38-27.07,44.69
			c26.07,9.31,165.43-69.52,190.5-50.9c25.07,18.62-45.12,68.28-23.06,73.87c22.06,5.59,69.18-21.73,79.21-14.9
			c10.03,6.83-16.04,34.14-5.01,37.86c11.03,3.72,24.06-3.1,24.06-3.1"/>
		<ellipse class="st3" cx="396.23" cy="60.24" rx="27.07" ry="16.76"/>
		<ellipse class="st3" cx="252.36" cy="53.1" rx="15.54" ry="9.62"/>
		<path class="st3" d="M301.99,122.31c0,2.4-3.14,4.35-7.02,4.35c-3.88,0-7.02-1.95-7.02-4.35c0-2.4,3.14-4.35,7.02-4.35
			C298.84,117.97,301.99,119.92,301.99,122.31z"/>
		<path class="st3" d="M551.63,69.86c0,2.23-2.92,4.03-6.52,4.03c-3.6,0-6.52-1.81-6.52-4.03c0-2.23,2.92-4.03,6.52-4.03
			C548.72,65.83,551.63,67.63,551.63,69.86z"/>
		<ellipse class="st3" cx="444.36" cy="147.76" rx="18.05" ry="11.17"/>
	</g>
	<g>
		<g>
			<line class="st3" x1="21.62" y1="248" x2="742" y2="248"/>
			<line class="st3" x1="49.88" y1="261.37" x2="742" y2="261.37"/>
			<line class="st3" x1="21.62" y1="261.37" x2="35.86" y2="261.37"/>
		</g>
		<path class="st3" d="M730.52,284.53H505.81c0,4.55-6.34,8.24-14.16,8.24v147.57c7.82,0,14.16,3.69,14.16,8.24
			c0,0.48-0.09,0.95-0.22,1.41h222.03"/>
		<path class="st3" d="M24.42,284.53h77.67c0,4.55,6.15,8.24,13.75,8.24v147.57c-7.59,0-13.75,3.69-13.75,8.24
			c0,0.48,0.08,0.95,0.21,1.41H37.01"/>
		<path class="st3" d="M451.93,284.53h-76.52H227.22h-77.21c0,4.55-6.36,8.24-14.21,8.24v147.57c7.85,0,14.21,3.69,14.21,8.24
			c0,0.48-0.09,0.95-0.22,1.41h80.34H372.5h79.65c-0.14-0.46-0.22-0.93-0.22-1.41c0-4.55,6.34-8.24,14.16-8.24V292.78
			C458.27,292.78,451.93,289.09,451.93,284.53z"/>
	</g>
</g>
<g id="Lamps">
	<g>
		<circle class="st4" cx="589.81" cy="89.74" r="21.67"/>
		<path class="st5" d="M569.99,81h39.65c-3.36-7.61-10.97-12.92-19.82-12.92C580.96,68.08,573.35,73.39,569.99,81z"/>
		<line class="st6" x1="590.01" y1="64.02" x2="590.01" y2="22"/>
		<rect x="587.53" y="62" class="st5" width="4.56" height="7.6"/>
	</g>
	<g>
		<circle class="st4" cx="181.81" cy="89.74" r="21.67"/>
		<path class="st5" d="M161.99,81h39.65c-3.36-7.61-10.97-12.92-19.82-12.92C172.96,68.08,165.35,73.39,161.99,81z"/>
		<line class="st6" x1="182.01" y1="64.02" x2="182.01" y2="22"/>
		<rect x="179.53" y="62" class="st5" width="4.56" height="7.6"/>
	</g>
</g>
<g id="Plants">
	<g>
		<g>
			<g>
				<path class="st7" d="M548.43,232.99c0,0,0.52,65.56,0.52,82.87c0,17.31-0.52,121.01-0.52,121.01"/>
				<polygon class="st0" points="587.77,249.77 571.51,236.14 617.14,241.38 576.75,228.27 618.19,220.93 571.51,220.93 
					607.7,193.65 566.79,214.11 590.39,173.72 558.92,209.91 569.93,156.94 549.48,206.24 547.38,151.17 543.18,207.29 
					520.87,157.71 536.37,212.01 502.98,175.59 532.17,220.4 490.85,190.92 529.55,228.27 485.74,204.33 525.88,231.42 
					489.57,226.69 524.83,236.66 496.6,241.38 525.88,240.33 508.57,251.87 549.48,240.86 				"/>
				<polygon class="st0" points="587.77,392.77 571.51,379.14 617.14,384.38 576.75,371.27 618.19,363.93 571.51,363.93 
					607.7,336.65 566.79,357.11 590.39,316.72 558.92,352.91 569.93,299.94 549.48,349.24 547.38,294.17 543.18,350.29 
					520.87,300.71 536.37,355.01 502.98,318.59 532.17,363.4 490.85,333.92 529.55,371.27 485.74,347.33 525.88,374.42 
					489.57,369.69 524.83,379.66 496.6,384.38 525.88,383.33 508.57,394.87 549.48,383.86 				"/>
			</g>
			<path class="st7" d="M532.7,299.08c0,0-1.57,13.64-0.52,18.88c1.05,5.24,1.57,11.54,1.57,18.36c0,6.82,0.52,35.8,0.52,40.52
				c0,4.72-0.52,44.82-0.52,48.5s0,6.29,0,8.39c0,2.1,0,4.2,0,4.2"/>
			<path class="st7" d="M534.27,371.59c0,0,2.1-39.99,4.2-45.24c2.1-5.24,3.67-3.67,4.2-9.97c0.52-6.29,0.52-8.92,1.57-11.01
				c1.05-2.1,2.1-5.77,2.1-5.77l1.05-4.2"/>
			<polygon class="st0" points="571.51,312.71 555.25,299.08 600.88,304.32 560.49,291.21 601.93,283.87 555.25,283.87 
				591.44,256.59 550.53,277.05 574.13,236.66 542.66,272.85 553.67,219.88 533.22,269.18 531.12,214.11 526.93,270.23 
				510.67,219.35 520.11,274.95 491.26,233.52 515.91,283.34 478.08,258.62 513.29,291.21 474.24,275.23 509.62,294.36 
				472.97,291.19 508.57,299.6 483.82,305.24 509.62,303.27 492.31,314.81 533.22,303.8 			"/>
		</g>
		<path class="st8" d="M518.33,423.05l-11.23,18.71c-1.72,2.87-2.21,6.32-1.34,9.56l4.99,18.59c0.73,2.71,3.18,4.59,5.98,4.59h51.14
			c2.8,0,5.26-1.88,5.98-4.59l4.99-18.59c0.87-3.24,0.39-6.69-1.34-9.56l-11.23-18.71c-0.77-1.28-2.15-2.06-3.64-2.06h-40.68
			C520.47,421,519.09,421.78,518.33,423.05z"/>
	</g>
</g>
<g id="Character_2">
	<g>
		<g>
			<g>
				<path class="st9" d="M484.32,157.5c0,0,0.25-11.07,0.98-12.79c0.74-1.72,2.71-4.43,4.18-4.92c1.48-0.49,5.41-1.72,6.64-2.46
					c1.23-0.74,6.15-5.66,6.15-5.66s3.93-0.98,4.18,0.25c0.25,1.23-5.66,6.64-5.66,6.64l2.46,0.98l13.03,0.25l7.62-7.62
					c0,0,2.71-1.72,2.46,0c-0.25,1.72-7.62,11.31-8.36,11.31c-0.74,0-22.13,7.87-22.13,7.87l-2.46,9.59L484.32,157.5z"/>
				<path class="st9" d="M507.68,146.44c0,0,5.16-1.48,5.9-2.71s6.15-12.05,6.64-12.79c0.49-0.74-2.71-0.25-3.93,0
					c-1.23,0.25-4.67,10.82-4.67,10.82l-5.41,1.72L507.68,146.44z"/>
				<path class="st9" d="M509.54,144.56c0,0,5.36-0.33,6.35-1.37c0.99-1.04,8.6-10.44,9.24-11.05c0.64-0.61-2.59-0.82-3.84-0.85
					c-1.25-0.03-6.9,9.56-6.9,9.56l-5.65,0.51L509.54,144.56z"/>
				<path class="st9" d="M488.74,150.86c0,0-0.25-4.92,2.95-7.38c3.2-2.46,13.28-2.71,13.28-2.71s4.92-9.59,6.15-9.59
					c1.23,0,4.18-1.23,3.93,0c-0.25,1.23-3.2,6.15-4.43,8.61c-1.23,2.46-1.72,5.66-2.95,6.64c-1.23,0.98-8.36,2.71-8.36,2.71"/>
			</g>
			<polygon class="st10" points="480.38,165.62 483.09,156.52 495.38,158.49 492.43,169.8 			"/>
			<g>
				<path class="st10" d="M430.95,155.78c0,0,10.82,2.95,12.79,6.64c1.97,3.69,18.44,30.25,19.43,31.97s1.72,3.2,1.72,3.2
					s12.05-29.26,12.54-30.99c0.49-1.72,4.67-2.21,5.9-2.21c1.23,0,12.54,0.74,13.03,3.69c0.49,2.95-14.26,59.02-15.74,60.25
					c-1.48,1.23-5.41,1.72-7.87,0.98c-2.46-0.74-34.68-16.97-34.68-16.97L430.95,155.78z"/>
				<path class="st11" d="M464.89,197.59c0,0-2.94,7.09-3.91,12.43"/>
				<path class="st11" d="M456.79,208.93c-0.24,0.65-0.47,1.33-0.67,2.05"/>
				<path class="st11" d="M461.22,201.28c0,0-1.73,1.86-3.34,5.13"/>
			</g>
		</g>
		<path class="st12" d="M370.85,252.03l-8.79,103.09l-5.41,89.57c0,0-3.04,3.72-2.7,5.41s2.03,6.42,2.03,6.42
			s-5.07,14.53-3.72,15.55c1.35,1.01,4.06,2.37,4.06,2.37h13.86c0,0,2.7-2.7,2.37-4.73c-0.34-2.03-2.37-14.2-2.37-14.2
			s3.04-5.41,3.38-6.76c0.34-1.35-1.69-8.45-1.69-8.45l32.45-124.38c0,0,13.86,77.74,17.24,95.65c3.38,17.91,9.99,62.4,9.99,62.4
			h7.1l1.01-3.04c0,0,0.34-0.68,3.72,1.35c3.38,2.03,6.42,1.69,6.42,1.69h17.58c0,0,1.35-1.69,0.34-2.03
			c-1.01-0.34-14.87-9.7-17.24-11.72c-2.37-2.03-6.42-7.44-6.42-7.44s2.37-6.08,2.37-7.1s-3.04-6.76-3.04-6.76l-2.21-90.56
			l1.01-93.96L370.85,252.03z"/>
		<path class="st12" d="M382.17,152.01l-21.35,10.24l10.34,66.46l-1.05,26.37c0,0,17.72,9.71,37.77,9.07
			c20.04-0.63,35.23-7.81,35.23-7.81l1.05-57.6c0,0-2.11-28.06-4.64-32.7c-2.53-4.64-3.8-6.75-7.38-9.49
			c-3.59-2.74-14.56-5.91-14.56-5.91s-19.83-1.69-20.47-1.69C396.48,148.96,382.17,152.01,382.17,152.01z"/>
		<polygon class="st10" points="405.46,176.27 418,198.96 420.95,172.17 412.09,159.3 405.55,174.07 		"/>
		<polygon class="st10" points="413,163.81 420.54,173.98 422.51,152.01 417.92,146.44 		"/>
		<polygon class="st9" points="385.45,129.38 387.09,147.42 413,163.81 424.15,133.32 		"/>
		<path class="st12" d="M386.43,140.08c3.37,1.42,7.49,2.47,12.13,2.27c9.03-0.39,19.45-4.41,24.74-6.7l0.85-2.33l-38.69-3.93
			L386.43,140.08z"/>
		<polygon class="st10" points="413,163.81 405.46,176.27 382.17,152.01 385.78,146.11 		"/>
		<g>
			<path class="st9" d="M442.51,236.2c0,0,9.59-8.12,10.82-8.12c1.23,0,7.38,4.67,7.38,4.67s6.15-0.74,6.39,0.74
				c0.25,1.48-0.98,5.66-0.98,5.66l-1.48,1.48c0,0-4.18,6.39-4.18,7.38c0,0.98-5.41,0.74-7.87,1.23c-2.46,0.49-9.35-1.23-9.35-1.23
				L442.51,236.2z"/>
			<polygon class="st9" points="433.16,235.46 444.48,235.71 444.72,247.51 435.38,247.76 			"/>
			<path class="st10" d="M381.03,185.51c-0.02-5.92-2.77-11.5-7.45-15.14c-3.94-3.07-8.84-6.76-10.51-7.46
				c-2.95-1.23-4.43-0.74-8.61,2.21c-4.18,2.95-5.66,9.1-5.41,19.18c0.25,10.08,7.38,63.2,8.12,65.42c0.74,2.21,2.95,2.71,4.92,2.95
				s69.76-2.07,71.07-2.21c4.67-0.49,5.44-6.86,5.16-9.84c-0.49-5.41-5.16-7.13-12.3-7.87c-7.13-0.74-42.05-4.92-43.28-5.16
				c-1.23-0.25-2.46-0.74-2.46-0.74s0.74-28.77,0.74-36.64C381.03,188.45,381.04,186.9,381.03,185.51z"/>
			<path class="st11" d="M366.83,235.58c-0.82,0.9-1.52,1.85-2.03,2.83"/>
			<path class="st11" d="M380.29,226.85c0,0-5.74,2.34-10.43,5.98"/>
			<path class="st11" d="M364.3,232.26c0,0,5.66-7.62,14.51-5.66"/>
		</g>
		<g>
			<rect x="487.59" y="104.86" class="st9" width="2.28" height="21.47"/>
			<rect x="480.11" y="126.33" class="st9" width="17.24" height="0.98"/>
			<path class="st9" d="M488.73,106.82L488.73,106.82c-4.85,0-8.78-3.93-8.78-8.78l1.76-15.94h14.05l1.76,15.94
				C497.51,102.88,493.58,106.82,488.73,106.82z"/>
		</g>
		<g>
			<path class="st12" d="M517.55,70.56L516.74,52h-2.79h-1.33h-2.79l-0.81,18.56c-0.08,1.79-0.43,3.55-1.04,5.23l-4.01,10.98
				c-0.78,2.13-1.18,4.38-1.18,6.65v35.89h7.7h5.58h7.7V93.42c0-2.27-0.4-4.52-1.18-6.65l-4.01-10.98
				C517.98,74.11,517.63,72.35,517.55,70.56z"/>
			<rect x="503.72" y="97.43" class="st9" width="19" height="25.64"/>
			<path class="st13" d="M517.46,68.34c0-0.05-0.01-0.1-0.01-0.16l-0.64-14.69c-0.04-0.83-0.72-1.49-1.55-1.49h-1.3h-1.33h-1.3
				c-0.83,0-1.52,0.66-1.55,1.49l-0.64,14.69c0,0.05-0.01,0.1-0.01,0.16H517.46z"/>
		</g>
		<polygon class="st13" points="554.9,131.19 461.69,131.19 456.77,127.25 560.8,127.25 		"/>
		<polygon class="st9" points="394.17,228.38 394.51,286.85 443.51,286.85 444.48,235.71 		"/>
		<g>
			<g>
				<path class="st9" d="M408.97,90.04c0,0,4.92,0.98,7.88,6.65c2.95,5.66,11.08,29.3,11.32,32.5c0.25,3.2-3.2,4.19-7.14,6.65
					c-3.94,2.46-16.74,4.43-23.88,1.97c-7.14-2.46-8.62-6.4-8.62-6.4s-2.71,3.2-7.88-0.25c-5.17-3.45-6.15-8.12-4.19-9.85
					c1.97-1.72,5.17-0.25,5.17-0.25s-5.42-13.29-4.92-17.97c0.49-4.68,0.74-9.35,8.62-12.56C393.22,87.33,408.97,90.04,408.97,90.04
					z"/>
				<path class="st11" d="M409.22,100.62c0,0,0.98,3.2,2.22,3.69c1.23,0.49,7.63-1.48,8.12,1.23c0.49,2.71-1.97,7.14-1.97,7.14"/>
				<path class="st11" d="M419.56,117.12c0,0-6.15,5.42-12.31,0.49"/>
				<line class="st11" x1="397.16" y1="108.5" x2="404.05" y2="106.04"/>
				<path class="st11" d="M401.83,98.65c0,0-5.42-2.95-8.12,2.46"/>
				<path class="st11" d="M408.97,98.16c0,0,2.46-4.43,6.89-0.74"/>
				<path class="st12" d="M401.66,107.69c0.12,0.35-0.34,0.82-1.01,1.04c-0.67,0.22-1.32,0.12-1.43-0.23
					c-0.12-0.35,0.34-0.82,1.01-1.04C400.9,107.24,401.54,107.34,401.66,107.69z"/>
			</g>
			<path class="st12" d="M379.68,117.12c0,0,1.48,5.17,2.46,5.42c0.98,0.25,5.17,0.98,4.92-1.48c-0.25-2.46-4.68-11.08-4.19-14.03
				s6.15-7.14,4.92-8.86c-1.23-1.72-3.2-1.48-2.46-2.71c0.74-1.23,12.56-5.17,16.99-5.17c4.43,0,6.4-0.25,8.37-1.72
				c1.97-1.48,4.92-7.39-4.19-7.63s-24.13,5.91-29.3,12.8c-5.17,6.89-2.71,12.31-1.23,15.02
				C377.46,111.46,379.68,117.12,379.68,117.12z"/>
		</g>
		<polygon class="st12" points="413.79,168.78 403.89,166.67 405.93,177.06 414.16,170.77 423.33,174.94 421.64,164.33 		"/>
	</g>
</g>
<g id="Character_1">
	<g>
		<path class="st9" d="M304.63,220.79l3.23,16.39c0,0,1.74,2.48,7.45,4.97c5.71,2.48,8.45,0.5,8.45-3.48
			c0-3.97-1.99-25.34-1.99-25.34L304.63,220.79z"/>
		<polygon class="st12" points="305.65,226.74 322.42,222.16 321.77,213.34 304.63,220.79 		"/>
		<path class="st9" d="M215.95,206.39L208,228.99l5.96,4.47c0,0,4.97,0.5,8.2-1.74c3.23-2.24,11.18-20.62,11.18-20.62L215.95,206.39
			z"/>
		<polygon class="st12" points="214.19,211.28 230.96,216.28 233.34,211.11 215.71,205.61 		"/>
		<g>
			<path class="st9" d="M277.47,337.05c0,0,2.32,29.15,2.32,35.44s-2.65,20.2-0.99,27.82c1.66,7.62,7.29,31.13,7.29,38.75
				s-4.31,21.2-1.99,23.85c2.32,2.65,6.62,3.31,7.95,5.96c1.32,2.65,1.99,3.31,4.31,4.31c2.32,0.99,11.59,1.66,13.58,0.99
				c1.99-0.66,0.99-2.32-2.32-6.96c-3.31-4.64-10.93-13.58-12.25-17.55c-1.32-3.97,6.96-35.77,7.29-49.02
				c0.33-13.25-0.33-30.14-0.33-30.14s4.31-29.81,4.31-35.77L277.47,337.05z"/>
			<path class="st12" d="M278.31,347.98c8.07-0.43,17.34-1.77,27.58-4.6c0.44-3.87,0.73-7.08,0.73-8.64l-29.15,2.32
				C277.47,337.05,277.85,341.85,278.31,347.98z"/>
			<path class="st11" d="M301.65,363.88c0,0-0.33,8.61-3.31,13.25"/>
			<path class="st12" d="M309.93,474.17c1.99-0.66,0.99-2.32-2.32-6.96c-0.57-0.8-1.28-1.73-2.05-2.74
				c-3.94,2.49-9.64,0.93-11.86-1.57c-2.02-2.28-7.13-7.83-9.43-10.33c-0.81,4.79-1.35,8.98-0.17,10.33
				c2.32,2.65,6.62,3.31,7.95,5.96c1.32,2.65,1.99,3.31,4.31,4.31C298.67,474.17,307.94,474.83,309.93,474.17z"/>
		</g>
		<g>
			<path class="st9" d="M246.01,337.71c0,0,4.97,31.13,5.63,32.13c0.66,0.99,0,28.48,3.31,37.76c3.31,9.27,11.92,38.42,12.25,43.06
				c0.33,4.64-10.6,13.91-15.24,16.89c-4.64,2.98-5.96,4.97-2.98,5.96c2.98,0.99,13.58,0,17.89-0.33
				c4.31-0.33,10.08,1.27,11.07-0.06c0.99-1.32-0.47-20.15-0.47-25.78c0-5.63,1.32-45.71-0.66-58.96
				c-1.99-13.25-3.97-24.84-3.97-24.84l0.66-27.16l-29.15-0.99L246.01,337.71z"/>
			<path class="st12" d="M246.01,337.71c0,0,0.49,3.08,1.18,7.32c4.6,1.3,13.61,3.23,26.02,3.11l0.29-11.76l-29.15-0.99
				L246.01,337.71z"/>
			<path class="st11" d="M252.63,363.21c0,0,0.66,9.94,4.64,14.57"/>
			<path class="st12" d="M277.94,473.12c0.38-0.51,0.37-3.43,0.22-7.16c-5.16,0.74-14.27,0.27-14.27,0.27
				c-2.32-4.64-5.96-2.65-5.96-2.65l-0.68-0.02c-2.01,1.69-3.92,3.11-5.28,3.99c-4.64,2.98-5.96,4.97-2.98,5.96
				c2.98,0.99,13.39,0.94,17.69,0.6C270.99,473.78,276.95,474.44,277.94,473.12z"/>
		</g>
		<path class="st10" d="M230.11,311.21l-0.99,26.83c0,0,22.52,6.29,41.73,6.62c19.21,0.33,44.38-7.62,44.38-7.62l-1.32-29.48
			l-83.13-1.32L230.11,311.21z"/>
		<path class="st12" d="M246.75,233.71c0,0-18.63,47.36-23.27,83.13c0,0,27.16,7.62,53.99,6.29c26.83-1.32,42.73-8.61,42.73-8.61
			s-8.28-54.98-22.03-77.83L246.75,233.71z"/>
		<path class="st12" d="M282.44,89.63c0,0-1.32-8.61-9.94-6.96c-8.61,1.66-8.28,4.64-9.6,7.62c-1.32,2.98-20.2,6.62-24.51,17.89
			c-4.31,11.26,6.29,14.9,6.29,20.87c0,5.96-13.25,10.6-10.27,17.55s13.91,8.28,12.92,10.6c-0.99,2.32-8.94,5.96-2.98,11.26
			c5.96,5.3,32.79,10.6,47.03,7.95c14.24-2.65,17.89-13.91,15.24-17.55c-2.65-3.64-4.64-5.3-2.65-8.94
			c1.99-3.64,12.25-7.29,8.94-17.22c-3.31-9.94-12.25-11.59-11.92-17.22c0.33-5.63,10.27-9.27,1.99-17.22
			C294.69,90.3,282.44,89.63,282.44,89.63z"/>
		<g>
			<path class="st14" d="M258.67,159.19l-26.83,7.7l14.9,66.82c0,0,6.96,4.47,22.11,5.46c15.15,0.99,29.31-2.48,29.31-2.48
				l14.66-67.32l-25.59-8.2L258.67,159.19z"/>
			<g>
				<path class="st0" d="M253.47,160.68l-0.97,0.28l10.55,77.62c0.34,0.05,0.68,0.09,1.02,0.13L253.47,160.68z"/>
				<path class="st0" d="M259.34,159.24l-0.67-0.05l-0.32,0.09l8.49,79.73c0.33,0.03,0.67,0.06,1.01,0.08L259.34,159.24z"/>
				<path class="st0" d="M266.36,159.72l-1-0.07l6.18,79.65c0.33,0.01,0.67,0.02,1,0.03L266.36,159.72z"/>
				<path class="st0" d="M247.37,162.43l-0.96,0.28l13.25,75.31c0.34,0.07,0.69,0.13,1.04,0.19L247.37,162.43z"/>
				<path class="st0" d="M240.99,164.26l14.34,72.78c0.34,0.09,0.7,0.18,1.07,0.27l-14.45-73.32L240.99,164.26z"/>
				<path class="st0" d="M280.23,160.69l-0.99-0.07l1.31,78.54c0.33-0.02,0.66-0.04,0.99-0.06L280.23,160.69z"/>
				<path class="st0" d="M250.32,235.4c0.34,0.14,0.71,0.27,1.1,0.42l-14.89-70.28l-0.96,0.27L250.32,235.4z"/>
				<path class="st0" d="M304.22,166.61l-9.61,70.82c0.37-0.07,0.71-0.13,1.03-0.2l9.54-70.31L304.22,166.61z"/>
				<path class="st0" d="M309.62,168.35l-0.95-0.31l-12.24,69.03c0.42-0.09,0.78-0.16,1.05-0.22L309.62,168.35z"/>
				<path class="st0" d="M299.37,165.06l-0.97-0.31l-8,73.38c0.35-0.05,0.69-0.1,1.02-0.15L299.37,165.06z"/>
				<path class="st0" d="M287.35,161.21l-0.11-0.04l-0.88-0.06l-3.68,77.9c0.34-0.03,0.67-0.05,1-0.08L287.35,161.21z"/>
				<path class="st0" d="M275.47,239.35c0.33,0,0.66-0.01,0.99-0.02l-2.73-79.09l-1-0.07L275.47,239.35z"/>
				<path class="st0" d="M293.14,163.07l-0.97-0.31l-5.29,75.85c0.34-0.04,0.68-0.08,1-0.12L293.14,163.07z"/>
				<path class="st10" d="M296.95,189.13l-9.81-0.52c-1.57-0.08-2.78-1.42-2.69-3l0.05-0.87c0.08-1.57,1.42-2.78,3-2.69l9.81,0.52
					c1.57,0.08,2.78,1.42,2.69,3l-0.05,0.87C299.86,188.01,298.52,189.21,296.95,189.13z"/>
			</g>
			<path class="st11" d="M258.67,159.19l-26.83,7.7l14.9,66.82c0,0,6.96,4.47,22.11,5.46c15.15,0.99,29.31-2.48,29.31-2.48
				l14.66-67.32l-25.59-8.2L258.67,159.19z"/>
		</g>
		<polygon class="st9" points="261.46,140.57 262.03,154.68 272,162.4 281.94,154.61 285.93,141.51 272.75,145.46 		"/>
		<path class="st12" d="M285.93,141.51l-13.17,3.95l-11.29-4.89l0.29,7.19c2.37,3.2,4.79,5.76,6.41,6.46
			c3.95,1.69,6.21,0.94,7.53-0.38c1-1,6.05-4.1,9.81-10.93L285.93,141.51z"/>
		<polygon class="st10" points="267.49,165.98 270.31,170.12 268.43,206.06 273.88,206.25 272,170.3 276.52,164.66 271.55,159.95 		
			"/>
		<g>
			<polygon class="st14" points="260.95,150.73 271.31,159.95 264.91,170.68 256.06,159.2 			"/>
			<g>
				<polygon class="st0" points="256.48,158.47 265.61,169.51 266.15,168.6 257.01,157.55 				"/>
				<polygon class="st0" points="258.5,154.98 257.96,155.92 266.69,167.69 267.24,166.76 				"/>
				<polygon class="st0" points="261.22,150.97 260.95,150.73 260.45,151.6 269.72,161.92 268.32,163.62 259.78,152.76 
					259.25,153.69 268.23,165.11 270.5,161.3 				"/>
				<polygon class="st11" points="260.95,150.73 271.31,159.95 264.91,170.68 256.06,159.2 				"/>
			</g>
		</g>
		<g>
			<polygon class="st14" points="283.11,150.73 271.55,159.95 278.7,170.68 288.58,159.2 			"/>
			<g>
				<polygon class="st0" points="288.11,158.47 277.92,169.51 277.31,168.6 287.52,157.55 				"/>
				<polygon class="st0" points="285.86,154.98 286.46,155.92 276.7,167.69 276.09,166.76 				"/>
				<polygon class="st0" points="282.82,150.97 283.11,150.73 283.68,151.6 273.32,161.92 274.88,163.62 284.42,152.76 
					285.02,153.69 274.98,165.11 272.44,161.3 				"/>
				<polygon class="st11" points="283.11,150.73 271.55,159.95 278.7,170.68 288.58,159.2 				"/>
			</g>
		</g>
		<g>
			<path class="st9" d="M255.61,119.8c0,0-3.18-2.75-4.5,0.45s3.76,11.48,5.27,11.1c1.51-0.38,0.56-11.1,0.56-11.1L255.61,119.8z"/>
			<path class="st9" d="M293.38,120.17c0,0,3.51-2.32,4.4,1.02c0.9,3.34-5.2,10.9-6.65,10.34c-1.45-0.57,0.86-11.08,0.86-11.08
				L293.38,120.17z"/>
			<path class="st9" d="M266.92,94.27c0,0-8.85,2.82-10.16,10.73c-1.2,7.17-1.69,20.33-0.38,26.35c1.32,6.02,9.97,18.82,13.93,20.51
				c3.95,1.69,6.21,0.94,7.53-0.38c1.32-1.32,9.6-6.21,12.8-18.44c3.2-12.23,2.82-21.27,0.75-30.49
				C290.11,96.86,276.52,89.94,266.92,94.27z"/>
			<path class="st12" d="M291.39,102.55c-1.28-5.7-14.87-12.61-24.47-8.28c0,0-8.85,2.82-10.16,10.73c-0.65,3.88-1.08,9.5-1.15,14.8
				c0.43-1.51,1.07-3.97,1.71-7.27c1.13-5.83,3.58-10.54,7.72-10.92c4.14-0.38,5.83,1.51,12.61,1.13c6.78-0.38,9.03-0.94,11.86,2.26
				c2.82,3.2,2.45,13.74,3.2,16.75C293.39,114.77,292.77,108.7,291.39,102.55z"/>
			<path class="st11" d="M276.71,125.51l-0.38,4.33c0,0,2.07,1.32,1.51,2.82c-0.56,1.51-2.82,2.26-3.76,1.32"/>
			<path class="st11" d="M268.05,138.69c0,0,4.52,2.45,7.53,2.07s5.83-2.63,5.83-2.63"/>
			<path class="st15" d="M268.24,123.73c0,1.2-0.55,2.16-1.22,2.16s-1.22-0.97-1.22-2.16c0-1.2,0.55-2.16,1.22-2.16
				S268.24,122.53,268.24,123.73z"/>
			<path class="st15" d="M283.86,124.38c0,1.2-0.55,2.16-1.22,2.16s-1.22-0.97-1.22-2.16c0-1.2,0.55-2.16,1.22-2.16
				S283.86,123.19,283.86,124.38z"/>
			<path class="st11" d="M263.16,118.36c0,0,3.01-3.95,8.28-1.51"/>
			<path class="st11" d="M279.15,117.61c0,0,5.08-3.39,9.97,1.69"/>
		</g>
		<g>
			<polygon class="st14" points="231.85,166.89 212.22,207.63 236.57,213.84 239.55,202.41 			"/>
			<g>
				<polygon class="st0" points="232.38,169.37 215.24,208.4 216.22,208.65 232.74,171.03 				"/>
				<path class="st0" d="M233.8,175.93l-0.37-1.73c-4.76,11.81-10.96,26.98-14.47,35.15l0.97,0.25
					C223.85,200.52,230.56,183.97,233.8,175.93z"/>
				<polygon class="st0" points="235.15,182.11 234.77,180.4 222.58,210.27 223.55,210.52 				"/>
				<polygon class="st0" points="238.52,206.33 239.55,202.41 239.49,202.13 234.03,213.19 235.02,213.44 				"/>
				<polygon class="st0" points="238.29,196.6 237.91,194.88 230.8,212.37 231.77,212.61 				"/>
				<polygon class="st0" points="236.61,188.85 236.23,187.12 226.51,211.27 227.48,211.52 				"/>
			</g>
			<polygon class="st11" points="231.85,166.89 212.22,207.63 236.57,213.84 239.55,202.41 			"/>
		</g>
		<g>
			<polygon class="st14" points="312.83,169.37 328.97,215.83 303.88,225.02 302.15,218.56 			"/>
			<g>
				<polygon class="st0" points="307.15,195.53 306.76,197.32 315.5,220.76 316.43,220.42 				"/>
				<polygon class="st0" points="305.74,202.01 305.35,203.8 312.18,221.98 313.12,221.63 				"/>
				<polygon class="st0" points="304.59,207.32 304.19,209.16 309.14,223.09 310.08,222.75 				"/>
				<polygon class="st0" points="307.4,223.73 303.33,213.12 302.94,214.89 306.47,224.07 				"/>
				<polygon class="st0" points="310.99,177.84 310.58,179.7 323.84,217.7 324.78,217.36 				"/>
				<polygon class="st0" points="312.34,171.63 311.92,173.54 326.28,216.81 327.22,216.47 				"/>
				<polygon class="st0" points="309.91,182.79 309.51,184.65 321.3,218.64 322.23,218.3 				"/>
				<polygon class="st0" points="308.32,190.11 307.94,191.86 318.78,219.56 319.72,219.22 				"/>
			</g>
			<polygon class="st11" points="312.83,169.37 328.97,215.83 303.88,225.02 302.15,218.56 			"/>
		</g>
		<path class="st9" d="M240.54,189.74l-3.73,3.23l-4.72,10.18l2.73,7.7c0,0-25.09,14.41-26.58,15.9
			c-1.49,1.49-1.99,11.68,1.24,16.64c3.23,4.97,16.89-9.94,16.89-9.94l22.36-30.06c0,0,5.46-6.46,3.97-8.2
			c-1.49-1.74-2.73-2.98-3.48-2.98s-2.48,0.25-2.48,0.25L240.54,189.74z"/>
		<path class="st9" d="M241.05,182.66l5.7,11.8l2.24,0.75l-6.33-13.29c-0.23-0.49-0.84-0.66-1.29-0.36l0,0
			C241,181.79,240.87,182.27,241.05,182.66z"/>
		<g>
			<polygon class="st9" points="233.34,198.44 237.81,211.11 251.47,213.59 255.69,211.11 250.97,196.7 			"/>
			<path class="st9" d="M247.5,200.92l-17.89-1.49c0,0-2.48-1.74,0.75-3.73c3.23-1.99,5.96-1.24,5.96-1.24l12.67,0.75L247.5,200.92z
				"/>
			<path class="st9" d="M255.69,208.37l-3.97-12.67c0,0-3.97-1.24-5.22,0.99c-1.24,2.24,0.25,3.73,0.99,4.22
				c0.75,0.5,3.23-1.24,3.23-1.24l2.73,10.18L255.69,208.37z"/>
		</g>
		<path class="st9" d="M322.76,232.47c0,0,0.75,2.48,0.75,7.45c0,4.97-1.24,8.69-4.47,8.69c-3.23,0-16.89-3.97-23.1-7.2
			c-6.21-3.23-31.3-15.65-31.3-15.65s-8.94-0.99-11.43-1.49c-2.48-0.5-6.71-2.24-9.19-3.97c-2.48-1.74-3.73-6.71-3.73-6.71
			s-4.47-2.73-4.47-3.97c0-1.24,12.17,1.24,14.41,1.24c2.24,0,5.46-2.48,5.46-2.48l-1.24-4.72c0,0,4.47,1.74,5.71,3.23
			c1.24,1.49,5.71,9.94,6.46,10.93c0.75,0.99,20.62,9.19,30.8,10.18c10.18,0.99,20.12,2.48,20.12,2.48"/>
	</g>
</g>
<g id="Floor">
</g>
</svg>
