<?xml version="1.0" encoding="utf-8"?>
<!-- Generator: Adobe Illustrator 25.4.1, SVG Export Plug-In . SVG Version: 6.00 Build 0)  -->
<svg version="1.1" id="Capa_1" xmlns="http://www.w3.org/2000/svg" xmlns:xlink="http://www.w3.org/1999/xlink" x="0px" y="0px"
	 viewBox="0 0 847 717" style="enable-background:new 0 0 847 717;" xml:space="preserve">
<style type="text/css">
	.st0{fill:#526FAC;fill-opacity:0.1;}
	.st1{fill:#C7BECF;}
	.st2{fill:#526FAC;}
	.st3{fill:#FFFFFF;}
	.st4{fill:#202124;}
	.st5{fill:#526FAC;fill-opacity:0.2;}
</style>
<path class="st0" d="M427.1,677.5c150.7,0,272.8-122.1,272.8-272.6S577.7,132.2,427.1,132.2c-150.7,0-272.8,122.1-272.8,272.6
	S276.4,677.5,427.1,677.5z"/>
<path class="st1" d="M427.1,716.1c-3.4,0-7.1,0-10.5-0.2c-0.7,0-1.1-0.5-1.1-1.1s0.5-1.1,1.1-1.1c3.4,0,6.9,0.2,10.5,0.2h3.2
	c0.7,0,1.1,0.5,1.1,1.1s-0.5,1.1-1.1,1.1H427.1z M444,715.9c-0.7,0-1.1-0.5-1.1-1.1s0.5-1.1,1.1-1.1c4.6-0.2,9.1-0.5,13.7-0.9
	c0.7,0,1.1,0.5,1.1,1.1s-0.5,1.1-1.1,1.1C453.4,715.2,448.8,715.7,444,715.9C444.2,715.9,444.2,715.9,444,715.9z M403.1,715.4
	C402.9,715.4,402.9,715.4,403.1,715.4c-4.6-0.2-9.4-0.7-13.7-1.1c-0.7,0-1.1-0.7-0.9-1.4c0-0.7,0.7-1.1,1.4-0.9
	c4.6,0.5,9.1,0.9,13.7,1.1c0.7,0,1.1,0.7,1.1,1.1C404,715,403.5,715.4,403.1,715.4z M471.4,713.4c-0.5,0-1.1-0.5-1.1-0.9
	c0-0.7,0.5-1.1,0.9-1.4c4.6-0.7,9.1-1.1,13.5-2.1c0.7,0,1.1,0.2,1.4,0.9c0,0.7-0.2,1.1-0.9,1.4C480.5,712.2,476,712.9,471.4,713.4z
	 M375.7,712.5c-4.6-0.7-9.1-1.4-13.7-2.3c-0.7-0.2-0.9-0.7-0.9-1.4c0.2-0.7,0.7-0.9,1.4-0.9c4.3,0.9,8.9,1.6,13.5,2.3
	c0.7,0,1.1,0.7,0.9,1.4C376.8,712,376.4,712.5,375.7,712.5z M498.4,708.8c-0.5,0-0.9-0.5-1.1-0.9c-0.2-0.7,0.2-1.1,0.9-1.4
	c4.3-0.9,8.9-2.1,13.3-3c0.7-0.2,1.1,0.2,1.4,0.9c0.2,0.7-0.2,1.1-0.9,1.4C507.5,707,502.9,707.9,498.4,708.8
	C498.6,708.8,498.6,708.8,498.4,708.8z M348.7,707.2h-0.2c-4.3-1.1-8.9-2.1-13.3-3.4c-0.7-0.2-0.9-0.7-0.9-1.4
	c0.2-0.7,0.7-0.9,1.4-0.9c4.3,1.1,8.9,2.3,13.3,3.4c0.7,0.2,0.9,0.7,0.9,1.4S349.4,707.2,348.7,707.2z M525.1,702.2
	c-0.5,0-0.9-0.2-1.1-0.9c-0.2-0.7,0.2-1.1,0.7-1.4c4.3-1.4,8.7-2.7,13-4.1c0.7-0.2,1.1,0.2,1.4,0.7c0.2,0.7-0.2,1.1-0.7,1.4
	c-4.3,1.4-8.7,2.7-13,4.1C525.1,702.2,525.1,702.2,525.1,702.2z M322.4,700.1c0,0-0.2,0-0.5,0c-4.3-1.4-8.7-3-13-4.3
	c-0.7-0.2-0.9-0.9-0.7-1.4c0.2-0.7,0.9-0.9,1.4-0.7c4.3,1.6,8.7,3,13,4.3c0.7,0.2,0.9,0.9,0.7,1.4
	C323.4,699.7,322.9,700.1,322.4,700.1z M550.9,693.5c-0.5,0-0.9-0.2-1.1-0.7c-0.2-0.7,0-1.1,0.7-1.4c4.3-1.6,8.5-3.4,12.6-5
	c0.7-0.2,1.1,0,1.6,0.7c0.2,0.7,0,1.1-0.7,1.6c-4.1,1.8-8.5,3.4-12.8,5.3C551.1,693.5,551.1,693.5,550.9,693.5z M296.6,690.8
	c-0.2,0-0.2,0-0.5,0c-4.3-1.8-8.5-3.7-12.6-5.5c-0.7-0.2-0.9-0.9-0.5-1.6c0.2-0.7,0.9-0.9,1.6-0.5c4.1,1.8,8.2,3.7,12.6,5.5
	c0.7,0.2,0.9,0.9,0.7,1.6C297.3,690.5,297.1,690.8,296.6,690.8z M576,682.8c-0.5,0-0.9-0.2-1.1-0.7c-0.2-0.5,0-1.1,0.5-1.6
	c4.1-1.8,8.2-3.9,12.1-6.2c0.5-0.2,1.1,0,1.6,0.5c0.2,0.5,0,1.1-0.5,1.6c-4.1,2.1-8.2,4.1-12.3,6.2
	C576.5,682.5,576.3,682.8,576,682.8z M271.5,679.3c-0.2,0-0.5,0-0.5-0.2c-4.1-2.1-8.2-4.3-12.1-6.4c-0.5-0.2-0.7-0.9-0.5-1.6
	c0.2-0.5,0.9-0.7,1.6-0.5c3.9,2.3,8,4.3,12.1,6.4c0.5,0.2,0.7,0.9,0.5,1.6C272.4,679.1,271.9,679.3,271.5,679.3z M600.3,670
	c-0.5,0-0.7-0.2-0.9-0.5c-0.2-0.5-0.2-1.1,0.5-1.6c3.9-2.3,7.8-4.6,11.7-7.1c0.5-0.2,1.1-0.2,1.6,0.5c0.2,0.5,0.2,1.1-0.5,1.6
	c-3.9,2.5-7.8,4.8-11.7,7.1C600.7,670,600.5,670,600.3,670z M247.5,666.1c-0.2,0-0.5,0-0.7-0.2c-3.9-2.3-7.8-4.8-11.7-7.3
	c-0.5-0.5-0.7-1.1-0.2-1.6s1.1-0.7,1.6-0.2c3.9,2.5,7.8,5,11.4,7.3c0.5,0.2,0.7,1.1,0.5,1.6C248.4,665.9,248,666.1,247.5,666.1z
	 M623.3,655.4c-0.5,0-0.7-0.2-0.9-0.5c-0.5-0.5-0.2-1.1,0.2-1.6c3.7-2.5,7.5-5.3,11-8c0.5-0.5,1.1-0.2,1.6,0.2
	c0.5,0.5,0.2,1.1-0.2,1.6c-3.7,2.7-7.3,5.5-11.2,8C623.8,655.1,623.6,655.4,623.3,655.4z M224.7,650.8c-0.2,0-0.5,0-0.7-0.2
	c-3.7-2.7-7.3-5.5-11-8.2c-0.5-0.5-0.7-1.1-0.2-1.6s1.1-0.7,1.6-0.2c3.7,2.7,7.3,5.5,11,8.2c0.5,0.5,0.7,1.1,0.2,1.6
	C225.3,650.8,225.1,650.8,224.7,650.8z M645.3,638.9c-0.2,0-0.7-0.2-0.9-0.5c-0.5-0.5-0.2-1.1,0.2-1.6c3.4-3,7.1-5.9,10.5-8.9
	c0.5-0.5,1.1-0.5,1.6,0s0.5,1.1,0,1.6c-3.4,3-6.9,5.9-10.5,8.9C645.7,638.7,645.5,638.9,645.3,638.9z M203.2,633.9
	c-0.2,0-0.5,0-0.7-0.2c-3.4-3-6.9-5.9-10.3-9.1c-0.5-0.5-0.5-1.1,0-1.6s1.1-0.5,1.6,0c3.4,3,6.9,6.2,10.3,9.1
	c0.5,0.5,0.5,1.1,0.2,1.6C203.9,633.9,203.4,633.9,203.2,633.9z M665.8,620.9c-0.2,0-0.7-0.2-0.9-0.5c-0.5-0.5-0.5-1.1,0-1.6
	c3.2-3.2,6.6-6.4,9.6-9.6c0.5-0.5,1.1-0.5,1.6,0s0.5,1.1,0,1.6c-3.2,3.2-6.4,6.6-9.8,9.6C666.5,620.7,666.1,620.9,665.8,620.9z
	 M183.1,615.4c-0.2,0-0.7,0-0.9-0.2c-3.2-3.2-6.4-6.6-9.6-9.8c-0.5-0.5-0.5-1.1,0-1.6s1.1-0.5,1.6,0c3.2,3.4,6.2,6.6,9.6,9.8
	c0.5,0.5,0.5,1.1,0,1.6C183.5,615.4,183.3,615.4,183.1,615.4z M685,601c-0.2,0-0.5,0-0.7-0.2c-0.5-0.5-0.5-1.1,0-1.6
	c3-3.4,5.9-6.8,8.9-10.3c0.5-0.5,1.1-0.5,1.6-0.2c0.5,0.5,0.5,1.1,0.2,1.6c-3,3.4-5.9,7.1-8.9,10.5C685.5,601,685.3,601,685,601z
	 M164.3,595.3c-0.2,0-0.7-0.2-0.9-0.5c-3-3.4-5.9-7.1-8.7-10.5c-0.5-0.5-0.2-1.1,0.2-1.6c0.5-0.5,1.1-0.2,1.6,0.2
	c2.7,3.7,5.7,7.1,8.7,10.5c0.5,0.5,0.5,1.1-0.2,1.6C164.8,595.3,164.6,595.3,164.3,595.3z M702.4,580c-0.2,0-0.5,0-0.7-0.2
	c-0.5-0.5-0.7-1.1-0.2-1.6c2.7-3.7,5.5-7.3,8-11c0.5-0.5,1.1-0.7,1.6-0.2s0.7,1.1,0.2,1.6c-2.5,3.7-5.3,7.5-8.2,11.2
	C703.1,579.8,702.8,580,702.4,580z M147.4,573.9c-0.5,0-0.7-0.2-0.9-0.5c-2.7-3.7-5.3-7.5-7.8-11.2c-0.5-0.5-0.2-1.1,0.2-1.6
	c0.5-0.5,1.1-0.2,1.6,0.2c2.5,3.9,5.3,7.5,7.8,11.2c0.5,0.5,0.2,1.1-0.2,1.6C147.9,573.9,147.7,573.9,147.4,573.9z M718.2,557.6
	c-0.2,0-0.5,0-0.7-0.2c-0.5-0.2-0.7-1.1-0.2-1.6c2.5-3.9,4.8-7.8,7.1-11.6c0.2-0.5,0.9-0.7,1.6-0.5c0.5,0.2,0.7,0.9,0.5,1.6
	c-2.3,3.9-4.8,8-7.3,11.6C718.8,557.4,718.6,557.6,718.2,557.6z M132.1,551c-0.5,0-0.7-0.2-0.9-0.5c-1.6-2.5-3-5-4.6-7.5
	c-2.3-3.9-4.6-8-6.6-12.1c-0.2-0.5,0-1.1,0.5-1.6c0.5-0.2,1.1,0,1.6,0.5c2.1,4.1,4.3,8,6.6,11.9c1.4,2.5,3,5,4.3,7.5
	c0.2,0.5,0.2,1.1-0.5,1.6C132.6,551,132.4,551,132.1,551z M732.1,533.9c-0.2,0-0.5,0-0.5-0.2c-0.5-0.2-0.7-0.9-0.5-1.6
	c2.1-4.1,4.3-8.2,6.2-12.1c0.2-0.5,0.9-0.7,1.6-0.5c0.5,0.2,0.9,0.9,0.5,1.6c-2.1,4.1-4.1,8.2-6.2,12.3
	C733,533.7,732.5,533.9,732.1,533.9z M114.8,519.5c-0.5,0-0.9-0.2-1.1-0.7c-2.1-4.1-3.9-8.2-5.7-12.6c-0.2-0.7,0-1.1,0.7-1.6
	c0.7-0.2,1.1,0,1.6,0.7c1.8,4.1,3.7,8.4,5.7,12.3c0.2,0.5,0,1.1-0.5,1.6C115.2,519.3,115,519.5,114.8,519.5z M744.2,509.2
	c-0.2,0-0.2,0-0.5,0c-0.7-0.2-0.9-0.9-0.7-1.6c1.8-4.1,3.7-8.4,5.3-12.6c0.2-0.7,0.9-0.9,1.4-0.7c0.7,0.2,0.9,0.9,0.7,1.4
	c-1.6,4.3-3.4,8.4-5.3,12.8C745.1,509,744.7,509.2,744.2,509.2z M104,494.2c-0.5,0-0.9-0.2-1.1-0.7c-1.6-4.3-3.2-8.7-4.6-13
	c-0.2-0.7,0.2-1.1,0.7-1.4c0.7-0.2,1.1,0.2,1.4,0.7c1.4,4.3,3,8.7,4.6,12.8c0.2,0.7,0,1.1-0.7,1.4
	C104.2,494.2,104.2,494.2,104,494.2z M754.3,483.7c-0.2,0-0.2,0-0.5,0c-0.7-0.2-0.9-0.9-0.7-1.4c1.6-4.3,3-8.7,4.3-13
	c0.2-0.7,0.9-0.9,1.4-0.7c0.7,0.2,0.9,0.9,0.7,1.4c-1.4,4.3-2.7,8.7-4.3,13C755.2,483.4,754.7,483.7,754.3,483.7z M95.3,468.4
	c-0.5,0-0.9-0.2-1.1-0.9c-1.4-4.3-2.5-8.9-3.7-13.2c-0.2-0.7,0.2-1.1,0.9-1.4c0.7-0.2,1.1,0.2,1.4,0.9c1.1,4.3,2.3,8.9,3.7,13.2
	c0.2,0.7-0.2,1.1-0.7,1.4C95.6,468.4,95.3,468.4,95.3,468.4z M762,457.4h-0.2c-0.7-0.2-0.9-0.7-0.9-1.4c1.1-4.3,2.3-8.9,3.2-13.2
	c0.2-0.7,0.7-0.9,1.4-0.9c0.7,0.2,0.9,0.7,0.9,1.4c-0.9,4.3-2.1,8.9-3.2,13.5C763.2,457.2,762.7,457.4,762,457.4z M88.5,441.9
	c-0.5,0-0.9-0.5-1.1-0.9c-0.9-4.3-1.8-8.9-2.5-13.5c0-0.7,0.2-1.1,0.9-1.4c0.7-0.2,1.1,0.2,1.4,0.9c0.7,4.6,1.6,8.9,2.5,13.5
	c0.2,0.7-0.2,1.1-0.9,1.4C88.7,441.9,88.7,441.9,88.5,441.9z M768,430.7c-0.9-0.2-1.1-0.7-1.1-1.4c0.7-4.6,1.6-8.9,2.1-13.5
	c0-0.7,0.7-1.1,1.4-0.9c0.7,0,1.1,0.7,0.9,1.4c-0.7,4.6-1.4,9.1-2.1,13.5C768.9,430.5,768.4,430.7,768,430.7z M83.9,414.7
	c-0.5,0-1.1-0.5-1.1-0.9c-0.7-4.6-1.1-9.1-1.4-13.7c0-0.7,0.5-1.1,1.1-1.1c0.7,0,1.1,0.5,1.1,1.1c0.5,4.6,0.9,9.1,1.4,13.5
	C85.3,414,84.8,414.7,83.9,414.7C84.1,414.7,84.1,414.7,83.9,414.7z M771.6,403.5c-0.7,0-1.1-0.7-1.1-1.1c0.5-4.6,0.7-9.1,1.1-13.7
	c0-0.7,0.7-1.1,1.1-1.1c0.7,0,1.1,0.7,1.1,1.1c-0.2,4.6-0.7,9.1-1.1,13.7C772.8,403.1,772.3,403.5,771.6,403.5z M81.6,387.5
	c-0.7,0-1.1-0.5-1.1-1.1c-0.2-4.6-0.5-9.1-0.5-13.7c0-0.7,0.5-1.1,1.1-1.1s1.1,0.5,1.1,1.1c0,4.6,0.2,9.1,0.5,13.7
	C82.8,386.8,82.3,387.5,81.6,387.5z M773.2,376.3c-0.7,0-1.1-0.5-1.1-1.1c0-2.1,0-3.9,0-5.9c0-2.5,0-5.3,0-7.8
	c0-0.7,0.5-1.1,1.1-1.1c0.7,0,1.1,0.5,1.1,1.1c0,2.5,0,5.3,0,7.8c0,2.1,0,3.9,0,5.9C774.4,375.9,773.7,376.3,773.2,376.3z
	 M81.4,360.1c-0.7,0-1.1-0.5-1.1-1.1c0.2-4.6,0.5-9.1,0.7-13.7c0-0.7,0.7-1.1,1.1-1.1c0.7,0,1.1,0.7,1.1,1.1
	c-0.2,4.6-0.5,9.1-0.7,13.7C82.5,359.7,81.9,360.1,81.4,360.1z M772.5,348.9c-0.7,0-1.1-0.5-1.1-1.1c-0.2-4.6-0.7-9.1-1.1-13.7
	c0-0.7,0.5-1.1,0.9-1.1c0.7,0,1.1,0.5,1.1,0.9c0.5,4.6,0.9,9.1,1.1,13.7C773.7,348.2,773.2,348.9,772.5,348.9z M83.2,332.7
	c-0.7,0-1.1-0.7-1.1-1.4c0.5-4.6,1.1-9.1,1.8-13.7c0-0.7,0.7-1.1,1.4-0.9c0.7,0,1.1,0.7,0.9,1.4c-0.7,4.6-1.1,9.1-1.8,13.5
	C84.4,332.3,83.7,332.7,83.2,332.7z M769.8,321.5c-0.5,0-1.1-0.5-1.1-0.9c-0.7-4.6-1.4-8.9-2.3-13.5c0-0.7,0.2-1.1,0.9-1.4
	c0.7,0,1.1,0.2,1.4,0.9c0.9,4.6,1.6,9.1,2.3,13.5C770.9,320.8,770.5,321.5,769.8,321.5z M87.1,305.8c-0.9-0.2-1.1-0.7-1.1-1.4
	c0.9-4.6,1.8-8.9,2.7-13.5c0.2-0.7,0.7-0.9,1.4-0.9c0.7,0.2,0.9,0.7,0.9,1.4c-0.9,4.3-2.1,8.9-2.7,13.5
	C88.3,305.3,87.8,305.8,87.1,305.8z M765,294.6c-0.5,0-0.9-0.5-1.1-0.9c-0.9-4.3-2.1-8.9-3.2-13.2c-0.2-0.7,0.2-1.1,0.9-1.4
	c0.7-0.2,1.1,0.2,1.4,0.9c1.1,4.3,2.3,8.9,3.2,13.2c0.2,0.7-0.2,1.1-0.9,1.4C765,294.6,765,294.6,765,294.6z M93.3,279.1h-0.2
	c-0.7-0.2-0.9-0.7-0.9-1.4c1.1-4.3,2.5-8.9,3.9-13.2c0.2-0.7,0.9-0.9,1.4-0.7c0.7,0.2,0.9,0.9,0.7,1.4c-1.4,4.3-2.7,8.7-3.9,13
	C94.4,278.6,94,279.1,93.3,279.1z M757.9,268.3c-0.5,0-0.9-0.2-1.1-0.9c-1.4-4.3-2.7-8.7-4.3-13c-0.2-0.7,0-1.1,0.7-1.4
	c0.7-0.2,1.1,0,1.4,0.7c1.6,4.3,3,8.7,4.3,13c0.2,0.7-0.2,1.1-0.7,1.4L757.9,268.3z M101.7,252.8c-0.2,0-0.2,0-0.5,0
	c-0.7-0.2-0.9-0.9-0.7-1.4c1.6-4.3,3.2-8.7,5-12.8c0.2-0.7,0.9-0.9,1.6-0.7s0.9,0.9,0.7,1.6c-1.8,4.1-3.4,8.4-4.8,12.8
	C102.7,252.6,102.2,252.8,101.7,252.8z M748.8,242.3c-0.5,0-0.9-0.2-1.1-0.7c-1.6-4.1-3.4-8.4-5.3-12.6c-0.2-0.7,0-1.1,0.7-1.6
	c0.5-0.2,1.1,0,1.6,0.7c1.8,4.1,3.7,8.4,5.3,12.6c0.2,0.7,0,1.1-0.7,1.4C749,242.3,748.8,242.3,748.8,242.3z M112,227.5
	c-0.2,0-0.2,0-0.5,0c-0.7-0.2-0.9-0.9-0.5-1.6c1.8-4.1,3.9-8.4,5.9-12.3c0.2-0.5,0.9-0.7,1.6-0.5c0.5,0.2,0.7,0.9,0.5,1.6
	c-2.1,4.1-4.1,8.2-5.9,12.3C112.9,227.2,112.5,227.5,112,227.5z M737.6,217.4c-0.5,0-0.9-0.2-0.9-0.7c-2.1-4.1-4.1-8.2-6.2-12.1
	c-0.2-0.5,0-1.1,0.5-1.6c0.5-0.2,1.1,0,1.6,0.5c2.1,3.9,4.3,8,6.4,12.1c0.2,0.5,0,1.1-0.5,1.6C738,217.4,737.8,217.4,737.6,217.4z
	 M124.4,203c-0.2,0-0.5,0-0.5-0.2c-0.5-0.2-0.7-0.9-0.5-1.6c2.3-3.9,4.6-8,6.9-11.9c0.2-0.5,1.1-0.7,1.6-0.5s0.7,1.1,0.5,1.6
	c-2.3,3.9-4.6,7.8-6.9,11.9C125.3,202.8,124.8,203,124.4,203z M724.6,193.4c-0.5,0-0.7-0.2-0.9-0.5c-2.3-3.9-4.8-7.8-7.3-11.6
	c-0.5-0.5-0.2-1.1,0.2-1.6c0.5-0.5,1.1-0.2,1.6,0.2c2.5,3.9,5,7.8,7.3,11.6c0.2,0.5,0.2,1.1-0.5,1.6
	C725,193.4,724.8,193.4,724.6,193.4z M138.5,179.5c-0.2,0-0.5,0-0.7-0.2c-0.5-0.5-0.7-1.1-0.2-1.6c2.5-3.9,5.3-7.5,7.8-11.4
	c0.5-0.5,1.1-0.7,1.6-0.2s0.7,1.1,0.2,1.6c-2.7,3.7-5.3,7.5-7.8,11.2C139.4,179.3,139,179.5,138.5,179.5z M709.5,170.6
	c-0.5,0-0.7-0.2-0.9-0.5c-2.5-3.7-5.3-7.3-8.2-11c-0.5-0.5-0.2-1.1,0.2-1.6c0.5-0.5,1.1-0.2,1.6,0.2c2.7,3.7,5.5,7.3,8.2,11
	c0.5,0.5,0.2,1.1-0.2,1.6C709.9,170.4,709.7,170.6,709.5,170.6z M154.7,157.4c-0.2,0-0.5,0-0.7-0.2c-0.5-0.5-0.7-1.1-0.2-1.6
	c2.7-3.7,5.7-7.1,8.7-10.7c0.5-0.5,1.1-0.5,1.6-0.2c0.5,0.5,0.5,1.1,0.2,1.6c-3,3.4-5.9,7.1-8.7,10.5
	C155.4,157.1,155,157.4,154.7,157.4z M692.8,148.9c-0.2,0-0.7-0.2-0.9-0.5c-3-3.4-5.9-6.9-8.9-10.3c-0.5-0.5-0.5-1.1,0-1.6
	s1.1-0.5,1.6,0c3,3.4,6.2,6.9,8.9,10.3c0.5,0.5,0.2,1.1-0.2,1.6C693.5,148.7,693,148.9,692.8,148.9z M172.3,136.3
	c-0.2,0-0.5,0-0.7-0.2c-0.5-0.5-0.5-1.1,0-1.6c3.2-3.4,6.4-6.6,9.6-9.8c0.5-0.5,1.1-0.5,1.6,0s0.5,1.1,0,1.6
	c-3.2,3.2-6.4,6.6-9.4,9.8C173,136.3,172.8,136.3,172.3,136.3z M674.5,128.6c-0.2,0-0.7-0.2-0.9-0.5c-3.2-3.2-6.4-6.4-9.8-9.6
	c-0.5-0.5-0.5-1.1,0-1.6s1.1-0.5,1.6,0c3.4,3.2,6.6,6.4,9.8,9.6c0.5,0.5,0.5,1.1,0,1.6C675,128.4,674.7,128.6,674.5,128.6z
	 M191.8,116.9c-0.2,0-0.7-0.2-0.9-0.5c-0.5-0.5-0.5-1.1,0-1.6c3.4-3.2,6.9-6.2,10.3-9.1c0.5-0.5,1.1-0.5,1.6,0.2
	c0.5,0.5,0.5,1.1-0.2,1.6c-3.4,3-6.9,5.9-10.3,9.1C192.2,116.9,192,116.9,191.8,116.9z M654.6,109.6c-0.2,0-0.5,0-0.7-0.2
	c-3.4-3-6.9-5.9-10.5-8.7c-0.5-0.5-0.5-1.1-0.2-1.6c0.5-0.5,1.1-0.5,1.6-0.2c3.7,3,7.1,5.9,10.5,8.9c0.5,0.5,0.5,1.1,0,1.6
	C655.1,109.6,654.9,109.6,654.6,109.6z M212.5,99.1c-0.2,0-0.7-0.2-0.9-0.5c-0.5-0.5-0.2-1.1,0.2-1.6c3.7-2.7,7.3-5.7,11-8.2
	c0.5-0.5,1.1-0.2,1.6,0.2c0.5,0.5,0.2,1.1-0.2,1.6c-3.7,2.7-7.3,5.5-11,8.2C213,99.1,212.8,99.1,212.5,99.1z M633.2,92.5
	c-0.2,0-0.5,0-0.7-0.2c-3.7-2.7-7.3-5.5-11.2-8c-0.5-0.5-0.7-1.1-0.2-1.6s1.1-0.7,1.6-0.2c3.7,2.5,7.5,5.3,11.2,8
	c0.5,0.5,0.7,1.1,0.2,1.6C633.8,92.3,633.6,92.5,633.2,92.5z M234.7,82.9c-0.5,0-0.7-0.2-0.9-0.5c-0.5-0.5-0.2-1.1,0.2-1.6
	c3.9-2.5,7.8-5,11.7-7.3c0.5-0.2,1.1-0.2,1.6,0.5c0.2,0.5,0.2,1.1-0.5,1.6c-3.9,2.3-7.8,4.8-11.4,7.3
	C235.2,82.9,234.9,82.9,234.7,82.9z M610.5,77c-0.2,0-0.5,0-0.7-0.2c-3.9-2.5-7.8-4.8-11.7-7.1c-0.5-0.2-0.7-0.9-0.5-1.6
	c0.2-0.5,0.9-0.7,1.6-0.5c3.9,2.3,8,4.6,11.9,7.1c0.5,0.2,0.7,1.1,0.5,1.6C611.2,77,611,77,610.5,77z M258,68.8
	c-0.5,0-0.7-0.2-0.9-0.7c-0.2-0.5,0-1.1,0.5-1.6c3.9-2.3,8-4.3,12.1-6.4c0.5-0.2,1.1,0,1.6,0.5c0.2,0.5,0,1.1-0.5,1.6
	c-4.1,2.1-8,4.3-12.1,6.4C258.2,68.8,258.2,68.8,258,68.8z M586.8,63.5c-0.2,0-0.5,0-0.5-0.2c-4.1-2.1-8.2-4.1-12.3-6.2
	c-0.7-0.2-0.9-0.9-0.5-1.6c0.2-0.5,0.9-0.9,1.6-0.5c4.1,2.1,8.2,4.1,12.3,6.2c0.5,0.2,0.7,0.9,0.5,1.6
	C587.5,63.3,587.2,63.5,586.8,63.5z M282.2,56.2c-0.5,0-0.9-0.2-1.1-0.7c-0.2-0.7,0-1.1,0.5-1.6c4.1-1.8,8.5-3.7,12.6-5.5
	c0.7-0.2,1.1,0,1.6,0.7c0.2,0.7,0,1.1-0.7,1.6c-4.1,1.8-8.5,3.7-12.6,5.5C282.7,56.2,282.5,56.2,282.2,56.2z M561.9,51.9
	c-0.2,0-0.2,0-0.5,0c-4.1-1.8-8.5-3.4-12.8-5c-0.7-0.2-0.9-0.9-0.7-1.4c0.2-0.7,0.9-0.9,1.4-0.7c4.3,1.6,8.7,3.4,12.8,5
	c0.7,0.2,0.9,0.9,0.7,1.6C562.8,51.4,562.3,51.9,561.9,51.9z M307.6,45.7c-0.5,0-0.9-0.2-1.1-0.7c-0.2-0.7,0-1.1,0.7-1.4
	c4.3-1.6,8.7-3.2,13-4.6c0.7-0.2,1.1,0.2,1.4,0.7c0.2,0.7-0.2,1.1-0.7,1.4c-4.3,1.4-8.7,3-12.8,4.6
	C307.8,45.7,307.8,45.7,307.6,45.7z M536.3,42c-0.2,0-0.2,0-0.5,0c-4.3-1.4-8.7-2.7-13-4.1c-0.7-0.2-0.9-0.9-0.7-1.4
	c0.2-0.7,0.7-0.9,1.4-0.7c4.3,1.4,8.7,2.7,13,4.1c0.7,0.2,0.9,0.9,0.7,1.4C537.2,41.8,536.7,42,536.3,42z M333.6,37.5
	c-0.5,0-0.9-0.2-1.1-0.9s0.2-1.1,0.7-1.4c4.3-1.1,8.9-2.3,13.3-3.4c0.7-0.2,1.1,0.2,1.4,0.9c0.2,0.7-0.2,1.1-0.9,1.4
	C342.5,35.2,338,36.3,333.6,37.5C333.9,37.5,333.9,37.2,333.6,37.5z M509.8,34.5h-0.2c-4.3-1.1-8.9-2.1-13.3-3
	c-0.7-0.2-0.9-0.7-0.9-1.4c0.2-0.7,0.7-0.9,1.4-0.9c4.6,0.9,8.9,1.8,13.5,3c0.7,0.2,0.9,0.7,0.9,1.4
	C510.9,34.3,510.5,34.5,509.8,34.5z M360.4,31.1c-0.5,0-0.9-0.5-1.1-0.9c-0.2-0.7,0.2-1.1,0.9-1.4c4.6-0.9,8.9-1.6,13.5-2.3
	c0.7,0,1.1,0.2,1.4,0.9c0,0.7-0.2,1.1-0.9,1.4C369.5,29.3,364.9,30.2,360.4,31.1z M483.1,29c-4.6-0.7-9.1-1.4-13.7-1.8
	c-0.7,0-1.1-0.7-0.9-1.4c0-0.7,0.7-1.1,1.4-0.9c4.6,0.5,9.1,1.1,13.7,1.8c0.7,0,1.1,0.7,0.9,1.4C484,28.6,483.5,29,483.1,29z
	 M387.3,26.7c-0.7,0-1.1-0.5-1.1-0.9c0-0.7,0.5-1.1,0.9-1.4c4.6-0.5,9.1-0.9,13.7-1.4c0.7,0,1.1,0.5,1.1,1.1s-0.5,1.1-1.1,1.1
	C396.7,25.8,392.1,26.3,387.3,26.7C387.6,26.7,387.6,26.7,387.3,26.7z M455.9,25.8c-4.6-0.5-9.1-0.7-13.7-0.9
	c-0.7,0-1.1-0.5-1.1-1.1c0-0.7,0.5-1.1,1.1-1.1c4.6,0.2,9.1,0.5,13.7,0.9c0.7,0,1.1,0.7,1.1,1.1C456.8,25.4,456.3,25.8,455.9,25.8z
	 M414.7,24.9c-0.7,0-1.1-0.5-1.1-1.1c0-0.7,0.5-1.1,1.1-1.1c4.1-0.2,8.5-0.2,12.6-0.2h1.1c0.7,0,1.1,0.5,1.1,1.1
	c0,0.7-0.5,1.1-1.1,1.1h-1.1C423,24.7,418.9,24.7,414.7,24.9z"/>
<path class="st2" d="M237.5,130c35.8,0,64.9-29,64.9-64.8S273.3,0.4,237.5,0.4s-64.9,29-64.9,64.8C172.6,100.9,201.6,130,237.5,130z
	"/>
<path class="st3" d="M184.4,73.3c0,23.5,19,37.9,42.5,37.9c7.1,0,37.9,0,37.9,0l-9.6-8.9c8.7-6.6,14.2-16.4,14.2-29
	c0-23.5-19-37.9-42.5-37.9S184.4,50,184.4,73.3z"/>
<path class="st4" d="M226.9,112.4c-25.6,0-43.6-16-43.6-39c0-23.1,17.8-39,43.6-39c25.6,0,43.6,16,43.6,39
	c0,11.6-4.8,22.1-13.5,29.2l8.7,8c0.5,0.2,0.5,0.9,0.2,1.1c-0.2,0.5-0.7,0.7-1.1,0.7C264.9,112.4,233.8,112.4,226.9,112.4z
	 M226.9,36.6c-24.2,0-41.4,15.1-41.4,36.8s16.9,36.8,41.4,36.8c5.7,0,27.2,0,35.2,0l-7.5-6.9c-0.2-0.2-0.5-0.5-0.5-0.9
	c0-0.2,0.2-0.7,0.5-0.9c8.9-6.6,13.7-16.7,13.7-28.1C268.1,51.9,251.2,36.6,226.9,36.6z"/>
<path class="st3" d="M287.3,49.3c0,18.7-15.3,30.4-34,30.4c-5.7,0-30.6,0-30.6,0l7.8-7.1c-6.9-5.3-11.4-13.2-11.4-23.3
	c0-18.7,15.3-30.4,34-30.4C272,18.8,287.3,30.4,287.3,49.3z"/>
<path class="st4" d="M253.2,80.9c-5.7,0-30.6,0-30.6,0c-0.5,0-0.9-0.2-1.1-0.7c-0.2-0.5,0-0.9,0.2-1.1l6.9-6.2
	c-6.9-5.7-10.7-13.9-10.7-23.5c0-18.7,14.4-31.5,35.2-31.5s35.2,13,35.2,31.5C288.2,67.8,274,80.9,253.2,80.9z M225.6,78.6
	c6.9,0,23.1,0,27.6,0c19.4,0,32.9-12.1,32.9-29.2s-13.5-29.2-32.9-29.2s-32.9,12.1-32.9,29.2c0,9.1,3.9,17.1,11,22.4
	c0.2,0.2,0.5,0.5,0.5,0.9c0,0.2-0.2,0.7-0.5,0.9L225.6,78.6z"/>
<path class="st2" d="M251.8,62.1c-1.4,0-2.5-0.5-3.4-1.4l-10.5-10.5c-2.1-2.1-2.1-5,0-7.1s5-2.1,7.1,0l6.9,6.9l17.4-17.4
	c1.8-2.1,5-2.1,7.1,0s2.1,5,0,7.1l-20.8,20.8C254.4,61.5,253.2,62.1,251.8,62.1z"/>
<path class="st4" d="M251.8,63.3c-1.6,0-3.2-0.7-4.3-1.8L237,51c-1.1-1.1-1.8-2.7-1.8-4.3s0.7-3.2,1.8-4.3c2.3-2.3,6.4-2.3,8.7,0
	l6.2,6.2L268.3,32c2.3-2.3,6.4-2.3,8.7,0c1.1,1.1,1.8,2.7,1.8,4.3s-0.7,3.2-1.8,4.3l-20.8,20.8C255,62.6,253.4,63.3,251.8,63.3z
	 M241.3,42.7c-0.9,0-2.1,0.5-2.7,1.1c-0.7,0.7-1.1,1.6-1.1,2.7c0,0.9,0.5,2.1,1.1,2.7l10.5,10.5c1.4,1.4,3.9,1.4,5.5,0l20.8-20.8
	c0.7-0.7,1.1-1.6,1.1-2.7c0-0.9-0.5-2.1-1.1-2.7c-1.4-1.4-3.9-1.4-5.5,0L252.5,51c-0.5,0.5-1.1,0.5-1.6,0l-6.9-6.9
	C243.4,43.2,242.5,42.7,241.3,42.7z"/>
<path class="st2" d="M836.6,362.6c5.7-35.4-18.4-68.6-53.8-74.3c-35.4-5.7-68.7,18.4-74.4,53.7c-5.7,35.4,18.4,68.6,53.8,74.3
	C797.6,422,830.9,397.9,836.6,362.6z"/>
<path class="st3" d="M761.8,334.8c2.1,0.9,3.9,2.3,5,3.9s1.8,3.7,1.8,5.9c0,2.1-0.5,3.9-1.6,5.7c-1.1,1.6-2.3,3.2-3.9,4.6
	c-1.6,1.4-3.7,3-6.4,4.8c-1.6,0.9-2.7,1.8-3.7,2.5h16.2v9.1h-30.6v-2.5c0-1.8,0.5-3.7,1.4-5c0.9-1.6,2.1-3,3.9-4.6
	c1.8-1.6,4.1-3.7,7.3-6.2c2.5-2.1,4.3-3.7,5.5-4.6c1.1-1.1,1.6-2.1,1.6-3.2s-0.5-2.1-1.1-2.7s-1.8-1.1-3.4-1.1s-3,0.5-3.9,1.4
	s-1.4,2.1-1.4,3.7v1.1H739c0-0.2,0-0.7,0-1.1c0-3.9,1.4-6.8,4.1-9.1c2.7-2.3,6.6-3.4,11.9-3.4C757.2,333.4,759.7,333.9,761.8,334.8z
	"/>
<path class="st3" d="M791,340.3c-1.4,2.7-3.2,5.5-5.3,8.2s-3.9,5-5.7,6.9h10.7v-7.8c1.1-1.6,2.3-3.4,3.4-5.5
	c1.1-2.1,1.8-3.9,2.3-5.3h4.6v18.5h5.3v8H801v7.5h-10.3v-7.5h-18v-8c1.8-2.7,3.9-6.2,5.7-10c1.8-3.9,3.4-8,4.6-11.9h10.5
	C793.3,335.2,792.4,337.5,791,340.3z"/>
<path class="st4" d="M768.9,372.2h-30.6c-0.7,0-1.1-0.5-1.1-1.1v-2.5c0-2.1,0.5-4.1,1.4-5.7s2.3-3.2,4.1-4.8
	c1.8-1.6,4.3-3.7,7.5-6.2c2.5-2.1,4.3-3.7,5.3-4.6s1.1-1.6,1.1-2.3s-0.2-1.4-0.9-2.1c-0.5-0.5-1.4-0.9-2.7-0.9c-1.4,0-2.3,0.5-3,1.1
	c-0.7,0.7-1.1,1.6-1.1,2.7v1.1c0,0.7-0.5,1.1-1.1,1.1H738c-0.7,0-1.1-0.5-1.1-0.9c0-0.2,0-0.7,0-1.4c0-4.1,1.6-7.5,4.6-10
	s7.1-3.7,12.6-3.7c3,0,5.7,0.5,8,1.4s4.1,2.5,5.5,4.3s2.1,4.1,2.1,6.4s-0.7,4.3-1.8,6.2c-1.1,1.8-2.5,3.4-4.1,4.8s-3.9,3-6.6,4.8
	c-0.2,0.2-0.5,0.2-0.7,0.5h12.6c0.7,0,1.1,0.5,1.1,1.1v9.1C770,371.5,769.6,372.2,768.9,372.2z M739.4,369.9h28.3V363h-15.1
	c-0.5,0-0.9-0.2-1.1-0.7c-0.2-0.5,0-0.9,0.5-1.4c0.9-0.7,2.3-1.6,3.9-2.5c2.7-1.8,4.8-3.4,6.4-4.6c1.4-1.1,2.7-2.5,3.7-4.1
	c0.9-1.6,1.4-3.2,1.4-5c0-2.1-0.5-3.7-1.6-5.3c-1.1-1.6-2.5-2.7-4.3-3.4c-2.1-0.9-4.3-1.4-7.1-1.4c-4.8,0-8.7,1.1-11,3.2
	c-2.5,2.1-3.7,4.8-3.7,8.2h7.3c0-1.8,0.7-3.2,1.8-4.3c1.1-1.1,2.7-1.8,4.6-1.8c1.8,0,3.2,0.5,4.3,1.4c0.9,0.9,1.6,2.3,1.6,3.7
	s-0.7,2.7-1.8,3.9c-1.1,1.1-3,2.7-5.5,4.8c-3.2,2.5-5.7,4.6-7.3,6.2c-1.6,1.4-2.7,2.7-3.7,4.1c-0.7,1.4-1.1,2.7-1.1,4.6v1.4h-0.5
	V369.9z"/>
<path class="st4" d="M801.1,372.2h-10.3c-0.7,0-1.1-0.5-1.1-1.1v-6.4h-16.9c-0.7,0-1.1-0.5-1.1-1.1v-8c0-0.2,0-0.5,0.2-0.7
	c1.8-2.7,3.9-6.2,5.7-10c1.8-3.9,3.4-7.8,4.6-11.6c0.2-0.5,0.7-0.9,1.1-0.9h10.5c0.2,0,0.7,0.2,0.9,0.5c0.2,0.2,0.2,0.7,0.2,0.9
	c-0.2,2.1-1.1,4.3-2.7,7.3c-1.6,2.7-3.2,5.7-5.3,8.4c-1.4,1.8-2.7,3.7-3.9,5h6.9v-6.6c0-0.2,0-0.5,0.2-0.7c1.1-1.6,2.3-3.4,3.2-5.5
	c1.1-2.1,1.8-3.7,2.1-5c0.2-0.5,0.7-0.9,1.1-0.9h4.6c0.7,0,1.1,0.5,1.1,1.1v17.4h4.1c0.7,0,1.1,0.5,1.1,1.1v8c0,0.7-0.5,1.1-1.1,1.1
	h-4.1v6.4C802.2,371.5,801.6,372.2,801.1,372.2z M792,369.9h8v-6.4c0-0.7,0.5-1.1,1.1-1.1h4.1v-5.7h-4.1c-0.7,0-1.1-0.5-1.1-1.1
	v-17.4h-2.7c-0.5,1.4-1.1,3-2.1,4.8c-1.1,2.1-2.3,3.9-3.2,5.5v7.3c0,0.7-0.5,1.1-1.1,1.1h-10.7c-0.5,0-0.9-0.2-1.1-0.7
	c-0.2-0.5,0-0.9,0.2-1.1c1.6-1.8,3.7-4.1,5.5-6.6c2.1-2.7,3.7-5.5,5.3-8.2c1.1-2.1,1.8-3.9,2.3-5.3H784c-1.1,3.7-2.5,7.5-4.3,11.2
	c-1.8,3.9-3.7,7.3-5.7,10v6.4h16.9c0.7,0,1.1,0.5,1.1,1.1V369.9z"/>
<path class="st4" d="M772.3,404.9c-27.6,0-50-22.4-50-50s22.4-50,50-50c1.6,0,3,1.4,3,3s-1.4,3-3,3c-24.4,0-44.1,19.9-44.1,44.1
	c0,24.4,19.9,44.1,44.1,44.1c24.4,0,44.1-19.9,44.1-44.1c0-1.6,1.4-3,3-3s3,1.4,3,3C822.3,382.5,800,404.9,772.3,404.9z"/>
<path class="st4" d="M768,322.5c-0.7,0-1.4-0.2-2.1-0.7c-1.1-1.1-1.4-3-0.2-4.1l8.7-9.4l-9.8-8c-1.4-1.1-1.4-3-0.5-4.1
	c1.1-1.4,3-1.4,4.1-0.5l12.1,10c0.7,0.5,0.9,1.4,1.1,2.1c0,0.9-0.2,1.6-0.7,2.3L770,321.8C769.6,322,768.6,322.5,768,322.5z"/>
<path class="st4" d="M632.3,130c35.8,0,64.9-29,64.9-64.8S668.1,0.4,632.3,0.4c-35.8,0-64.9,29-64.9,64.8
	C567.4,100.9,596.4,130,632.3,130z"/>
<path class="st3" d="M626.8,23.5c-14.9-4.1-30.2,4.6-34.3,19.4c-3.7,13.5,3.2,27.6,15.8,32.9l-8.7,31.1c-0.5,2.1,0.7,4.1,2.7,4.8
	c2.1,0.5,4.1-0.7,4.8-2.7l8.7-31.1c13.5,1.8,26.7-6.6,30.4-20.1C650.3,43,641.6,27.7,626.8,23.5z M614.7,67.4
	c-9.4-2.5-14.9-12.3-12.3-21.7c2.5-9.4,12.3-14.8,21.7-12.3s14.9,12.3,12.3,21.7C633.9,64.4,624,69.9,614.7,67.4z"/>
<path class="st4" d="M603.5,112.8c-0.5,0-0.9,0-1.4-0.2c-1.4-0.5-2.3-1.1-3-2.3c-0.7-1.1-0.9-2.5-0.5-3.9l8.2-30.1
	c-12.6-5.9-19.2-20.3-15.5-34c4.3-15.3,20.3-24.4,35.6-20.3c15.3,4.3,24.4,20.3,20.1,35.6c-3.7,13.5-16.9,22.4-30.8,21l-8.2,30.1
	c-0.5,1.4-1.1,2.3-2.3,3C605.1,112.6,604.4,112.8,603.5,112.8z M619.5,23.5c-11.7,0-22.4,7.8-25.8,19.6c-3.4,12.8,3,26.5,15.1,31.5
	c0.5,0.2,0.9,0.9,0.7,1.4l-8.5,31.1c-0.2,0.7,0,1.4,0.2,2.1c0.5,0.7,0.9,1.1,1.6,1.4c0.7,0.2,1.4,0,2.1-0.2c0.7-0.5,1.1-0.9,1.4-1.6
	l8.7-31.1c0.2-0.5,0.7-0.9,1.1-0.9c13,1.8,25.8-6.6,29.2-19.4c3.9-14.2-4.3-29-18.5-32.9C624.3,24,621.7,23.5,619.5,23.5z
	 M619.5,69.2c-1.6,0-3.4-0.2-5-0.7c-4.8-1.4-8.9-4.6-11.4-8.9s-3.2-9.4-1.8-14.2s4.6-8.9,8.9-11.4c4.3-2.5,9.4-3.2,14.2-1.8
	s8.9,4.6,11.4,8.9s3.2,9.4,1.8,14.2C635.2,63.7,627.7,69.2,619.5,69.2z M619.5,33.8c-2.7,0-5.7,0.7-8.2,2.1c-3.9,2.3-6.6,5.7-7.8,10
	c-1.1,4.3-0.7,8.7,1.6,12.6s5.7,6.6,10.1,7.8c8.7,2.5,17.8-2.7,20.3-11.4c1.1-4.3,0.7-8.7-1.6-12.6s-5.7-6.6-10.1-7.8
	C622.4,34.1,620.8,33.8,619.5,33.8z"/>
<path class="st2" d="M601.6,114c-3.4-0.9-5.5-4.6-4.3-7.8l4.3-16c0.9-3.4,4.6-5.5,7.8-4.3c3.4,0.9,5.5,4.6,4.3,7.8l-4.3,16
	C608.7,113.1,605.1,115.1,601.6,114z"/>
<path class="st2" d="M665.8,21.3c3.4,1.6,6.2,3.7,8,6.4s3,5.9,3,9.6c0,2.3-0.5,4.3-1.6,6.2c-0.9,1.8-2.3,3.4-3.7,4.6
	c-1.4,1.4-3.2,2.7-5.3,4.1c-1.8,1.4-3,2.3-3.9,3.2c-0.9,0.7-1.1,1.6-1.1,2.5v1.8H646v-4.6c0-1.4,0.5-2.7,1.4-3.9
	c0.9-1.1,2.3-2.7,4.1-4.3c2.1-1.8,3.4-3.2,4.6-4.6c1.1-1.4,1.6-3,1.6-4.6c0-1.8-0.5-3.2-1.6-4.3s-2.5-1.8-4.3-1.8
	c-3.9,0-5.9,2.5-5.9,7.5c0,1.1,0,1.8,0,2.5h-16.4c0-0.5-0.2-0.9-0.2-1.4s0-1.1,0-2.1c0-3.9,1.1-7.1,3.2-10c2.1-2.7,5-5,8.7-6.6
	s8-2.3,12.6-2.3C658.5,19,662.4,19.7,665.8,21.3z M645,81.8V65.1h17.8v16.7H645z"/>
<path class="st4" d="M662.9,82.9H645c-0.7,0-1.1-0.5-1.1-1.1V65.1c0-0.7,0.5-1.1,1.1-1.1h17.8c0.7,0,1.1,0.5,1.1,1.1v16.7
	C664,82.2,663.6,82.9,662.9,82.9z M646.2,80.6h15.5V66.2h-15.5V80.6z M661.5,60.8h-15.3c-0.7,0-1.1-0.5-1.1-1.1v-4.6
	c0-1.6,0.5-3.2,1.6-4.6c0.9-1.1,2.3-2.7,4.3-4.6c1.8-1.6,3.4-3.2,4.3-4.6c0.9-1.1,1.4-2.5,1.4-3.9s-0.5-2.7-1.4-3.7
	c-0.9-0.9-2.1-1.4-3.4-1.4c-2.3,0-4.8,0.7-4.8,6.4c0,0.9,0,1.8,0,2.3c0,0.2,0,0.7-0.2,0.9s-0.5,0.5-0.9,0.5h-16.5
	c-0.5,0-1.1-0.5-1.1-0.9c0-0.5-0.2-0.9-0.2-1.4c0-0.7,0-1.4,0-2.1c0-4.1,1.1-7.5,3.4-10.7c2.3-3,5.3-5.3,9.1-7.1
	c3.9-1.6,8.2-2.5,13-2.5c4.6,0,8.9,0.7,12.6,2.3c3.7,1.6,6.6,3.9,8.5,6.9c2.1,3,3,6.4,3,10.3c0,2.5-0.5,4.8-1.6,6.9
	c-1.1,1.8-2.3,3.7-3.9,4.8c-1.4,1.4-3.2,2.7-5.3,4.1c-1.6,1.4-3,2.3-3.7,3c-0.7,0.5-0.9,1.1-0.9,1.6v1.8
	C662.6,60.3,662.2,60.8,661.5,60.8z M647.3,58.5h13v-0.7c0-1.1,0.5-2.3,1.6-3.2c0.9-0.9,2.1-1.8,3.9-3.2c2.1-1.4,3.9-2.7,5-4.1
	c1.4-1.1,2.5-2.5,3.4-4.3c0.9-1.6,1.4-3.7,1.4-5.7c0-3.4-0.9-6.4-2.7-8.9s-4.3-4.6-7.5-5.9c-3.2-1.4-7.1-2.1-11.7-2.1
	c-4.6,0-8.7,0.7-12.1,2.3c-3.4,1.4-6.4,3.7-8.2,6.2s-3,5.7-3,9.4c0,0.7,0,1.4,0,1.8c0,0.2,0,0.2,0,0.5h14.4c0-0.5,0-0.9,0-1.4
	c0-7.1,3.9-8.7,7.1-8.7c2.1,0,3.9,0.7,5.3,2.3c1.4,1.4,1.8,3.2,1.8,5.3c0,1.8-0.7,3.7-1.8,5.3c-1.1,1.4-2.7,3-4.6,4.8
	c-1.8,1.6-3.2,3.2-4.1,4.3c-0.7,0.9-1.1,2.1-1.1,3.2v2.8H647.3z"/>
<path class="st2" d="M221.6,622.5c5.4-35.4-19-68.5-54.4-73.9s-68.5,19-73.9,54.4s19,68.5,54.4,73.9S216.2,657.9,221.6,622.5z"/>
<path class="st3" d="M183.8,648.3c-16.7,9.1-26.3,14.8-26.3,14.8s-9.6-5.7-26.3-14.8s-16-20.1-16-20.1v-54.1l42.3-11.6l42.3,11.6
	v54.1C199.8,628.2,200.7,639.2,183.8,648.3z"/>
<path class="st4" d="M157.5,664.3c-0.2,0-0.5,0-0.7-0.2c0,0-9.8-5.9-26.3-14.8c-17.1-9.4-16.5-20.6-16.5-21v-53.9
	c0-0.5,0.2-0.9,0.9-1.1l42.3-11.6c0.2,0,0.5,0,0.7,0l42.3,11.6c0.5,0.2,0.9,0.7,0.9,1.1v54.1c0,0.5,0.7,11.6-16.4,21
	c-16.4,8.9-26.3,14.8-26.3,14.8C157.9,664,157.7,664.3,157.5,664.3z M116.6,575v53.2c0,0.2-0.5,10.3,15.3,19
	c14.2,7.8,23.5,13.2,25.8,14.6c2.3-1.4,11.4-6.9,25.8-14.6c15.8-8.7,15.3-18.7,15.3-19V575l-41.1-11.4L116.6,575z"/>
<path class="st2" d="M193.4,628.2v0.5c0,0.9-0.9,7.5-12.6,13.9c-11.2,6.2-19.2,10.7-23.3,13c-4.1-2.5-12.1-7.1-23.3-13
	c-11.4-6.2-12.6-12.8-12.6-13.9v-49.8l35.9-10l35.9,10V628.2z"/>
<path class="st3" d="M149.7,630.9c-2.1,0-3.9-0.7-5.3-2.3l-15.5-15.5c-3-3-3-7.5,0-10.5s7.5-3,10.5,0l10.3,10.3l26-25.8
	c3-3,7.5-3,10.5,0s3,7.5,0,10.5l-31.1,31.1C153.6,630,151.8,630.9,149.7,630.9z"/>
<path class="st4" d="M149.7,632.1c-2.3,0-4.6-0.9-6.2-2.5L128,614c-1.6-1.6-2.5-3.9-2.5-6.2s0.9-4.6,2.5-6.2
	c1.6-1.6,3.9-2.5,6.2-2.5s4.3,0.9,6.2,2.5l9.6,9.6l25.1-25.1c3.2-3.2,8.9-3.2,12.1,0c1.6,1.6,2.5,3.9,2.5,6.2s-0.9,4.6-2.5,6.2
	l-31.1,31.1C154.3,631.2,152,632.1,149.7,632.1z M134.2,601.5c-1.6,0-3.2,0.7-4.6,1.8c-1.1,1.1-1.8,2.7-1.8,4.6
	c0,1.6,0.7,3.2,1.8,4.6l15.5,15.5c2.3,2.3,6.6,2.3,8.9,0l31.1-31.1c1.1-1.1,1.8-2.7,1.8-4.6c0-1.6-0.7-3.2-1.8-4.6
	c-2.3-2.3-6.6-2.3-8.9,0l-25.6,26c-0.5,0.5-1.1,0.5-1.6,0l-10.3-10.3C137.4,602.2,135.8,601.5,134.2,601.5z"/>
<path class="st4" d="M786.1,623.1c5.7-35.4-18.4-68.6-53.8-74.3c-35.4-5.7-68.7,18.4-74.4,53.7c-5.7,35.4,18.4,68.6,53.8,74.3
	C747.1,682.5,780.4,658.5,786.1,623.1z"/>
<path class="st3" d="M715.4,654.9L714,664c8.5,1.4,17.4,0.5,25.6-2.5l-3.2-8.7c5.5-1.8,10.3-4.8,14.6-8.7l6.2,6.8
	c6.4-5.9,11.4-13.2,14.2-21.5l-8.7-3c0.7-2.3,1.4-4.8,1.8-7.3c0.5-3.2,0.7-6.4,0.5-9.6l9.1-0.7c-0.7-8.7-3.4-17.1-8-24.4l-7.8,5
	c-3-4.8-7.1-8.9-11.9-12.3l5.3-7.5c-7.1-5-15.5-8-24.2-8.9l-0.9,9.1c-5.9-0.7-11.7,0-16.9,1.6l-2.7-8.9c-8.5,2.5-16,7.1-21.9,13.2
	l6.6,6.6c-3.9,3.9-7.1,8.7-9.4,14.2l-8.5-3.4c-3.2,8-4.3,16.9-3.4,25.6l9.1-1.1c0.7,5.7,2.5,11.2,5.3,16l-8,4.6
	c4.3,7.5,10.5,13.9,17.8,18.5l4.8-7.8C704.2,651.9,709.7,654,715.4,654.9z M696,608.6c2.3-14.4,15.8-24.2,30.2-21.9
	s24.2,15.8,21.9,30.1c-2.3,14.4-15.8,24.2-30.2,21.9C703.8,636.4,693.7,622.9,696,608.6z"/>
<path class="st2" d="M723.4,645.5c18.3-0.9,32.4-16.4,31.5-34.7s-16.4-32.4-34.7-31.5s-32.4,16.4-31.5,34.7
	C689.6,632.3,705.1,646.4,723.4,645.5z"/>
<path class="st4" d="M722,665.9c-2.7,0-5.5-0.2-8-0.7c-0.2,0-0.7-0.2-0.7-0.5c-0.2-0.2-0.2-0.5-0.2-0.9l1.4-8
	c-5-0.9-9.8-2.7-14.2-5.3l-4.3,6.9c-0.2,0.2-0.5,0.5-0.7,0.5s-0.7,0-0.9-0.2c-7.5-4.8-13.9-11.4-18.3-19c-0.2-0.5-0.2-1.1,0.5-1.6
	l7.1-4.1c-2.5-4.3-4.1-9.1-4.8-14.4l-8,0.9c-0.2,0-0.7,0-0.9-0.2s-0.5-0.5-0.5-0.7c-0.9-9.1,0.2-18,3.4-26c0.2-0.7,0.9-0.9,1.4-0.7
	l7.5,3c2.1-4.8,4.8-8.9,8.5-12.8l-5.7-5.7c-0.5-0.5-0.5-1.1,0-1.6c6.4-6.4,14.2-11.2,22.4-13.5c0.7-0.2,1.1,0.2,1.4,0.7l2.3,7.8
	c5-1.4,10.1-1.8,15.1-1.4l0.9-8c0-0.7,0.7-1.1,1.1-0.9c8.9,0.9,17.4,4.1,24.7,9.1c0.5,0.5,0.7,1.1,0.2,1.6l-4.6,6.6
	c4.1,3,7.8,6.6,10.5,11l6.9-4.3c0.5-0.2,1.1-0.2,1.6,0.2c4.8,7.3,7.5,15.8,8.2,24.9c0,0.2,0,0.7-0.2,0.9s-0.5,0.5-0.7,0.5l-8,0.7
	c0,3,0,5.9-0.5,8.7c-0.2,2.1-0.9,4.1-1.4,6.4l7.5,2.5c0.7,0.2,0.9,0.9,0.7,1.4c-2.5,8-7.5,15.8-14.4,21.9c-0.2,0.2-0.5,0.2-0.9,0.2
	c-0.2,0-0.7-0.2-0.7-0.5l-5.5-5.9c-3.9,3.4-8.2,5.9-13,7.8l2.7,7.5c0,0.2,0,0.7,0,0.9c-0.2,0.2-0.5,0.5-0.7,0.7
	C734.4,664.7,728.2,665.9,722,665.9z M715.4,663.1c7.8,0.9,15.5,0.2,22.8-2.3l-2.7-7.5c-0.2-0.7,0-1.1,0.7-1.4
	c5.3-1.8,10.1-4.8,14.2-8.4c0.5-0.5,1.1-0.5,1.6,0l5.5,5.9c5.7-5.7,10.1-12.3,12.6-19.2l-7.5-2.5c-0.7-0.2-0.9-0.9-0.7-1.4
	c0.9-2.5,1.4-4.8,1.8-7.1c0.5-3,0.7-6.2,0.5-9.4c0-0.7,0.5-1.1,1.1-1.1l8-0.7c-0.7-7.8-3.2-15.3-7.1-21.7l-6.9,4.3
	c-0.2,0.2-0.5,0.2-0.9,0.2c-0.2,0-0.5-0.2-0.7-0.5c-3-4.8-6.9-8.7-11.4-11.9c-0.2-0.2-0.5-0.5-0.5-0.7s0-0.7,0.2-0.9l4.6-6.6
	c-6.4-4.3-13.7-7.1-21.5-8l-0.9,8c0,0.7-0.7,1.1-1.1,0.9c-5.5-0.7-11,0-16.5,1.6c-0.7,0.2-1.1-0.2-1.4-0.7l-2.3-7.8
	c-7.3,2.3-13.9,6.4-19.6,11.9l5.7,5.7c0.2,0.2,0.2,0.5,0.2,0.9c0,0.5-0.2,0.7-0.2,0.9c-3.9,3.9-6.9,8.4-9.1,13.7
	c-0.2,0.7-0.9,0.9-1.6,0.7l-7.5-3c-2.7,6.9-3.7,14.8-3,22.8l8-0.9c0.7,0,1.1,0.5,1.4,0.9c0.7,5.7,2.5,11,5.3,15.8
	c0.2,0.2,0.2,0.7,0.2,0.9s-0.2,0.5-0.5,0.7l-7.1,4.1c3.9,6.4,9.4,12.1,16,16.4l4.3-6.9c0.2-0.5,1.1-0.7,1.6-0.5
	c4.8,3,10.1,4.8,15.5,5.7c0.7,0,1.1,0.7,0.9,1.4L715.4,663.1z"/>
<path class="st3" d="M744.9,613.8c1.4,0.7,2.7,1.4,3.7,2.5c2.3,2.3,3.7,5.5,3.4,8.7v3.4c0,0.9-0.9,1.4-1.6,0.9l-4.6-3.4
	c-0.7-0.5-1.4-0.7-2.1-0.9l-3.2-0.7c-1.8-0.5-3.9,0-5.3,1.4c-1.4,1.4-2.1,3.4-1.4,5.3l0.7,3.2c0.2,0.7,0.5,1.4,0.9,2.1l3.4,4.6
	c0.5,0.7,0,1.6-0.9,1.6h-3.4c-3.2,0-6.4-1.1-8.7-3.4c-1.1-1.1-1.8-2.3-2.5-3.7s-0.9-3-0.9-4.3l-0.2-4.1c0-1.4-0.7-2.7-1.6-3.9
	l-10.5-9.8c-0.9-0.5-1.8-0.7-2.7-0.7h-4.1c-1.6,0-3-0.2-4.6-0.9c-1.4-0.7-2.7-1.4-3.7-2.5c-2.3-2.3-3.7-5.5-3.7-8.7v-3.4
	c0-0.9,0.9-1.4,1.6-0.9l4.8,3.4c0.7,0.5,1.4,0.7,2.1,0.9l3.2,0.7c1.8,0.5,3.9-0.2,5.3-1.6c1.4-1.4,1.8-3.4,1.4-5.5l-0.9-3.2
	c-0.2-0.7-0.5-1.4-0.9-2.1l-3.4-4.6c-0.5-0.7,0-1.6,0.7-1.6h3.4c3.2-0.2,6.4,1.1,8.9,3.4c1.1,1.1,2.1,2.3,2.5,3.7
	c0.7,1.4,0.9,3,1.1,4.3l0.2,4.1c0,1.4,0.7,2.7,1.6,3.9l11.4,10.5c0.5,0.2,1.1,0.2,1.8,0.5h4.1C741.9,612.9,743.3,613.4,744.9,613.8z
	"/>
<path class="st4" d="M734.4,643.7c-3.4,0-6.9-1.4-9.4-3.9c-1.1-1.1-2.1-2.5-2.7-4.1c-0.7-1.4-1.1-3.2-1.1-4.8l-0.2-4.1
	c0-1.1-0.5-2.3-1.4-3l-10.3-9.6c-0.7-0.5-1.4-0.5-2.1-0.5h-4.1c-1.6,0-3.4-0.5-4.8-0.9c-1.6-0.7-3-1.6-4.1-2.7
	c-2.5-2.5-4.1-5.9-3.9-9.6v-3.4c0-0.9,0.5-1.6,1.1-1.8c0.7-0.5,1.6-0.2,2.3,0.2l4.8,3.4c0.5,0.2,0.9,0.7,1.6,0.7l3.2,0.7
	c1.6,0.5,3.2,0,4.3-1.1s1.6-2.7,1.1-4.3l-0.9-3.2c-0.2-0.5-0.5-1.1-0.7-1.6l-3.4-4.6c-0.5-0.7-0.7-1.6-0.2-2.3s1.1-1.1,1.8-1.4h3.4
	c3.7-0.2,7.1,1.1,9.6,3.7c1.1,1.1,2.1,2.5,2.7,4.1c0.7,1.4,1.1,3.2,1.1,4.8l0.2,4.1c0,1.1,0.5,2.3,1.4,3l11.4,10.3
	c0.5,0.2,0.7,0.2,1.1,0.2h4.1c1.6,0,3.4,0.5,4.8,1.1c1.6,0.7,3,1.6,4.1,2.7c2.5,2.5,3.9,5.9,3.9,9.6v3.4c0,0.9-0.5,1.6-1.1,1.8
	c-0.7,0.5-1.6,0.2-2.3-0.2l-4.6-3.4c-0.5-0.2-0.9-0.7-1.6-0.7l-3.2-0.7c-1.6-0.5-3.2,0-4.3,1.1s-1.6,2.7-1.1,4.3l0.7,3.2
	c0.2,0.5,0.5,1.1,0.7,1.6l3.4,4.6c0.5,0.7,0.7,1.6,0.2,2.3s-1.1,1.1-1.8,1.4h-3.4C734.6,643.7,734.6,643.7,734.4,643.7z
	 M692.6,596.7v3.4c0,3,1.1,5.9,3.2,8c0.9,0.9,2.1,1.8,3.4,2.3c1.4,0.5,2.7,0.9,4.1,0.9h4.1c1.1,0,2.3,0.5,3.2,0.9c0,0,0.2,0,0.2,0.2
	l10.5,9.8c1.1,1.1,2.1,2.7,2.1,4.6l0.2,4.1c0,1.4,0.5,2.7,0.9,3.9c0.5,1.4,1.4,2.5,2.3,3.4c2.1,2.1,5,3.2,8,3.2h3.4l-3.7-4.6
	c-0.5-0.7-0.9-1.6-1.1-2.3l-0.7-3.2c-0.7-2.3,0-4.8,1.8-6.4c1.6-1.6,4.1-2.3,6.4-1.8l3.2,0.7c0.9,0.2,1.6,0.7,2.3,1.1l4.6,3.4V625
	c0-3-1.1-5.9-3.2-8c-0.9-0.9-2.1-1.8-3.4-2.3c-1.4-0.5-2.7-0.9-4.1-0.9h-4.1c-0.7,0-1.6-0.2-2.1-0.5c-0.2,0-0.2-0.2-0.5-0.2
	l-11.4-10.5c-1.1-1.1-2.1-2.7-2.1-4.6l-0.2-4.1c0-1.4-0.5-2.7-0.9-3.9c-0.5-1.1-1.4-2.3-2.3-3.4c-2.1-2.1-5-3.2-8-3h-3.4l3.7,4.6
	c0.5,0.7,0.9,1.6,1.1,2.3l0.9,3c0.7,2.3,0,4.8-1.6,6.4c-1.6,1.6-4.1,2.5-6.4,1.8l-3.2-0.7c-0.9-0.2-1.6-0.7-2.3-1.1L692.6,596.7z"/>
<path class="st4" d="M138.7,362.9c5.9-35.3-18-68.7-53.3-74.6c-35.3-5.9-68.8,18-74.7,53.3c-5.9,35.3,18,68.7,53.3,74.6
	C99.4,422.1,132.8,398.2,138.7,362.9z"/>
<path class="st3" d="M69.5,390.7c-1.1,0.7-2.3,1.4-3.4,1.8c-1.1,0.5-2.5,0.5-3.9,0c-1.1-0.5-2.3-1.4-2.5-2.7c-0.2-0.7,0-1.4,0.2-1.8
	c-1.1,0.5-2.5,0.7-3.9,0.5s-2.5-1.4-3-2.5c0-0.2,0-0.5-0.2-0.7h-0.2c-1.6,0.2-3.2-0.5-4.1-1.8c-0.2-0.5-0.5-0.9-0.5-1.4
	c-1.6,0.5-3.7-0.2-4.6-1.6c-1.1-1.4-1.1-3.4-0.2-4.8l5.7,3.4l5,3.2l7.1,4.3l1.1,0.7L69.5,390.7z"/>
<path class="st3" d="M107.7,372.2c-1.4,3.4-3.9,4.1-3.9,4.1l-4.1,0.2v0.2c0,0,0,2.3-0.9,5.5s-4.8,3-4.8,3l-1.1-0.5
	c0,0,0.2,1.6-0.9,3.9s-4.3,2.1-4.3,2.1l-4.3-1.8c0,0-0.5,3.2-2.1,4.8c-1.6,1.8-4.3,0.9-4.3,0.9l-7.1-3.7l-7.1-3.7l-1.1-0.7l-7.1-4.3
	l-5-3.2l-5.7-3.4l-4.1-2.5v-33.3l7.8,2.3c0,0,19.6-8.2,21.9-8.4c2.3,0,16.9,1.8,16.9,1.8l3.4,3.2c-5.3-0.5-11.4-0.7-12.8-0.5
	c-2.7,0.2-16.5,8-16.5,8l-6.6,12.3c0,0,0.7,3.9,6.2,1.6s8.5-7.1,8.5-7.1l9.4-2.5l22.2,15.3l8.5,1.8
	C107.7,367.4,109,368.8,107.7,372.2z"/>
<path class="st3" d="M110.6,334.6v32.9l-2.7-0.2l-8.5-1.8l-22.2-15.3l-9.4,2.5c0,0-3,4.8-8.5,7.1c-5.3,2.3-6.2-1.6-6.2-1.6l6.6-12.3
	c0,0,13.7-7.5,16.5-8c1.6-0.2,7.5,0.2,12.8,0.5c4.6,0.2,8.5,0.7,8.5,0.7L110.6,334.6z"/>
<path class="st4" d="M96.5,377.5c-0.2,0-0.5,0-0.7-0.2l-13.7-8.4c-0.5-0.2-0.7-1.1-0.5-1.6s1.1-0.7,1.6-0.5l13.5,8.2l7.1-0.2
	c0,0,1.8-0.5,3-3.2c0.7-1.8,0.5-3,0.2-3.4l-8-1.8c-0.2,0-0.2,0-0.5-0.2L76.8,351l-8.5,2.3c-0.9,1.1-3.9,5-8.7,7.1
	c-2.3,0.9-4.1,1.1-5.5,0.2c-1.6-0.9-2.1-2.5-2.1-2.7s0-0.5,0.2-0.7l6.6-12.3c0-0.2,0.2-0.5,0.5-0.5c2.3-1.4,13.9-7.8,16.9-8
	c2.7-0.2,19.2,0.9,21.5,1.1l12.6-4.3c0.7-0.2,1.1,0,1.4,0.7c0.2,0.7,0,1.1-0.7,1.4l-13,4.8c-0.2,0-0.2,0-0.5,0
	c-5.3-0.5-19-1.4-21.2-1.1c-1.8,0.2-10.5,4.8-15.8,7.5l-6.2,11.6c0.2,0.2,0.5,0.7,0.9,0.9c0.7,0.5,2.1,0.2,3.7-0.5
	c5-2.1,7.8-6.6,8-6.6c0.2-0.2,0.5-0.5,0.7-0.5l9.4-2.5c0.2,0,0.7,0,0.9,0.2l21.9,15.1l8.2,1.8c0.2,0,0.5,0.2,0.7,0.2
	c0.2,0.2,1.8,2.1,0.2,5.9c-1.6,3.9-4.6,4.6-4.8,4.8L96.5,377.5z"/>
<path class="st4" d="M94.2,386.2c-0.2,0-0.2,0-0.2,0c-0.2,0-0.2,0-0.5,0l-13-5.9c-0.7-0.2-0.9-0.9-0.5-1.6c0.2-0.7,0.9-0.9,1.6-0.5
	l12.8,5.9c0.7,0,3-0.2,3.4-2.3c0.9-3,0.9-5.3,0.9-5.3c0-0.7,0.5-1.1,1.1-1.1c0.7,0,1.1,0.5,1.1,1.1c0,0,0,2.5-1.1,5.9
	C98.8,385.5,95.8,386.2,94.2,386.2z"/>
<path class="st4" d="M87.3,391.4c-0.2,0-0.5,0-0.5,0L70.7,385c-0.7-0.2-0.9-0.9-0.7-1.4c0.2-0.7,0.9-0.9,1.4-0.7l16,6.4
	c0.5,0,2.5-0.2,3.2-1.4c0.9-1.8,0.9-3.2,0.9-3.2c0-0.7,0.5-1.1,0.9-1.1c0.7,0,1.1,0.5,1.4,0.9c0,0.2,0.2,2.1-1.1,4.6
	C91.5,391.4,88.3,391.4,87.3,391.4z"/>
<path class="st4" d="M78,395.7c-0.9,0-1.6-0.2-1.6-0.2h-0.2l-14.4-7.3L38.5,374c-0.5-0.2-0.7-1.1-0.5-1.6s1.1-0.7,1.6-0.5l23.3,14.2
	l14.2,7.1c0.5,0,2.1,0.5,3-0.7c1.4-1.6,1.8-4.3,1.8-4.3c0.2-0.7,0.7-1.1,1.4-0.9c0.7,0,1.1,0.7,0.9,1.4c0,0.2-0.7,3.4-2.3,5.5
	C80.5,395.5,79.1,395.7,78,395.7z"/>
<path class="st4" d="M46.9,343h-0.2l-7.8-2.3c-0.7-0.2-0.9-0.9-0.7-1.4c0.2-0.7,0.9-0.9,1.4-0.7l7.5,2.1c4.1-1.6,19.6-8.2,21.9-8.4
	c2.3-0.2,15.8,1.6,17.1,1.8c0.2,0,0.5,0.2,0.7,0.2l3.4,3.2c0.5,0.5,0.5,1.1,0,1.6s-1.1,0.5-1.6,0l-3.2-3c-4.3-0.5-14.6-1.8-16.5-1.6
	c-1.4,0-12.1,4.3-21.5,8.4C47.1,343,47.1,343,46.9,343z"/>
<path class="st4" d="M110.6,368.8l-3-0.2c-0.7,0-1.1-0.7-1.1-1.1c0-0.7,0.7-1.1,1.1-1.1l2.7,0.2c0.7,0,1.1,0.7,1.1,1.1
	C111.8,368.3,111.1,368.8,110.6,368.8z"/>
<path class="st4" d="M63.8,394.1c-0.7,0-1.4,0-2.1-0.5c-1.6-0.7-3-2.1-3.2-3.7c-0.5-1.8,0.5-3.9,2.3-4.6c0.7-0.2,1.1,0,1.6,0.7
	c0.2,0.7,0,1.1-0.7,1.6c-0.7,0.2-1.1,1.1-0.9,2.1c0.2,0.9,0.9,1.6,1.8,1.8c0.9,0.2,2.1,0.2,3.2,0c1.1-0.5,2.3-1.1,3.2-1.6
	c0.5-0.5,1.1-0.2,1.6,0.2c0.5,0.5,0.2,1.1-0.2,1.6c-1.1,0.7-2.3,1.4-3.7,1.8C65.6,393.9,64.7,394.1,63.8,394.1z"/>
<path class="st4" d="M57.2,389.8c-0.5,0-0.9,0-1.6-0.2c-1.8-0.5-3.2-1.8-3.9-3.4c-0.7-1.8,0-3.9,1.6-5c0.5-0.5,1.1-0.2,1.6,0.2
	c0.5,0.5,0.2,1.1-0.2,1.6c-0.7,0.5-0.9,1.4-0.7,2.3s1.1,1.6,2.1,1.8c0.9,0.2,2.1,0,3.2-0.5c0.7-0.2,1.1,0,1.6,0.5
	c0.2,0.7,0,1.1-0.5,1.6C59.2,389.6,58.1,389.8,57.2,389.8z"/>
<path class="st4" d="M51.7,386.6c-1.8,0-3.4-0.9-4.3-2.5c-0.9-1.8-0.7-4.3,0.7-5.7c0.5-0.5,1.1-0.5,1.6,0s0.5,1.1,0,1.6
	c-0.7,0.7-0.9,2.1-0.5,3c0.5,0.9,1.8,1.6,2.7,1.4c0.7-0.2,1.1,0.2,1.4,0.9c0.2,0.7-0.2,1.1-0.9,1.4
	C52.4,386.6,52.2,386.6,51.7,386.6z"/>
<path class="st4" d="M46.7,383.4c-1.6,0-3.4-0.7-4.3-2.1c-1.4-1.8-1.4-4.3-0.2-6.2c0.5-0.5,1.1-0.7,1.6-0.2s0.7,1.1,0.2,1.6
	c-0.7,0.9-0.7,2.5,0,3.4s2.3,1.4,3.4,1.1c0.7-0.2,1.1,0.2,1.4,0.7c0.2,0.7-0.2,1.1-0.7,1.4C47.8,383.2,47.4,383.4,46.7,383.4z"/>
<path class="st2" d="M39.1,335.2v42.7L18.5,374v-42.5L39.1,335.2z"/>
<path class="st2" d="M131.2,328.2v42.5l-20.6,3.9v-42.7L131.2,328.2z"/>
<g>
	<path class="st3" d="M501.8,160.6c-1.8-0.9-3.9-1.6-5.9-1.6c0,0-4.1-0.9-8.9,0.7c0-51.6-35.9-68.3-58.3-73.8c-0.2,0-0.5,0-0.5-0.2
		c-1.4-0.2-2.5-0.7-3.7-0.9c-7.8-1.6-13.3-1.6-13.3-1.6c0.7-0.2,1.1-0.5,1.8-0.7c3-1.1,5.9-2.1,8.9-2.3c3.7-0.5,7.3-0.2,10.7,0.5
		c1.1,0.2,2.1,0.5,3.2,0.7C496.1,98.2,501.3,151.4,501.8,160.6z"/>
	<path class="st3" d="M495.9,219c0,0-4.1,0.9-8.9-0.7c-2.1-0.7-4.1-1.8-6.2-3.4c-4.6-4.1-8.5-11.6-8.5-25.6c0-5.7,0.7-10.5,1.8-14.2
		c1.1-4.3,3-7.3,4.8-9.6c2.3-2.7,5.3-4.3,7.8-5.3c4.8-1.6,8.9-0.7,8.9-0.7c-10.5,0-18.7,13.5-18.7,29.9
		C477.1,205.5,485.6,219,495.9,219z"/>
	<path class="st2" d="M514.8,189.1c0,5.7-1.1,11.2-2.7,15.8c-1.6,4.3-4.1,8-6.9,10.5c-0.9,0.9-2.1,1.6-3.2,2.3
		c-1.8,0.9-3.9,1.6-5.9,1.6c-10.5,0-18.7-13.5-18.7-29.9s8.5-29.9,18.7-29.9c2.1,0,4.1,0.5,5.9,1.6
		C509.3,164.4,514.8,175.6,514.8,189.1z"/>
	<path class="st4" d="M486.9,159.9c-2.5,0.9-5.3,2.5-7.8,5.3c-3-10.5-10.7-18.7-19.2-25.6c-8.5-6.9-17.8-12.8-25.4-21
		c-6.6-7.3-11.9-16.7-11.4-26.5c-43,8.4-50.9,37.9-51.9,42.7c0.2-1.1,0.5-2.3,0.7-3.7c-8.9-15.8-6.2-39.7,9.1-42.2
		c15.3-2.5,30.2-5.5,30.2-5.5s5.3,0,13.3,1.6c1.4,0.2,2.7,0.7,4.3,0.9C451.1,91.6,486.9,108.3,486.9,159.9z"/>
	<path class="st4" d="M511.8,204.9c1.8-4.6,2.7-10,2.7-15.8c0-13.2-5.5-24.7-13-28.5c-0.5-9.1-5.5-62.3-65.8-79
		c-0.9-0.2-2.1-0.5-3.2-0.7c-3.7-0.7-7.3-0.9-10.7-0.5v-0.2c0,0,39.8-24,74.9,9.6c3.7,3.7,7.3,7.8,11,12.8
		C544.5,153.2,513.2,202.8,511.8,204.9z"/>
	<path class="st3" d="M491.5,296.2l-0.9,67.6c-8,12.8-27.6,36.5-64,32.4c-23.5-2.7-37.2-11.9-45.2-21c4.3-42.7,8-75.8,8-75.8
		c1.6-3.2,2.7-6.6,3.7-10c0.2-0.5,0.2-1.1,0.5-1.6c60.5-0.9,74-45.7,74-45.7c-20.1,17.1-45.7,24-62.4,22.1c-2.5-0.2-5.3-1.1-7.8-2.5
		c-20.1-10.3-38.2-48.6-32-74.7c6.6-27.9,1.4-24.4,5.9-51.8c0,0,0-0.2,0.2-0.7c0.9-4.8,8.7-34.3,51.9-42.7
		c-0.2,9.8,4.8,19.2,11.4,26.5c7.3,8,16.7,13.9,25.4,21c8.5,6.9,16.2,15.1,19.2,25.6c-2.1,2.3-3.7,5.5-4.8,9.6
		c-1.1,3.7-1.8,8.4-1.8,14.2c0,14.2,3.9,21.7,8.5,25.6c2.1,1.8,4.1,3,6.2,3.4c-0.9,1.6-1.8,3.2-3,4.8c0,0-0.7,8.4-0.7,19.9
		c0,11.9,0.7,27.4,3.7,40.2C488.3,288,489.9,292.3,491.5,296.2z"/>
	<path class="st4" d="M501.8,217.4c0,0-12.8,11.4-18,25.6c0-11.4,0.7-19.9,0.7-19.9c0.9-1.6,2.1-3.2,3-4.8c4.8,1.6,8.9,0.7,8.9,0.7
		C497.9,219,500,218.3,501.8,217.4z"/>
	<path class="st4" d="M467.5,242.1c0,0-13.5,44.8-74,45.7c3.7-13.2,4.1-26,4.1-26c2.5,1.4,5,2.1,7.8,2.5
		C421.6,266.3,447.4,259.4,467.5,242.1z"/>
	<path class="st2" d="M393,289.3c-0.9,3.4-2.3,6.9-3.7,10c0,0-3.7,33.1-8,75.8c-6.2,61-13.7,141.3-14.4,173.1
		C366,602.1,347,742.5,347,742.5h-67.9c0,0,30.8-188.6,34.3-202.3c3.4-13.5-29-49.8-25.8-82.9c-23.1,9.8-70.6,29.2-98.2,36.5
		c-37.7,9.8-64-1.8-66-25.8c-2.1-24,56-183.1,56-183.1c1.6-0.5,3.4-0.7,5.5-0.7c15.3,0.2,36.3,13.5,45.5,19.4
		c2.7,1.8,4.3,3.2,4.3,3.2l-19.4,71.9c0,0,46.8-46.4,65.1-64.4c18.3-18,76.8-16.2,76.8-16.2C374.3,290.9,386.6,289.6,393,289.3z"/>
	<path class="st2" d="M720.7,514.7c-17.4,31.5-74,120.3-74,120.3s-4.8-0.7-11.4-3.7c-9.8-4.3-23.8-13.9-33.4-34.5
		c-1.4-2.7-2.5-5.5-3.7-8.7l40.2-100.5l-60.8-21.5L549,586.4c-3,0.9-5.9,2.1-8.9,3.2c-10.1,3.9-20.3,7.8-30.4,11.9
		c-3,1.1-6.4,3-6.6,6.2c0,3,3.2,5,5.9,5.5c2.7,0.5,5.7,0.2,8.5,0.9c-5,2.1-10.1,4.1-15.3,6.2c-1.4,0.7-3.2,1.4-3.4,3
		c-0.2,1.4,0.9,2.7,2.1,3.7c3.7,2.7,8.2,3.7,12.8,3.4c4.6-0.2,8.9-1.6,13.3-2.7c8-2.3,16-4.6,24-7.1c-11.9,6.6-23.5,13.2-35.4,20.1
		c-1.8,1.1-3.9,2.3-5,3.9c-1.4,1.8-1.6,4.3-0.2,5.9c1.1,1.6,3.2,1.8,5,2.1c5.7,0.7,11.9,0.2,17.4-1.4v0.2c-3.2,2.1-6.6,4.1-9.8,6.2
		c-2.1,1.4-4.6,3.2-4.1,5.7c0.2,1.6,1.6,2.7,3.2,3.2c1.6,0.5,3.2,0.2,4.8,0c12.6-1.6,24.9-5,36.6-10c7.1,14.8,30.6,66.2,32.4,86.1
		H484.4l5.7-379L491,296c-1.8-3.7-3.2-8.2-4.3-12.8c0.9,0.5,30.8,14.8,36.8,23.3c0,0,36.3-4.6,75.2,30.8
		c38.8,35.4,116.1,116.5,124.1,124.9C731.4,470.6,738.3,483.2,720.7,514.7z"/>
	<path class="st4" d="M490.6,363.8l-5.7,379H347.1c0,0,19-140.4,19.9-194.3c0.5-31.7,8.2-112.1,14.4-173.1c8,8.9,21.9,18.3,45.2,21
		C462.7,400.3,482.6,376.6,490.6,363.8z"/>
	<path class="st3" d="M262.6,232c1.6,2.1,2.3,4.8,1.8,7.3c-0.2,1.6-0.9,3-2.1,4.1c0.2,8-0.5,16-3.9,22.8
		c-3.2,6.4-8.9,11.4-13.7,16.7c-5.7,6.4-10.5,13.5-14.4,21.2c-9.1-6.2-30.2-19.4-45.5-19.4c0.9-13.5,1.8-26.9,2.5-40.2
		c0.5-6.6,0.9-13.7,3.7-19.6c2.5-5.5,7.1-10.3,13-11.4c0.9-3.7,3.2-6.9,6.4-8.9c1.8-1.1,4.1-1.8,6.4-2.1c1.8-3.7,5-6.4,8.7-7.5
		c-1.4-16-2.1-32.2-2.5-48.4c0-2.3,0-4.8,1.4-6.4c2.1-2.3,5.9-2.1,8.7-0.5c5.7,3.7,7.1,11.2,8,18c2.1,16,4.3,32,6.4,48
		c1.4-3.2,3.7-5.7,6.6-7.5c1.1-0.7,2.7-1.4,4.1-0.7c1.6,0.7,2.1,2.5,2.3,4.1c0.9,5.5,0.9,11,0.2,16.4c1.1,1.1,2.3,2.5,3.2,4.1
		c1.1,2.1,1.6,4.8,0.7,7.1C264.4,230,263.7,231.1,262.6,232z"/>
	<path class="st3" d="M635.2,631.2c-7.8,9.6-18.3,16.7-29.9,20.6c-11.2,3.7-23.1,4.1-34.5,1.6c-2.3,1.1-4.6,2.3-7.1,3.4
		c-11.7,5.3-24,8.7-36.6,10c-1.6,0.2-3.2,0.5-4.8,0s-3-1.6-3.2-3.2c-0.5-2.5,2.1-4.3,4.1-5.7c3.2-2.1,6.6-4.1,9.8-6.2v-0.2
		c-5.7,1.6-11.7,1.8-17.4,1.4c-1.8-0.2-3.9-0.7-5-2.1c-1.4-1.6-0.9-4.3,0.2-5.9c1.4-1.8,3.2-3,5-3.9c11.9-6.6,23.5-13.2,35.4-20.1
		c-8,2.3-16,4.6-24,7.1c-4.3,1.1-8.7,2.5-13.3,2.7c-4.6,0.2-9.1-0.7-12.8-3.4c-1.1-0.9-2.3-2.3-2.1-3.7c0.2-1.6,1.8-2.3,3.4-3
		c5-2.1,10.1-4.1,15.3-6.2c-2.7-0.9-5.7-0.5-8.5-0.9c-3-0.5-6.2-2.5-5.9-5.5c0-3.2,3.7-5,6.6-6.2c10.1-3.9,20.3-7.8,30.4-11.9
		c3-1.1,5.9-2.3,8.9-3.2c4.3-1.4,8.7-2.1,13-1.8c7.8,0.5,14.9,4.3,22.2,7.5c5.7,2.5,11.7,4.8,17.8,4.6
		C611.5,617.2,625.4,626.8,635.2,631.2z"/>
	<path class="st4" d="M584.3,209.9c-1.8,12.8-8.5,24.7-18.5,32.9c-11.4,9.1-27.6,12.8-41.4,7.5c-13.5-5.5-22.8-20.8-19.6-34.7
		c2.7-2.5,5.3-6.2,6.9-10.5c1.4-2.1,32.7-51.6-3.9-102.3c-3.7-5-7.3-9.1-11-12.8c7.1-3.7,15.5-4.3,23.1-1.8
		c8.9,3,16.2,10.5,18.7,19.4c2.5,8.4,1.1,17.6,3.7,25.8c2.3,8.2,8.2,15.3,14.4,21.2s13,11.6,18,18.7
		C582.7,183.6,586.1,197.1,584.3,209.9z"/>
	<path class="st4" d="M501.8,161.7c-0.2,0-0.5,0-0.5-0.2c-1.8-0.9-3.4-1.4-5.3-1.4h-0.2c0,0-3.9-0.7-8.5,0.7c-0.5,0.2-0.7,0-1.1-0.2
		c-0.2-0.2-0.5-0.5-0.5-0.9c0-51.1-35.9-67.4-57.3-72.6c0,0-0.2,0-0.5,0c-1.4-0.5-2.7-0.7-3.9-0.9c-7.5-1.6-13-1.6-13-1.6
		c-0.5,0-0.9-0.5-1.1-0.9c0-0.5,0.2-1.1,0.7-1.4c0.7-0.2,1.1-0.7,1.8-0.9c3-1.1,5.9-2.1,9.4-2.3c3.7-0.5,7.3-0.2,11.2,0.5
		c0.9,0.2,2.1,0.5,3.2,0.7c60.5,16.7,66,69.4,66.5,79.9c0,0.5-0.2,0.7-0.5,0.9C502.3,161.7,502,161.7,501.8,161.7z M496.1,158
		c1.6,0,3,0.2,4.6,0.9c-1.1-13.5-8.7-60.5-64.7-76c-1.1-0.2-2.1-0.5-3-0.7c-3.7-0.7-7.1-0.9-10.5-0.5c-2.1,0.2-4.1,0.7-5.9,1.1
		c2.3,0.2,5,0.7,8.5,1.4c1.1,0.2,2.5,0.5,3.7,0.9l0.5,0.2c21.9,5.3,58.5,21.9,59.2,73.3C492,157.4,495.4,157.8,496.1,158z"/>
	<path class="st4" d="M493.1,220.4c-1.6,0-3.9-0.2-6.4-0.9s-4.6-2.1-6.6-3.9c-5.7-5.3-8.7-14.2-8.7-26.5c0-5.5,0.7-10.5,1.8-14.6
		c1.1-4.1,3-7.5,5-10c2.3-2.5,5-4.6,8.2-5.5c5-1.8,9.4-0.9,9.6-0.9c0.7,0.2,0.9,0.7,0.9,1.1c0,0.7-0.5,0.9-1.1,0.9
		c-9.8,0-17.6,13-17.6,28.8s8,28.8,17.6,28.8c0.7,0,1.1,0.5,1.1,0.9c0,0.7-0.2,1.1-0.9,1.1C496.1,220.1,494.9,220.4,493.1,220.4z
		 M487.4,161c-3,0.9-5.5,2.7-7.3,5c-2.1,2.3-3.7,5.5-4.6,9.4c-1.1,3.9-1.6,8.4-1.6,13.9c0,11.9,2.7,20.1,8,24.9
		c1.6,1.6,3.7,2.5,5.7,3.2c-6.9-5-11.4-15.8-11.4-28.1C476,176.5,480.5,165.8,487.4,161z"/>
	<path class="st4" d="M495.9,220.1c-11,0-19.9-13.9-19.9-31.1c0-17.1,8.9-31.1,19.9-31.1c2.3,0,4.3,0.5,6.4,1.6
		c8.2,4.1,13.5,16,13.5,29.5c0,5.7-0.9,11.4-3,16.2c-1.8,4.6-4.3,8.2-7.3,11c-1.1,0.9-2.3,1.8-3.4,2.3
		C500.2,219.5,498.1,220.1,495.9,220.1z M495.9,160.3c-9.8,0-17.6,13-17.6,28.8s8,28.8,17.6,28.8c1.8,0,3.7-0.5,5.3-1.4
		c0.9-0.5,2.1-1.1,3-2.1c2.7-2.3,5-5.9,6.6-10c1.8-4.6,2.7-10,2.7-15.3c0-12.6-5-23.5-12.3-27.4
		C499.5,160.8,497.7,160.3,495.9,160.3z"/>
	<path class="st4" d="M434.9,397.8c-2.7,0-5.5-0.2-8.5-0.5c-19.9-2.3-35.4-9.4-45.9-21.2c-0.2-0.2-0.2-0.5-0.2-0.9
		c4.3-42.2,8-75.4,8-75.8c0-0.2,0-0.2,0-0.5c1.4-3,2.5-6.4,3.7-10c0.2-0.5,0.2-1.1,0.5-1.6c0.2-0.5,0.7-0.9,1.1-0.9
		c48.2-0.7,66.3-29.9,71.3-40.6c-20.3,15.8-44.8,21.2-59.6,19.4c-2.7-0.2-5.5-1.1-8.2-2.5c-19.6-10-39.1-48.6-32.7-76
		c3.7-15.1,3.7-21,3.7-27.6c0-5.5,0.2-11.6,2.3-24.2l0.2-0.7c1.1-5.7,9.6-35.2,52.8-43.4c0.2,0,0.7,0,0.9,0.2
		c0.2,0.2,0.5,0.5,0.5,0.9c-0.2,11.4,6.9,21,11.2,25.8c5,5.5,11.2,10,16.9,14.4c2.7,2.1,5.5,4.1,8.2,6.4
		c10.7,8.9,16.9,17.1,19.4,26.3c0,0.5,0,0.7-0.2,1.1c-2.1,2.3-3.7,5.5-4.6,9.1c-1.1,3.9-1.6,8.4-1.6,13.9c0,11.9,2.7,20.1,8,24.9
		c1.6,1.6,3.7,2.5,5.7,3.2c0.2,0,0.7,0.5,0.7,0.7c0.2,0.2,0,0.7,0,0.9c-0.7,1.4-1.6,3-2.7,4.6c0,1.4-0.7,9.4-0.7,19.6
		c0,11,0.7,26.7,3.7,40c1.1,4.8,2.5,9.1,4.1,12.6c0,0.2,0,0.2,0,0.5l-0.9,67.6c0,0.2,0,0.5-0.2,0.7
		C483.5,377.2,465.9,397.8,434.9,397.8z M382.5,375c10.3,11.2,25.1,18,44.3,20.1c34.7,3.9,54.1-18,62.6-31.7l0.9-67.1
		c-1.6-3.7-3-8-4.1-12.8c-3.2-13.5-3.7-29.5-3.9-40.4c0-10.5,0.5-18.5,0.7-19.9c0-0.2,0-0.5,0.2-0.7c0.9-1.4,1.6-2.5,2.3-3.7
		c-1.8-0.7-3.7-1.8-5.3-3.2c-5.7-5.3-8.7-14.2-8.7-26.5c0-5.5,0.7-10.5,1.8-14.6c1.1-3.9,2.7-7.1,4.8-9.6
		c-2.5-8.4-8.5-16.2-18.5-24.4c-2.7-2.1-5.5-4.3-8.2-6.4c-5.9-4.6-12.1-9.1-17.1-14.6c-4.3-4.8-11.7-14.2-11.9-25.8
		c-40.7,8.4-48.4,35.8-49.6,41.3v0.7c-2.1,12.3-2.1,18.3-2.1,23.7c0,6.9-0.2,12.8-3.7,28.1c-6.2,26.5,12.6,63.7,31.5,73.3
		c2.5,1.4,5,2.1,7.3,2.3c15.3,1.8,40.9-4.3,61.5-21.7c0.5-0.2,0.9-0.5,1.4,0c0.5,0.2,0.7,0.9,0.5,1.4S455,288,394.9,289.2
		c0,0.2-0.2,0.7-0.2,0.9c-1.1,3.7-2.3,7.1-3.7,10C390.1,302.6,386.6,334.5,382.5,375z"/>
	<path class="st4" d="M393.5,288.9c-0.5,0-0.7-0.2-0.9-0.5c-0.2-0.2-0.2-0.7-0.2-0.9c3.4-13,3.9-25.6,3.9-25.8
		c0-0.5,0.2-0.7,0.5-0.9c0.2-0.2,0.7-0.2,1.1,0c2.5,1.4,5,2.1,7.3,2.3c15.3,1.8,40.9-4.3,61.5-21.7c0.5-0.2,0.9-0.5,1.4,0
		c0.5,0.2,0.7,0.9,0.5,1.4C468.4,243,454.3,288,393.5,288.9z M398.5,263.5c-0.2,3.7-1.1,13.2-3.7,23.1c47.1-1.1,64.9-29.9,69.9-40.6
		c-20.3,15.8-44.8,21.2-59.6,19.4C402.9,265.1,400.6,264.4,398.5,263.5z"/>
	<path class="st4" d="M347.1,741.2c-0.7,0-1.1-0.7-1.1-1.4c0.2-1.4,19-138.4,19.9-191.6c0.5-31.5,8-111.7,14.4-173.3
		c0-0.5,0.5-0.9,0.7-0.9c0.5-0.2,0.9,0,1.1,0.2c10.3,11.4,25.1,18.3,44.6,20.6c35,4.1,54.4-18.3,62.8-32c0.2-0.5,0.7-0.7,1.4-0.5
		c0.5,0.2,0.9,0.7,0.9,1.1L486.3,736c0,0.7-0.5,1.1-1.1,1.1c-0.7,0-1.1-0.5-1.1-1.1l5.5-368.5c-9.6,14.2-29.2,33.6-62.8,29.7
		c-18.7-2.1-33.8-8.7-44.3-19.4c-6.2,61.2-13.5,139.5-14.2,170.6c-0.9,53.4-19.6,190.4-19.9,191.8
		C348.3,740.8,347.6,741.2,347.1,741.2z"/>
	<path class="st4" d="M230.1,305.3c-0.2,0-0.5,0-0.5-0.2c-0.5-0.2-0.7-0.9-0.5-1.6c3.9-7.8,8.9-15.1,14.6-21.5
		c1.1-1.1,2.3-2.5,3.4-3.7c3.7-3.9,7.8-8,10.1-12.8c3.7-7.1,3.9-15.3,3.9-22.4c0-0.2,0-0.5,0.2-0.7c0.9-1.1,1.6-2.3,1.8-3.7
		c0.5-2.3-0.2-4.6-1.6-6.4c-0.2-0.2-0.2-0.5-0.2-0.9c0-0.2,0.2-0.7,0.5-0.7c0.9-0.7,1.6-1.6,1.8-2.5c0.7-1.8,0.2-4.1-0.7-6.2
		c-0.7-1.4-1.6-2.5-3-3.9c-0.2-0.2-0.5-0.7-0.2-0.9c0.7-5.3,0.5-10.7-0.2-16c-0.2-1.4-0.7-3-1.6-3.4c-0.9-0.5-2.3,0.2-3.2,0.7
		c-2.7,1.6-4.8,4.1-6.2,7.1c-0.2,0.5-0.7,0.7-1.1,0.7s-0.9-0.5-0.9-0.9l-6.4-48c-0.9-6.6-2.3-13.7-7.5-17.1
		c-2.3-1.4-5.5-1.8-7.3,0.2c-1.1,1.4-1.1,3.4-1.1,5.7c0.5,16.2,1.1,32.4,2.5,48.2c0,0.5-0.2,0.9-0.7,1.1c-3.7,1.4-6.4,3.9-8,7.1
		c-0.2,0.5-0.5,0.7-0.9,0.7c-2.1,0.2-4.1,0.9-5.9,1.8c-3,1.8-5,4.8-5.9,8.2c0,0.5-0.5,0.7-0.9,0.9c-5,1.1-9.6,5.3-12.1,11
		c-2.7,6.2-3.2,13-3.7,19.4L186,285c0,0.7-0.7,1.1-1.1,1.1c-0.7,0-1.1-0.7-1.1-1.1l2.5-40.2c0.5-6.4,0.9-13.7,3.9-20.1
		c2.7-5.9,7.8-10.5,13-11.9c1.1-3.7,3.4-6.9,6.6-8.9c1.8-1.1,4.1-2.1,6.4-2.3c1.8-3.2,4.8-5.9,8.2-7.3c-1.1-15.5-2.1-31.5-2.5-47.5
		c0-2.5,0-5.3,1.8-7.3c2.5-3,7.1-2.5,10.3-0.5c6.2,3.9,7.5,11.6,8.5,18.7l5.9,44.5c1.4-2.1,3.2-3.7,5.3-5c2.1-1.1,3.9-1.6,5.3-0.9
		c2.1,0.9,2.5,3.2,3,5c0.9,5.5,0.9,10.7,0.5,16.2c1.4,1.4,2.3,2.7,3,4.1c1.4,2.5,1.6,5.5,0.9,7.8c-0.5,1.1-0.9,2.3-1.8,3
		c1.4,2.3,1.8,4.8,1.4,7.3c-0.2,1.6-0.9,3-2.1,4.3c0,7.3-0.5,15.5-4.1,23.1c-2.7,5-6.6,9.4-10.5,13.5c-1.1,1.1-2.3,2.3-3.4,3.7
		c-5.7,6.2-10.5,13.2-14.2,21C231.1,305.1,230.6,305.3,230.1,305.3z"/>
	<path class="st4" d="M524.6,668.2c-0.9,0-1.6,0-2.5-0.2c-2.1-0.7-3.7-2.3-4.1-4.1c-0.5-3.2,2.3-5.5,4.6-6.8l5-3.2
		c-4.1,0.7-8.2,0.7-12.3,0.2c-2.1-0.2-4.3-0.7-5.7-2.5c-1.8-2.3-1.1-5.5,0.2-7.3c1.4-2.1,3.4-3.2,5.5-4.3l26.7-15.1l-14.4,4.3
		c-4.6,1.4-8.9,2.5-13.5,2.7c-3.7,0.2-9.1-0.2-13.5-3.7c-1.8-1.4-2.7-3.2-2.5-4.8c0.5-2.3,3-3.4,4.1-3.9l11.4-4.6
		c-0.2,0-0.5,0-0.7,0c-1.1,0-2.5-0.2-3.7-0.5c-3.4-0.7-7.1-3.2-7.1-6.6c0-3.9,4.1-5.9,7.3-7.3l30.4-11.9c2.7-1.1,5.9-2.3,8.9-3.2
		c5-1.6,9.4-2.1,13.5-1.8c6.9,0.5,13.3,3.4,19.4,6.2c0.9,0.5,2.1,0.9,3,1.4c5,2.3,11,4.6,16.9,4.6c0.2,0,0.2,0,0.5,0
		c0.7,0,1.1,0.5,1.1,1.1s-0.5,1.1-1.1,1.1c-6.4,0-12.8-2.3-18.3-4.8c-1.1-0.5-2.1-0.9-3.2-1.4c-5.9-2.7-12.1-5.5-18.5-5.9
		c-3.9-0.2-7.8,0.5-12.6,1.8c-3,0.9-5.9,2.1-8.7,3.2l-30.4,11.9c-3.9,1.6-5.7,3.2-5.7,5c0,2.3,2.5,3.9,5,4.3
		c1.1,0.2,2.3,0.2,3.4,0.2c1.8,0,3.4,0.2,5.3,0.7c0.5,0.2,0.7,0.5,0.9,1.1c0,0.5-0.2,0.9-0.7,1.1l-15.3,6.2
		c-1.1,0.5-2.5,1.1-2.7,2.1c-0.2,1.1,1.1,2.3,1.6,2.5c3.9,3,8.7,3.4,12.1,3.2c4.3-0.2,8.7-1.6,12.8-2.7l24.2-7.1
		c0.5-0.2,1.1,0.2,1.4,0.7c0.2,0.5,0,1.1-0.5,1.4l-35.4,20.1c-1.8,1.1-3.7,2.1-4.8,3.7c-0.9,1.4-1.4,3.4-0.5,4.6
		c0.9,1.1,2.7,1.6,4.3,1.6c5.7,0.7,11.4,0.2,17.1-1.4c0.5-0.2,0.9,0,1.1,0.5c0.2,0.2,0.2,0.7,0.2,0.9s-0.2,0.7-0.5,0.9l-9.8,6.2
		c-2.7,1.6-3.9,3.2-3.7,4.6c0.2,1.1,1.4,2.1,2.5,2.3c1.4,0.5,2.7,0.2,4.3,0c12.6-1.6,24.7-4.8,36.3-10c2.3-1.1,4.6-2.3,7.1-3.4
		c0.2-0.2,0.5-0.2,0.9,0c11.2,2.5,23.1,2.1,34-1.6c11.4-3.7,21.7-11,29.5-20.1c0.5-0.5,1.1-0.5,1.6-0.2c0.5,0.5,0.5,1.1,0.2,1.6
		c-7.8,9.6-18.7,16.9-30.4,20.8c-11.2,3.7-23.3,4.3-34.7,1.6c-2.3,1.1-4.3,2.3-6.9,3.2c-11.7,5.3-24.2,8.7-36.8,10.3
		C526.5,668.2,525.6,668.2,524.6,668.2z"/>
	<path class="st4" d="M234.5,308.5c-0.2,0-0.5,0-0.7-0.2c-35-24.7-54.4-21.9-54.4-21.9c-0.7,0-1.1-0.2-1.4-0.9
		c0-0.7,0.2-1.1,0.9-1.4c0.9-0.2,20.1-3,56.2,22.1c0.5,0.5,0.7,1.1,0.2,1.6C235.4,308.3,234.9,308.5,234.5,308.5z"/>
	<path class="st4" d="M646.6,636h-0.2c-35.9-10.3-48.9-47-49.1-47.5c-0.2-0.7,0-1.1,0.7-1.4c0.7-0.2,1.1,0,1.4,0.7
		c0.2,0.5,12.8,36.1,47.5,45.9c0.7,0.2,0.9,0.9,0.7,1.4C647.6,635.7,647.1,636,646.6,636z"/>
	<path class="st4" d="M550.9,238.6c-3.2,0-6.2-0.5-9.1-1.4c-0.7-0.2-0.9-0.9-0.7-1.4c0.2-0.7,0.9-0.9,1.4-0.7
		c17.8,5.3,39.1-6.8,45.2-25.6c5.7-17.4-0.5-38.8-15.3-52.5c-2.3-2.1-4.8-4.1-7.3-6.2c-6.2-5-12.8-10-16.2-17.4
		c-2.3-5.3-3-11-3.4-16.4c-0.5-4.6-0.9-9.4-2.3-13.5c-3-8.9-11-16.2-20.1-18.3c-9.1-2.3-19.4,0.7-26.3,7.1c-0.5,0.5-1.1,0.5-1.6,0
		s-0.5-1.1,0-1.6c7.3-7.1,18.5-10,28.3-7.8c9.8,2.3,18.5,10,21.7,19.9c1.6,4.6,2.1,9.4,2.5,14.2c0.5,5.7,1.1,11,3.2,15.8
		c3.2,6.9,9.1,11.6,15.5,16.7c2.5,2.1,5,4.1,7.5,6.2c15.8,14.4,22.2,36.5,16,55C584.3,227,567.4,238.6,550.9,238.6z"/>
	<path class="st4" d="M287.7,458.8h-0.2c-0.7-0.2-0.9-0.7-0.9-1.4c0-0.5,10.3-39.3,23.3-67.8c0.2-0.7,0.9-0.9,1.6-0.5
		c0.7,0.2,0.9,0.9,0.5,1.6c-13,28.3-23.1,66.9-23.1,67.4C288.6,458.3,288.2,458.8,287.7,458.8z"/>
	<path class="st4" d="M196.8,444.6c-0.2,0-0.5,0-0.7-0.2c-0.5-0.5-0.5-1.1-0.2-1.6c0-0.2,10.1-12.6,12.3-28.8
		c2.3-16.7,12.6-59.4,12.6-59.8c0.2-0.7,0.7-0.9,1.4-0.9c0.7,0.2,0.9,0.7,0.9,1.4c0,0.5-10.3,43.2-12.6,59.8
		c-2.5,16.9-12.3,29.5-12.8,29.9C197.5,444.4,197,444.6,196.8,444.6z"/>
	<path class="st4" d="M213.2,444.2c-0.7,0-1.1-0.7-1.1-1.4c0.9-7.3,0.9-14.6,0.2-21.7c0-0.7,0.5-1.1,0.9-1.1c0.7,0,1.1,0.5,1.1,1.1
		c0.7,7.3,0.7,14.8-0.2,22.4C214.4,443.7,213.9,444.2,213.2,444.2z"/>
	<path class="st4" d="M286.6,452.1c-0.7,0-1.1-0.5-1.1-1.1c-0.5-15.1-0.5-30.4,0.2-45.4c0-0.7,0.7-1.1,1.1-1.1
		c0.7,0,1.1,0.5,1.1,1.1c-0.7,15.1-0.7,30.4-0.2,45.2C287.7,451.7,287.3,452.1,286.6,452.1z"/>
	<path class="st4" d="M357.6,607c-0.5,0-1.1-0.5-1.1-0.9c-9.8-80.6-30.8-153.9-31.1-154.8c-0.2-0.5,0-0.9,0.5-1.4l23.8-15.8l-24-37
		c-0.2-0.2-0.2-0.5-0.2-0.7c3-39.5,31.1-92.2,31.3-92.9c0.2-0.5,0.9-0.7,1.6-0.5c0.5,0.2,0.7,0.9,0.5,1.6
		c-0.2,0.5-27.9,52.5-31.1,91.6l24.4,37.7c0.2,0.5,0.2,1.1-0.2,1.6l-24,16c2.3,8.2,21.7,78.1,31.1,154.4
		C358.8,606.3,358.3,607,357.6,607z"/>
	<path class="st4" d="M491.5,597.8c-0.7,0-1.1-0.7-1.1-1.4c4.8-34.7,38.6-139.7,41.6-148.9l-22.2-26c-0.2-0.2-0.2-0.5-0.2-0.9
		c0-0.2,0.2-0.7,0.5-0.7l31.3-24c0.9-21-18-82.4-18.3-83.1c-0.2-0.7,0.2-1.1,0.7-1.4c0.7-0.2,1.1,0.2,1.4,0.7
		c0.7,2.5,19.6,63.5,18.3,84.5c0,0.2-0.2,0.7-0.5,0.9L512.4,421l21.7,25.6c0.2,0.2,0.2,0.7,0.2,1.1c-0.5,1.1-36.8,113-41.6,149.1
		C492.7,597.4,492.2,597.8,491.5,597.8z"/>
	<path class="st4" d="M639.1,487.1c-0.2,0-0.7-0.2-0.9-0.5c-0.5-0.5-0.5-1.1,0-1.6c7.8-7.5,16.2-14.4,25.1-20.8
		c0.5-0.5,1.1-0.2,1.6,0.2c0.5,0.5,0.2,1.1-0.2,1.6c-8.7,6.2-17.1,13-24.9,20.6C639.6,487.1,639.3,487.1,639.1,487.1z"/>
	<path class="st4" d="M640,480.7c-0.2,0-0.2,0-0.5,0c-0.7-0.2-0.9-0.9-0.7-1.6c2.7-6.2,5.9-12.1,9.4-17.8c0.5-0.5,1.1-0.7,1.6-0.5
		s0.7,1.1,0.5,1.6c-3.7,5.5-6.6,11.4-9.4,17.4C640.9,480.5,640.5,480.7,640,480.7z"/>
	<path class="st4" d="M575.1,464.2c-0.5,0-0.9-0.2-0.9-0.7l-19.6-40.4c-0.2-0.5,0-1.1,0.5-1.6c0.5-0.2,1.1,0,1.6,0.5l19.6,40.4
		c0.2,0.5,0,1.1-0.5,1.6C575.6,464,575.4,464.2,575.1,464.2z"/>
	<path class="st4" d="M652.8,618.6c-0.2,0-0.7,0-0.9-0.2c-17.1-17.1-31.3-36.8-41.6-58.7c-0.2-0.5,0-1.1,0.5-1.6
		c0.5-0.2,1.1,0,1.6,0.5c10.3,21.7,24.2,41.1,41.1,58c0.5,0.5,0.5,1.1,0,1.6C653.3,618.6,653,618.6,652.8,618.6z"/>
	<path class="st4" d="M228.8,321.1c-0.2,0-0.2,0-0.5,0c-18.5-6.8-37.7-11.2-57.3-13c-0.7,0-1.1-0.7-1.1-1.1c0-0.7,0.7-1.1,1.1-1.1
		c19.9,1.8,39.3,6.4,57.8,13.2c0.7,0.2,0.9,0.9,0.7,1.4C229.7,320.8,229.2,321.1,228.8,321.1z"/>
	<path class="st4" d="M260.8,219.5c-0.2,0-0.7-0.2-0.9-0.5c-5-5-10.3-10.5-16-14.8c-6.4-4.8-13-8-19.2-9.1c-0.7-0.2-1.1-0.7-0.9-1.4
		s0.7-1.1,1.4-0.9c6.6,1.1,13.5,4.3,20.1,9.6c5.9,4.6,11.2,9.8,16.2,15.1c0.5,0.5,0.5,1.1,0,1.6C261.2,219.2,261,219.5,260.8,219.5z
		"/>
	<path class="st4" d="M262.6,233.4c-0.2,0-0.5,0-0.7-0.2l-19.2-16.4c-4.1-3.4-8.2-6.9-12.8-9.6c-5-3-10.3-4.3-14.9-3.9
		c-0.7,0-1.1-0.5-1.1-1.1c0-0.7,0.5-1.1,1.1-1.1c5-0.2,10.5,1.1,16,4.3c4.8,2.7,9.1,6.4,13.3,9.8l19.2,16.4c0.5,0.5,0.5,1.1,0.2,1.6
		C263.3,233.2,262.8,233.4,262.6,233.4z"/>
	<path class="st4" d="M203.4,253.7c-0.5,0-0.9-0.2-0.9-0.7c-0.2-0.5,0-1.1,0.5-1.6c4.8-2.3,8.7-6.2,11-11c0.2-0.2,0.5-0.5,0.7-0.7
		c0.2,0,0.7,0,0.9,0c5.3,2.7,11,5.5,16.7,7.3c6.4,2.1,12.3,2.3,17.6,1.1c1.4-0.2,3.2-0.9,3.4-2.3c0.5-1.1-0.7-2.7-3-4.6l-27.2-20.3
		c-2.7-2.1-5.5-4.1-8.7-5.5c-3.4-1.4-6.9-1.8-9.6-0.9c-0.7,0.2-1.1-0.2-1.4-0.7c-0.2-0.7,0.2-1.1,0.7-1.4c3.2-1.1,7.3-0.7,11.2,0.9
		c3.4,1.4,6.4,3.7,9.1,5.7l27.2,20.3c1.1,0.9,4.8,3.7,3.7,6.8c-0.5,1.8-2.3,3.2-5.3,3.9c-5.7,1.4-11.9,0.9-18.7-1.1
		c-5.7-1.8-11-4.3-16-6.9c-2.5,4.8-6.6,8.7-11.4,11C203.9,253.7,203.6,253.7,203.4,253.7z"/>
	<path class="st4" d="M255,244.6c-0.2,0-0.5,0-0.7,0c-0.7,0-1.1-0.5-1.1-1.1s0.5-1.1,1.1-1.1c2.7,0,5.5-0.5,8.2-1.6
		c0.7-0.2,1.1,0,1.6,0.7c0.2,0.7,0,1.1-0.7,1.6C261,244.1,258,244.6,255,244.6z"/>
	<path class="st4" d="M238.1,265.8c-0.7,0-1.1-0.5-1.1-1.1c0.2-5-1.1-10.3-3.4-14.8c-0.2-0.5,0-1.1,0.5-1.6c0.5-0.2,1.1,0,1.6,0.5
		c2.5,4.8,3.9,10.3,3.7,15.8C239.3,265.1,238.8,265.8,238.1,265.8z"/>
	<path class="st4" d="M532.6,653.1c-0.5,0-0.7-0.2-0.9-0.5c-0.5-0.5-0.2-1.1,0.2-1.6c9.8-6.6,20.6-11.9,32-15.1
		c0.7-0.2,1.1,0.2,1.4,0.7c0.2,0.7-0.2,1.1-0.7,1.4c-11.2,3.2-21.7,8.2-31.3,14.8C533.1,653.1,532.9,653.1,532.6,653.1z"/>
	<path class="st4" d="M551.4,622c-0.5,0-0.7-0.2-0.9-0.7s-0.2-1.1,0.5-1.6c2.5-1.4,5-2.5,7.5-3.4c0.7-0.2,1.1,0,1.4,0.7
		c0.2,0.7,0,1.1-0.7,1.4c-2.5,0.9-4.8,2.1-7.1,3.2C551.8,622,551.6,622,551.4,622z"/>
	<path class="st4" d="M517.3,615.4c-0.5,0-0.9-0.2-1.1-0.7c-0.2-0.7,0-1.1,0.7-1.6l37.7-16c0.7-0.2,1.1,0,1.6,0.7
		c0.2,0.7,0,1.1-0.7,1.6l-37.7,16C517.6,615.4,517.3,615.4,517.3,615.4z"/>
	<path class="st4" d="M430.7,172c0,5,3,8.9,6.9,8.9c3.7,0,6.9-4.1,6.9-8.9c0-5-3-8.9-6.9-8.9C433.9,163.1,430.7,167.2,430.7,172z"/>
	<path class="st4" d="M374.1,172c0,5,3,8.9,6.9,8.9c3.7,0,6.9-4.1,6.9-8.9c0-5-3-8.9-6.9-8.9S374.1,167.2,374.1,172z"/>
	<path class="st4" d="M449,161.5c-0.2,0-0.5,0-0.7-0.2c-4.8-3.7-11.2-5.7-17.4-5.7c-0.7,0-1.1-0.5-1.1-1.1s0.5-1.1,1.1-1.1
		c6.9-0.2,13.5,2.1,18.7,6.2c0.5,0.5,0.7,1.1,0.2,1.6C449.7,161.2,449.2,161.5,449,161.5z"/>
	<path class="st4" d="M369.1,160.1c-0.2,0-0.5,0-0.7-0.2c-0.5-0.5-0.5-1.1,0-1.6c4.6-4.8,11.7-7.5,18.3-6.8c0.7,0,1.1,0.7,0.9,1.1
		c0,0.7-0.7,1.1-1.1,0.9c-5.9-0.7-12.3,1.8-16.5,6.2C369.7,160.1,369.5,160.1,369.1,160.1z"/>
	<path class="st4" d="M407.2,217.2c-6.6-1.1-12.6-5-16.2-10.5c-1.6-2.5-2.3-4.6-1.8-6.6c0.5-2.1,2.1-3.7,3.4-4.8l0.2-0.2
		c8-7.8,12.6-19.2,11.9-30.6c0-0.7,0.5-1.1,1.1-1.1s1.1,0.5,1.1,1.1c0.7,11.9-4.1,24-12.6,32.2l-0.2,0.2c-1.1,1.1-2.5,2.3-2.7,3.7
		s0.2,3,1.4,4.8c3.2,4.8,8.7,8.4,14.4,9.6c0.7,0,1.1,0.7,0.9,1.4C408.1,216.7,407.7,217.2,407.2,217.2z"/>
	<path class="st5" d="M441.7,198c0,7.3,5.9,13.2,13.3,13.2c7.3,0,13.3-5.9,13.3-13.2s-5.9-13.2-13.3-13.2S441.7,190.7,441.7,198z"/>
	<path class="st4" d="M415.4,241.2c-2.7,0-5-0.7-7.1-1.8c-2.5-1.4-4.1-3.9-4.3-6.4c-0.2-2.7,1.1-5.9,3.4-8s5-3,7.5-3.9l2.7-0.9
		c0.5-0.2,1.1-0.7,1.6-0.9l0.7-0.5c2.1-1.4,4.3-3,7.1-3c3.7,0,7.3,3.4,7.8,7.5c0.5,3.4-0.7,7.1-3.4,10.3c-3.9,4.6-9.6,7.5-15.8,7.5
		h-0.2V241.2z M418.4,222.4l-2.7,0.9c-2.3,0.7-4.8,1.8-6.6,3.4c-1.8,1.6-3,3.9-2.7,5.9c0.2,1.8,1.4,3.7,3.2,4.8
		c1.6,0.9,3.9,1.4,6.2,1.4c5.3,0,10.5-2.5,13.9-6.6c2.3-2.7,3.4-5.9,3-8.4c-0.5-2.7-2.7-5.5-5.7-5.5c-2.1,0-3.9,1.4-5.7,2.5
		l-0.7,0.5c-0.7,0.5-1.1,0.7-1.8,1.1C418.6,222.2,418.6,222.2,418.4,222.4z"/>
	<path class="st4" d="M449.5,230.7c-1.4,0-2.7,0-4.1-0.2c-0.7,0-1.1-0.7-0.9-1.1c0-0.7,0.7-1.1,1.1-0.9c12.8,1.4,26-4.1,34.3-13.9
		c0.5-0.5,1.1-0.5,1.6-0.2c0.5,0.5,0.5,1.1,0.2,1.6C473.7,225.2,461.8,230.7,449.5,230.7z"/>
	<path class="st2" d="M453.4,227c0,1.8-0.7,3.7-2.1,4.8c-1.1,1.1-3,2.1-4.8,2.1h-13.3c-3.7,0-6.9-3-6.9-6.9c0-1.8,0.7-3.7,2.1-4.8
		c1.1-1.1,3-2.1,4.8-2.1h13.3C450.4,220.4,453.4,223.3,453.4,227z"/>
</g>
</svg>
